<?xml version="1.0" standalone="no"?>
<!DOCTYPE svg PUBLIC "-//W3C//DTD SVG 1.1//EN" "http://www.w3.org/Graphics/SVG/1.1/DTD/svg11.dtd" >
<svg xmlns="http://www.w3.org/2000/svg" xmlns:xlink="http://www.w3.org/1999/xlink" version="1.1">
<metadata>
Created by FontForge 20170731 at Mon Dec 24 14:13:01 2018
 By Aleksey,,,
Copyright 2017 IBM Corp. and Information Architects Inc. All rights reserved.
</metadata>
<defs>
<font id="iAWriterQuattroS-BoldItalic" horiz-adv-x="600" >
  <font-face 
    font-family="iA Writer Quattro S"
    font-weight="400"
    font-style="italic"
    font-stretch="normal"
    units-per-em="1000"
    panose-1="0 0 5 0 0 0 0 0 0 0"
    ascent="780"
    descent="-220"
    x-height="516"
    cap-height="698"
    bbox="-256 -269 1178 1149"
    underline-thickness="100"
    underline-position="-200"
    slope="-9.5"
    unicode-range="U+0020-FB02"
  />
<missing-glyph 
d="M32 780h536v-780h-536v780zM468 100v580h-336v-580h336z" />
    <glyph glyph-name=".notdef" 
d="M32 780h536v-780h-536v780zM468 100v580h-336v-580h336z" />
    <glyph glyph-name=".null" horiz-adv-x="0" 
 />
    <glyph glyph-name="nonmarkingreturn" horiz-adv-x="333" 
 />
    <glyph glyph-name="space" unicode=" " 
 />
    <glyph glyph-name="exclam" unicode="!" horiz-adv-x="608" 
d="M273 243l-12 252l33 203h161l-34 -203l-96 -252h-52zM378 178l-30 -178h-185l30 178h185z" />
    <glyph glyph-name="quotedbl" unicode="&#x22;" 
d="M150 415l54 325h130l-54 -325h-130zM374 415l54 325h130l-54 -325h-130z" />
    <glyph glyph-name="numbersign" unicode="#" 
d="M486 395l-31 -92h107l-18 -108h-126l-67 -195h-115l67 195h-79l-67 -195h-115l67 195h-110l18 108h129l31 92h-107l18 108h126l67 195h115l-67 -195h79l67 195h115l-67 -195h110l-18 -108h-129zM371 395h-79l-31 -92h79z" />
    <glyph glyph-name="dollar" unicode="$" 
d="M210 -7q-66 9 -116.5 36t-75.5 69l90 92q22 -31 56.5 -51t74.5 -28l32 190l-20 6q-161 47 -161 178q0 94 64 154t175 69l17 103h112l-18 -109q49 -10 88.5 -34t62.5 -57l-92 -90q-35 47 -89 61l-29 -174l14 -4q80 -25 123.5 -67t43.5 -110q0 -99 -63.5 -162.5
t-177.5 -74.5l-17 -103h-112zM246 461q14 -14 48 -25l24 148q-43 -8 -64.5 -30t-21.5 -53q0 -26 14 -40zM404.5 248.5q-14.5 14.5 -46.5 26.5l-26 -162q87 19 87 98q0 23 -14.5 37.5z" />
    <glyph glyph-name="percent" unicode="%" horiz-adv-x="900" 
d="M113.5 355q-41.5 41 -41.5 120q0 70 28.5 123.5t75.5 82.5t99 29q72 0 113.5 -41t41.5 -120q0 -70 -28.5 -123.5t-75.5 -82.5t-99 -29q-72 0 -113.5 41zM688 698h124l-564 -698h-124zM272.5 419q14.5 21 23.5 67l10 50q5 25 5 40q0 24 -11 37t-31 13q-25 0 -39.5 -21
t-23.5 -67l-10 -50q-5 -25 -5 -40q0 -24 11 -37t31 -13q25 0 39.5 21zM547.5 29q-41.5 41 -41.5 120q0 70 28.5 123.5t75.5 82.5t99 29q72 0 113.5 -41t41.5 -120q0 -69 -28.5 -123t-75.5 -83t-99 -29q-72 0 -113.5 41zM706.5 93q14.5 21 23.5 67l10 50q5 25 5 40
q0 24 -11 37t-31 13q-25 0 -39.5 -21t-23.5 -67l-10 -50q-5 -25 -5 -40q0 -24 11 -37t31 -13q25 0 39.5 21z" />
    <glyph glyph-name="ampersand" unicode="&#x26;" 
d="M49 35.5q-39 47.5 -39 135.5q0 97 46.5 159.5t143.5 68.5q-25 77 -25 132q0 51 24 91.5t70 64t110 23.5q80 0 128.5 -48t48.5 -127q0 -83 -51.5 -138.5t-144.5 -72.5l72 -201l17 -4l68 95l82 -59l-48 -81q-28 -48 -57 -67t-70 -19q-89 0 -126 149h-6q-8 -67 -43.5 -108
t-95.5 -41q-65 0 -104 47.5zM320.5 584.5q-15.5 -21.5 -15.5 -54.5q0 -31 7 -62t22 -72l3 -9q40 15 60 37.5t26 58.5q5 30 5 59q0 27 -16.5 45.5t-43.5 18.5q-32 0 -47.5 -21.5zM247 125q17 10 30 44l-57 169q-36 -11 -49 -35t-16 -61q-3 -32 -3 -59q0 -31 15 -49.5
t40 -18.5q23 0 40 10z" />
    <glyph glyph-name="quotesingle" unicode="'" 
d="M262 415l54 325h130l-54 -325h-130z" />
    <glyph glyph-name="parenleft" unicode="(" 
d="M208 446.5q38 100.5 102.5 181t142.5 132.5h143q-113 -80 -189.5 -181t-94.5 -209l-16 -95q-5 -30 -5 -62q0 -93 45.5 -189t110.5 -161h-131q-64 62 -105 162.5t-41 213.5q0 107 38 207.5z" />
    <glyph glyph-name="parenright" unicode=")" 
d="M414 176.5q-38 -100.5 -102.5 -181t-142.5 -132.5h-143q113 80 189.5 181t94.5 209l16 95q5 30 5 62q0 93 -45.5 189t-110.5 161h131q64 -62 105 -162.5t41 -213.5q0 -107 -38 -207.5z" />
    <glyph glyph-name="asterisk" unicode="*" 
d="M157 40l-96 69l137 150l-158 61l55 111l158 -61l30 178h126l-30 -178l178 61l21 -114l-181 -65l88 -143l-109 -69l-88 150z" />
    <glyph glyph-name="plus" unicode="+" 
d="M205 62l31 185h-175l20 116h174l31 185h126l-31 -185h176l-20 -116h-175l-31 -185h-126z" />
    <glyph glyph-name="comma" unicode="," 
d="M211 173h187l-183 -324h-113z" />
    <glyph glyph-name="hyphen" unicode="-" 
d="M139 235l23 140h317l-23 -140h-317z" />
    <glyph glyph-name="period" unicode="." 
d="M377 178l-30 -178h-185l30 178h185z" />
    <glyph glyph-name="slash" unicode="/" 
d="M1 -138l464 898h134l-464 -898h-134z" />
    <glyph glyph-name="zero" unicode="0" 
d="M96 58q-60 70 -60 198q0 121 33.5 224t104 166.5t176.5 63.5q123 0 182.5 -69.5t59.5 -198.5q0 -121 -33.5 -224t-104 -166.5t-176.5 -63.5q-122 0 -182 70zM373.5 146.5q30.5 43.5 45.5 135.5l21 127q7 42 7 74q0 54 -24 83t-73 29q-65 0 -95.5 -43.5t-45.5 -135.5
l-21 -127q-7 -42 -7 -74q0 -54 24 -83t73 -29q65 0 95.5 43.5zM263.5 301.5q-14.5 11.5 -14.5 30.5q0 10 3 28q8 48 69 48q29 0 43.5 -11.5t14.5 -30.5q0 -10 -3 -28q-8 -48 -69 -48q-29 0 -43.5 11.5z" />
    <glyph glyph-name="one" unicode="1" 
d="M47 0l20 120h187l78 469h-9l-169 -186l-88 75l200 220h232l-96 -578h149l-20 -120h-484z" />
    <glyph glyph-name="two" unicode="2" 
d="M512 0h-500l22 136l253 187q66 49 96 85.5t37 76.5q2 12 2 26q0 32 -22 51.5t-62 19.5q-84 0 -126 -99l-128 50q38 81 104 129t162 48q108 0 169 -53t61 -142q0 -57 -25.5 -102t-69.5 -83.5t-126 -97.5l-150 -108h324z" />
    <glyph glyph-name="three" unicode="3" 
d="M294 422q57 0 87.5 19.5t35.5 49.5q3 18 3 27q0 33 -25 52t-67 19q-89 0 -150 -82l-82 92q51 54 111 82.5t147 28.5q103 0 164.5 -45t61.5 -121q0 -68 -43.5 -114t-120.5 -63l-1 -5q57 -10 90.5 -48t33.5 -99q0 -66 -33 -117.5t-97 -80.5t-154 -29q-98 0 -157 37t-86 97
l106 77q20 -43 53.5 -66.5t89.5 -23.5q52 0 82.5 22.5t37.5 63.5q2 12 2 26q0 36 -27.5 56.5t-74.5 20.5h-75l21 124h67z" />
    <glyph glyph-name="four" unicode="4" 
d="M298 0l22 134h-314l22 130l351 434h179l-75 -449h89l-19 -115h-89l-22 -134h-144zM151 249h188l47 281h-8z" />
    <glyph glyph-name="five" unicode="5" 
d="M571 569h-323l-52 -223h8q33 57 70 83.5t99 26.5q84 0 137 -52t53 -142q0 -71 -34 -133.5t-100.5 -101.5t-160.5 -39q-104 0 -162.5 37.5t-87.5 98.5l117 75q17 -41 51 -65.5t85 -24.5q54 0 86.5 28t40.5 75q3 18 3 40q0 40 -25 62t-70 22q-62 0 -118 -49l-118 16l92 395
h431z" />
    <glyph glyph-name="six" unicode="6" 
d="M98 51q-62 63 -62 173q0 97 44.5 187.5t117.5 164t159 122.5h211q-151 -93 -236.5 -173.5t-122.5 -176.5l8 -3q32 48 71.5 76.5t100.5 28.5q81 0 128.5 -52.5t47.5 -139.5q0 -73 -34.5 -134.5t-100 -98.5t-156.5 -37q-114 0 -176 63zM367 131q32 27 40 76q3 18 3 33
q0 48 -25.5 72t-73.5 24q-50 0 -82 -27t-40 -76q-3 -18 -3 -33q0 -48 25.5 -72t73.5 -24q50 0 82 27z" />
    <glyph glyph-name="seven" unicode="7" 
d="M110 0l336 577h-225l-21 -127h-126l41 248h502l-22 -129l-325 -569h-160z" />
    <glyph glyph-name="eight" unicode="8" 
d="M88 36.5q-64 48.5 -64 129.5q0 73 45 125t124 70l1 7q-45 18 -69.5 52.5t-24.5 85.5q0 52 29.5 98.5t89.5 76t148 29.5q107 0 164 -45.5t57 -121.5q0 -61 -38 -106.5t-107 -69.5l-1 -7q53 -15 83.5 -53.5t30.5 -93.5q0 -57 -33 -108.5t-98 -84t-156 -32.5
q-117 0 -181 48.5zM405.5 433q28.5 22 35.5 63q3 18 3 31q0 33 -23.5 51t-68.5 18q-48 0 -76.5 -22t-35.5 -63q-3 -18 -3 -31q0 -33 23.5 -51t68.5 -18q48 0 76.5 22zM359 126q31 24 38 66q3 18 3 35q0 35 -25 55t-72 20q-53 0 -84 -24t-38 -66q-3 -18 -3 -35q0 -35 25 -55
t72 -20q53 0 84 24z" />
    <glyph glyph-name="nine" unicode="9" 
d="M547.5 286.5q-44.5 -90.5 -117.5 -164t-159 -122.5h-211q151 93 236.5 173.5t122.5 176.5l-8 3q-32 -48 -71.5 -76.5t-100.5 -28.5q-81 0 -128.5 52.5t-47.5 139.5q0 73 34.5 134.5t100 98.5t156.5 37q114 0 176 -63t62 -173q0 -97 -44.5 -187.5zM399 389q32 27 40 76
q3 18 3 33q0 48 -25.5 72t-73.5 24q-50 0 -82 -27t-40 -76q-3 -18 -3 -33q0 -48 25.5 -72t73.5 -24q50 0 82 27z" />
    <glyph glyph-name="colon" unicode=":" 
d="M377 178l-30 -178h-185l30 178h185zM432 519l-30 -178h-185l30 178h185z" />
    <glyph glyph-name="semicolon" unicode=";" 
d="M211 173h187l-183 -324h-113zM452 519l-30 -178h-185l30 178h185z" />
    <glyph glyph-name="less" unicode="&#x3c;" 
d="M81 237l23 138l468 229l-24 -143l-323 -157l-1 -8l271 -158l-22 -131z" />
    <glyph glyph-name="equal" unicode="=" 
d="M80 362l20 116h476l-20 -116h-476zM42 132l20 116h476l-20 -116h-476z" />
    <glyph glyph-name="greater" unicode="&#x3e;" 
d="M69 151l324 157l1 8l-272 157l22 131l393 -229l-23 -138l-469 -231z" />
    <glyph glyph-name="question" unicode="?" 
d="M198 234l25 152q87 4 131 27.5t53 76.5q2 12 2 28q0 33 -23 50.5t-58 17.5q-37 0 -64.5 -22.5t-43.5 -61.5l-114 53q29 69 90 112t154 43q100 0 158 -50t58 -136q0 -60 -28 -106.5t-75.5 -75t-106.5 -37.5l-12 -71h-146zM357 178l-30 -178h-185l30 178h185z" />
    <glyph glyph-name="at" unicode="@" horiz-adv-x="900" 
d="M211.5 -79q-73.5 42 -113 117t-39.5 173q0 54 11 109q23 115 86 203t157.5 137t209.5 49q91 0 166 -38.5t118.5 -110.5t43.5 -167q0 -39 -8 -79q-13 -65 -46 -118t-80 -83.5t-99 -30.5q-53 0 -82.5 22.5t-29.5 59.5v11h-5q-13 -38 -44.5 -64.5t-73.5 -26.5
q-62 0 -96.5 38t-34.5 111q0 32 7 66q19 95 70.5 147t114.5 52q79 0 97 -67h4l12 58h110l-52 -262q-3 -16 -3 -26q0 -16 8 -24.5t23 -8.5q34 0 61.5 36.5t42.5 111.5l6 30q6 30 6 62q0 67 -32.5 116t-89 74.5t-128.5 25.5q-84 0 -154 -36.5t-118 -102.5t-65 -153l-8 -40
q-10 -50 -10 -83q0 -113 67 -179t180 -66h189l-17 -85h-189q-99 0 -172.5 42zM478.5 197q24.5 23 29.5 48l20 100q1 4 1 11q0 23 -18.5 37.5t-46.5 14.5q-67 0 -83 -84l-14 -70q-2 -10 -2 -21q0 -59 59 -59q30 0 54.5 23z" />
    <glyph glyph-name="A" unicode="A" 
d="M400 0l-17 169h-196l-69 -169h-155l307 698h206l76 -698h-152zM356 553h-9l-110 -264h140z" />
    <glyph glyph-name="B" unicode="B" 
d="M152 698h237q89 0 138 -43.5t49 -117.5q0 -146 -145 -182l-1 -5q55 -11 84.5 -44.5t29.5 -88.5q0 -65 -29 -114t-83 -76t-127 -27h-270zM304 402q55 0 81.5 16.5t33.5 59.5l4 24q3 18 3 31q0 33 -21 47t-62 14h-64l-32 -192h57zM273 104q51 0 79.5 18t35.5 57l4 24
q5 30 5 35q0 34 -20 49.5t-65 15.5h-82l-33 -199h76z" />
    <glyph glyph-name="C" unicode="C" 
d="M109.5 57q-59.5 69 -59.5 197q0 135 39.5 238t113 160.5t170.5 57.5q112 0 168.5 -55t62.5 -150l-143 -29q-3 56 -23.5 85t-70.5 29q-59 0 -93 -47t-49 -135l-18 -109q-8 -48 -8 -78q0 -113 101 -113q83 0 132 119l127 -38q-43 -101 -106.5 -151t-162.5 -50
q-121 0 -180.5 69z" />
    <glyph glyph-name="D" unicode="D" 
d="M142 698h205q117 0 179 -66.5t62 -190.5q0 -138 -39 -237t-114.5 -151.5t-182.5 -52.5h-227zM255 117q67 0 105.5 38.5t51.5 119.5l21 126q6 36 6 68q0 57 -26 84.5t-79 27.5h-65l-77 -464h63z" />
    <glyph glyph-name="E" unicode="E" 
d="M38 0l117 698h446l-20 -122h-300l-27 -162h286l-20 -122h-287l-28 -170h299l-20 -122h-446z" />
    <glyph glyph-name="F" unicode="F" 
d="M38 0l117 698h462l-20 -122h-316l-27 -162h282l-20 -122h-282l-49 -292h-147z" />
    <glyph glyph-name="G" unicode="G" 
d="M390 101h-9q-32 -57 -64 -85t-87 -28q-87 0 -136 66.5t-49 190.5q0 135 36.5 240t109.5 165t177 60t159 -55.5t62 -150.5l-143 -28q-4 53 -24 83.5t-67 30.5q-104 0 -134 -177l-17 -102q-8 -48 -8 -87q0 -54 23 -85t70 -31q50 0 81.5 31.5t39.5 79.5l8 48h-123l17 105
h254l-62 -372h-131z" />
    <glyph glyph-name="H" unicode="H" 
d="M397 293h-180l-49 -293h-148l116 698h148l-47 -284h180l47 284h148l-116 -698h-148z" />
    <glyph glyph-name="I" unicode="I" horiz-adv-x="300" 
d="M34 0l116 698h148l-116 -698h-148z" />
    <glyph glyph-name="J" unicode="J" 
d="M583 698l-83 -496q-18 -106 -82.5 -160t-174.5 -54q-102 0 -157 53t-57 144l139 26q2 -49 21.5 -76t64.5 -27q40 0 65.5 24.5t33.5 73.5l62 370h-234l20 122h382z" />
    <glyph glyph-name="K" unicode="K" 
d="M289 282l-82 -91l-32 -191h-148l116 698h148l-50 -299h8l244 299h174l-260 -310l155 -388h-164z" />
    <glyph glyph-name="L" unicode="L" 
d="M51 0l116 698h148l-96 -576h302l-20 -122h-450z" />
    <glyph glyph-name="M" unicode="M" horiz-adv-x="900" 
d="M692 461l-106 -134l-165 -212l-84 227l-49 121h-5l-93 -463h-138l140 698h152l121 -332h4l253 332h161l-140 -698h-138l93 461h-6z" />
    <glyph glyph-name="N" unicode="N" 
d="M237 468h-10l-78 -468h-129l116 698h178l81 -468h10l78 468h129l-116 -698h-178z" />
    <glyph glyph-name="O" unicode="O" 
d="M96 56.5q-60 68.5 -60 194.5q0 125 33 229t103.5 167t176.5 63q123 0 183 -68.5t60 -194.5q0 -125 -33 -229t-103.5 -167t-176.5 -63q-123 0 -183 68.5zM369.5 152.5q30.5 44.5 45.5 135.5l20 120q6 36 6 72q0 53 -23 81.5t-69 28.5q-60 0 -90.5 -44.5t-45.5 -135.5
l-20 -120q-6 -36 -6 -72q0 -53 23 -81.5t69 -28.5q60 0 90.5 44.5z" />
    <glyph glyph-name="P" unicode="P" 
d="M37 0l117 698h252q91 0 140.5 -51t49.5 -134q0 -79 -30.5 -137t-87 -89t-131.5 -31h-119l-43 -256h-148zM248 376h78q51 0 76.5 19t32.5 64l5 30q2 12 2 27q0 34 -19 48.5t-63 14.5h-78z" />
    <glyph glyph-name="Q" unicode="Q" 
d="M349.5 -189.5q-22.5 15.5 -41.5 43.5l-93 140q-91 17 -135 83t-44 174q0 125 33 229t103.5 167t176.5 63q123 0 183 -68.5t60 -194.5q0 -168 -58.5 -292t-176.5 -157l54 -82l16 -4l85 84l76 -69l-48 -53q-43 -47 -71 -63t-63 -16q-34 0 -56.5 15.5zM369.5 152.5
q30.5 44.5 45.5 135.5l20 120q6 36 6 72q0 53 -23 81.5t-69 28.5q-60 0 -90.5 -44.5t-45.5 -135.5l-20 -120q-6 -36 -6 -72q0 -53 23 -81.5t69 -28.5q60 0 90.5 44.5z" />
    <glyph glyph-name="R" unicode="R" 
d="M181 0h-146l117 698h252q91 0 140.5 -50.5t49.5 -135.5q0 -91 -44 -153t-123 -84l95 -275h-156l-77 260h-64zM324 376q54 0 78 18t31 62l4 24q3 18 3 33q0 66 -79 66h-83l-34 -203h80z" />
    <glyph glyph-name="S" unicode="S" 
d="M112 16.5q-69 28.5 -100 78.5l93 94q30 -38 76.5 -58.5t95.5 -20.5q56 0 86 27t30 76q0 34 -19 51t-62 27l-69 16q-73 17 -109 62.5t-36 112.5q0 69 32.5 120.5t93.5 79.5t143 28q75 0 136 -26t91 -72l-97 -89q-23 32 -58 49.5t-79 17.5q-54 0 -81.5 -24.5t-27.5 -67.5
q0 -30 18.5 -46t65.5 -28l66 -17q74 -19 110 -62.5t36 -114.5q0 -72 -33 -126.5t-96 -85t-150 -30.5t-156 28.5z" />
    <glyph glyph-name="T" unicode="T" 
d="M427 576l-96 -576h-148l96 576h-202l20 122h552l-20 -122h-202z" />
    <glyph glyph-name="U" unicode="U" 
d="M275 698l-73 -438q-8 -48 -8 -74q0 -39 19.5 -58.5t63.5 -19.5q43 0 66 17t34 47t20 83l74 443h147l-71 -426q-17 -103 -43.5 -162.5t-81.5 -90.5t-153 -31q-119 0 -169.5 48.5t-50.5 139.5q0 49 11 115l68 407h147z" />
    <glyph glyph-name="V" unicode="V" 
d="M152 0l-67 698h158l24 -351l9 -205h9l78 205l136 351h162l-298 -698h-211z" />
    <glyph glyph-name="W" unicode="W" horiz-adv-x="900" 
d="M93 698h143l-4 -279l-11 -275h10l97 257l126 297h159l7 -282l-7 -282h10l87 250l118 314h146l-291 -698h-168l-8 291v245h-9l-89 -224l-130 -312h-172z" />
    <glyph glyph-name="X" unicode="X" 
d="M550 0h-165l-49 139l-34 110h-9l-66 -110l-97 -139h-163l256 361l-129 337h166l39 -111l33 -112h8l70 112l78 111h162l-237 -339z" />
    <glyph glyph-name="Y" unicode="Y" 
d="M184 0l41 246l-147 452h158l49 -164l31 -137h9l78 137l100 164h165l-295 -449l-41 -249h-148z" />
    <glyph glyph-name="Z" unicode="Z" 
d="M507 0h-499l22 130l387 446h-304l20 122h479l-21 -130l-387 -446h323z" />
    <glyph glyph-name="bracketleft" unicode="[" 
d="M118 -138l150 898h320l-16 -98h-203l-117 -702h203l-17 -98h-320z" />
    <glyph glyph-name="backslash" unicode="\" 
d="M330 -138l-169 898h119l169 -898h-119z" />
    <glyph glyph-name="bracketright" unicode="]" 
d="M501 760l-150 -898h-320l16 98h203l117 702h-203l17 98h320z" />
    <glyph glyph-name="asciicircum" unicode="^" 
d="M459 256l-106 306h-11l-198 -310l-110 52l255 394h156l133 -394z" />
    <glyph glyph-name="underscore" unicode="_" 
d="M-12 -191l20 119h475l-20 -119h-475z" />
    <glyph glyph-name="grave" unicode="`" 
d="M179 747l124 59l77 -196l-87 -39z" />
    <glyph glyph-name="a" unicode="a" 
d="M347 0l20 123h-5q-33 -66 -72.5 -100.5t-100.5 -34.5q-151 0 -151 200q0 102 29.5 179t83 119t124.5 42q59 0 91 -27.5t44 -80.5h7l16 96h146l-86 -516h-146zM341 150q39 46 47 97l14 83q2 14 2 20q0 31 -20.5 48t-61.5 17q-53 0 -82.5 -31t-39.5 -91l-10 -60
q-4 -24 -4 -45q2 -87 68 -87q48 0 87 49z" />
    <glyph glyph-name="b" unicode="b" 
d="M144 740h146l-57 -347h5q33 66 72.5 100.5t100.5 34.5q151 0 151 -200q0 -102 -29.5 -179t-83 -119t-124.5 -42q-59 0 -91 27.5t-44 80.5h-7l-16 -96h-146zM360.5 132q29.5 31 39.5 91l10 60q4 24 4 45q-2 87 -68 87q-48 0 -87 -49q-39 -46 -47 -97l-14 -83
q-2 -14 -2 -20q0 -31 20.5 -48t61.5 -17q53 0 82.5 31z" />
    <glyph glyph-name="c" unicode="c" 
d="M113 45q-56 57 -56 161q0 89 33.5 162.5t98.5 116.5t154 43q85 0 134 -34.5t66 -96.5l-119 -56q-12 35 -32 52.5t-61 17.5q-43 0 -72.5 -28.5t-38.5 -81.5l-10 -60q-4 -24 -4 -47q0 -89 91 -89q23 0 42 8t43 31.5t60 70.5l91 -59q-55 -87 -113.5 -127.5t-146.5 -40.5
q-104 0 -160 57z" />
    <glyph glyph-name="d" unicode="d" 
d="M367 123h-5q-33 -66 -72.5 -100.5t-100.5 -34.5q-151 0 -151 200q0 102 29.5 179t83 119t124.5 42q59 0 91 -27.5t44 -80.5h7l53 320h146l-123 -740h-146zM341 150q39 46 47 97l14 83q2 14 2 20q0 31 -20.5 48t-61.5 17q-53 0 -82.5 -31t-39.5 -91l-10 -60q-4 -24 -4 -45
q2 -87 68 -87q48 0 87 49z" />
    <glyph glyph-name="e" unicode="e" 
d="M112.5 45.5q-56.5 57.5 -56.5 162.5q0 95 38 167.5t106.5 112.5t159.5 40q82 0 136 -37t54 -105q0 -75 -74 -125.5t-274 -57.5q-1 -8 -1 -17q0 -86 99 -86q43 0 72.5 18.5t69.5 69.5l91 -59q-47 -68 -104 -104.5t-148 -36.5q-112 0 -168.5 57.5zM215 301l-3 -14
q86 5 129 18.5t55.5 30t12.5 37.5q0 52 -64 52q-104 0 -130 -124z" />
    <glyph glyph-name="f" unicode="f" 
d="M111 -197.5q-27 14.5 -49 39.5t-53 69l-41 59l100 69l103 -136l12 5l82 494h-163l19 114h163l13 78q11 67 56 106.5t122 39.5h178l-19 -114h-154q-32 0 -37 -32l-13 -78h186l-19 -114h-187l-76 -455q-27 -159 -161 -159q-35 0 -62 14.5z" />
    <glyph glyph-name="g" unicode="g" 
d="M99 -196q-49 16 -86 60l87 90q43 -53 120 -53q40 0 66 12.5t44.5 46t28.5 94.5l15 89h-6q-32 -66 -71 -100.5t-101 -34.5q-79 0 -117 54t-38 146q0 94 28.5 166.5t81.5 113t124 40.5q60 0 92.5 -27.5t43.5 -80.5h8l16 96h146l-80 -480q-21 -124 -91 -186t-186 -62
q-76 0 -125 16zM306 133.5q20 11.5 39 34.5q18 21 31 43.5t18 54.5l11 67q2 12 2 17q0 30 -20.5 47.5t-61.5 17.5q-53 0 -83 -32.5t-40 -89.5l-7 -42q-4 -24 -4 -49q0 -36 17 -58t52 -22q26 0 46 11.5z" />
    <glyph glyph-name="h" unicode="h" 
d="M148 740h146l-57 -347h5q31 67 70 101t98 34q71 0 106 -42t35 -107q0 -38 -11 -104l-46 -275h-146l49 293q1 4 4 22.5t3 39.5q0 24 -14.5 42.5t-45.5 18.5q-25 0 -44 -11.5t-37 -35.5q-39 -52 -47 -100l-45 -269h-146z" />
    <glyph glyph-name="i" unicode="i" horiz-adv-x="300" 
d="M119 516h148l-87 -514h-147zM312 745l-27 -158h-159l27 158h159z" />
    <glyph glyph-name="j" unicode="j" horiz-adv-x="300" 
d="M-86.5 -178.5q-37.5 33.5 -87.5 113.5l-8 13l100 69l89 -118l13 5l102 612h146l-92 -553q-16 -93 -56.5 -134t-113.5 -41q-55 0 -92.5 33.5zM312 745l-27 -158h-159l27 158h159z" />
    <glyph glyph-name="k" unicode="k" 
d="M147 740h146l-57 -347h6q61 135 178 135q62 0 98 -34.5t36 -87.5q0 -70 -44.5 -115.5t-132.5 -72.5l42 -110l15 -3l82 80l70 -69l-52 -56q-33 -36 -67 -54t-73 -18q-45 0 -73 25.5t-46 76.5l-50 137q95 28 139 58t44 76q0 26 -17.5 42t-49.5 16q-20 0 -39.5 -10.5
t-40.5 -37.5q-17 -22 -28.5 -45.5t-17.5 -56.5l-45 -269h-146z" />
    <glyph glyph-name="l" unicode="l" horiz-adv-x="300" 
d="M122 0q-40 0 -65 22t-25 58q0 10 3 25l107 635h149l-103 -612v-4q0 -12 13 -12h37l-22 -112h-94z" />
    <glyph glyph-name="m" unicode="m" horiz-adv-x="900" 
d="M129 525h140l-24 -122h6q31 65 71.5 99.5t97.5 34.5q58 0 89.5 -35t32.5 -99h5q32 64 73.5 99t100.5 35q57 0 88 -35.5t31 -97.5q0 -20 -3.5 -44t-8.5 -47l-40 -201h53l-22 -112h-91q-40 0 -62 20.5t-22 55.5q0 13 3 28l41 208q8 38 8 55q0 53 -44 53q-22 0 -43 -13
t-39 -34q-17 -20 -30 -48t-18 -55l-54 -270h-140l62 312q7 33 7 54q0 54 -47 54q-45 0 -84 -48q-36 -44 -48 -102l-54 -270h-140z" />
    <glyph glyph-name="n" unicode="n" 
d="M25 0l86 516h146l-20 -123h5q31 67 70 101t98 34q71 0 106 -42t35 -107q0 -38 -11 -104l-46 -275h-146l49 293q1 4 4 22.5t3 39.5q0 24 -14.5 42.5t-45.5 18.5q-25 0 -44 -11.5t-37 -35.5q-39 -52 -47 -100l-45 -269h-146z" />
    <glyph glyph-name="o" unicode="o" 
d="M102 47.5q-59 59.5 -59 162.5q0 97 36.5 169t103 110.5t152.5 38.5q104 0 163 -59.5t59 -162.5q0 -97 -36.5 -169t-103 -110.5t-152.5 -38.5q-104 0 -163 59.5zM354.5 126q30.5 29 39.5 83l13 78q5 30 5 41q0 45 -23.5 68t-64.5 23q-48 0 -78.5 -29t-39.5 -83l-13 -78
q-5 -30 -5 -41q0 -45 23.5 -68t64.5 -23q48 0 78.5 29z" />
    <glyph glyph-name="p" unicode="p" 
d="M107 516h146l-20 -123h5q33 66 72.5 100.5t100.5 34.5q151 0 151 -200q0 -102 -29.5 -179t-83 -119t-124.5 -42q-59 0 -91 27.5t-44 80.5h-7l-50 -296h-146zM360.5 132q29.5 31 39.5 91l10 60q4 24 4 45q-2 87 -68 87q-48 0 -87 -49q-39 -46 -47 -97l-14 -83
q-2 -14 -2 -20q0 -31 20.5 -48t61.5 -17q53 0 82.5 31z" />
    <glyph glyph-name="q" unicode="q" 
d="M367 123h-5q-33 -66 -72.5 -100.5t-100.5 -34.5q-151 0 -151 200q0 102 29.5 179t83 119t124.5 42q59 0 91 -27.5t44 -80.5h7l16 96h146l-119 -716h-146zM341 150q39 46 47 97l14 83q2 14 2 20q0 31 -20.5 48t-61.5 17q-53 0 -82.5 -31t-39.5 -91l-10 -60q-4 -24 -4 -45
q2 -87 68 -87q48 0 87 49z" />
    <glyph glyph-name="r" unicode="r" horiz-adv-x="450" 
d="M56 0l86 516h146l-27 -156h6q34 77 83.5 116.5t122.5 39.5h14l-26 -146h-71q-39 0 -64 -11t-44 -34q-12 -15 -24.5 -40t-16.5 -49l-39 -236h-146z" />
    <glyph glyph-name="s" unicode="s" 
d="M123.5 10q-56.5 22 -82.5 62l82 81q21 -30 59.5 -46t85.5 -16q46 0 72 15t26 42q0 19 -13.5 29t-39.5 16l-74 16q-66 14 -102.5 46t-36.5 95q0 85 65 131.5t169 46.5q69 0 124 -19.5t81 -53.5l-80 -82q-18 23 -52.5 37.5t-76.5 14.5q-40 0 -63 -14.5t-23 -41.5
q0 -20 12 -28.5t39 -14.5l77 -17q69 -15 104 -47t35 -92q0 -85 -68.5 -133.5t-184.5 -48.5q-78 0 -134.5 22z" />
    <glyph glyph-name="t" unicode="t" 
d="M182.5 22q-31.5 34 -31.5 94q0 24 7 66l37 220h-132l19 114h133l32 182h144l-30 -182h202l-19 -114h-202l-48 -288l20 -7l156 123l72 -82l-60 -52q-70 -60 -112 -84t-92 -24q-64 0 -95.5 34z" />
    <glyph glyph-name="u" unicode="u" 
d="M362 123h-5q-31 -67 -70 -101t-98 -34q-71 0 -106 42t-35 107q0 38 11 104l46 275h146l-49 -292q-7 -42 -7 -63q0 -24 14.5 -42.5t45.5 -18.5q25 0 44 11.5t37 35.5q39 52 47 100l45 269h146l-86 -516h-146z" />
    <glyph glyph-name="v" unicode="v" 
d="M286 516l-65 -420l12 -8q89 32 131 102.5t42 159.5q0 67 -34 130l130 48q25 -31 38 -77t13 -101q0 -99 -48.5 -182t-127.5 -131.5t-166 -48.5q-62 0 -94.5 32.5t-32.5 90.5q0 24 6 61l35 230h-89l19 114h231z" />
    <glyph glyph-name="w" unicode="w" horiz-adv-x="900" 
d="M227 525l10 -368h6l173 368h130l55 -375h6l152 375h138l-240 -525h-147l-58 349h-6l-169 -349h-149l-40 525h139z" />
    <glyph glyph-name="x" unicode="x" 
d="M25.5 24.5q-29.5 36.5 -29.5 104.5q0 20 2 44l116 14v-11q0 -44 8 -63t28 -19q31 0 51 47.5t29 112.5t9 119q0 16 -2 44l-12 5l-131 -91l-61 81l71 53q43 32 76 47.5t67 15.5q53 0 79.5 -35.5t26.5 -102.5v-15h7q21 81 54 117t83 36q49 0 78.5 -38t29.5 -100
q0 -36 -1 -47l-116 -14v16q0 39 -8.5 58t-28.5 19q-46 0 -66.5 -87t-20.5 -186q0 -19 2 -49l12 -6l134 93l61 -77l-51 -45q-87 -77 -163 -77q-50 0 -78 37t-28 114h-7q-20 -80 -54.5 -115.5t-85.5 -35.5t-80.5 36.5z" />
    <glyph glyph-name="y" unicode="y" 
d="M92 -196q-49 16 -86 60l87 90q43 -53 120 -53q40 0 66 12.5t44 46t28 94.5l14 86h-5q-31 -67 -70 -101t-98 -34q-71 0 -106 42t-35 107q0 38 11 104l43 258h146l-46 -275q-7 -42 -7 -63q0 -24 14.5 -42.5t45.5 -18.5q25 0 44 11.5t37 35.5q39 52 47 100l42 252h146
l-80 -480q-21 -124 -91 -186t-186 -62q-76 0 -125 16z" />
    <glyph glyph-name="z" unicode="z" 
d="M260 24l-101 52l-4 -3l-12 -73h-125l20 120l320 254q-28 22 -53.5 31.5t-57.5 9.5q-28 0 -46 -17.5t-18 -58.5h-108v9q0 85 44 132.5t119 47.5q51 0 100.5 -20t97.5 -68l2 -2l6 5l12 73h125l-20 -120l-324 -258l196 -37l11 13l-30 88l85 37l15 -27q30 -53 30 -98
q0 -33 -16 -62t-45.5 -46.5t-68.5 -17.5q-85 0 -154 36z" />
    <glyph glyph-name="braceleft" unicode="{" 
d="M268 -138q-56 0 -82.5 22t-26.5 61q0 19 10 70q9 44 27 70t49 57q25 25 33.5 40t8.5 31q0 23 -25.5 36t-73.5 13h-89l16 98h89q57 0 87.5 17t30.5 48q0 25 -20 55q-19 28 -28 48.5t-9 50.5q0 14 10 74q8 50 43 78.5t99 28.5h177l-17 -98h-183q-10 -60 -10 -73
q0 -23 5.5 -37t19.5 -37q15 -23 23 -43t8 -43q0 -48 -33.5 -77.5t-100.5 -36.5l-2 -8q102 -12 102 -85q0 -32 -15.5 -55.5t-49.5 -59.5q-26 -27 -38.5 -46t-17.5 -52l-8 -49h183l-16 -98h-176z" />
    <glyph glyph-name="bar" unicode="|" 
d="M173 -138l150 898h124l-150 -898h-124z" />
    <glyph glyph-name="braceright" unicode="}" 
d="M350 760q56 0 82.5 -22t26.5 -61q0 -19 -10 -70q-9 -44 -27 -70t-49 -57q-25 -25 -33.5 -40t-8.5 -31q0 -23 25.5 -36t73.5 -13h89l-16 -98h-89q-57 0 -87.5 -17t-30.5 -48q0 -25 20 -55q19 -28 28 -48.5t9 -50.5q0 -14 -10 -74q-8 -50 -43 -78.5t-99 -28.5h-177l17 98
h183q10 60 10 73q0 23 -5.5 37t-19.5 37q-15 23 -23 43t-8 43q0 48 33.5 77.5t100.5 36.5l2 8q-102 12 -102 85q0 32 15.5 55.5t49.5 59.5q26 27 38.5 46t17.5 52l8 49h-183l16 98h176z" />
    <glyph glyph-name="asciitilde" unicode="~" 
d="M349 219q-24 9 -57 28q-6 3 -22 12.5t-28.5 13.5t-24.5 4q-45 0 -75 -67l-98 48q22 62 68.5 102t103.5 40q27 0 51.5 -9t57.5 -28q6 -3 22 -12.5t28.5 -13.5t24.5 -4q45 0 75 67l98 -48q-22 -63 -68.5 -102.5t-103.5 -39.5q-28 0 -52 9z" />
    <glyph glyph-name="uni00A0" unicode="&#xa0;" 
 />
    <glyph glyph-name="exclamdown" unicode="&#xa1;" 
d="M433 516l-30 -178h-185l30 178h185zM143 -182l34 203l96 253h53l12 -253l-34 -203h-161z" />
    <glyph glyph-name="cent" unicode="&#xa2;" 
d="M216 -6q-78 16 -118.5 70.5t-40.5 141.5q0 82 29 151.5t85.5 114.5t133.5 54l17 104h112l-18 -109q56 -12 91 -44t48 -78l-111 -46q-8 24 -21 39t-34 22l-52 -314q22 7 46.5 29t59.5 67l86 -52q-44 -70 -90.5 -107t-111.5 -46l-17 -105h-112zM244 105l52 311
q-34 -11 -56 -40.5t-29 -73.5l-10 -62q-4 -21 -4 -46q0 -68 47 -89z" />
    <glyph glyph-name="sterling" unicode="&#xa3;" 
d="M317 24l-152 58l-12 -82h-125l22 141q52 21 80 54t28 83q0 12 -1 18h-107l17 101h74q-8 44 -8 76q0 68 34.5 122.5t94.5 84.5t132 30q149 0 216 -127l-114 -71q-36 71 -106 71q-51 0 -82.5 -30.5t-31.5 -87.5q0 -28 9 -68h177l-17 -101h-141v-8q0 -36 -23.5 -59.5
t-59.5 -33.5l-4 -7l237 -74l11 13l-17 89l99 26l10 -30q12 -36 16.5 -58t4.5 -45q0 -49 -29 -85t-77 -36q-62 0 -155 36z" />
    <glyph glyph-name="yen" unicode="&#xa5;" 
d="M38 112h169l16 100h-168l19 112h127l-126 374h150l89 -307h8l192 307h159l-250 -374h128l-19 -112h-169l-16 -100h169l-19 -112h-478z" />
    <glyph glyph-name="brokenbar" unicode="&#xa6;" 
d="M263 400l60 360h124l-60 -360h-124zM173 -138l60 359h124l-60 -359h-124z" />
    <glyph glyph-name="section" unicode="&#xa7;" 
d="M405 -124q-59 -52 -166 -52q-61 0 -117 18t-91 54l78 88q21 -26 57 -40.5t74 -14.5q40 0 68.5 18.5t28.5 47.5q0 23 -16 38.5t-62 31.5l-72 25q-66 23 -99 56.5t-33 74.5q0 60 34.5 98t107.5 57l2 13q-35 26 -52 60t-17 71q0 86 59 138t166 52q61 0 117 -18t91 -54
l-78 -88q-21 26 -57 40.5t-74 14.5q-40 0 -68.5 -18.5t-28.5 -47.5q0 -23 16 -38.5t62 -31.5l72 -25q66 -23 99 -56.5t33 -74.5q0 -60 -34.5 -98t-107.5 -57l-2 -13q35 -26 52 -60t17 -71q0 -86 -59 -138zM393.5 301q-16.5 21 -54.5 33l-73 23q-10 3 -22 8q-34 -23 -47 -42
t-13 -44t16.5 -46t54.5 -33l73 -23q10 -3 22 -8q34 23 47 42t13 44t-16.5 46z" />
    <glyph glyph-name="dieresis" unicode="&#xa8;" horiz-adv-x="617" 
d="M338 745l-27 -158h-159l27 158h159zM601 745l-27 -158h-159l27 158h159z" />
    <glyph glyph-name="copyright" unicode="&#xa9;" horiz-adv-x="900" 
d="M257 26.5q-66 38.5 -102.5 108t-36.5 158.5q0 118 51.5 213t141.5 149.5t201 54.5q86 0 152 -38.5t102.5 -108t36.5 -158.5q0 -118 -51.5 -213t-141.5 -149.5t-201 -54.5q-86 0 -152 38.5zM550.5 84q64.5 33 108 89t57.5 124q15 72 15 108q0 73 -28.5 127.5t-79 84.5
t-115.5 30q-73 0 -137.5 -33t-108 -89t-57.5 -124q-15 -72 -15 -108q0 -73 28.5 -127.5t79 -84.5t115.5 -30q73 0 137.5 33zM313 183q-49 49 -49 130q0 65 29.5 123t81.5 93t114 35q71 0 110 -30t56 -84l-99 -44q-13 57 -66 57q-33 0 -53.5 -19t-26.5 -50l-15 -77
q-2 -10 -2 -25q0 -26 17 -42t48 -16q26 0 45.5 15t36.5 41l90 -46q-29 -49 -75 -79.5t-113 -30.5q-80 0 -129 49z" />
    <glyph glyph-name="ordfeminine" unicode="&#xaa;" 
d="M366 341l10 63h-8q-32 -71 -105 -71q-49 0 -78.5 24.5t-29.5 67.5q0 63 46.5 94.5t135.5 31.5h57l3 18q2 12 2 19q0 23 -16 35t-44 12q-29 0 -50 -11.5t-41 -33.5l-48 55q51 65 156 65q67 0 106.5 -28.5t39.5 -81.5q0 -19 -2 -31l-38 -228h-96zM331 495q-32 0 -51 -11
t-22 -32q-2 -10 -2 -18q0 -16 13 -25t37 -9q28 0 48 13.5t24 38.5l7 43h-54z" />
    <glyph glyph-name="guillemotleft" unicode="&#xab;" 
d="M220 43l-170 168l22 130l214 160l39 -92l-152 -141l106 -138zM464 43l-170 168l22 130l214 160l39 -92l-152 -141l106 -138z" />
    <glyph glyph-name="logicalnot" unicode="&#xac;" 
d="M370 55l32 192h-341l20 116h460l-52 -308h-119z" />
    <glyph glyph-name="uni00AD" unicode="&#xad;" 
d="M139 235l23 140h317l-23 -140h-317z" />
    <glyph glyph-name="registered" unicode="&#xae;" 
d="M192.5 390.5q-46.5 44.5 -46.5 116.5q0 55 26.5 101.5t73 74t104.5 27.5q71 0 117.5 -44.5t46.5 -116.5q0 -55 -26.5 -101.5t-73 -74t-104.5 -27.5q-71 0 -117.5 44.5zM411.5 419.5q40.5 33.5 50.5 91.5q5 30 5 39q0 55 -29 87.5t-89 32.5t-100.5 -33.5t-50.5 -91.5
q-5 -30 -5 -39q0 -55 29 -87.5t89 -32.5t100.5 33.5zM293 438h-56l31 185h92q31 0 46.5 -14t15.5 -38q0 -25 -12 -42t-33 -26l29 -65h-61l-21 55h-22zM333 533q26 0 29 20l1 11q0 16 -22 16h-24l-8 -47h24z" />
    <glyph glyph-name="macron" unicode="&#xaf;" 
d="M181 718h305l-17 -102h-305z" />
    <glyph glyph-name="degree" unicode="&#xb0;" 
d="M237.5 357q-38.5 22 -60 61t-21.5 87q0 58 28 105t76.5 73.5t106.5 26.5q50 0 88.5 -22t60 -61t21.5 -87q0 -58 -28 -105t-76.5 -73.5t-106.5 -26.5q-50 0 -88.5 22zM407 460.5q28 32.5 28 78.5q0 33 -21 55.5t-55 22.5q-45 0 -73 -32.5t-28 -78.5q0 -33 21 -55.5
t55 -22.5q45 0 73 32.5z" />
    <glyph glyph-name="plusminus" unicode="&#xb1;" 
d="M226 183l28 167h-176l20 116h175l28 167h126l-28 -167h175l-20 -116h-174l-28 -167h-126zM20 0l20 116h476l-20 -116h-476z" />
    <glyph glyph-name="uni00B2" unicode="&#xb2;" 
d="M453 329h-281l14 84l138 92q29 19 45.5 33.5t19.5 34.5q2 12 2 16q0 16 -12 25t-29 9q-23 0 -37.5 -13.5t-21.5 -33.5l-83 31q44 97 149 97q59 0 97.5 -30t38.5 -81q0 -43 -29.5 -75.5t-92.5 -69.5l-68 -40h163z" />
    <glyph glyph-name="uni00B3" unicode="&#xb3;" 
d="M327 556q29 0 44 8.5t17 19.5q2 12 2 14q0 14 -12 22t-33 8q-41 0 -76 -43l-54 60q29 29 62 44t80 15q62 0 97.5 -25.5t35.5 -68.5q0 -33 -21.5 -56.5t-65.5 -31.5v-2q67 -15 67 -79q0 -51 -42.5 -84.5t-116.5 -33.5q-106 0 -140 73l68 49q20 -46 71 -46q22 0 37.5 9.5
t18.5 26.5q2 12 2 14q0 30 -49 30h-40l13 77h35z" />
    <glyph glyph-name="acute" unicode="&#xb4;" 
d="M323 570l-86 46l115 190l114 -60z" />
    <glyph glyph-name="uni00B5" unicode="&#xb5;" 
d="M-9 -200l120 716h146l-51 -304q-3 -19 -3 -37q0 -74 64 -74q21 0 42.5 11.5t37.5 31.5q30 36 37 84l48 288h146l-86 -516h-146l20 116h-6q-48 -128 -141 -128q-46 0 -66 42h-6l6 -131l-16 -99h-146z" />
    <glyph glyph-name="paragraph" unicode="&#xb6;" 
d="M257 246q-53 0 -96 23.5t-67.5 67t-24.5 101.5q0 74 37 134t97.5 93.5t128.5 33.5h303l-141 -847h-116l122 733h-71l-122 -733h-116z" />
    <glyph glyph-name="periodcentered" unicode="&#xb7;" 
d="M415 395l-30 -178h-185l30 178h185z" />
    <glyph glyph-name="cedilla" unicode="&#xb8;" 
d="M212.5 -199q-30.5 13 -45.5 33l51 53q23 -28 64 -28q20 0 33.5 7.5t13.5 21.5q0 30 -68 36l-23 2l40 104h67l-31 -85l3 -4q21 7 41 7q29 0 48 -15.5t19 -46.5q0 -45 -39.5 -71.5t-100.5 -26.5q-42 0 -72.5 13z" />
    <glyph glyph-name="uni00B9" unicode="&#xb9;" 
d="M204 329l13 76h81l34 203l-79 -38l-30 71l120 57h101l-49 -293h72l-13 -76h-250z" />
    <glyph glyph-name="ordmasculine" unicode="&#xba;" 
d="M203 374q-41 41 -41 112q0 102 56.5 163t151.5 61q76 0 117 -41t41 -112q0 -102 -56.5 -163t-151.5 -61q-76 0 -117 41zM385.5 431.5q22.5 22.5 28.5 59.5l10 60q2 12 2 21q0 30 -17 46t-49 16t-55 -22.5t-29 -59.5l-10 -60q-2 -12 -2 -21q0 -30 17 -46t49 -16
q33 0 55.5 22.5z" />
    <glyph glyph-name="guillemotright" unicode="&#xbb;" 
d="M30 135l152 141l-106 138l59 87l170 -168l-22 -130l-214 -160zM274 135l152 141l-106 138l59 87l170 -168l-22 -130l-214 -160z" />
    <glyph glyph-name="onequarter" unicode="&#xbc;" 
d="M64 432h86l32 192l-83 -39l-22 60l111 53h94l-44 -266h75l-11 -69h-249zM568 698h106l-223 -300h-106zM181 300h106l-223 -300h-106zM429 63h-153l12 74l164 198h106l-35 -211h44l-10 -61h-44l-10 -63h-84zM439 124l21 126h-5l-104 -126h88z" />
    <glyph glyph-name="onehalf" unicode="&#xbd;" 
d="M64 432h86l32 192l-83 -39l-22 60l111 53h94l-44 -266h75l-11 -69h-249zM568 698h106l-223 -300h-106zM181 300h106l-223 -300h-106zM291 75l120 80q38 25 54.5 42.5t18.5 32.5l1 12q0 14 -12 22.5t-28 8.5q-38 0 -65 -49l-68 30q40 87 142 87q57 0 89.5 -26t32.5 -67
q0 -31 -18.5 -56.5t-41.5 -42t-67 -43.5l-63 -39h166l-11 -67h-262z" />
    <glyph glyph-name="threequarters" unicode="&#xbe;" 
d="M42 426l62 36q15 -39 70 -39q48 0 53 31l2 17q0 15 -15 23.5t-39 8.5h-27l11 63h31q52 0 57 31q2 12 2 14q0 12 -11.5 19.5t-30.5 7.5q-43 0 -81 -41l-44 50q30 29 62 43t74 14q57 0 91 -23.5t34 -61.5q0 -32 -23.5 -54.5t-61.5 -27.5l-1 -4q33 -3 49.5 -21.5t16.5 -47.5
q0 -47 -41 -77t-109 -30q-96 0 -131 69zM568 698h106l-223 -300h-106zM181 300h106l-223 -300h-106zM429 63h-153l12 74l164 198h106l-35 -211h44l-10 -61h-44l-10 -63h-84zM439 124l21 126h-5l-104 -126h88z" />
    <glyph glyph-name="questiondown" unicode="&#xbf;" 
d="M451 516l-30 -178h-185l30 178h185zM86 -144q-58 50 -58 136q0 60 28 106.5t75.5 75t106.5 37.5l12 71h146l-25 -152q-87 -4 -131 -27.5t-53 -76.5q-2 -12 -2 -28q0 -33 23 -50.5t58 -17.5q37 0 64.5 22.5t43.5 61.5l114 -53q-29 -69 -90 -112t-154 -43q-100 0 -158 50z
" />
    <glyph glyph-name="Agrave" unicode="&#xc0;" 
d="M400 0l-17 169h-196l-69 -169h-155l307 698h206l76 -698h-152zM356 553h-9l-110 -264h140zM247 917l124 59l77 -196l-87 -39z" />
    <glyph glyph-name="Aacute" unicode="&#xc1;" 
d="M400 0l-17 169h-196l-69 -169h-155l307 698h206l76 -698h-152zM356 553h-9l-110 -264h140zM391 740l-86 46l115 190l114 -60z" />
    <glyph glyph-name="Acircumflex" unicode="&#xc2;" 
d="M400 0l-17 169h-196l-69 -169h-155l307 698h206l76 -698h-152zM356 553h-9l-110 -264h140zM471 955l108 -158l-76 -57l-106 115l-134 -115l-70 57l154 158h124z" />
    <glyph glyph-name="Atilde" unicode="&#xc3;" 
d="M400 0l-17 169h-196l-69 -169h-155l307 698h206l76 -698h-152zM356 553h-9l-110 -264h140zM422 767q-15 5 -38 16q-26 12 -42 17t-33 5q-16 0 -30 -5.5t-33 -19.5l-40 67q23 29 54.5 46.5t69.5 17.5q20 0 35 -5t38 -16q26 -12 42 -17t33 -5q16 0 30 5.5t33 19.5l40 -67
q-23 -29 -54.5 -46.5t-69.5 -17.5q-20 0 -35 5z" />
    <glyph glyph-name="Adieresis" unicode="&#xc4;" 
d="M400 0l-17 169h-196l-69 -169h-155l307 698h206l76 -698h-152zM356 553h-9l-110 -264h140zM336 907l-27 -158h-159l27 158h159zM599 907l-27 -158h-159l27 158h159z" />
    <glyph glyph-name="Aring" unicode="&#xc5;" 
d="M400 0l-17 169h-196l-69 -169h-155l307 698h206l76 -698h-152zM356 553h-9l-110 -264h140zM284.5 756q-37.5 36 -37.5 88q0 46 22.5 82.5t61 57t84.5 20.5q55 0 92.5 -36t37.5 -88q0 -46 -22.5 -82.5t-61 -57t-84.5 -20.5q-55 0 -92.5 36zM425 808q15 14 19 37q6 36 6 45
q0 40 -43 40q-25 0 -40 -14t-19 -37q-6 -36 -6 -45q0 -40 43 -40q25 0 40 14z" />
    <glyph glyph-name="AE" unicode="&#xc6;" horiz-adv-x="900" 
d="M221 169l-101 -169h-156l444 698h525l-26 -128h-263l-31 -153h228l-26 -128h-228l-32 -161h274l-26 -128h-419l34 169h-197zM298 291h144l56 279h-29z" />
    <glyph glyph-name="Ccedilla" unicode="&#xc7;" 
d="M274 543q-34 -47 -49 -135l-18 -109q-8 -48 -8 -78q0 -113 101 -113q83 0 132 119l127 -38q-40 -93 -96 -142.5t-140 -57.5l-16 -44l3 -4q21 7 42 7q28 0 47 -16t19 -42q0 -49 -40 -75.5t-103 -26.5q-40 0 -70 13t-45 33l51 53q9 -11 25 -19.5t36 -8.5q23 0 36.5 7.5
t13.5 21.5q0 29 -68 36l-23 2l24 63q-103 11 -154 79t-51 186q0 135 39.5 238t113 160.5t170.5 57.5q112 0 168.5 -55t62.5 -150l-143 -29q-3 56 -23.5 85t-70.5 29q-59 0 -93 -47z" />
    <glyph glyph-name="Egrave" unicode="&#xc8;" 
d="M38 0l117 698h446l-20 -122h-300l-27 -162h286l-20 -122h-287l-28 -170h299l-20 -122h-446zM250 917l124 59l77 -196l-87 -39z" />
    <glyph glyph-name="Eacute" unicode="&#xc9;" 
d="M38 0l117 698h446l-20 -122h-300l-27 -162h286l-20 -122h-287l-28 -170h299l-20 -122h-446zM394 740l-86 46l115 190l114 -60z" />
    <glyph glyph-name="Ecircumflex" unicode="&#xca;" 
d="M38 0l117 698h446l-20 -122h-300l-27 -162h286l-20 -122h-287l-28 -170h299l-20 -122h-446zM474 955l108 -158l-76 -57l-106 115l-134 -115l-70 57l154 158h124z" />
    <glyph glyph-name="Edieresis" unicode="&#xcb;" 
d="M38 0l117 698h446l-20 -122h-300l-27 -162h286l-20 -122h-287l-28 -170h299l-20 -122h-446zM339 907l-27 -158h-159l27 158h159zM602 907l-27 -158h-159l27 158h159z" />
    <glyph glyph-name="Igrave" unicode="&#xcc;" horiz-adv-x="300" 
d="M34 0l116 698h148l-116 -698h-148zM102 917l124 59l77 -196l-87 -39z" />
    <glyph glyph-name="Iacute" unicode="&#xcd;" horiz-adv-x="300" 
d="M34 0l116 698h148l-116 -698h-148zM246 740l-86 46l115 190l114 -60z" />
    <glyph glyph-name="Icircumflex" unicode="&#xce;" horiz-adv-x="300" 
d="M34 0l116 698h148l-116 -698h-148zM326 955l108 -158l-76 -57l-106 115l-134 -115l-70 57l154 158h124z" />
    <glyph glyph-name="Idieresis" unicode="&#xcf;" horiz-adv-x="300" 
d="M34 0l116 698h148l-116 -698h-148zM191 907l-27 -158h-159l27 158h159zM454 907l-27 -158h-159l27 158h159z" />
    <glyph glyph-name="Eth" unicode="&#xd0;" 
d="M77 312h-57l19 112h58l45 274h205q117 0 179 -66.5t62 -190.5q0 -138 -39 -237t-114.5 -151.5t-182.5 -52.5h-227zM255 117q67 0 105.5 38.5t51.5 119.5l21 126q6 36 6 68q0 57 -26 84.5t-79 27.5h-65l-27 -162h110l-17 -102h-110l-33 -200h63z" />
    <glyph glyph-name="Ntilde" unicode="&#xd1;" 
d="M237 468h-10l-78 -468h-129l116 698h178l81 -468h10l78 468h129l-116 -698h-178zM426 767q-15 5 -38 16q-26 12 -42 17t-33 5q-16 0 -30 -5.5t-33 -19.5l-40 67q23 29 54.5 46.5t69.5 17.5q20 0 35 -5t38 -16q26 -12 42 -17t33 -5q16 0 30 5.5t33 19.5l40 -67
q-23 -29 -54.5 -46.5t-69.5 -17.5q-20 0 -35 5z" />
    <glyph glyph-name="Ograve" unicode="&#xd2;" 
d="M96 56.5q-60 68.5 -60 194.5q0 125 33 229t103.5 167t176.5 63q123 0 183 -68.5t60 -194.5q0 -125 -33 -229t-103.5 -167t-176.5 -63q-123 0 -183 68.5zM369.5 152.5q30.5 44.5 45.5 135.5l20 120q6 36 6 72q0 53 -23 81.5t-69 28.5q-60 0 -90.5 -44.5t-45.5 -135.5
l-20 -120q-6 -36 -6 -72q0 -53 23 -81.5t69 -28.5q60 0 90.5 44.5zM235 917l124 59l77 -196l-87 -39z" />
    <glyph glyph-name="Oacute" unicode="&#xd3;" 
d="M96 56.5q-60 68.5 -60 194.5q0 125 33 229t103.5 167t176.5 63q123 0 183 -68.5t60 -194.5q0 -125 -33 -229t-103.5 -167t-176.5 -63q-123 0 -183 68.5zM369.5 152.5q30.5 44.5 45.5 135.5l20 120q6 36 6 72q0 53 -23 81.5t-69 28.5q-60 0 -90.5 -44.5t-45.5 -135.5
l-20 -120q-6 -36 -6 -72q0 -53 23 -81.5t69 -28.5q60 0 90.5 44.5zM379 740l-86 46l115 190l114 -60z" />
    <glyph glyph-name="Ocircumflex" unicode="&#xd4;" 
d="M96 56.5q-60 68.5 -60 194.5q0 125 33 229t103.5 167t176.5 63q123 0 183 -68.5t60 -194.5q0 -125 -33 -229t-103.5 -167t-176.5 -63q-123 0 -183 68.5zM369.5 152.5q30.5 44.5 45.5 135.5l20 120q6 36 6 72q0 53 -23 81.5t-69 28.5q-60 0 -90.5 -44.5t-45.5 -135.5
l-20 -120q-6 -36 -6 -72q0 -53 23 -81.5t69 -28.5q60 0 90.5 44.5zM459 955l108 -158l-76 -57l-106 115l-134 -115l-70 57l154 158h124z" />
    <glyph glyph-name="Otilde" unicode="&#xd5;" 
d="M96 56.5q-60 68.5 -60 194.5q0 125 33 229t103.5 167t176.5 63q123 0 183 -68.5t60 -194.5q0 -125 -33 -229t-103.5 -167t-176.5 -63q-123 0 -183 68.5zM369.5 152.5q30.5 44.5 45.5 135.5l20 120q6 36 6 72q0 53 -23 81.5t-69 28.5q-60 0 -90.5 -44.5t-45.5 -135.5
l-20 -120q-6 -36 -6 -72q0 -53 23 -81.5t69 -28.5q60 0 90.5 44.5zM410 767q-15 5 -38 16q-26 12 -42 17t-33 5q-16 0 -30 -5.5t-33 -19.5l-40 67q23 29 54.5 46.5t69.5 17.5q20 0 35 -5t38 -16q26 -12 42 -17t33 -5q16 0 30 5.5t33 19.5l40 -67q-23 -29 -54.5 -46.5
t-69.5 -17.5q-20 0 -35 5z" />
    <glyph glyph-name="Odieresis" unicode="&#xd6;" 
d="M96 56.5q-60 68.5 -60 194.5q0 125 33 229t103.5 167t176.5 63q123 0 183 -68.5t60 -194.5q0 -125 -33 -229t-103.5 -167t-176.5 -63q-123 0 -183 68.5zM369.5 152.5q30.5 44.5 45.5 135.5l20 120q6 36 6 72q0 53 -23 81.5t-69 28.5q-60 0 -90.5 -44.5t-45.5 -135.5
l-20 -120q-6 -36 -6 -72q0 -53 23 -81.5t69 -28.5q60 0 90.5 44.5zM324 907l-27 -158h-159l27 158h159zM587 907l-27 -158h-159l27 158h159z" />
    <glyph glyph-name="multiply" unicode="&#xd7;" 
d="M298 220l-169 -144l-76 88l172 146l-119 143l95 81l119 -144l169 144l75 -87l-171 -146l119 -144l-95 -81z" />
    <glyph glyph-name="Oslash" unicode="&#xd8;" 
d="M132 26l-71 -93l-88 57l90 117q-27 55 -27 144q0 125 33 229t103.5 167t176.5 63q91 0 147 -38l71 93l88 -57l-90 -117q27 -55 27 -144q0 -125 -33 -229t-103.5 -167t-176.5 -63q-91 0 -147 38zM190 294q-5 -30 -5 -40l236 308q-26 29 -72 29q-60 0 -92.5 -45.5
t-47.5 -135.5l-18 -108zM371.5 152.5q32.5 45.5 47.5 135.5l18 108l3 17q3 20 3 31l-236 -308q26 -29 72 -29q60 0 92.5 45.5z" />
    <glyph glyph-name="Ugrave" unicode="&#xd9;" 
d="M275 698l-73 -438q-8 -48 -8 -74q0 -39 19.5 -58.5t63.5 -19.5q43 0 66 17t34 47t20 83l74 443h147l-71 -426q-17 -103 -43.5 -162.5t-81.5 -90.5t-153 -31q-119 0 -169.5 48.5t-50.5 139.5q0 49 11 115l68 407h147zM248 917l124 59l77 -196l-87 -39z" />
    <glyph glyph-name="Uacute" unicode="&#xda;" 
d="M275 698l-73 -438q-8 -48 -8 -74q0 -39 19.5 -58.5t63.5 -19.5q43 0 66 17t34 47t20 83l74 443h147l-71 -426q-17 -103 -43.5 -162.5t-81.5 -90.5t-153 -31q-119 0 -169.5 48.5t-50.5 139.5q0 49 11 115l68 407h147zM392 740l-86 46l115 190l114 -60z" />
    <glyph glyph-name="Ucircumflex" unicode="&#xdb;" 
d="M275 698l-73 -438q-8 -48 -8 -74q0 -39 19.5 -58.5t63.5 -19.5q43 0 66 17t34 47t20 83l74 443h147l-71 -426q-17 -103 -43.5 -162.5t-81.5 -90.5t-153 -31q-119 0 -169.5 48.5t-50.5 139.5q0 49 11 115l68 407h147zM472 955l108 -158l-76 -57l-106 115l-134 -115l-70 57
l154 158h124z" />
    <glyph glyph-name="Udieresis" unicode="&#xdc;" 
d="M275 698l-73 -438q-8 -48 -8 -74q0 -39 19.5 -58.5t63.5 -19.5q43 0 66 17t34 47t20 83l74 443h147l-71 -426q-17 -103 -43.5 -162.5t-81.5 -90.5t-153 -31q-119 0 -169.5 48.5t-50.5 139.5q0 49 11 115l68 407h147zM337 907l-27 -158h-159l27 158h159zM600 907l-27 -158
h-159l27 158h159z" />
    <glyph glyph-name="Yacute" unicode="&#xdd;" 
d="M184 0l41 246l-147 452h158l49 -164l31 -137h9l78 137l100 164h165l-295 -449l-41 -249h-148zM388 740l-86 46l115 190l114 -60z" />
    <glyph glyph-name="Thorn" unicode="&#xde;" 
d="M33 0l117 698h148l-20 -122h103q91 0 140.5 -51t49.5 -134q0 -79 -30.5 -137t-87 -89t-131.5 -31h-119l-22 -134h-148zM223 254h78q51 0 76.5 19t32.5 64l5 30q2 12 2 27q0 34 -19 48.5t-63 14.5h-78z" />
    <glyph glyph-name="germandbls" unicode="&#xdf;" 
d="M34 401l19 115h48l1 7q10 69 48 121t99 80t136 28q99 0 155 -49.5t56 -134.5q0 -21 -9 -80l-10 -61h-64q-46 0 -71 -13t-25 -39q0 -21 12 -31.5t43 -26.5l31 -15q45 -22 65 -50.5t20 -71.5q0 -53 -25.5 -96.5t-74.5 -69.5t-117 -26q-56 0 -100 17.5t-66 53.5l80 79
q15 -22 39.5 -34.5t53.5 -12.5q33 0 52.5 15.5t19.5 47.5q0 22 -11 35.5t-39 27.5l-29 15q-49 25 -71.5 52.5t-22.5 70.5q0 62 46 102.5t132 56.5l1 7q4 27 4 38q0 41 -21.5 62t-68.5 21q-55 0 -84.5 -29.5t-39.5 -89.5l-88 -523h-143l67 401h-48z" />
    <glyph glyph-name="agrave" unicode="&#xe0;" 
d="M347 0l20 123h-5q-33 -66 -72.5 -100.5t-100.5 -34.5q-151 0 -151 200q0 102 29.5 179t83 119t124.5 42q59 0 91 -27.5t44 -80.5h7l16 96h146l-86 -516h-146zM341 150q39 46 47 97l14 83q2 14 2 20q0 31 -20.5 48t-61.5 17q-53 0 -82.5 -31t-39.5 -91l-10 -60
q-4 -24 -4 -45q2 -87 68 -87q48 0 87 49zM211 747l124 59l77 -196l-87 -39z" />
    <glyph glyph-name="aacute" unicode="&#xe1;" 
d="M347 0l20 123h-5q-33 -66 -72.5 -100.5t-100.5 -34.5q-151 0 -151 200q0 102 29.5 179t83 119t124.5 42q59 0 91 -27.5t44 -80.5h7l16 96h146l-86 -516h-146zM341 150q39 46 47 97l14 83q2 14 2 20q0 31 -20.5 48t-61.5 17q-53 0 -82.5 -31t-39.5 -91l-10 -60
q-4 -24 -4 -45q2 -87 68 -87q48 0 87 49zM355 570l-86 46l115 190l114 -60z" />
    <glyph glyph-name="acircumflex" unicode="&#xe2;" 
d="M347 0l20 123h-5q-33 -66 -72.5 -100.5t-100.5 -34.5q-151 0 -151 200q0 102 29.5 179t83 119t124.5 42q59 0 91 -27.5t44 -80.5h7l16 96h146l-86 -516h-146zM341 150q39 46 47 97l14 83q2 14 2 20q0 31 -20.5 48t-61.5 17q-53 0 -82.5 -31t-39.5 -91l-10 -60
q-4 -24 -4 -45q2 -87 68 -87q48 0 87 49zM435 785l108 -158l-76 -57l-106 115l-134 -115l-70 57l154 158h124z" />
    <glyph glyph-name="atilde" unicode="&#xe3;" 
d="M347 0l20 123h-5q-33 -66 -72.5 -100.5t-100.5 -34.5q-151 0 -151 200q0 102 29.5 179t83 119t124.5 42q59 0 91 -27.5t44 -80.5h7l16 96h146l-86 -516h-146zM341 150q39 46 47 97l14 83q2 14 2 20q0 31 -20.5 48t-61.5 17q-53 0 -82.5 -31t-39.5 -91l-10 -60
q-4 -24 -4 -45q2 -87 68 -87q48 0 87 49zM386 597q-15 5 -38 16q-26 12 -42 17t-33 5q-16 0 -30 -5.5t-33 -19.5l-40 67q23 29 54.5 46.5t69.5 17.5q20 0 35 -5t38 -16q26 -12 42 -17t33 -5q16 0 30 5.5t33 19.5l40 -67q-23 -29 -54.5 -46.5t-69.5 -17.5q-20 0 -35 5z" />
    <glyph glyph-name="adieresis" unicode="&#xe4;" 
d="M347 0l20 123h-5q-33 -66 -72.5 -100.5t-100.5 -34.5q-151 0 -151 200q0 102 29.5 179t83 119t124.5 42q59 0 91 -27.5t44 -80.5h7l16 96h146l-86 -516h-146zM341 150q39 46 47 97l14 83q2 14 2 20q0 31 -20.5 48t-61.5 17q-53 0 -82.5 -31t-39.5 -91l-10 -60
q-4 -24 -4 -45q2 -87 68 -87q48 0 87 49zM317 745l-27 -158h-159l27 158h159zM580 745l-27 -158h-159l27 158h159z" />
    <glyph glyph-name="aring" unicode="&#xe5;" 
d="M347 0l20 123h-5q-33 -66 -72.5 -100.5t-100.5 -34.5q-151 0 -151 200q0 102 29.5 179t83 119t124.5 42q59 0 91 -27.5t44 -80.5h7l16 96h146l-86 -516h-146zM341 150q39 46 47 97l14 83q2 14 2 20q0 31 -20.5 48t-61.5 17q-53 0 -82.5 -31t-39.5 -91l-10 -60
q-4 -24 -4 -45q2 -87 68 -87q48 0 87 49zM248.5 586q-37.5 36 -37.5 88q0 46 22.5 82.5t61 57t84.5 20.5q55 0 92.5 -36t37.5 -88q0 -46 -22.5 -82.5t-61 -57t-84.5 -20.5q-55 0 -92.5 36zM389 638q15 14 19 37q6 36 6 45q0 40 -43 40q-25 0 -40 -14t-19 -37q-6 -36 -6 -45
q0 -40 43 -40q25 0 40 14z" />
    <glyph glyph-name="ae" unicode="&#xe6;" horiz-adv-x="900" 
d="M69.5 24q-43.5 36 -43.5 101q0 81 65.5 122t197.5 47l91 4l5 27q3 18 3 30q0 70 -81 70q-56 0 -87 -17.5t-55 -50.5l-82 79q79 101 235 101q114 0 157 -76h7q68 76 169 76q85 0 145.5 -34t60.5 -111q0 -82 -83.5 -126.5t-268.5 -49.5q-2 -16 -2 -31q0 -84 94 -84
q50 0 81.5 15t65.5 58l86 -68q-48 -64 -104.5 -91t-139.5 -27q-73 0 -122.5 27t-74.5 77h-7q-25 -53 -71.5 -78.5t-107.5 -25.5q-90 0 -133.5 36zM566 400.5q-31 -29.5 -42 -80.5l-4 -19q82 4 126 14t59.5 25t15.5 37q0 31 -20.5 42t-59.5 11q-44 0 -75 -29.5zM316.5 107.5
q28.5 18.5 35.5 52.5l12 57l-81 -4q-52 -3 -76 -12t-31 -36q-4 -15 -4 -31q0 -23 19.5 -34t60.5 -11q36 0 64.5 18.5z" />
    <glyph glyph-name="ccedilla" unicode="&#xe7;" 
d="M477 493.5q49 -34.5 66 -96.5l-119 -56q-12 35 -32 52.5t-61 17.5q-44 0 -73 -28.5t-38 -81.5l-10 -60q-4 -24 -4 -47q0 -89 91 -89q23 0 42 8t43 31.5t60 70.5l91 -59q-50 -79 -102 -119.5t-125 -47.5l-16 -44l3 -4q21 7 42 7q28 0 47 -16t19 -42q0 -49 -40 -75.5
t-103 -26.5q-40 0 -70 13t-45 33l51 53q9 -11 25 -19.5t36 -8.5q23 0 36.5 7.5t13.5 21.5q0 29 -68 36l-23 2l25 64q-88 9 -135 65t-47 151q0 89 33.5 162.5t98.5 116.5t154 43q85 0 134 -34.5z" />
    <glyph glyph-name="egrave" unicode="&#xe8;" 
d="M112.5 45.5q-56.5 57.5 -56.5 162.5q0 95 38 167.5t106.5 112.5t159.5 40q82 0 136 -37t54 -105q0 -75 -74 -125.5t-274 -57.5q-1 -8 -1 -17q0 -86 99 -86q43 0 72.5 18.5t69.5 69.5l91 -59q-47 -68 -104 -104.5t-148 -36.5q-112 0 -168.5 57.5zM215 301l-3 -14
q86 5 129 18.5t55.5 30t12.5 37.5q0 52 -64 52q-104 0 -130 -124zM222 747l124 59l77 -196l-87 -39z" />
    <glyph glyph-name="eacute" unicode="&#xe9;" 
d="M112.5 45.5q-56.5 57.5 -56.5 162.5q0 95 38 167.5t106.5 112.5t159.5 40q82 0 136 -37t54 -105q0 -75 -74 -125.5t-274 -57.5q-1 -8 -1 -17q0 -86 99 -86q43 0 72.5 18.5t69.5 69.5l91 -59q-47 -68 -104 -104.5t-148 -36.5q-112 0 -168.5 57.5zM215 301l-3 -14
q86 5 129 18.5t55.5 30t12.5 37.5q0 52 -64 52q-104 0 -130 -124zM366 570l-86 46l115 190l114 -60z" />
    <glyph glyph-name="ecircumflex" unicode="&#xea;" 
d="M112.5 45.5q-56.5 57.5 -56.5 162.5q0 95 38 167.5t106.5 112.5t159.5 40q82 0 136 -37t54 -105q0 -75 -74 -125.5t-274 -57.5q-1 -8 -1 -17q0 -86 99 -86q43 0 72.5 18.5t69.5 69.5l91 -59q-47 -68 -104 -104.5t-148 -36.5q-112 0 -168.5 57.5zM215 301l-3 -14
q86 5 129 18.5t55.5 30t12.5 37.5q0 52 -64 52q-104 0 -130 -124zM446 785l108 -158l-76 -57l-106 115l-134 -115l-70 57l154 158h124z" />
    <glyph glyph-name="edieresis" unicode="&#xeb;" 
d="M112.5 45.5q-56.5 57.5 -56.5 162.5q0 95 38 167.5t106.5 112.5t159.5 40q82 0 136 -37t54 -105q0 -75 -74 -125.5t-274 -57.5q-1 -8 -1 -17q0 -86 99 -86q43 0 72.5 18.5t69.5 69.5l91 -59q-47 -68 -104 -104.5t-148 -36.5q-112 0 -168.5 57.5zM215 301l-3 -14
q86 5 129 18.5t55.5 30t12.5 37.5q0 52 -64 52q-104 0 -130 -124zM328 745l-27 -158h-159l27 158h159zM591 745l-27 -158h-159l27 158h159z" />
    <glyph glyph-name="igrave" unicode="&#xec;" horiz-adv-x="300" 
d="M119 516h148l-87 -514h-147zM67 747l124 59l77 -196l-87 -39z" />
    <glyph glyph-name="iacute" unicode="&#xed;" horiz-adv-x="300" 
d="M119 516h148l-87 -514h-147zM211 570l-86 46l115 190l114 -60z" />
    <glyph glyph-name="icircumflex" unicode="&#xee;" horiz-adv-x="300" 
d="M119 516h148l-87 -514h-147zM291 785l108 -158l-76 -57l-106 115l-134 -115l-70 57l154 158h124z" />
    <glyph glyph-name="idieresis" unicode="&#xef;" horiz-adv-x="300" 
d="M119 516h148l-87 -514h-147zM173 745l-27 -158h-159l27 158h159zM436 745l-27 -158h-159l27 158h159z" />
    <glyph glyph-name="eth" unicode="&#xf0;" 
d="M468 648q100 -125 100 -295q0 -182 -85 -273.5t-228 -91.5q-106 0 -164.5 57.5t-58.5 158.5q0 84 32.5 151.5t89 106t126.5 38.5q106 0 143 -96l8 4q-12 88 -84 175l-102 -55l-41 60l91 48q-59 55 -145 104h223q30 -24 45 -38l95 51l39 -60zM355.5 128.5
q33.5 31.5 43.5 89.5l9 54q3 18 3 31q0 42 -24.5 64t-67.5 22q-51 0 -84.5 -31.5t-43.5 -89.5l-9 -54q-3 -18 -3 -31q0 -42 24.5 -64t67.5 -22q51 0 84.5 31.5z" />
    <glyph glyph-name="ntilde" unicode="&#xf1;" 
d="M25 0l86 516h146l-20 -123h5q31 67 70 101t98 34q71 0 106 -42t35 -107q0 -38 -11 -104l-46 -275h-146l49 293q1 4 4 22.5t3 39.5q0 24 -14.5 42.5t-45.5 18.5q-25 0 -44 -11.5t-37 -35.5q-39 -52 -47 -100l-45 -269h-146zM386 597q-15 5 -38 16q-26 12 -42 17t-33 5
q-16 0 -30 -5.5t-33 -19.5l-40 67q23 29 54.5 46.5t69.5 17.5q20 0 35 -5t38 -16q26 -12 42 -17t33 -5q16 0 30 5.5t33 19.5l40 -67q-23 -29 -54.5 -46.5t-69.5 -17.5q-20 0 -35 5z" />
    <glyph glyph-name="ograve" unicode="&#xf2;" 
d="M102 47.5q-59 59.5 -59 162.5q0 97 36.5 169t103 110.5t152.5 38.5q104 0 163 -59.5t59 -162.5q0 -97 -36.5 -169t-103 -110.5t-152.5 -38.5q-104 0 -163 59.5zM354.5 126q30.5 29 39.5 83l13 78q5 30 5 41q0 45 -23.5 68t-64.5 23q-48 0 -78.5 -29t-39.5 -83l-13 -78
q-5 -30 -5 -41q0 -45 23.5 -68t64.5 -23q48 0 78.5 29zM222 747l124 59l77 -196l-87 -39z" />
    <glyph glyph-name="oacute" unicode="&#xf3;" 
d="M102 47.5q-59 59.5 -59 162.5q0 97 36.5 169t103 110.5t152.5 38.5q104 0 163 -59.5t59 -162.5q0 -97 -36.5 -169t-103 -110.5t-152.5 -38.5q-104 0 -163 59.5zM354.5 126q30.5 29 39.5 83l13 78q5 30 5 41q0 45 -23.5 68t-64.5 23q-48 0 -78.5 -29t-39.5 -83l-13 -78
q-5 -30 -5 -41q0 -45 23.5 -68t64.5 -23q48 0 78.5 29zM366 570l-86 46l115 190l114 -60z" />
    <glyph glyph-name="ocircumflex" unicode="&#xf4;" 
d="M102 47.5q-59 59.5 -59 162.5q0 97 36.5 169t103 110.5t152.5 38.5q104 0 163 -59.5t59 -162.5q0 -97 -36.5 -169t-103 -110.5t-152.5 -38.5q-104 0 -163 59.5zM354.5 126q30.5 29 39.5 83l13 78q5 30 5 41q0 45 -23.5 68t-64.5 23q-48 0 -78.5 -29t-39.5 -83l-13 -78
q-5 -30 -5 -41q0 -45 23.5 -68t64.5 -23q48 0 78.5 29zM446 785l108 -158l-76 -57l-106 115l-134 -115l-70 57l154 158h124z" />
    <glyph glyph-name="otilde" unicode="&#xf5;" 
d="M102 47.5q-59 59.5 -59 162.5q0 97 36.5 169t103 110.5t152.5 38.5q104 0 163 -59.5t59 -162.5q0 -97 -36.5 -169t-103 -110.5t-152.5 -38.5q-104 0 -163 59.5zM354.5 126q30.5 29 39.5 83l13 78q5 30 5 41q0 45 -23.5 68t-64.5 23q-48 0 -78.5 -29t-39.5 -83l-13 -78
q-5 -30 -5 -41q0 -45 23.5 -68t64.5 -23q48 0 78.5 29zM397 597q-15 5 -38 16q-26 12 -42 17t-33 5q-16 0 -30 -5.5t-33 -19.5l-40 67q23 29 54.5 46.5t69.5 17.5q20 0 35 -5t38 -16q26 -12 42 -17t33 -5q16 0 30 5.5t33 19.5l40 -67q-23 -29 -54.5 -46.5t-69.5 -17.5
q-20 0 -35 5z" />
    <glyph glyph-name="odieresis" unicode="&#xf6;" 
d="M102 47.5q-59 59.5 -59 162.5q0 97 36.5 169t103 110.5t152.5 38.5q104 0 163 -59.5t59 -162.5q0 -97 -36.5 -169t-103 -110.5t-152.5 -38.5q-104 0 -163 59.5zM354.5 126q30.5 29 39.5 83l13 78q5 30 5 41q0 45 -23.5 68t-64.5 23q-48 0 -78.5 -29t-39.5 -83l-13 -78
q-5 -30 -5 -41q0 -45 23.5 -68t64.5 -23q48 0 78.5 29zM328 745l-27 -158h-159l27 158h159zM591 745l-27 -158h-159l27 158h159z" />
    <glyph glyph-name="divide" unicode="&#xf7;" 
d="M271 435q-19 15 -19 39q0 11 5 41q5 29 28 47t66 18q40 0 59 -15t19 -39q0 -11 -5 -41q-5 -29 -28 -47t-66 -18q-40 0 -59 15zM61 247l20 116h476l-20 -116h-476zM207 45q-19 15 -19 39q0 11 5 41q5 29 28 47t66 18q40 0 59 -15t19 -39q0 -11 -5 -41q-5 -29 -28 -47
t-66 -18q-40 0 -59 15z" />
    <glyph glyph-name="oslash" unicode="&#xf8;" 
d="M69 92q-26 50 -26 118q0 97 36.5 169t103 110.5t152.5 38.5q80 0 134 -36l81 82l68 -61l-87 -89q26 -50 26 -118q0 -97 -36.5 -169t-103 -110.5t-152.5 -38.5q-80 0 -134 36l-81 -82l-68 61zM245.5 390q-30.5 -29 -39.5 -83q-1 -13 -9 -56l-8 -47l192 199q-22 16 -57 16
q-48 0 -78.5 -29zM355 126q30 29 39 83l13 78l4 25l-192 -199q22 -16 57 -16q49 0 79 29z" />
    <glyph glyph-name="ugrave" unicode="&#xf9;" 
d="M362 123h-5q-31 -67 -70 -101t-98 -34q-71 0 -106 42t-35 107q0 38 11 104l46 275h146l-49 -292q-7 -42 -7 -63q0 -24 14.5 -42.5t45.5 -18.5q25 0 44 11.5t37 35.5q39 52 47 100l45 269h146l-86 -516h-146zM217 747l124 59l77 -196l-87 -39z" />
    <glyph glyph-name="uacute" unicode="&#xfa;" 
d="M362 123h-5q-31 -67 -70 -101t-98 -34q-71 0 -106 42t-35 107q0 38 11 104l46 275h146l-49 -292q-7 -42 -7 -63q0 -24 14.5 -42.5t45.5 -18.5q25 0 44 11.5t37 35.5q39 52 47 100l45 269h146l-86 -516h-146zM361 570l-86 46l115 190l114 -60z" />
    <glyph glyph-name="ucircumflex" unicode="&#xfb;" 
d="M362 123h-5q-31 -67 -70 -101t-98 -34q-71 0 -106 42t-35 107q0 38 11 104l46 275h146l-49 -292q-7 -42 -7 -63q0 -24 14.5 -42.5t45.5 -18.5q25 0 44 11.5t37 35.5q39 52 47 100l45 269h146l-86 -516h-146zM441 785l108 -158l-76 -57l-106 115l-134 -115l-70 57l154 158
h124z" />
    <glyph glyph-name="udieresis" unicode="&#xfc;" 
d="M362 123h-5q-31 -67 -70 -101t-98 -34q-71 0 -106 42t-35 107q0 38 11 104l46 275h146l-49 -292q-7 -42 -7 -63q0 -24 14.5 -42.5t45.5 -18.5q25 0 44 11.5t37 35.5q39 52 47 100l45 269h146l-86 -516h-146zM323 745l-27 -158h-159l27 158h159zM586 745l-27 -158h-159
l27 158h159z" />
    <glyph glyph-name="yacute" unicode="&#xfd;" 
d="M92 -196q-49 16 -86 60l87 90q43 -53 120 -53q40 0 66 12.5t44 46t28 94.5l14 86h-5q-31 -67 -70 -101t-98 -34q-71 0 -106 42t-35 107q0 38 11 104l43 258h146l-46 -275q-7 -42 -7 -63q0 -24 14.5 -42.5t45.5 -18.5q25 0 44 11.5t37 35.5q39 52 47 100l42 252h146
l-80 -480q-21 -124 -91 -186t-186 -62q-76 0 -125 16zM372 570l-86 46l115 190l114 -60z" />
    <glyph glyph-name="thorn" unicode="&#xfe;" 
d="M144 740h146l-57 -347h5q33 66 72.5 100.5t100.5 34.5q151 0 151 -200q0 -102 -29.5 -179t-83 -119t-124.5 -42q-59 0 -91 27.5t-44 80.5h-7l-50 -296h-146zM360.5 132q29.5 31 39.5 91l10 60q4 24 4 45q-2 87 -68 87q-48 0 -87 -49q-39 -46 -47 -97l-14 -83
q-2 -14 -2 -20q0 -31 20.5 -48t61.5 -17q53 0 82.5 31z" />
    <glyph glyph-name="ydieresis" unicode="&#xff;" 
d="M92 -196q-49 16 -86 60l87 90q43 -53 120 -53q40 0 66 12.5t44 46t28 94.5l14 86h-5q-31 -67 -70 -101t-98 -34q-71 0 -106 42t-35 107q0 38 11 104l43 258h146l-46 -275q-7 -42 -7 -63q0 -24 14.5 -42.5t45.5 -18.5q25 0 44 11.5t37 35.5q39 52 47 100l42 252h146
l-80 -480q-21 -124 -91 -186t-186 -62q-76 0 -125 16zM334 745l-27 -158h-159l27 158h159zM597 745l-27 -158h-159l27 158h159z" />
    <glyph glyph-name="Amacron" unicode="&#x100;" 
d="M400 0l-17 169h-196l-69 -169h-155l307 698h206l76 -698h-152zM356 553h-9l-110 -264h140zM249 888h305l-17 -102h-305z" />
    <glyph glyph-name="amacron" unicode="&#x101;" 
d="M347 0l20 123h-5q-33 -66 -72.5 -100.5t-100.5 -34.5q-151 0 -151 200q0 102 29.5 179t83 119t124.5 42q59 0 91 -27.5t44 -80.5h7l16 96h146l-86 -516h-146zM341 150q39 46 47 97l14 83q2 14 2 20q0 31 -20.5 48t-61.5 17q-53 0 -82.5 -31t-39.5 -91l-10 -60
q-4 -24 -4 -45q2 -87 68 -87q48 0 87 49zM213 718h305l-17 -102h-305z" />
    <glyph glyph-name="Abreve" unicode="&#x102;" 
d="M400 0l-17 169h-196l-69 -169h-155l307 698h206l76 -698h-152zM356 553h-9l-110 -264h140zM212 910l81 42l20 -37q21 -39 38 -55.5t46 -16.5q25 0 44.5 16.5t49.5 57.5l26 35l83 -42q-40 -78 -87.5 -124t-121.5 -46q-135 0 -179 170z" />
    <glyph glyph-name="abreve" unicode="&#x103;" 
d="M347 0l20 123h-5q-33 -66 -72.5 -100.5t-100.5 -34.5q-151 0 -151 200q0 102 29.5 179t83 119t124.5 42q59 0 91 -27.5t44 -80.5h7l16 96h146l-86 -516h-146zM341 150q39 46 47 97l14 83q2 14 2 20q0 31 -20.5 48t-61.5 17q-53 0 -82.5 -31t-39.5 -91l-10 -60
q-4 -24 -4 -45q2 -87 68 -87q48 0 87 49zM176 740l81 42l20 -37q21 -39 38 -55.5t46 -16.5q25 0 44.5 16.5t49.5 57.5l26 35l83 -42q-40 -78 -87.5 -124t-121.5 -46q-135 0 -179 170z" />
    <glyph glyph-name="Aogonek" unicode="&#x104;" 
d="M270 698h206l76 -698q-71 -43 -93.5 -67t-22.5 -43q0 -14 9 -22t28 -8q35 0 53 27l54 -45q-42 -54 -121 -54q-55 0 -88.5 22.5t-33.5 62.5q0 39 34.5 71.5t105.5 51.5l-1 4h-76l-17 169h-196l-69 -169h-155zM356 553h-9l-110 -264h140z" />
    <glyph glyph-name="aogonek" unicode="&#x105;" 
d="M493 0q-71 -43 -93.5 -67t-22.5 -43q0 -14 9 -22t28 -8q35 0 53 27l54 -45q-42 -54 -121 -54q-55 0 -88.5 22.5t-33.5 62.5q0 39 34.5 71.5t105.5 51.5l-1 4h-70l20 123h-5q-33 -66 -72.5 -100.5t-100.5 -34.5q-151 0 -151 200q0 101 29.5 178t83 119.5t122.5 42.5
q60 0 92.5 -27.5t44.5 -80.5h7l16 96h146zM341 150q39 46 47 97l14 83q2 14 2 20q0 31 -20.5 48t-61.5 17q-53 0 -82.5 -31t-39.5 -91l-10 -60q-4 -24 -4 -45q2 -87 68 -87q48 0 87 49z" />
    <glyph glyph-name="Cacute" unicode="&#x106;" 
d="M109.5 57q-59.5 69 -59.5 197q0 135 39.5 238t113 160.5t170.5 57.5q112 0 168.5 -55t62.5 -150l-143 -29q-3 56 -23.5 85t-70.5 29q-59 0 -93 -47t-49 -135l-18 -109q-8 -48 -8 -78q0 -113 101 -113q83 0 132 119l127 -38q-43 -101 -106.5 -151t-162.5 -50
q-121 0 -180.5 69zM394 740l-86 46l115 190l114 -60z" />
    <glyph glyph-name="cacute" unicode="&#x107;" 
d="M113 45q-56 57 -56 161q0 89 33.5 162.5t98.5 116.5t154 43q85 0 134 -34.5t66 -96.5l-119 -56q-12 35 -32 52.5t-61 17.5q-43 0 -72.5 -28.5t-38.5 -81.5l-10 -60q-4 -24 -4 -47q0 -89 91 -89q23 0 42 8t43 31.5t60 70.5l91 -59q-55 -87 -113.5 -127.5t-146.5 -40.5
q-104 0 -160 57zM362 570l-86 46l115 190l114 -60z" />
    <glyph glyph-name="Ccircumflex" unicode="&#x108;" 
d="M109.5 57q-59.5 69 -59.5 197q0 135 39.5 238t113 160.5t170.5 57.5q112 0 168.5 -55t62.5 -150l-143 -29q-3 56 -23.5 85t-70.5 29q-59 0 -93 -47t-49 -135l-18 -109q-8 -48 -8 -78q0 -113 101 -113q83 0 132 119l127 -38q-43 -101 -106.5 -151t-162.5 -50
q-121 0 -180.5 69zM474 955l108 -158l-76 -57l-106 115l-134 -115l-70 57l154 158h124z" />
    <glyph glyph-name="ccircumflex" unicode="&#x109;" 
d="M113 45q-56 57 -56 161q0 89 33.5 162.5t98.5 116.5t154 43q85 0 134 -34.5t66 -96.5l-119 -56q-12 35 -32 52.5t-61 17.5q-43 0 -72.5 -28.5t-38.5 -81.5l-10 -60q-4 -24 -4 -47q0 -89 91 -89q23 0 42 8t43 31.5t60 70.5l91 -59q-55 -87 -113.5 -127.5t-146.5 -40.5
q-104 0 -160 57zM442 785l108 -158l-76 -57l-106 115l-134 -115l-70 57l154 158h124z" />
    <glyph glyph-name="Cdotaccent" unicode="&#x10a;" 
d="M109.5 57q-59.5 69 -59.5 197q0 135 39.5 238t113 160.5t170.5 57.5q112 0 168.5 -55t62.5 -150l-143 -29q-3 56 -23.5 85t-70.5 29q-59 0 -93 -47t-49 -135l-18 -109q-8 -48 -8 -78q0 -113 101 -113q83 0 132 119l127 -38q-43 -101 -106.5 -151t-162.5 -50
q-121 0 -180.5 69zM488 916l-27 -158h-159l27 158h159z" />
    <glyph glyph-name="cdotaccent" unicode="&#x10b;" 
d="M113 45q-56 57 -56 161q0 89 33.5 162.5t98.5 116.5t154 43q85 0 134 -34.5t66 -96.5l-119 -56q-12 35 -32 52.5t-61 17.5q-43 0 -72.5 -28.5t-38.5 -81.5l-10 -60q-4 -24 -4 -47q0 -89 91 -89q23 0 42 8t43 31.5t60 70.5l91 -59q-55 -87 -113.5 -127.5t-146.5 -40.5
q-104 0 -160 57zM457 745l-27 -158h-159l27 158h159z" />
    <glyph glyph-name="Ccaron" unicode="&#x10c;" 
d="M109.5 57q-59.5 69 -59.5 197q0 135 39.5 238t113 160.5t170.5 57.5q112 0 168.5 -55t62.5 -150l-143 -29q-3 56 -23.5 85t-70.5 29q-59 0 -93 -47t-49 -135l-18 -109q-8 -48 -8 -78q0 -113 101 -113q83 0 132 119l127 -38q-43 -101 -106.5 -151t-162.5 -50
q-121 0 -180.5 69zM324 749l-108 158l76 57l106 -115l134 115l70 -57l-154 -158h-124z" />
    <glyph glyph-name="ccaron" unicode="&#x10d;" 
d="M113 45q-56 57 -56 161q0 89 33.5 162.5t98.5 116.5t154 43q85 0 134 -34.5t66 -96.5l-119 -56q-12 35 -32 52.5t-61 17.5q-43 0 -72.5 -28.5t-38.5 -81.5l-10 -60q-4 -24 -4 -47q0 -89 91 -89q23 0 42 8t43 31.5t60 70.5l91 -59q-55 -87 -113.5 -127.5t-146.5 -40.5
q-104 0 -160 57zM292 579l-108 158l76 57l106 -115l134 115l70 -57l-154 -158h-124z" />
    <glyph glyph-name="Dcaron" unicode="&#x10e;" 
d="M142 698h205q117 0 179 -66.5t62 -190.5q0 -138 -39 -237t-114.5 -151.5t-182.5 -52.5h-227zM255 117q67 0 105.5 38.5t51.5 119.5l21 126q6 36 6 68q0 57 -26 84.5t-79 27.5h-65l-77 -464h63zM274 749l-108 158l76 57l106 -115l134 115l70 -57l-154 -158h-124z" />
    <glyph glyph-name="dcaron" unicode="&#x10f;" 
d="M18 188q0 101 25.5 178t71 119.5t104.5 42.5q49 0 75 -27t38 -81h6l54 320h139l-124 -740h-139l16 95h-7q-27 -54 -54.5 -80.5t-72.5 -26.5q-132 0 -132 200zM582 740h129l-89 -210h-76zM237.5 105q9.5 4 20.5 14q14 14 27 38t18 53l21 124q2 16 2 22q0 28 -15.5 43.5
t-43.5 15.5q-36 0 -56 -29.5t-30 -86.5l-11 -66q-5 -30 -5 -61t13 -51t35 -20q15 0 24.5 4z" />
    <glyph glyph-name="Dcroat" unicode="&#x110;" 
d="M77 312h-57l19 112h58l45 274h205q117 0 179 -66.5t62 -190.5q0 -138 -39 -237t-114.5 -151.5t-182.5 -52.5h-227zM255 117q67 0 105.5 38.5t51.5 119.5l21 126q6 36 6 68q0 57 -26 84.5t-79 27.5h-65l-27 -162h110l-17 -102h-110l-33 -200h63z" />
    <glyph glyph-name="dcroat" unicode="&#x111;" 
d="M367 123h-5q-33 -66 -72.5 -100.5t-100.5 -34.5q-151 0 -151 200q0 102 29.5 179t83 119t124.5 42q59 0 91 -27.5t44 -80.5h7l27 161h-140l18 108h140l9 51h146l-9 -51h54l-18 -108h-54l-97 -581h-146zM341 150q39 46 47 97l14 83q2 14 2 20q0 31 -20.5 48t-61.5 17
q-53 0 -82.5 -31t-39.5 -91l-10 -60q-4 -24 -4 -45q2 -87 68 -87q48 0 87 49z" />
    <glyph glyph-name="Emacron" unicode="&#x112;" 
d="M38 0l117 698h446l-20 -122h-300l-27 -162h286l-20 -122h-287l-28 -170h299l-20 -122h-446zM252 888h305l-17 -102h-305z" />
    <glyph glyph-name="emacron" unicode="&#x113;" 
d="M112.5 45.5q-56.5 57.5 -56.5 162.5q0 95 38 167.5t106.5 112.5t159.5 40q82 0 136 -37t54 -105q0 -75 -74 -125.5t-274 -57.5q-1 -8 -1 -17q0 -86 99 -86q43 0 72.5 18.5t69.5 69.5l91 -59q-47 -68 -104 -104.5t-148 -36.5q-112 0 -168.5 57.5zM215 301l-3 -14
q86 5 129 18.5t55.5 30t12.5 37.5q0 52 -64 52q-104 0 -130 -124zM224 718h305l-17 -102h-305z" />
    <glyph glyph-name="Ebreve" unicode="&#x114;" 
d="M38 0l117 698h446l-20 -122h-300l-27 -162h286l-20 -122h-287l-28 -170h299l-20 -122h-446zM215 910l81 42l20 -37q21 -39 38 -55.5t46 -16.5q25 0 44.5 16.5t49.5 57.5l26 35l83 -42q-40 -78 -87.5 -124t-121.5 -46q-135 0 -179 170z" />
    <glyph glyph-name="ebreve" unicode="&#x115;" 
d="M112.5 45.5q-56.5 57.5 -56.5 162.5q0 95 38 167.5t106.5 112.5t159.5 40q82 0 136 -37t54 -105q0 -75 -74 -125.5t-274 -57.5q-1 -8 -1 -17q0 -86 99 -86q43 0 72.5 18.5t69.5 69.5l91 -59q-47 -68 -104 -104.5t-148 -36.5q-112 0 -168.5 57.5zM215 301l-3 -14
q86 5 129 18.5t55.5 30t12.5 37.5q0 52 -64 52q-104 0 -130 -124zM187 740l81 42l20 -37q21 -39 38 -55.5t46 -16.5q25 0 44.5 16.5t49.5 57.5l26 35l83 -42q-40 -78 -87.5 -124t-121.5 -46q-135 0 -179 170z" />
    <glyph glyph-name="Edotaccent" unicode="&#x116;" 
d="M38 0l117 698h446l-20 -122h-300l-27 -162h286l-20 -122h-287l-28 -170h299l-20 -122h-446zM488 916l-27 -158h-159l27 158h159z" />
    <glyph glyph-name="edotaccent" unicode="&#x117;" 
d="M112.5 45.5q-56.5 57.5 -56.5 162.5q0 95 38 167.5t106.5 112.5t159.5 40q82 0 136 -37t54 -105q0 -75 -74 -125.5t-274 -57.5q-1 -8 -1 -17q0 -86 99 -86q43 0 72.5 18.5t69.5 69.5l91 -59q-47 -68 -104 -104.5t-148 -36.5q-112 0 -168.5 57.5zM215 301l-3 -14
q86 5 129 18.5t55.5 30t12.5 37.5q0 52 -64 52q-104 0 -130 -124zM461 745l-27 -158h-159l27 158h159z" />
    <glyph glyph-name="Eogonek" unicode="&#x118;" 
d="M155 698h446l-20 -122h-300l-27 -162h286l-20 -122h-286l-29 -170h299l-20 -122q-71 -43 -93.5 -67t-22.5 -43q0 -14 9 -22t28 -8q35 0 53 27l54 -45q-42 -54 -121 -54q-55 0 -88.5 22.5t-33.5 62.5q0 39 34.5 71.5t105.5 51.5l-1 4h-370z" />
    <glyph glyph-name="eogonek" unicode="&#x119;" 
d="M237.5 -189.5q-33.5 22.5 -33.5 62.5q0 37 30.5 66.5t82.5 46.5l-1 4q-14 -2 -35 -2q-112 0 -168.5 57.5t-56.5 162.5q0 95 38 167.5t106.5 112.5t159.5 40q82 0 136 -37t54 -105q0 -75 -74 -125.5t-274 -57.5q-1 -6 -1 -18q0 -85 99 -85q43 0 72.5 18.5t69.5 69.5
l91 -59q-26 -37 -52.5 -63t-70.5 -54q-59 -37 -83 -65.5t-24 -52.5q0 -34 37 -34q35 0 53 27l54 -45q-42 -54 -121 -54q-55 0 -88.5 22.5zM215 301l-3 -14q86 5 129 18.5t55.5 30t12.5 37.5q0 52 -64 52q-104 0 -130 -124z" />
    <glyph glyph-name="Ecaron" unicode="&#x11a;" 
d="M38 0l117 698h446l-20 -122h-300l-27 -162h286l-20 -122h-287l-28 -170h299l-20 -122h-446zM324 749l-108 158l76 57l106 -115l134 115l70 -57l-154 -158h-124z" />
    <glyph glyph-name="ecaron" unicode="&#x11b;" 
d="M112.5 45.5q-56.5 57.5 -56.5 162.5q0 95 38 167.5t106.5 112.5t159.5 40q82 0 136 -37t54 -105q0 -75 -74 -125.5t-274 -57.5q-1 -8 -1 -17q0 -86 99 -86q43 0 72.5 18.5t69.5 69.5l91 -59q-47 -68 -104 -104.5t-148 -36.5q-112 0 -168.5 57.5zM215 301l-3 -14
q86 5 129 18.5t55.5 30t12.5 37.5q0 52 -64 52q-104 0 -130 -124zM296 579l-108 158l76 57l106 -115l134 115l70 -57l-154 -158h-124z" />
    <glyph glyph-name="Gcircumflex" unicode="&#x11c;" 
d="M390 101h-9q-32 -57 -64 -85t-87 -28q-87 0 -136 66.5t-49 190.5q0 135 36.5 240t109.5 165t177 60t159 -55.5t62 -150.5l-143 -28q-4 53 -24 83.5t-67 30.5q-104 0 -134 -177l-17 -102q-8 -48 -8 -87q0 -54 23 -85t70 -31q50 0 81.5 31.5t39.5 79.5l8 48h-123l17 105
h254l-62 -372h-131zM467 955l108 -158l-76 -57l-106 115l-134 -115l-70 57l154 158h124z" />
    <glyph glyph-name="gcircumflex" unicode="&#x11d;" 
d="M99 -196q-49 16 -86 60l87 90q43 -53 120 -53q40 0 66 12.5t44.5 46t28.5 94.5l15 89h-6q-32 -66 -71 -100.5t-101 -34.5q-79 0 -117 54t-38 146q0 94 28.5 166.5t81.5 113t124 40.5q60 0 92.5 -27.5t43.5 -80.5h8l16 96h146l-80 -480q-21 -124 -91 -186t-186 -62
q-76 0 -125 16zM306 133.5q20 11.5 39 34.5q18 21 31 43.5t18 54.5l11 67q2 12 2 17q0 30 -20.5 47.5t-61.5 17.5q-53 0 -83 -32.5t-40 -89.5l-7 -42q-4 -24 -4 -49q0 -36 17 -58t52 -22q26 0 46 11.5zM437 785l108 -158l-76 -57l-106 115l-134 -115l-70 57l154 158h124z
" />
    <glyph glyph-name="Gbreve" unicode="&#x11e;" 
d="M390 101h-9q-32 -57 -64 -85t-87 -28q-87 0 -136 66.5t-49 190.5q0 135 36.5 240t109.5 165t177 60t159 -55.5t62 -150.5l-143 -28q-4 53 -24 83.5t-67 30.5q-104 0 -134 -177l-17 -102q-8 -48 -8 -87q0 -54 23 -85t70 -31q50 0 81.5 31.5t39.5 79.5l8 48h-123l17 105
h254l-62 -372h-131zM208 910l81 42l20 -37q21 -39 38 -55.5t46 -16.5q25 0 44.5 16.5t49.5 57.5l26 35l83 -42q-40 -78 -87.5 -124t-121.5 -46q-135 0 -179 170z" />
    <glyph glyph-name="gbreve" unicode="&#x11f;" 
d="M99 -196q-49 16 -86 60l87 90q43 -53 120 -53q40 0 66 12.5t44.5 46t28.5 94.5l15 89h-6q-32 -66 -71 -100.5t-101 -34.5q-79 0 -117 54t-38 146q0 94 28.5 166.5t81.5 113t124 40.5q60 0 92.5 -27.5t43.5 -80.5h8l16 96h146l-80 -480q-21 -124 -91 -186t-186 -62
q-76 0 -125 16zM306 133.5q20 11.5 39 34.5q18 21 31 43.5t18 54.5l11 67q2 12 2 17q0 30 -20.5 47.5t-61.5 17.5q-53 0 -83 -32.5t-40 -89.5l-7 -42q-4 -24 -4 -49q0 -36 17 -58t52 -22q26 0 46 11.5zM178 740l81 42l20 -37q21 -39 38 -55.5t46 -16.5q25 0 44.5 16.5
t49.5 57.5l26 35l83 -42q-40 -78 -87.5 -124t-121.5 -46q-135 0 -179 170z" />
    <glyph glyph-name="Gdotaccent" unicode="&#x120;" 
d="M390 101h-9q-32 -57 -64 -85t-87 -28q-87 0 -136 66.5t-49 190.5q0 135 36.5 240t109.5 165t177 60t159 -55.5t62 -150.5l-143 -28q-4 53 -24 83.5t-67 30.5q-104 0 -134 -177l-17 -102q-8 -48 -8 -87q0 -54 23 -85t70 -31q50 0 81.5 31.5t39.5 79.5l8 48h-123l17 105
h254l-62 -372h-131zM481 916l-27 -158h-159l27 158h159z" />
    <glyph glyph-name="gdotaccent" unicode="&#x121;" 
d="M99 -196q-49 16 -86 60l87 90q43 -53 120 -53q40 0 66 12.5t44.5 46t28.5 94.5l15 89h-6q-32 -66 -71 -100.5t-101 -34.5q-79 0 -117 54t-38 146q0 94 28.5 166.5t81.5 113t124 40.5q60 0 92.5 -27.5t43.5 -80.5h8l16 96h146l-80 -480q-21 -124 -91 -186t-186 -62
q-76 0 -125 16zM306 133.5q20 11.5 39 34.5q18 21 31 43.5t18 54.5l11 67q2 12 2 17q0 30 -20.5 47.5t-61.5 17.5q-53 0 -83 -32.5t-40 -89.5l-7 -42q-4 -24 -4 -49q0 -36 17 -58t52 -22q26 0 46 11.5zM452 745l-27 -158h-159l27 158h159z" />
    <glyph glyph-name="uni0122" unicode="&#x122;" 
d="M390 101h-9q-32 -57 -64 -85t-87 -28q-87 0 -136 66.5t-49 190.5q0 135 36.5 240t109.5 165t177 60t159 -55.5t62 -150.5l-143 -28q-4 53 -24 83.5t-67 30.5q-104 0 -134 -177l-17 -102q-8 -48 -8 -87q0 -54 23 -85t70 -31q50 0 81.5 31.5t39.5 79.5l8 48h-123l17 105
h254l-62 -372h-131zM212 -54h156l-121 -215h-88z" />
    <glyph glyph-name="uni0123" unicode="&#x123;" 
d="M99 -196q-49 16 -86 60l87 90q43 -53 120 -53q40 0 66 12.5t44.5 46t28.5 94.5l15 89h-6q-32 -66 -71 -100.5t-101 -34.5q-79 0 -117 54t-38 146q0 94 28.5 166.5t81.5 113t124 40.5q60 0 92.5 -27.5t43.5 -80.5h8l16 96h146l-80 -480q-21 -124 -91 -186t-186 -62
q-76 0 -125 16zM306 133.5q20 11.5 39 34.5q18 21 31 43.5t18 54.5l11 67q2 12 2 17q0 30 -20.5 47.5t-61.5 17.5q-53 0 -83 -32.5t-40 -89.5l-7 -42q-4 -24 -4 -49q0 -36 17 -58t52 -22q26 0 46 11.5zM387 794h88l-53 -215h-156z" />
    <glyph glyph-name="Hcircumflex" unicode="&#x124;" 
d="M397 293h-180l-49 -293h-148l116 698h148l-47 -284h180l47 284h148l-116 -698h-148zM475 955l108 -158l-76 -57l-106 115l-134 -115l-70 57l154 158h124z" />
    <glyph glyph-name="hcircumflex" unicode="&#x125;" 
d="M148 740h146l-57 -347h5q31 67 70 101t98 34q71 0 106 -42t35 -107q0 -38 -11 -104l-46 -275h-146l49 293q1 4 4 22.5t3 39.5q0 24 -14.5 42.5t-45.5 18.5q-25 0 -44 -11.5t-37 -35.5q-39 -52 -47 -100l-45 -269h-146zM316 967l108 -158l-76 -57l-106 115l-134 -115
l-70 57l154 158h124z" />
    <glyph glyph-name="Hbar" unicode="&#x126;" 
d="M397 293h-180l-49 -293h-148l85 507h-53l19 112h52l13 79h148l-14 -86h180l14 86h148l-13 -79h53l-19 -112h-52l-85 -507h-148zM417 414l17 100h-180l-16 -100h179z" />
    <glyph glyph-name="hbar" unicode="&#x127;" 
d="M122 581h-59l18 108h59l8 51h146l-8 -51h135l-18 -108h-135l-31 -188h5q31 67 70 101t98 34q71 0 106 -42t35 -107q0 -38 -11 -104l-46 -275h-146l49 292q7 42 7 63q0 24 -14.5 42.5t-45.5 18.5q-25 0 -44 -11.5t-37 -35.5q-39 -52 -47 -100l-45 -269h-146z" />
    <glyph glyph-name="Itilde" unicode="&#x128;" horiz-adv-x="300" 
d="M34 0l116 698h148l-116 -698h-148zM277 767q-15 5 -38 16q-26 12 -42 17t-33 5q-16 0 -30 -5.5t-33 -19.5l-40 67q23 29 54.5 46.5t69.5 17.5q20 0 35 -5t38 -16q26 -12 42 -17t33 -5q16 0 30 5.5t33 19.5l40 -67q-23 -29 -54.5 -46.5t-69.5 -17.5q-20 0 -35 5z" />
    <glyph glyph-name="itilde" unicode="&#x129;" horiz-adv-x="300" 
d="M119 516h148l-87 -514h-147zM242 597q-15 5 -38 16q-26 12 -42 17t-33 5q-16 0 -30 -5.5t-33 -19.5l-40 67q23 29 54.5 46.5t69.5 17.5q20 0 35 -5t38 -16q26 -12 42 -17t33 -5q16 0 30 5.5t33 19.5l40 -67q-23 -29 -54.5 -46.5t-69.5 -17.5q-20 0 -35 5z" />
    <glyph glyph-name="Imacron" unicode="&#x12a;" horiz-adv-x="300" 
d="M34 0l116 698h148l-116 -698h-148zM104 888h305l-17 -102h-305z" />
    <glyph glyph-name="imacron" unicode="&#x12b;" horiz-adv-x="300" 
d="M119 516h148l-87 -514h-147zM69 718h305l-17 -102h-305z" />
    <glyph glyph-name="Ibreve" unicode="&#x12c;" horiz-adv-x="300" 
d="M34 0l116 698h148l-116 -698h-148zM67 910l81 42l20 -37q21 -39 38 -55.5t46 -16.5q25 0 44.5 16.5t49.5 57.5l26 35l83 -42q-40 -78 -87.5 -124t-121.5 -46q-135 0 -179 170z" />
    <glyph glyph-name="ibreve" unicode="&#x12d;" horiz-adv-x="300" 
d="M119 516h148l-87 -514h-147zM32 740l81 42l20 -37q21 -39 38 -55.5t46 -16.5q25 0 44.5 16.5t49.5 57.5l26 35l83 -42q-40 -78 -87.5 -124t-121.5 -46q-135 0 -179 170z" />
    <glyph glyph-name="Iogonek" unicode="&#x12e;" 
d="M50 110h151l80 478h-151l18 110h450l-18 -110h-151l-80 -478h151l-18 -110q-71 -42 -93 -66.5t-22 -43.5q0 -14 9 -22t28 -8q35 0 53 27l54 -45q-42 -54 -121 -54q-55 0 -88.5 22.5t-33.5 62.5q0 39 34.5 71.5t105.5 51.5l-1 4h-375z" />
    <glyph glyph-name="iogonek" unicode="&#x12f;" 
d="M276.5 600.5q-19.5 16.5 -19.5 45.5q0 10 4 38q5 32 27 49.5t68 17.5q42 0 62 -16.5t20 -44.5q0 -10 -5 -40q-5 -32 -27 -49t-68 -17q-42 0 -61.5 16.5zM247.5 -189.5q-33.5 22.5 -33.5 62.5q0 36 26.5 62t76.5 50l-2 4l-17 -1q-60 0 -92 32t-32 88q0 29 10 80l40 214
h-156l19 114h304l-77 -410l17 -5l140 143l80 -71l-147 -153l-17 -18q-43 -44 -58.5 -66t-15.5 -45q0 -14 9.5 -22.5t27.5 -8.5q35 0 53 27l54 -45q-42 -54 -121 -54q-55 0 -88.5 22.5z" />
    <glyph glyph-name="Idotaccent" unicode="&#x130;" horiz-adv-x="300" 
d="M34 0l116 698h148l-116 -698h-148zM340 916l-27 -158h-159l27 158h159z" />
    <glyph glyph-name="dotlessi" unicode="&#x131;" horiz-adv-x="300" 
d="M119 516h148l-87 -514h-147z" />
    <glyph glyph-name="IJ" unicode="&#x132;" 
d="M643 698l-82 -493q-36 -217 -258 -217q-102 0 -157 53t-57 144l139 26q2 -49 21.5 -76t64.5 -27q82 0 99 104l81 486h149zM180 698h148l-65 -390h-148z" />
    <glyph glyph-name="ij" unicode="&#x133;" 
d="M146.5 600.5q-19.5 16.5 -19.5 44.5q0 10 5 40q5 32 27 49t67 17q43 0 62.5 -16.5t19.5 -44.5q0 -10 -5 -40q-5 -32 -27 -49t-67 -17q-43 0 -62.5 16.5zM443.5 600.5q-19.5 16.5 -19.5 44.5q0 10 5 40q5 32 27 49t67 17q43 0 62.5 -16.5t19.5 -44.5q0 -10 -5 -40
q-5 -32 -27 -49t-67 -17q-43 0 -62.5 16.5zM116 516h146l-86 -516h-146zM151 -119l-29 41l98 72l83 -95l13 5l102 612h146l-92 -553q-29 -175 -170 -175q-84 0 -151 93z" />
    <glyph glyph-name="Jcircumflex" unicode="&#x134;" 
d="M583 698l-83 -496q-18 -106 -82.5 -160t-174.5 -54q-102 0 -157 53t-57 144l139 26q2 -49 21.5 -76t64.5 -27q40 0 65.5 24.5t33.5 73.5l62 370h-234l20 122h382zM493 955l108 -158l-76 -57l-106 115l-134 -115l-70 57l154 158h124z" />
    <glyph glyph-name="jcircumflex" unicode="&#x135;" horiz-adv-x="300" 
d="M-86.5 -178.5q-37.5 33.5 -87.5 113.5l-8 13l100 69l89 -118l13 5l102 612h146l-92 -553q-16 -93 -56.5 -134t-113.5 -41q-55 0 -92.5 33.5zM297 785l108 -158l-76 -57l-106 115l-134 -115l-70 57l154 158h124z" />
    <glyph glyph-name="uni0136" unicode="&#x136;" 
d="M289 282l-82 -91l-32 -191h-148l116 698h148l-50 -299h8l244 299h174l-260 -310l155 -388h-164zM189 -54h156l-121 -215h-88z" />
    <glyph glyph-name="uni0137" unicode="&#x137;" 
d="M147 740h146l-57 -347h6q61 135 178 135q62 0 98 -34.5t36 -87.5q0 -70 -44.5 -115.5t-132.5 -72.5l42 -110l15 -3l82 80l70 -69l-52 -56q-33 -36 -67 -54t-73 -18q-45 0 -73 25.5t-46 76.5l-50 137q95 28 139 58t44 76q0 26 -17.5 42t-49.5 16q-20 0 -39.5 -10.5
t-40.5 -37.5q-17 -22 -28.5 -45.5t-17.5 -56.5l-45 -269h-146zM162 -54h156l-121 -215h-88z" />
    <glyph glyph-name="kgreenlandic" unicode="&#x138;" 
d="M262 219l-69 -62l-26 -157h-145l86 516h145l-33 -201h8l82 82l127 119h168l-230 -215l164 -301h-165z" />
    <glyph glyph-name="Lacute" unicode="&#x139;" 
d="M51 0l116 698h148l-96 -576h302l-20 -122h-450zM258 740l-86 46l115 190l114 -60z" />
    <glyph glyph-name="lacute" unicode="&#x13a;" horiz-adv-x="300" 
d="M122 0q-40 0 -65 22t-25 58q0 10 3 25l107 635h149l-103 -612v-4q0 -12 13 -12h37l-22 -112h-94zM233 752l-86 46l115 190l114 -60z" />
    <glyph glyph-name="uni013B" unicode="&#x13b;" 
d="M51 0l116 698h148l-96 -576h302l-20 -122h-450zM191 -54h156l-121 -215h-88z" />
    <glyph glyph-name="uni013C" unicode="&#x13c;" horiz-adv-x="300" 
d="M122 0q-40 0 -65 22t-25 58q0 10 3 25l107 635h149l-103 -612v-4q0 -12 13 -12h37l-22 -112h-94zM10 -54h156l-121 -215h-88z" />
    <glyph glyph-name="Lcaron" unicode="&#x13d;" 
d="M51 0l116 698h148l-96 -576h302l-20 -122h-450zM462 525h-97l41 215h157z" />
    <glyph glyph-name="lcaron" unicode="&#x13e;" horiz-adv-x="300" 
d="M122 0q-40 0 -65 22t-25 58q0 10 3 25l107 635h149l-103 -612v-4q0 -12 13 -12h37l-22 -112h-94zM392 525h-97l41 215h157z" />
    <glyph glyph-name="Ldot" unicode="&#x13f;" 
d="M51 0l116 698h148l-96 -576h302l-20 -122h-450zM551 406l-27 -158h-159l27 158h159z" />
    <glyph glyph-name="ldot" unicode="&#x140;" 
d="M122 0q-40 0 -65 22t-25 58q0 10 3 25l107 635h149l-103 -612v-4q0 -12 13 -12h37l-22 -112h-94zM599 466l-27 -158h-159l27 158h159z" />
    <glyph glyph-name="Lslash" unicode="&#x141;" 
d="M510 0h-438l41 245l-76 -23l19 113l76 23l56 340h148l-49 -295l195 61l-19 -114l-195 -61l-28 -167h290z" />
    <glyph glyph-name="lslash" unicode="&#x142;" 
d="M179 20q-31 32 -31 88q0 29 10 80l18 96l-125 -38l18 107l127 38l43 235h-152l19 114h299l-56 -305l147 44l-18 -107l-149 -45l-41 -221l15 -5l140 143l80 -71l-61 -70q-52 -59 -97 -87t-95 -28q-60 0 -91 32z" />
    <glyph glyph-name="Nacute" unicode="&#x143;" 
d="M237 468h-10l-78 -468h-129l116 698h178l81 -468h10l78 468h129l-116 -698h-178zM395 740l-86 46l115 190l114 -60z" />
    <glyph glyph-name="nacute" unicode="&#x144;" 
d="M25 0l86 516h146l-20 -123h5q31 67 70 101t98 34q71 0 106 -42t35 -107q0 -38 -11 -104l-46 -275h-146l49 293q1 4 4 22.5t3 39.5q0 24 -14.5 42.5t-45.5 18.5q-25 0 -44 -11.5t-37 -35.5q-39 -52 -47 -100l-45 -269h-146zM355 570l-86 46l115 190l114 -60z" />
    <glyph glyph-name="uni0145" unicode="&#x145;" 
d="M237 468h-10l-78 -468h-129l116 698h178l81 -468h10l78 468h129l-116 -698h-178zM172 -54h156l-121 -215h-88z" />
    <glyph glyph-name="uni0146" unicode="&#x146;" 
d="M25 0l86 516h146l-20 -123h5q31 67 70 101t98 34q71 0 106 -42t35 -107q0 -38 -11 -104l-46 -275h-146l49 293q1 4 4 22.5t3 39.5q0 24 -14.5 42.5t-45.5 18.5q-25 0 -44 -11.5t-37 -35.5q-39 -52 -47 -100l-45 -269h-146zM175 -54h156l-121 -215h-88z" />
    <glyph glyph-name="Ncaron" unicode="&#x147;" 
d="M237 468h-10l-78 -468h-129l116 698h178l81 -468h10l78 468h129l-116 -698h-178zM325 749l-108 158l76 57l106 -115l134 115l70 -57l-154 -158h-124z" />
    <glyph glyph-name="ncaron" unicode="&#x148;" 
d="M25 0l86 516h146l-20 -123h5q31 67 70 101t98 34q71 0 106 -42t35 -107q0 -38 -11 -104l-46 -275h-146l49 293q1 4 4 22.5t3 39.5q0 24 -14.5 42.5t-45.5 18.5q-25 0 -44 -11.5t-37 -35.5q-39 -52 -47 -100l-45 -269h-146zM285 579l-108 158l76 57l106 -115l134 115
l70 -57l-154 -158h-124z" />
    <glyph glyph-name="napostrophe" unicode="&#x149;" 
d="M93 740h129l-92 -210h-73zM166 516h140l-18 -108h5q28 60 63.5 90t89.5 30q65 0 96.5 -39.5t31.5 -100.5q0 -47 -10 -107l-47 -281h-140l49 293q6 36 6 68q0 21 -12 37.5t-38 16.5q-22 0 -37.5 -8t-31.5 -27q-14 -15 -27 -40t-18 -54l-48 -286h-140z" />
    <glyph glyph-name="Eng" unicode="&#x14a;" 
d="M20 0l116 698h178l81 -468h10l78 468h129l-124 -744q-15 -89 -49 -127.5t-94 -38.5q-32 0 -55.5 10t-43 29t-51.5 58l-31 37l89 71l85 -93l15 4l16 96h-51l-81 468h-10l-78 -468h-129z" />
    <glyph glyph-name="eng" unicode="&#x14b;" 
d="M238 -186q-34 26 -65 71l-18 26l93 69l71 -81l13 5l65 389q1 4 4 22.5t3 39.5q0 24 -14.5 42.5t-45.5 18.5q-25 0 -44 -11.5t-37 -35.5q-39 -52 -47 -100l-45 -269h-146l86 516h146l-20 -123h5q31 67 70 101t98 34q71 0 106 -42t35 -107q0 -38 -11 -104l-52 -312
q-29 -175 -170 -175q-46 0 -80 26z" />
    <glyph glyph-name="Omacron" unicode="&#x14c;" 
d="M96 56.5q-60 68.5 -60 194.5q0 125 33 229t103.5 167t176.5 63q123 0 183 -68.5t60 -194.5q0 -125 -33 -229t-103.5 -167t-176.5 -63q-123 0 -183 68.5zM369.5 152.5q30.5 44.5 45.5 135.5l20 120q6 36 6 72q0 53 -23 81.5t-69 28.5q-60 0 -90.5 -44.5t-45.5 -135.5
l-20 -120q-6 -36 -6 -72q0 -53 23 -81.5t69 -28.5q60 0 90.5 44.5zM237 888h305l-17 -102h-305z" />
    <glyph glyph-name="omacron" unicode="&#x14d;" 
d="M102 47.5q-59 59.5 -59 162.5q0 97 36.5 169t103 110.5t152.5 38.5q104 0 163 -59.5t59 -162.5q0 -97 -36.5 -169t-103 -110.5t-152.5 -38.5q-104 0 -163 59.5zM354.5 126q30.5 29 39.5 83l13 78q5 30 5 41q0 45 -23.5 68t-64.5 23q-48 0 -78.5 -29t-39.5 -83l-13 -78
q-5 -30 -5 -41q0 -45 23.5 -68t64.5 -23q48 0 78.5 29zM224 718h305l-17 -102h-305z" />
    <glyph glyph-name="Obreve" unicode="&#x14e;" 
d="M96 56.5q-60 68.5 -60 194.5q0 125 33 229t103.5 167t176.5 63q123 0 183 -68.5t60 -194.5q0 -125 -33 -229t-103.5 -167t-176.5 -63q-123 0 -183 68.5zM369.5 152.5q30.5 44.5 45.5 135.5l20 120q6 36 6 72q0 53 -23 81.5t-69 28.5q-60 0 -90.5 -44.5t-45.5 -135.5
l-20 -120q-6 -36 -6 -72q0 -53 23 -81.5t69 -28.5q60 0 90.5 44.5zM200 910l81 42l20 -37q21 -39 38 -55.5t46 -16.5q25 0 44.5 16.5t49.5 57.5l26 35l83 -42q-40 -78 -87.5 -124t-121.5 -46q-135 0 -179 170z" />
    <glyph glyph-name="obreve" unicode="&#x14f;" 
d="M102 47.5q-59 59.5 -59 162.5q0 97 36.5 169t103 110.5t152.5 38.5q104 0 163 -59.5t59 -162.5q0 -97 -36.5 -169t-103 -110.5t-152.5 -38.5q-104 0 -163 59.5zM354.5 126q30.5 29 39.5 83l13 78q5 30 5 41q0 45 -23.5 68t-64.5 23q-48 0 -78.5 -29t-39.5 -83l-13 -78
q-5 -30 -5 -41q0 -45 23.5 -68t64.5 -23q48 0 78.5 29zM187 740l81 42l20 -37q21 -39 38 -55.5t46 -16.5q25 0 44.5 16.5t49.5 57.5l26 35l83 -42q-40 -78 -87.5 -124t-121.5 -46q-135 0 -179 170z" />
    <glyph glyph-name="Ohungarumlaut" unicode="&#x150;" 
d="M96 56.5q-60 68.5 -60 194.5q0 125 33 229t103.5 167t176.5 63q123 0 183 -68.5t60 -194.5q0 -125 -33 -229t-103.5 -167t-176.5 -63q-123 0 -183 68.5zM369.5 152.5q30.5 44.5 45.5 135.5l20 120q6 36 6 72q0 53 -23 81.5t-69 28.5q-60 0 -90.5 -44.5t-45.5 -135.5
l-20 -120q-6 -36 -6 -72q0 -53 23 -81.5t69 -28.5q60 0 90.5 44.5zM276 741l-78 38l108 193l108 -56zM475 741l-78 38l108 193l108 -56z" />
    <glyph glyph-name="ohungarumlaut" unicode="&#x151;" 
d="M102 47.5q-59 59.5 -59 162.5q0 97 36.5 169t103 110.5t152.5 38.5q104 0 163 -59.5t59 -162.5q0 -97 -36.5 -169t-103 -110.5t-152.5 -38.5q-104 0 -163 59.5zM354.5 126q30.5 29 39.5 83l13 78q5 30 5 41q0 45 -23.5 68t-64.5 23q-48 0 -78.5 -29t-39.5 -83l-13 -78
q-5 -30 -5 -41q0 -45 23.5 -68t64.5 -23q48 0 78.5 29zM263 571l-78 38l108 193l108 -56zM462 571l-78 38l108 193l108 -56z" />
    <glyph glyph-name="OE" unicode="&#x152;" horiz-adv-x="900" 
d="M375 0q-51 -12 -103 -12q-110 0 -177.5 74.5t-67.5 222.5q0 120 47.5 217t130.5 152.5t184 55.5q68 0 128 -12h443l-26 -128h-303l-31 -153h268l-26 -128h-268l-32 -161h314l-26 -128h-455zM397 130l88 437q-20 6 -49 10t-52 4q-77 0 -121.5 -46.5t-61.5 -132.5l-21 -105
q-5 -28 -5 -49q0 -62 32 -96.5t97 -34.5q48 0 93 13z" />
    <glyph glyph-name="oe" unicode="&#x153;" horiz-adv-x="900" 
d="M491 8q-41 20 -66 64h-6q-64 -84 -174 -84q-59 0 -105 26t-71.5 75.5t-25.5 117.5q0 94 35 169t97.5 118t140.5 43q54 0 91.5 -20t61.5 -66h6q66 86 179 86q74 0 132 -34.5t58 -111.5q0 -173 -335 -183q-2 -12 -2 -23q0 -84 94 -84q36 0 66.5 15.5t63.5 57.5l86 -68
q-48 -63 -101.5 -90.5t-122.5 -27.5q-61 0 -102 20zM569 400.5q-32 -29.5 -41 -80.5l-4 -23q74 4 114 15t55 26.5t15 38.5q0 53 -63 53q-44 0 -76 -29.5zM324 130.5q27 29.5 38 85.5l19 94q3 18 3 31q0 38 -19.5 60.5t-55.5 22.5q-40 0 -67 -29.5t-38 -85.5l-19 -94
q-3 -18 -3 -31q0 -38 19.5 -60.5t55.5 -22.5q40 0 67 29.5z" />
    <glyph glyph-name="Racute" unicode="&#x154;" 
d="M181 0h-146l117 698h252q91 0 140.5 -50.5t49.5 -135.5q0 -91 -44 -153t-123 -84l95 -275h-156l-77 260h-64zM324 376q54 0 78 18t31 62l4 24q3 18 3 33q0 66 -79 66h-83l-34 -203h80zM375 740l-86 46l115 190l114 -60z" />
    <glyph glyph-name="racute" unicode="&#x155;" horiz-adv-x="450" 
d="M56 0l86 516h146l-27 -156h6q34 77 83.5 116.5t122.5 39.5h14l-26 -146h-71q-39 0 -64 -11t-44 -34q-12 -15 -24.5 -40t-16.5 -49l-39 -236h-146zM289 570l-86 46l115 190l114 -60z" />
    <glyph glyph-name="uni0156" unicode="&#x156;" 
d="M181 0h-146l117 698h252q91 0 140.5 -50.5t49.5 -135.5q0 -91 -44 -153t-123 -84l95 -275h-156l-77 260h-64zM324 376q54 0 78 18t31 62l4 24q3 18 3 33q0 66 -79 66h-83l-34 -203h80zM189 -54h156l-121 -215h-88z" />
    <glyph glyph-name="uni0157" unicode="&#x157;" horiz-adv-x="450" 
d="M56 0l86 516h146l-27 -156h6q34 77 83.5 116.5t122.5 39.5h14l-26 -146h-71q-39 0 -64 -11t-44 -34q-12 -15 -24.5 -40t-16.5 -49l-39 -236h-146zM41 -54h156l-121 -215h-88z" />
    <glyph glyph-name="Rcaron" unicode="&#x158;" 
d="M181 0h-146l117 698h252q91 0 140.5 -50.5t49.5 -135.5q0 -91 -44 -153t-123 -84l95 -275h-156l-77 260h-64zM324 376q54 0 78 18t31 62l4 24q3 18 3 33q0 66 -79 66h-83l-34 -203h80zM305 749l-108 158l76 57l106 -115l134 115l70 -57l-154 -158h-124z" />
    <glyph glyph-name="rcaron" unicode="&#x159;" horiz-adv-x="450" 
d="M56 0l86 516h146l-27 -156h6q34 77 83.5 116.5t122.5 39.5h14l-26 -146h-71q-39 0 -64 -11t-44 -34q-12 -15 -24.5 -40t-16.5 -49l-39 -236h-146zM219 579l-108 158l76 57l106 -115l134 115l70 -57l-154 -158h-124z" />
    <glyph glyph-name="Sacute" unicode="&#x15a;" 
d="M112 16.5q-69 28.5 -100 78.5l93 94q30 -38 76.5 -58.5t95.5 -20.5q56 0 86 27t30 76q0 34 -19 51t-62 27l-69 16q-73 17 -109 62.5t-36 112.5q0 69 32.5 120.5t93.5 79.5t143 28q75 0 136 -26t91 -72l-97 -89q-23 32 -58 49.5t-79 17.5q-54 0 -81.5 -24.5t-27.5 -67.5
q0 -30 18.5 -46t65.5 -28l66 -17q74 -19 110 -62.5t36 -114.5q0 -72 -33 -126.5t-96 -85t-150 -30.5t-156 28.5zM388 740l-86 46l115 190l114 -60z" />
    <glyph glyph-name="sacute" unicode="&#x15b;" 
d="M123.5 10q-56.5 22 -82.5 62l82 81q21 -30 59.5 -46t85.5 -16q46 0 72 15t26 42q0 19 -13.5 29t-39.5 16l-74 16q-66 14 -102.5 46t-36.5 95q0 85 65 131.5t169 46.5q69 0 124 -19.5t81 -53.5l-80 -82q-18 23 -52.5 37.5t-76.5 14.5q-40 0 -63 -14.5t-23 -41.5
q0 -20 12 -28.5t39 -14.5l77 -17q69 -15 104 -47t35 -92q0 -85 -68.5 -133.5t-184.5 -48.5q-78 0 -134.5 22zM358 570l-86 46l115 190l114 -60z" />
    <glyph glyph-name="Scircumflex" unicode="&#x15c;" 
d="M112 16.5q-69 28.5 -100 78.5l93 94q30 -38 76.5 -58.5t95.5 -20.5q56 0 86 27t30 76q0 34 -19 51t-62 27l-69 16q-73 17 -109 62.5t-36 112.5q0 69 32.5 120.5t93.5 79.5t143 28q75 0 136 -26t91 -72l-97 -89q-23 32 -58 49.5t-79 17.5q-54 0 -81.5 -24.5t-27.5 -67.5
q0 -30 18.5 -46t65.5 -28l66 -17q74 -19 110 -62.5t36 -114.5q0 -72 -33 -126.5t-96 -85t-150 -30.5t-156 28.5zM468 955l108 -158l-76 -57l-106 115l-134 -115l-70 57l154 158h124z" />
    <glyph glyph-name="scircumflex" unicode="&#x15d;" 
d="M123.5 10q-56.5 22 -82.5 62l82 81q21 -30 59.5 -46t85.5 -16q46 0 72 15t26 42q0 19 -13.5 29t-39.5 16l-74 16q-66 14 -102.5 46t-36.5 95q0 85 65 131.5t169 46.5q69 0 124 -19.5t81 -53.5l-80 -82q-18 23 -52.5 37.5t-76.5 14.5q-40 0 -63 -14.5t-23 -41.5
q0 -20 12 -28.5t39 -14.5l77 -17q69 -15 104 -47t35 -92q0 -85 -68.5 -133.5t-184.5 -48.5q-78 0 -134.5 22zM438 785l108 -158l-76 -57l-106 115l-134 -115l-70 57l154 158h124z" />
    <glyph glyph-name="Scedilla" unicode="&#x15e;" 
d="M181 -199q-30 13 -45 33l51 53q9 -11 25 -19.5t36 -8.5q23 0 36.5 7.5t13.5 21.5q0 29 -68 36l-23 2l24 63q-76 7 -134 34.5t-85 71.5l93 94q30 -38 76.5 -58.5t95.5 -20.5q56 0 86 27t30 76q0 34 -19 51t-62 27l-69 16q-73 17 -109 62.5t-36 112.5q0 69 32.5 120.5
t93.5 79.5t143 28q75 0 136 -26t91 -72l-97 -89q-23 32 -58 49.5t-79 17.5q-54 0 -81.5 -24.5t-27.5 -67.5q0 -30 18.5 -46t65.5 -28l66 -17q74 -19 110 -62.5t36 -114.5q0 -103 -65.5 -168t-182.5 -73l-16 -44l3 -4q21 7 42 7q28 0 47 -16t19 -42q0 -49 -40 -75.5
t-103 -26.5q-40 0 -70 13z" />
    <glyph glyph-name="scedilla" unicode="&#x15f;" 
d="M175 -199q-30 13 -45 33l51 53q9 -11 25 -19.5t36 -8.5q23 0 36.5 7.5t13.5 21.5q0 29 -68 36l-23 2l24 63q-66 5 -113.5 26t-70.5 57l82 81q21 -30 59.5 -46t86.5 -16q45 0 71 15t26 43q0 18 -13.5 28t-39.5 16l-74 16q-67 15 -103 46.5t-36 93.5q0 85 65 132t169 47
q69 0 124 -19.5t81 -53.5l-80 -82q-18 23 -52.5 37.5t-76.5 14.5q-41 0 -63.5 -14.5t-22.5 -42.5q0 -18 12 -27t39 -15l77 -17q68 -15 103.5 -46.5t35.5 -90.5q0 -80 -58.5 -127.5t-159.5 -55.5l-16 -44l3 -4q21 7 42 7q28 0 47 -16t19 -42q0 -49 -40 -75.5t-103 -26.5
q-40 0 -70 13z" />
    <glyph glyph-name="Scaron" unicode="&#x160;" 
d="M112 16.5q-69 28.5 -100 78.5l93 94q30 -38 76.5 -58.5t95.5 -20.5q56 0 86 27t30 76q0 34 -19 51t-62 27l-69 16q-73 17 -109 62.5t-36 112.5q0 69 32.5 120.5t93.5 79.5t143 28q75 0 136 -26t91 -72l-97 -89q-23 32 -58 49.5t-79 17.5q-54 0 -81.5 -24.5t-27.5 -67.5
q0 -30 18.5 -46t65.5 -28l66 -17q74 -19 110 -62.5t36 -114.5q0 -72 -33 -126.5t-96 -85t-150 -30.5t-156 28.5zM318 749l-108 158l76 57l106 -115l134 115l70 -57l-154 -158h-124z" />
    <glyph glyph-name="scaron" unicode="&#x161;" 
d="M123.5 10q-56.5 22 -82.5 62l82 81q21 -30 59.5 -46t85.5 -16q46 0 72 15t26 42q0 19 -13.5 29t-39.5 16l-74 16q-66 14 -102.5 46t-36.5 95q0 85 65 131.5t169 46.5q69 0 124 -19.5t81 -53.5l-80 -82q-18 23 -52.5 37.5t-76.5 14.5q-40 0 -63 -14.5t-23 -41.5
q0 -20 12 -28.5t39 -14.5l77 -17q69 -15 104 -47t35 -92q0 -85 -68.5 -133.5t-184.5 -48.5q-78 0 -134.5 22zM288 579l-108 158l76 57l106 -115l134 115l70 -57l-154 -158h-124z" />
    <glyph glyph-name="uni0162" unicode="&#x162;" 
d="M427 576l-96 -576h-148l96 576h-202l20 122h552l-20 -122h-202zM172 -54h156l-121 -215h-88z" />
    <glyph glyph-name="uni0163" unicode="&#x163;" 
d="M182.5 22q-31.5 34 -31.5 94q0 24 7 66l37 220h-132l19 114h133l32 182h144l-30 -182h202l-19 -114h-202l-48 -288l20 -7l156 123l72 -82l-60 -52q-70 -60 -112 -84t-92 -24q-64 0 -95.5 34zM195 -54h156l-121 -215h-88z" />
    <glyph glyph-name="Tcaron" unicode="&#x164;" 
d="M427 576l-96 -576h-148l96 576h-202l20 122h552l-20 -122h-202zM324 749l-108 158l76 57l106 -115l134 115l70 -57l-154 -158h-124z" />
    <glyph glyph-name="tcaron" unicode="&#x165;" 
d="M182.5 22q-31.5 34 -31.5 94q0 24 7 66l37 220h-132l19 114h133l32 182h144l-30 -182h202l-19 -114h-202l-48 -288l20 -7l156 123l72 -82l-60 -52q-70 -60 -112 -84t-92 -24q-64 0 -95.5 34zM528 565h-97l41 215h157z" />
    <glyph glyph-name="Tbar" unicode="&#x166;" 
d="M378 284l-47 -284h-148l47 284h-141l19 112h141l30 180h-202l20 122h552l-20 -122h-202l-30 -180h141l-19 -112h-141z" />
    <glyph glyph-name="tbar" unicode="&#x167;" 
d="M183.5 22q-32.5 34 -32.5 94q0 24 7 66l10 61h-92l17 100h92l10 59h-132l19 114h83q33 0 49 13.5t21 46.5l20 122h136l-30 -182h202l-19 -114h-202l-10 -59h144l-17 -100h-143l-22 -131l15 -9l150 90l65 -85l-62 -43q-58 -40 -99 -58.5t-82 -18.5q-65 0 -97.5 34z" />
    <glyph glyph-name="Utilde" unicode="&#x168;" 
d="M275 698l-73 -438q-8 -48 -8 -74q0 -39 19.5 -58.5t63.5 -19.5q43 0 66 17t34 47t20 83l74 443h147l-71 -426q-17 -103 -43.5 -162.5t-81.5 -90.5t-153 -31q-119 0 -169.5 48.5t-50.5 139.5q0 49 11 115l68 407h147zM423 767q-15 5 -38 16q-26 12 -42 17t-33 5
q-16 0 -30 -5.5t-33 -19.5l-40 67q23 29 54.5 46.5t69.5 17.5q20 0 35 -5t38 -16q26 -12 42 -17t33 -5q16 0 30 5.5t33 19.5l40 -67q-23 -29 -54.5 -46.5t-69.5 -17.5q-20 0 -35 5z" />
    <glyph glyph-name="utilde" unicode="&#x169;" 
d="M362 123h-5q-31 -67 -70 -101t-98 -34q-71 0 -106 42t-35 107q0 38 11 104l46 275h146l-49 -292q-7 -42 -7 -63q0 -24 14.5 -42.5t45.5 -18.5q25 0 44 11.5t37 35.5q39 52 47 100l45 269h146l-86 -516h-146zM392 597q-15 5 -38 16q-26 12 -42 17t-33 5q-16 0 -30 -5.5
t-33 -19.5l-40 67q23 29 54.5 46.5t69.5 17.5q20 0 35 -5t38 -16q26 -12 42 -17t33 -5q16 0 30 5.5t33 19.5l40 -67q-23 -29 -54.5 -46.5t-69.5 -17.5q-20 0 -35 5z" />
    <glyph glyph-name="Umacron" unicode="&#x16a;" 
d="M275 698l-73 -438q-8 -48 -8 -74q0 -39 19.5 -58.5t63.5 -19.5q43 0 66 17t34 47t20 83l74 443h147l-71 -426q-17 -103 -43.5 -162.5t-81.5 -90.5t-153 -31q-119 0 -169.5 48.5t-50.5 139.5q0 49 11 115l68 407h147zM250 888h305l-17 -102h-305z" />
    <glyph glyph-name="umacron" unicode="&#x16b;" 
d="M362 123h-5q-31 -67 -70 -101t-98 -34q-71 0 -106 42t-35 107q0 38 11 104l46 275h146l-49 -292q-7 -42 -7 -63q0 -24 14.5 -42.5t45.5 -18.5q25 0 44 11.5t37 35.5q39 52 47 100l45 269h146l-86 -516h-146zM219 718h305l-17 -102h-305z" />
    <glyph glyph-name="Ubreve" unicode="&#x16c;" 
d="M275 698l-73 -438q-8 -48 -8 -74q0 -39 19.5 -58.5t63.5 -19.5q43 0 66 17t34 47t20 83l74 443h147l-71 -426q-17 -103 -43.5 -162.5t-81.5 -90.5t-153 -31q-119 0 -169.5 48.5t-50.5 139.5q0 49 11 115l68 407h147zM213 910l81 42l20 -37q21 -39 38 -55.5t46 -16.5
q25 0 44.5 16.5t49.5 57.5l26 35l83 -42q-40 -78 -87.5 -124t-121.5 -46q-135 0 -179 170z" />
    <glyph glyph-name="ubreve" unicode="&#x16d;" 
d="M362 123h-5q-31 -67 -70 -101t-98 -34q-71 0 -106 42t-35 107q0 38 11 104l46 275h146l-49 -292q-7 -42 -7 -63q0 -24 14.5 -42.5t45.5 -18.5q25 0 44 11.5t37 35.5q39 52 47 100l45 269h146l-86 -516h-146zM182 740l81 42l20 -37q21 -39 38 -55.5t46 -16.5
q25 0 44.5 16.5t49.5 57.5l26 35l83 -42q-40 -78 -87.5 -124t-121.5 -46q-135 0 -179 170z" />
    <glyph glyph-name="Uring" unicode="&#x16e;" 
d="M275 698l-73 -438q-8 -48 -8 -74q0 -39 19.5 -58.5t63.5 -19.5q43 0 66 17t34 47t20 83l74 443h147l-71 -426q-17 -103 -43.5 -162.5t-81.5 -90.5t-153 -31q-119 0 -169.5 48.5t-50.5 139.5q0 49 11 115l68 407h147zM285.5 756q-37.5 36 -37.5 88q0 46 22.5 82.5t61 57
t84.5 20.5q55 0 92.5 -36t37.5 -88q0 -46 -22.5 -82.5t-61 -57t-84.5 -20.5q-55 0 -92.5 36zM426 808q15 14 19 37q6 36 6 45q0 40 -43 40q-25 0 -40 -14t-19 -37q-6 -36 -6 -45q0 -40 43 -40q25 0 40 14z" />
    <glyph glyph-name="uring" unicode="&#x16f;" 
d="M362 123h-5q-31 -67 -70 -101t-98 -34q-71 0 -106 42t-35 107q0 38 11 104l46 275h146l-49 -292q-7 -42 -7 -63q0 -24 14.5 -42.5t45.5 -18.5q25 0 44 11.5t37 35.5q39 52 47 100l45 269h146l-86 -516h-146zM254.5 586q-37.5 36 -37.5 88q0 46 22.5 82.5t61 57t84.5 20.5
q55 0 92.5 -36t37.5 -88q0 -46 -22.5 -82.5t-61 -57t-84.5 -20.5q-55 0 -92.5 36zM395 638q15 14 19 37q6 36 6 45q0 40 -43 40q-25 0 -40 -14t-19 -37q-6 -36 -6 -45q0 -40 43 -40q25 0 40 14z" />
    <glyph glyph-name="Uhungarumlaut" unicode="&#x170;" 
d="M275 698l-73 -438q-8 -48 -8 -74q0 -39 19.5 -58.5t63.5 -19.5q43 0 66 17t34 47t20 83l74 443h147l-71 -426q-17 -103 -43.5 -162.5t-81.5 -90.5t-153 -31q-119 0 -169.5 48.5t-50.5 139.5q0 49 11 115l68 407h147zM289 741l-78 38l108 193l108 -56zM488 741l-78 38
l108 193l108 -56z" />
    <glyph glyph-name="uhungarumlaut" unicode="&#x171;" 
d="M362 123h-5q-31 -67 -70 -101t-98 -34q-71 0 -106 42t-35 107q0 38 11 104l46 275h146l-49 -292q-7 -42 -7 -63q0 -24 14.5 -42.5t45.5 -18.5q25 0 44 11.5t37 35.5q39 52 47 100l45 269h146l-86 -516h-146zM258 571l-78 38l108 193l108 -56zM457 571l-78 38l108 193
l108 -56z" />
    <glyph glyph-name="Uogonek" unicode="&#x172;" 
d="M275 698l-73 -437q-8 -48 -8 -75q0 -39 19.5 -58.5t63.5 -19.5q43 0 66 17t34 47.5t20 83.5l74 442h147l-71 -427q-13 -74 -27.5 -120t-42 -81.5t-76.5 -60.5q-60 -30 -83.5 -63t-23.5 -56q0 -14 9 -22t28 -8q35 0 53 27l54 -45q-42 -54 -121 -54q-55 0 -88.5 22.5
t-33.5 62.5q0 34 26 62.5t79 48.5l-2 6q-12 -2 -29 -2q-119 0 -169.5 48.5t-50.5 139.5q0 49 11 115l68 407h147z" />
    <glyph glyph-name="uogonek" unicode="&#x173;" 
d="M488 0q-71 -43 -93.5 -67t-22.5 -43q0 -14 9 -22t28 -8q35 0 53 27l54 -45q-42 -54 -121 -54q-55 0 -88.5 22.5t-33.5 62.5q0 39 34.5 71.5t105.5 51.5l-1 4h-70l20 123h-5q-31 -67 -70 -101t-98 -34q-71 0 -106 42t-35 107q0 38 11 104l46 275h146l-49 -292
q-7 -42 -7 -63q0 -24 14.5 -42.5t45.5 -18.5q25 0 43.5 11.5t37.5 35.5q39 52 47 100l45 269h146z" />
    <glyph glyph-name="Wcircumflex" unicode="&#x174;" horiz-adv-x="900" 
d="M93 698h143l-4 -279l-11 -275h10l97 257l126 297h159l7 -282l-7 -282h10l87 250l118 314h146l-291 -698h-168l-8 291v245h-9l-89 -224l-130 -312h-172zM631 955l108 -158l-76 -57l-106 115l-134 -115l-70 57l154 158h124z" />
    <glyph glyph-name="wcircumflex" unicode="&#x175;" horiz-adv-x="900" 
d="M227 525l10 -368h6l173 368h130l55 -375h6l152 375h138l-240 -525h-147l-58 349h-6l-169 -349h-149l-40 525h139zM583 785l108 -158l-76 -57l-106 115l-134 -115l-70 57l154 158h124z" />
    <glyph glyph-name="Ycircumflex" unicode="&#x176;" 
d="M184 0l41 246l-147 452h158l49 -164l31 -137h9l78 137l100 164h165l-295 -449l-41 -249h-148zM468 955l108 -158l-76 -57l-106 115l-134 -115l-70 57l154 158h124z" />
    <glyph glyph-name="ycircumflex" unicode="&#x177;" 
d="M92 -196q-49 16 -86 60l87 90q43 -53 120 -53q40 0 66 12.5t44 46t28 94.5l14 86h-5q-31 -67 -70 -101t-98 -34q-71 0 -106 42t-35 107q0 38 11 104l43 258h146l-46 -275q-7 -42 -7 -63q0 -24 14.5 -42.5t45.5 -18.5q25 0 44 11.5t37 35.5q39 52 47 100l42 252h146
l-80 -480q-21 -124 -91 -186t-186 -62q-76 0 -125 16zM452 785l108 -158l-76 -57l-106 115l-134 -115l-70 57l154 158h124z" />
    <glyph glyph-name="Ydieresis" unicode="&#x178;" 
d="M184 0l41 246l-147 452h158l49 -164l31 -137h9l78 137l100 164h165l-295 -449l-41 -249h-148zM333 907l-27 -158h-159l27 158h159zM596 907l-27 -158h-159l27 158h159z" />
    <glyph glyph-name="Zacute" unicode="&#x179;" 
d="M507 0h-499l22 130l387 446h-304l20 122h479l-21 -130l-387 -446h323zM385 740l-86 46l115 190l114 -60z" />
    <glyph glyph-name="zacute" unicode="&#x17a;" 
d="M260 24l-101 52l-4 -3l-12 -73h-125l20 120l320 254q-28 22 -53.5 31.5t-57.5 9.5q-28 0 -46 -17.5t-18 -58.5h-108v9q0 85 44 132.5t119 47.5q51 0 100.5 -20t97.5 -68l2 -2l6 5l12 73h125l-20 -120l-324 -258l196 -37l11 13l-30 88l85 37l15 -27q30 -53 30 -98
q0 -33 -16 -62t-45.5 -46.5t-68.5 -17.5q-85 0 -154 36zM343 570l-86 46l115 190l114 -60z" />
    <glyph glyph-name="Zdotaccent" unicode="&#x17b;" 
d="M507 0h-499l22 130l387 446h-304l20 122h479l-21 -130l-387 -446h323zM479 916l-27 -158h-159l27 158h159z" />
    <glyph glyph-name="zdotaccent" unicode="&#x17c;" 
d="M260 24l-101 52l-4 -3l-12 -73h-125l20 120l320 254q-28 22 -53.5 31.5t-57.5 9.5q-28 0 -46 -17.5t-18 -58.5h-108v9q0 85 44 132.5t119 47.5q51 0 100.5 -20t97.5 -68l2 -2l6 5l12 73h125l-20 -120l-324 -258l196 -37l11 13l-30 88l85 37l15 -27q30 -53 30 -98
q0 -33 -16 -62t-45.5 -46.5t-68.5 -17.5q-85 0 -154 36zM438 745l-27 -158h-159l27 158h159z" />
    <glyph glyph-name="Zcaron" unicode="&#x17d;" 
d="M507 0h-499l22 130l387 446h-304l20 122h479l-21 -130l-387 -446h323zM315 749l-108 158l76 57l106 -115l134 115l70 -57l-154 -158h-124z" />
    <glyph glyph-name="zcaron" unicode="&#x17e;" 
d="M260 24l-101 52l-4 -3l-12 -73h-125l20 120l320 254q-28 22 -53.5 31.5t-57.5 9.5q-28 0 -46 -17.5t-18 -58.5h-108v9q0 85 44 132.5t119 47.5q51 0 100.5 -20t97.5 -68l2 -2l6 5l12 73h125l-20 -120l-324 -258l196 -37l11 13l-30 88l85 37l15 -27q30 -53 30 -98
q0 -33 -16 -62t-45.5 -46.5t-68.5 -17.5q-85 0 -154 36zM273 579l-108 158l76 57l106 -115l134 115l70 -57l-154 -158h-124z" />
    <glyph glyph-name="uni018F" unicode="&#x18f;" 
d="M100 57q-59 69 -59 199q0 50 7 92l8 50h388l2 12q5 30 5 58q0 123 -100 123q-51 0 -82.5 -31.5t-55.5 -93.5l-125 49q37 96 107 145.5t170 49.5q117 0 174.5 -70t57.5 -217q0 -114 -34 -213t-107 -160.5t-183 -61.5q-114 0 -173 69zM375.5 150.5q35.5 45.5 50.5 134.5
l1 6h-236q-8 -38 -8 -79q0 -107 95 -107q62 0 97.5 45.5z" />
    <glyph glyph-name="florin" unicode="&#x192;" 
d="M37 -183q-34 29 -76 94l-38 59l97 66l97 -132l18 6l99 414h-143l19 114h151l29 122q16 66 65.5 102t128.5 36h165l-19 -114h-186l-35 -146h167l-19 -114h-175l-91 -378q-19 -82 -60.5 -120t-106.5 -38q-53 0 -87 29z" />
    <glyph glyph-name="Ohorn" unicode="&#x1a0;" 
d="M664 710q-9 -50 -33 -74.5t-75 -24.5h-2q38 -63 38 -164q0 -125 -33 -229t-103.5 -167t-176.5 -63q-123 0 -183 68.5t-60 194.5q0 125 33 229t103.5 167t176.5 63q52 0 91 -12h98l20 115h123zM369.5 152.5q30.5 44.5 45.5 135.5l20 120q6 36 6 72q0 53 -23 81.5t-69 28.5
q-60 0 -90.5 -44.5t-45.5 -135.5l-20 -120q-6 -36 -6 -72q0 -53 23 -81.5t69 -28.5q60 0 90.5 44.5z" />
    <glyph glyph-name="ohorn" unicode="&#x1a1;" 
d="M623 528q-8 -43 -25.5 -65t-54.5 -28l-24 -2q20 -26 29 -56t9 -71q0 -97 -36.5 -169t-103 -110.5t-152.5 -38.5q-104 0 -163 59.5t-59 162.5q0 97 36.5 169t103 110.5t152.5 38.5q45 0 83 -12h47q32 0 38 32l14 83h123zM354.5 126q30.5 29 39.5 83l13 78q5 30 5 41
q0 45 -23.5 68t-64.5 23q-48 0 -78.5 -29t-39.5 -83l-13 -78q-5 -30 -5 -41q0 -45 23.5 -68t64.5 -23q48 0 78.5 29z" />
    <glyph glyph-name="Uhorn" unicode="&#x1af;" 
d="M202 261q-8 -48 -8 -75q0 -39 19.5 -58.5t63.5 -19.5q43 0 66 17t34 47.5t20 83.5l74 442h73l20 115h123l-17 -103q-6 -32 -17 -53t-30 -32l-19 -8l-57 -346q-17 -102 -43.5 -161.5t-81.5 -90.5t-153 -31q-119 0 -169.5 48.5t-50.5 139.5q0 49 11 115l68 407h147z" />
    <glyph glyph-name="uhorn" unicode="&#x1b0;" 
d="M618 470q-13 -22 -37 -32l-21 -6l-72 -432h-146l20 123h-5q-31 -67 -70 -101t-98 -34q-71 0 -106 42t-35 107q0 38 11 104l46 275h146l-49 -292q-7 -42 -7 -63q0 -24 14.5 -42.5t45.5 -18.5q25 0 44 11.5t37 35.5q39 52 47 100l45 269h51q32 0 38 32l14 83h123l-17 -103
q-6 -36 -19 -58z" />
    <glyph glyph-name="Aringacute" unicode="&#x1fa;" 
d="M400 0l-17 169h-196l-69 -169h-155l307 698h206l76 -698h-152zM356 553h-9l-110 -264h140zM414 976l-49 56l142 117l65 -79zM279.5 754.5q-37.5 28.5 -37.5 76.5q0 61 48.5 97.5t119.5 36.5q58 0 95.5 -28.5t37.5 -76.5q0 -61 -48.5 -97.5t-119.5 -36.5q-58 0 -95.5 28.5
zM444 839l3 22q0 35 -46 35q-53 0 -60 -44l-3 -22q0 -35 46 -35q53 0 60 44z" />
    <glyph glyph-name="aringacute" unicode="&#x1fb;" 
d="M347 0l20 123h-5q-33 -66 -72.5 -100.5t-100.5 -34.5q-151 0 -151 200q0 102 29.5 179t83 119t124.5 42q59 0 91 -27.5t44 -80.5h7l16 96h146l-86 -516h-146zM341 150q39 46 47 97l14 83q2 14 2 20q0 31 -20.5 48t-61.5 17q-53 0 -82.5 -31t-39.5 -91l-10 -60
q-4 -24 -4 -45q2 -87 68 -87q48 0 87 49zM378 806l-49 56l142 117l65 -79zM243.5 584.5q-37.5 28.5 -37.5 76.5q0 61 48.5 97.5t119.5 36.5q58 0 95.5 -28.5t37.5 -76.5q0 -61 -48.5 -97.5t-119.5 -36.5q-58 0 -95.5 28.5zM408 669l3 22q0 35 -46 35q-53 0 -60 -44l-3 -22
q0 -35 46 -35q53 0 60 44z" />
    <glyph glyph-name="AEacute" unicode="&#x1fc;" horiz-adv-x="900" 
d="M589 786l115 190l114 -60l-143 -176zM221 169l-101 -169h-156l444 698h525l-26 -128h-263l-31 -153h228l-26 -128h-228l-32 -161h274l-26 -128h-419l34 169h-197zM298 291h144l56 279h-29z" />
    <glyph glyph-name="aeacute" unicode="&#x1fd;" horiz-adv-x="900" 
d="M430 616l115 190l114 -60l-143 -176zM89.5 24q-43.5 36 -43.5 101q0 81 65.5 122t197.5 47l91 4l5 27q3 18 3 30q0 70 -81 70q-56 0 -87 -17.5t-55 -50.5l-82 79q79 101 235 101q114 0 157 -76h7q68 76 169 76q85 0 145.5 -34t60.5 -111q0 -82 -83.5 -126.5t-268.5 -49.5
q-2 -16 -2 -31q0 -84 94 -84q50 0 81.5 15t65.5 58l86 -68q-48 -64 -104.5 -91t-139.5 -27q-73 0 -122.5 27t-74.5 77h-7q-25 -53 -71.5 -78.5t-107.5 -25.5q-90 0 -133.5 36zM586 400.5q-31 -29.5 -42 -80.5l-4 -19q82 4 126 14t59.5 25t15.5 37q0 31 -20.5 42t-59.5 11
q-44 0 -75 -29.5zM336.5 107.5q28.5 18.5 35.5 52.5l12 57l-81 -4q-52 -3 -76 -12t-31 -36q-4 -15 -4 -31q0 -23 19.5 -34t60.5 -11q36 0 64.5 18.5z" />
    <glyph glyph-name="Oslashacute" unicode="&#x1fe;" 
d="M132 26l-71 -93l-88 57l90 117q-27 55 -27 144q0 125 33 229t103.5 167t176.5 63q91 0 147 -38l71 93l88 -57l-90 -117q27 -55 27 -144q0 -125 -33 -229t-103.5 -167t-176.5 -63q-91 0 -147 38zM190 294q-5 -30 -5 -40l236 308q-26 29 -72 29q-60 0 -92.5 -45.5
t-47.5 -135.5l-18 -108zM371.5 152.5q32.5 45.5 47.5 135.5l18 108l3 17q3 20 3 31l-236 -308q26 -29 72 -29q60 0 92.5 45.5zM372 740l-86 46l115 190l114 -60z" />
    <glyph glyph-name="oslashacute" unicode="&#x1ff;" 
d="M69 92q-26 50 -26 118q0 97 36.5 169t103 110.5t152.5 38.5q80 0 134 -36l81 82l68 -61l-87 -89q26 -50 26 -118q0 -97 -36.5 -169t-103 -110.5t-152.5 -38.5q-80 0 -134 36l-81 -82l-68 61zM245.5 390q-30.5 -29 -39.5 -83q-1 -13 -9 -56l-8 -47l192 199q-22 16 -57 16
q-48 0 -78.5 -29zM355 126q30 29 39 83l13 78l4 25l-192 -199q22 -16 57 -16q49 0 79 29zM356 570l-86 46l115 190l114 -60z" />
    <glyph glyph-name="uni0218" unicode="&#x218;" 
d="M112 16.5q-69 28.5 -100 78.5l93 94q30 -38 76.5 -58.5t95.5 -20.5q56 0 86 27t30 76q0 34 -19 51t-62 27l-69 16q-73 17 -109 62.5t-36 112.5q0 69 32.5 120.5t93.5 79.5t143 28q75 0 136 -26t91 -72l-97 -89q-23 32 -58 49.5t-79 17.5q-54 0 -81.5 -24.5t-27.5 -67.5
q0 -30 18.5 -46t65.5 -28l66 -17q74 -19 110 -62.5t36 -114.5q0 -72 -33 -126.5t-96 -85t-150 -30.5t-156 28.5zM183 -54h156l-121 -215h-88z" />
    <glyph glyph-name="uni0219" unicode="&#x219;" 
d="M123.5 10q-56.5 22 -82.5 62l82 81q21 -30 59.5 -46t85.5 -16q46 0 72 15t26 42q0 19 -13.5 29t-39.5 16l-74 16q-66 14 -102.5 46t-36.5 95q0 85 65 131.5t169 46.5q69 0 124 -19.5t81 -53.5l-80 -82q-18 23 -52.5 37.5t-76.5 14.5q-40 0 -63 -14.5t-23 -41.5
q0 -20 12 -28.5t39 -14.5l77 -17q69 -15 104 -47t35 -92q0 -85 -68.5 -133.5t-184.5 -48.5q-78 0 -134.5 22zM177 -54h156l-121 -215h-88z" />
    <glyph glyph-name="uni021A" unicode="&#x21a;" 
d="M427 576l-96 -576h-148l96 576h-202l20 122h552l-20 -122h-202zM172 -54h156l-121 -215h-88z" />
    <glyph glyph-name="uni021B" unicode="&#x21b;" 
d="M182.5 22q-31.5 34 -31.5 94q0 24 7 66l37 220h-132l19 114h133l32 182h144l-30 -182h202l-19 -114h-202l-48 -288l20 -7l156 123l72 -82l-60 -52q-70 -60 -112 -84t-92 -24q-64 0 -95.5 34zM195 -54h156l-121 -215h-88z" />
    <glyph glyph-name="uni0237" unicode="&#x237;" horiz-adv-x="300" 
d="M-86.5 -178.5q-37.5 33.5 -87.5 113.5l-8 13l100 69l89 -118l13 5l102 612h146l-92 -553q-16 -93 -56.5 -134t-113.5 -41q-55 0 -92.5 33.5z" />
    <glyph glyph-name="uni0259" unicode="&#x259;" 
d="M104 25q-54 37 -54 105q0 75 74 125.5t274 57.5q1 8 1 17q0 86 -99 86q-43 0 -72.5 -18.5t-69.5 -69.5l-91 59q47 68 104 104.5t148 36.5q112 0 168.5 -57.5t56.5 -162.5q0 -95 -38 -167.5t-106.5 -112.5t-159.5 -40q-82 0 -136 37zM385 215l3 14q-86 -5 -129 -18.5
t-55.5 -30t-12.5 -37.5q0 -52 64 -52q104 0 130 124z" />
    <glyph glyph-name="uni02BB" unicode="&#x2bb;" 
d="M353 794h88l-53 -215h-156z" />
    <glyph glyph-name="uni02BC" unicode="&#x2bc;" 
d="M369 525h-97l41 215h157z" />
    <glyph glyph-name="circumflex" unicode="&#x2c6;" 
d="M403 785l108 -158l-76 -57l-106 115l-134 -115l-70 57l154 158h124z" />
    <glyph glyph-name="caron" unicode="&#x2c7;" 
d="M253 579l-108 158l76 57l106 -115l134 115l70 -57l-154 -158h-124z" />
    <glyph glyph-name="breve" unicode="&#x2d8;" 
d="M144 740l81 42l20 -37q21 -39 38 -55.5t46 -16.5q25 0 44.5 16.5t49.5 57.5l26 35l83 -42q-40 -78 -87.5 -124t-121.5 -46q-135 0 -179 170z" />
    <glyph glyph-name="dotaccent" unicode="&#x2d9;" 
d="M418 745l-27 -158h-159l27 158h159z" />
    <glyph glyph-name="ring" unicode="&#x2da;" 
d="M216.5 586q-37.5 36 -37.5 88q0 46 22.5 82.5t61 57t84.5 20.5q55 0 92.5 -36t37.5 -88q0 -46 -22.5 -82.5t-61 -57t-84.5 -20.5q-55 0 -92.5 36zM357 638q15 14 19 37q6 36 6 45q0 40 -43 40q-25 0 -40 -14t-19 -37q-6 -36 -6 -45q0 -40 43 -40q25 0 40 14z" />
    <glyph glyph-name="ogonek" unicode="&#x2db;" 
d="M119 -189.5q-34 22.5 -34 62.5q0 39 34.5 71.5t105.5 51.5l-4 17l59 6l20 -19q-71 -42 -93.5 -66.5t-22.5 -42.5q0 -31 38 -31q34 0 52 27l54 -45q-42 -54 -122 -54q-53 0 -87 22.5z" />
    <glyph glyph-name="tilde" unicode="&#x2dc;" 
d="M354 597q-15 5 -38 16q-26 12 -42 17t-33 5q-16 0 -30 -5.5t-33 -19.5l-40 67q23 29 54.5 46.5t69.5 17.5q20 0 35 -5t38 -16q26 -12 42 -17t33 -5q16 0 30 5.5t33 19.5l40 -67q-23 -29 -54.5 -46.5t-69.5 -17.5q-20 0 -35 5z" />
    <glyph glyph-name="hungarumlaut" unicode="&#x2dd;" 
d="M220 571l-78 38l108 193l108 -56zM419 571l-78 38l108 193l108 -56z" />
    <glyph glyph-name="gravecomb" unicode="&#x300;" horiz-adv-x="0" 
d="M-121 747l124 59l77 -196l-87 -39z" />
    <glyph glyph-name="acutecomb" unicode="&#x301;" horiz-adv-x="0" 
d="M23 570l-86 46l115 190l114 -60z" />
    <glyph glyph-name="uni0302" unicode="&#x302;" horiz-adv-x="0" 
d="M103 785l108 -158l-76 -57l-106 115l-134 -115l-70 57l154 158h124z" />
    <glyph glyph-name="tildecomb" unicode="&#x303;" horiz-adv-x="0" 
d="M54 597q-15 5 -38 16q-26 12 -42 17t-33 5q-16 0 -30 -5.5t-33 -19.5l-40 67q23 29 54.5 46.5t69.5 17.5q20 0 35 -5t38 -16q26 -12 42 -17t33 -5q16 0 30 5.5t33 19.5l40 -67q-23 -29 -54.5 -46.5t-69.5 -17.5q-20 0 -35 5z" />
    <glyph glyph-name="uni0304" unicode="&#x304;" horiz-adv-x="0" 
d="M-119 718h305l-17 -102h-305z" />
    <glyph glyph-name="uni0306" unicode="&#x306;" horiz-adv-x="0" 
d="M-156 740l81 42l20 -37q21 -39 38 -55.5t46 -16.5q25 0 44.5 16.5t49.5 57.5l26 35l83 -42q-40 -78 -87.5 -124t-121.5 -46q-135 0 -179 170z" />
    <glyph glyph-name="uni0307" unicode="&#x307;" horiz-adv-x="0" 
d="M102 745l-27 -158h-159l27 158h159z" />
    <glyph glyph-name="uni0308" unicode="&#x308;" horiz-adv-x="0" 
d="M38 745l-27 -158h-159l27 158h159zM301 745l-27 -158h-159l27 158h159z" />
    <glyph glyph-name="hookcomb" unicode="&#x309;" horiz-adv-x="0" 
d="M-73 792h147q40 0 60.5 -16.5t20.5 -42.5q0 -28 -12 -51.5t-37 -54.5l-54 -66l-71 34l50 93h-122z" />
    <glyph glyph-name="uni030A" unicode="&#x30a;" horiz-adv-x="0" 
d="M-83.5 586q-37.5 36 -37.5 88q0 46 22.5 82.5t61 57t84.5 20.5q55 0 92.5 -36t37.5 -88q0 -46 -22.5 -82.5t-61 -57t-84.5 -20.5q-55 0 -92.5 36zM57 638q15 14 19 37q6 36 6 45q0 40 -43 40q-25 0 -40 -14t-19 -37q-6 -36 -6 -45q0 -40 43 -40q25 0 40 14z" />
    <glyph glyph-name="uni030B" unicode="&#x30b;" horiz-adv-x="0" 
d="M-80 571l-78 38l108 193l108 -56zM119 571l-78 38l108 193l108 -56z" />
    <glyph glyph-name="uni030C" unicode="&#x30c;" horiz-adv-x="0" 
d="M-47 579l-108 158l76 57l106 -115l134 115l70 -57l-154 -158h-124z" />
    <glyph glyph-name="uni0312" unicode="&#x312;" horiz-adv-x="0" 
d="M53 794h88l-53 -215h-156z" />
    <glyph glyph-name="uni0315" unicode="&#x315;" horiz-adv-x="0" 
d="M232 525h-97l41 215h157z" />
    <glyph glyph-name="uni031B" unicode="&#x31b;" horiz-adv-x="0" 
d="M124 528q-9 -52 -33.5 -75.5t-79.5 -23.5h-152l15 87h124l20 115h123z" />
    <glyph glyph-name="dotbelowcomb" unicode="&#x323;" horiz-adv-x="0" 
d="M58 -44l-27 -158h-159l27 158h159z" />
    <glyph glyph-name="uni0326" unicode="&#x326;" horiz-adv-x="0" 
d="M-86 -54h156l-121 -215h-88z" />
    <glyph glyph-name="uni0327" unicode="&#x327;" horiz-adv-x="0" 
d="M-87.5 -199q-30.5 13 -45.5 33l51 53q23 -28 64 -28q20 0 33.5 7.5t13.5 21.5q0 30 -68 36l-23 2l40 104h67l-31 -85l3 -4q21 7 41 7q29 0 48 -15.5t19 -46.5q0 -45 -39.5 -71.5t-100.5 -26.5q-42 0 -72.5 13z" />
    <glyph glyph-name="uni0328" unicode="&#x328;" horiz-adv-x="0" 
d="M-181 -189.5q-34 22.5 -34 62.5q0 39 34.5 71.5t105.5 51.5l-4 17l59 6l20 -19q-71 -42 -93.5 -66.5t-22.5 -42.5q0 -31 38 -31q34 0 52 27l54 -45q-42 -54 -122 -54q-53 0 -87 22.5z" />
    <glyph glyph-name="pi" unicode="&#x3c0;" 
d="M104 402h-70l19 114h551l-19 -114h-78l-53 -306l15 -5l77 56l53 -59l-30 -29q-41 -39 -72.5 -55t-72.5 -16q-50 0 -77 28t-27 82q0 31 10 90l35 214h-120l-67 -402h-141z" />
    <glyph glyph-name="uni0400" unicode="&#x400;" 
d="M38 0l117 698h446l-20 -122h-300l-27 -162h286l-20 -122h-287l-28 -170h299l-20 -122h-446zM250 917l124 59l77 -196l-87 -39z" />
    <glyph glyph-name="uni0401" unicode="&#x401;" 
d="M38 0l117 698h446l-20 -122h-300l-27 -162h286l-20 -122h-287l-28 -170h299l-20 -122h-446zM339 907l-27 -158h-159l27 158h159zM602 907l-27 -158h-159l27 158h159z" />
    <glyph glyph-name="uni0402" unicode="&#x402;" 
d="M220 -122l-21 30l94 72l63 -73l13 5l49 284q9 49 9 75q0 53 -59 53q-42 0 -71 -13l-52 -311h-148l96 576h-132l20 122h412l-20 -122h-132l-25 -150h5q45 18 102 18q69 0 109 -40t40 -114q0 -56 -13 -131l-31 -189q-15 -89 -57.5 -132t-114.5 -43q-79 0 -136 83z" />
    <glyph glyph-name="uni0403" unicode="&#x403;" 
d="M182 698h420l-21 -122h-272l-95 -576h-148zM413 740l-86 46l115 190l114 -60z" />
    <glyph glyph-name="uni0404" unicode="&#x404;" 
d="M106.5 57q-59.5 69 -59.5 197q0 135 39.5 238t113 160.5t170.5 57.5q111 0 166.5 -49t70.5 -139l-143 -32q-8 51 -30 75.5t-70 24.5q-56 0 -89 -41.5t-49 -119.5l-3 -15h174l-20 -122h-175l-4 -31q-2 -24 -2 -40q0 -113 101 -113q45 0 74.5 25.5t54.5 74.5l123 -45
q-44 -91 -105.5 -133t-156.5 -42q-121 0 -180.5 69z" />
    <glyph glyph-name="uni0405" unicode="&#x405;" 
d="M112 16.5q-69 28.5 -100 78.5l93 94q30 -38 76.5 -58.5t95.5 -20.5q56 0 86 27t30 76q0 34 -19 51t-62 27l-69 16q-73 17 -109 62.5t-36 112.5q0 69 32.5 120.5t93.5 79.5t143 28q75 0 136 -26t91 -72l-97 -89q-23 32 -58 49.5t-79 17.5q-54 0 -81.5 -24.5t-27.5 -67.5
q0 -30 18.5 -46t65.5 -28l66 -17q74 -19 110 -62.5t36 -114.5q0 -72 -33 -126.5t-96 -85t-150 -30.5t-156 28.5z" />
    <glyph glyph-name="uni0406" unicode="&#x406;" horiz-adv-x="300" 
d="M34 0l116 698h148l-116 -698h-148z" />
    <glyph glyph-name="uni0407" unicode="&#x407;" horiz-adv-x="300" 
d="M34 0l116 698h148l-116 -698h-148zM191 907l-27 -158h-159l27 158h159zM454 907l-27 -158h-159l27 158h159z" />
    <glyph glyph-name="uni0408" unicode="&#x408;" 
d="M583 698l-83 -496q-18 -106 -82.5 -160t-174.5 -54q-102 0 -157 53t-57 144l139 26q2 -49 21.5 -76t64.5 -27q40 0 65.5 24.5t33.5 73.5l62 370h-234l20 122h382z" />
    <glyph glyph-name="uni0409" unicode="&#x409;" 
d="M-24 113h38q21 19 38 56.5t37 119.5t44 225l31 184h297l-42 -252h21q73 0 113 -45t40 -121q0 -134 -61.5 -207t-169.5 -73h-145l97 585h-53l-14 -83q-25 -149 -47.5 -238t-45.5 -138t-54 -80q-52 -52 -128 -52h-15zM380 113q28 0 46 20t26 72l3 19q4 29 4 55q0 54 -42 54
h-17l-37 -220h17z" />
    <glyph glyph-name="uni040A" unicode="&#x40a;" 
d="M102 698h128l-48 -288h87l48 288h128l-42 -252h10q87 0 133.5 -46t46.5 -126q0 -130 -64 -202t-175 -72h-153l49 297h-87l-49 -297h-128zM359 113q41 0 63 21t30 71l3 19q4 29 4 49q0 31 -13 45.5t-51 14.5h-11l-37 -220h12z" />
    <glyph glyph-name="uni040B" unicode="&#x40b;" 
d="M193 576h-132l20 122h412l-20 -122h-132l-25 -150h5q45 18 102 18q69 0 109 -40t40 -114q0 -53 -11 -122l-28 -168h-148l33 196q9 57 9 75q0 53 -59 53q-42 0 -71 -13l-52 -311h-148z" />
    <glyph glyph-name="uni040C" unicode="&#x40c;" 
d="M143 698h148l-47 -285h90l155 285h150l-141 -260q-20 -36 -42.5 -53t-51.5 -22l-1 -6q26 -7 40.5 -26.5t23.5 -58.5l34 -150h56l-20 -122h-66q-49 0 -75 23t-39 77l-44 194h-89l-49 -294h-148zM399 740l-86 46l115 190l114 -60z" />
    <glyph glyph-name="uni040D" unicode="&#x40d;" 
d="M129 698h140l-43 -259l-46 -189h9l293 448h137l-116 -698h-140l43 259l46 189h-9l-293 -448h-137zM247 917l124 59l77 -196l-87 -39z" />
    <glyph glyph-name="uni040E" unicode="&#x40e;" 
d="M88 122h114l30 57l-141 519h150l59 -248l20 -124h3l51 124l127 248h155l-309 -575q-37 -69 -77.5 -96t-102.5 -27h-99zM227 859l-15 50l115 43l4 -107q10 -3 26.5 -5t30.5 -2t30 2t25 5l34 107l111 -43l-30 -57q-29 -57 -75 -84.5t-104 -27.5q-117 0 -152 119z" />
    <glyph glyph-name="uni040F" unicode="&#x40f;" 
d="M191 0h-171l116 698h148l-96 -576h180l96 576h148l-116 -698h-172l-25 -150h-133z" />
    <glyph glyph-name="uni0410" unicode="&#x410;" 
d="M400 0l-17 169h-196l-69 -169h-155l307 698h206l76 -698h-152zM356 553h-9l-110 -264h140z" />
    <glyph glyph-name="uni0411" unicode="&#x411;" 
d="M141 698h429l-20 -122h-281l-25 -150h126q90 0 140 -49.5t50 -127.5q0 -75 -30.5 -131.5t-87 -87t-131.5 -30.5h-286zM290 118q51 0 76.5 19t33.5 65l3 17q3 15 3 33q0 56 -84 56h-97l-32 -190h97z" />
    <glyph glyph-name="uni0412" unicode="&#x412;" 
d="M152 698h237q89 0 138 -43.5t49 -117.5q0 -146 -145 -182l-1 -5q55 -11 84.5 -44.5t29.5 -88.5q0 -65 -29 -114t-83 -76t-127 -27h-270zM304 402q55 0 81.5 16.5t33.5 59.5l4 24q3 18 3 31q0 33 -21 47t-62 14h-64l-32 -192h57zM273 104q51 0 79.5 18t35.5 57l4 24
q5 30 5 35q0 34 -20 49.5t-65 15.5h-82l-33 -199h76z" />
    <glyph glyph-name="uni0413" unicode="&#x413;" 
d="M182 698h420l-21 -122h-272l-95 -576h-148z" />
    <glyph glyph-name="uni0414" unicode="&#x414;" 
d="M-7 122h48q46 40 82.5 130t64.5 257l32 189h371l-96 -576h68l-45 -272h-133l25 150h-303l-25 -150h-135zM351 122l76 458h-99l-17 -101q-25 -150 -55.5 -234t-66.5 -123h162z" />
    <glyph glyph-name="uni0415" unicode="&#x415;" 
d="M38 0l117 698h446l-20 -122h-300l-27 -162h286l-20 -122h-287l-28 -170h299l-20 -122h-446z" />
    <glyph glyph-name="uni0416" unicode="&#x416;" 
d="M50 251q17 50 41.5 75t63.5 31l1 6q-30 9 -43.5 32.5t-14.5 69.5l-5 233h121l6 -290h43l48 290h126l-48 -290h43l99 290h124l-83 -242q-16 -46 -36.5 -66.5t-55.5 -26.5l-1 -6q31 -9 45.5 -34t16.5 -73l10 -250h-127l-11 298h-43l-49 -298h-126l49 298h-45l-104 -298
h-133z" />
    <glyph glyph-name="uni0417" unicode="&#x417;" 
d="M116.5 16q-62.5 28 -98.5 79l93 94q28 -36 69.5 -57.5t90.5 -21.5q47 0 74 21t33 60l2 15q2 14 2 23q0 31 -19.5 46t-65.5 15h-88l20 119h88q47 0 70.5 19.5t31.5 65.5l2 11q2 10 2 20q0 31 -24.5 48t-71.5 17q-86 0 -145 -74l-85 86q93 108 245 108q111 0 170.5 -44
t59.5 -125q0 -73 -48.5 -121.5t-123.5 -56.5l-1 -6q69 -12 101 -46.5t32 -91.5q0 -65 -31.5 -117.5t-92.5 -83t-146 -30.5q-83 0 -145.5 28z" />
    <glyph glyph-name="uni0418" unicode="&#x418;" 
d="M129 698h140l-43 -259l-46 -189h9l293 448h137l-116 -698h-140l43 259l46 189h-9l-293 -448h-137z" />
    <glyph glyph-name="uni0419" unicode="&#x419;" 
d="M129 698h140l-43 -259l-46 -189h9l293 448h137l-116 -698h-140l43 259l46 189h-9l-293 -448h-137zM231 859l-15 50l115 43l4 -107q10 -3 26.5 -5t30.5 -2t30 2t25 5l34 107l111 -43l-30 -57q-29 -57 -75 -84.5t-104 -27.5q-117 0 -152 119z" />
    <glyph glyph-name="uni041A" unicode="&#x41a;" 
d="M143 698h148l-47 -285h90l155 285h150l-141 -260q-20 -36 -42.5 -53t-51.5 -22l-1 -6q26 -7 40.5 -26.5t23.5 -58.5l34 -150h56l-20 -122h-66q-49 0 -75 23t-39 77l-44 194h-89l-49 -294h-148z" />
    <glyph glyph-name="uni041B" unicode="&#x41b;" 
d="M-13 122h70q39 36 69 119.5t56 238.5l37 218h395l-116 -698h-148l96 577h-111l-20 -118q-52 -305 -143 -396q-38 -38 -79 -53.5t-95 -15.5h-33z" />
    <glyph glyph-name="uni041C" unicode="&#x41c;" horiz-adv-x="900" 
d="M692 461l-106 -134l-165 -212l-84 227l-49 121h-5l-93 -463h-138l140 698h152l121 -332h4l253 332h161l-140 -698h-138l93 461h-6z" />
    <glyph glyph-name="uni041D" unicode="&#x41d;" 
d="M397 293h-180l-49 -293h-148l116 698h148l-47 -284h180l47 284h148l-116 -698h-148z" />
    <glyph glyph-name="uni041E" unicode="&#x41e;" 
d="M96 56.5q-60 68.5 -60 194.5q0 125 33 229t103.5 167t176.5 63q123 0 183 -68.5t60 -194.5q0 -125 -33 -229t-103.5 -167t-176.5 -63q-123 0 -183 68.5zM369.5 152.5q30.5 44.5 45.5 135.5l20 120q6 36 6 72q0 53 -23 81.5t-69 28.5q-60 0 -90.5 -44.5t-45.5 -135.5
l-20 -120q-6 -36 -6 -72q0 -53 23 -81.5t69 -28.5q60 0 90.5 44.5z" />
    <glyph glyph-name="uni041F" unicode="&#x41f;" 
d="M136 698h476l-116 -698h-148l96 576h-180l-96 -576h-148z" />
    <glyph glyph-name="uni0420" unicode="&#x420;" 
d="M37 0l117 698h252q91 0 140.5 -51t49.5 -134q0 -79 -30.5 -137t-87 -89t-131.5 -31h-119l-43 -256h-148zM248 376h78q51 0 76.5 19t32.5 64l5 30q2 12 2 27q0 34 -19 48.5t-63 14.5h-78z" />
    <glyph glyph-name="uni0421" unicode="&#x421;" 
d="M109.5 57q-59.5 69 -59.5 197q0 135 39.5 238t113 160.5t170.5 57.5q112 0 168.5 -55t62.5 -150l-143 -29q-3 56 -23.5 85t-70.5 29q-59 0 -93 -47t-49 -135l-18 -109q-8 -48 -8 -78q0 -113 101 -113q83 0 132 119l127 -38q-43 -101 -106.5 -151t-162.5 -50
q-121 0 -180.5 69z" />
    <glyph glyph-name="uni0422" unicode="&#x422;" 
d="M427 576l-96 -576h-148l96 576h-202l20 122h552l-20 -122h-202z" />
    <glyph glyph-name="uni0423" unicode="&#x423;" 
d="M88 122h114l30 57l-141 519h150l59 -248l20 -124h3l51 124l127 248h155l-309 -575q-37 -69 -77.5 -96t-102.5 -27h-99z" />
    <glyph glyph-name="uni0424" unicode="&#x424;" 
d="M196 49q-162 30 -162 201q0 178 68.5 281.5t193.5 115.5l14 83h139l-14 -83q162 -30 162 -201q0 -178 -68.5 -281.5t-193.5 -115.5l-14 -83h-139zM285 543q-38 -10 -66 -46t-39 -102l-15 -89q-5 -33 -5 -56q0 -73 60 -97zM412 199q28 36 39 102l15 89q5 33 5 56
q0 73 -60 97l-65 -390q38 10 66 46z" />
    <glyph glyph-name="uni0425" unicode="&#x425;" 
d="M550 0h-165l-49 139l-34 110h-9l-66 -110l-97 -139h-163l256 361l-129 337h166l39 -111l33 -112h8l70 112l78 111h162l-237 -339z" />
    <glyph glyph-name="uni0426" unicode="&#x426;" 
d="M335 -176.5q-39 13.5 -96 42.5l-11 -5l-8 -47h-111l6 38q18 112 112 112q27 0 76 -13l119 -30l11 5l18 74h-442l116 698h148l-96 -576h158l96 576h148l-96 -576h78l-34 -200q-10 -58 -38 -85t-75 -27q-40 0 -79 13.5z" />
    <glyph glyph-name="uni0427" unicode="&#x427;" 
d="M386 246h-6q-47 -22 -114 -22q-97 0 -146 45.5t-49 132.5q0 59 10 122l29 174h148l-34 -202q-8 -48 -8 -80q0 -72 84 -72q60 0 105 17l56 337h148l-116 -698h-148z" />
    <glyph glyph-name="uni0428" unicode="&#x428;" 
d="M102 698h128l-97 -585h80l97 585h128l-97 -585h80l97 585h128l-116 -698h-544z" />
    <glyph glyph-name="uni0429" unicode="&#x429;" 
d="M365 -179.5q-27 10.5 -90 45.5l-11 -5l-8 -47h-111l6 38q18 112 112 112q13 0 26.5 -2.5t39.5 -10.5l101 -30l11 5l18 74h-473l116 698h120l-97 -585h73l97 585h120l-97 -585h73l97 585h120l-97 -585h57l-33 -191q-10 -58 -38 -85t-75 -27q-30 0 -57 10.5z" />
    <glyph glyph-name="uni042A" unicode="&#x42a;" 
d="M178 576h-117l20 122h265l-42 -252h93q90 0 140 -51t50 -133q0 -80 -30.5 -139t-87 -91t-131.5 -32h-256zM317 118q50 0 75.5 20.5t33.5 66.5l3 17q4 26 4 40q0 34 -19 50t-63 16h-67l-35 -210h68z" />
    <glyph glyph-name="uni042B" unicode="&#x42b;" 
d="M102 698h128l-42 -252h27q87 0 133.5 -46t46.5 -126q0 -130 -64 -202t-175 -72h-170zM518 698h128l-116 -698h-128zM161 112q41 0 63 21.5t30 71.5l3 19q4 29 4 50q0 31 -13 45.5t-51 14.5h-28l-37 -222h29z" />
    <glyph glyph-name="uni042C" unicode="&#x42c;" 
d="M146 698h148l-42 -252h117q90 0 140 -51t50 -133q0 -80 -30.5 -139t-87 -91t-131.5 -32h-280zM289 118q50 0 75.5 20.5t33.5 66.5l3 17q4 26 4 40q0 34 -19 50t-63 16h-91l-35 -210h92z" />
    <glyph glyph-name="uni042D" unicode="&#x42d;" 
d="M430 414q6 38 6 63q0 113 -101 113q-45 0 -74.5 -25.5t-54.5 -74.5l-123 45q44 91 105.5 133t156.5 42q121 0 180.5 -69t59.5 -197q0 -135 -39.5 -238t-113 -160.5t-170.5 -57.5q-111 0 -166.5 49t-70.5 139l143 32q8 -51 30 -75.5t70 -24.5q57 0 90.5 44t49.5 127l2 13
h-173l20 122h173z" />
    <glyph glyph-name="uni042E" unicode="&#x42e;" 
d="M243.5 36q-37.5 48 -37.5 154q0 51 7 107h-49l-49 -297h-129l116 698h128l-48 -288h50q18 83 44.5 150t58.5 99q51 51 123 51q75 0 112.5 -48t37.5 -154q0 -69 -16.5 -165.5t-46 -181.5t-66.5 -122q-51 -51 -123 -51q-75 0 -112.5 48zM394.5 104q12.5 10 22 36.5
t17.5 77.5l44 262q8 53 8 76q0 48 -34 48q-20 0 -32.5 -10t-22 -36.5t-17.5 -77.5l-44 -262q-8 -53 -8 -76q0 -48 34 -48q20 0 32.5 10z" />
    <glyph glyph-name="uni042F" unicode="&#x42f;" 
d="M17 122h54l62 93q20 30 39 44.5t50 21.5l1 6q-66 14 -101 55.5t-35 109.5q0 72 31.5 128t88 87t129.5 31h272l-116 -698h-148l44 266h-53l-120 -181q-32 -47 -66.5 -66t-83.5 -19h-68zM408 383l33 197h-84q-50 0 -75.5 -20.5t-33.5 -62.5l-3 -17q-3 -21 -3 -37
q0 -30 19.5 -45t61.5 -15h85z" />
    <glyph glyph-name="uni0430" unicode="&#x430;" 
d="M347 0l20 123h-5q-33 -66 -72.5 -100.5t-100.5 -34.5q-151 0 -151 200q0 102 29.5 179t83 119t124.5 42q59 0 91 -27.5t44 -80.5h7l16 96h146l-86 -516h-146zM341 150q39 46 47 97l14 83q2 14 2 20q0 31 -20.5 48t-61.5 17q-53 0 -82.5 -31t-39.5 -91l-10 -60
q-4 -24 -4 -45q2 -87 68 -87q48 0 87 49z" />
    <glyph glyph-name="uni0431" unicode="&#x431;" 
d="M104 47.5q-58 59.5 -58 162.5q0 70 19.5 157t54.5 164.5t77 119.5q48 48 109 71t159 26l137 4l-27 -132l-131 -4q-53 -1 -86 -13.5t-55 -34.5q-23 -23 -43.5 -65.5t-35.5 -99.5h7q27 50 64 74.5t88 24.5q49 0 87.5 -24t61 -68t22.5 -104q0 -97 -36 -169t-101.5 -110.5
t-151.5 -38.5q-103 0 -161 59.5zM353 126q30 29 41 83l10 52q5 30 5 41q0 45 -24 68t-65 23q-99 0 -118 -110l-9 -54q-5 -30 -5 -41q0 -45 22.5 -68t65.5 -23q47 0 77 29z" />
    <glyph glyph-name="uni0432" unicode="&#x432;" 
d="M111.5 42q-55.5 54 -55.5 142q0 38 11 99q20 116 93 180.5t188 64.5q89 0 140 -36.5t51 -97.5q0 -51 -32 -81t-91 -39l-1 -5q47 -6 72.5 -31.5t25.5 -68.5q0 -54 -32 -95t-86 -63.5t-120 -22.5q-108 0 -163.5 54zM251 295q57 8 87 17t41.5 19.5t15.5 26.5q2 8 2 16
q0 21 -17 35.5t-51 14.5q-42 0 -73 -30.5t-41 -87.5l-3 -17zM369 156q2 12 2 23q0 19 -14 29t-39 10q-28 0 -86 -8l-32 -5q-2 -16 -2 -28q0 -38 22.5 -61.5t61.5 -23.5q77 0 87 64z" />
    <glyph glyph-name="uni0433" unicode="&#x433;" 
d="M98 25.5q-53 37.5 -53 108.5q0 67 45 113t137 61l76 13q49 9 68 22t19 35q0 41 -65 41q-79 0 -141 -55l-75 77q47 41 103.5 64t130.5 23q90 0 140.5 -37.5t50.5 -106.5q0 -65 -45 -110.5t-137 -61.5l-76 -13q-51 -8 -69 -22t-18 -37q0 -22 18.5 -32.5t62.5 -10.5
q42 0 83 15t68 40l75 -77q-96 -87 -244 -87q-101 0 -154 37.5z" />
    <glyph glyph-name="uni0434" unicode="&#x434;" 
d="M95 44.5q-55 56.5 -55 153.5q0 99 33 171t89 109.5t122 37.5q104 0 124 -102h7v40q0 90 -33.5 131.5t-106.5 41.5q-50 0 -95 -14l21 126q49 13 107 13q128 0 191.5 -71.5t63.5 -206.5q0 -147 -31.5 -250.5t-86.5 -158.5q-77 -77 -198 -77q-97 0 -152 56.5zM338.5 127
q28.5 30 41.5 94l10 51q8 38 8 68q0 32 -17.5 49.5t-59.5 17.5q-47 0 -78 -30.5t-43 -89.5l-11 -54q-6 -33 -6 -49q0 -42 21.5 -64.5t59.5 -22.5q46 0 74.5 30z" />
    <glyph glyph-name="uni0435" unicode="&#x435;" 
d="M112.5 45.5q-56.5 57.5 -56.5 162.5q0 95 38 167.5t106.5 112.5t159.5 40q82 0 136 -37t54 -105q0 -75 -74 -125.5t-274 -57.5q-1 -8 -1 -17q0 -86 99 -86q43 0 72.5 18.5t69.5 69.5l91 -59q-47 -68 -104 -104.5t-148 -36.5q-112 0 -168.5 57.5zM215 301l-3 -14
q86 5 129 18.5t55.5 30t12.5 37.5q0 52 -64 52q-104 0 -130 -124z" />
    <glyph glyph-name="uni0436" unicode="&#x436;" 
d="M52 108q11 25 21.5 68.5t17.5 91.5q10 67 10 120v20h-64l18 108h33q58 0 87.5 -34t29.5 -111q0 -31 -2 -59h47l34 204h118l-34 -204h43q12 56 29 97.5t36 60.5q25 25 53.5 35.5t72.5 10.5h29l-18 -108h-65q-11 -25 -21.5 -68.5t-17.5 -91.5q-10 -67 -10 -120v-20h68
l-18 -108h-37q-58 0 -87.5 34t-29.5 111q0 23 2 65h-46l-35 -210h-118l35 210h-43q-26 -124 -66 -164q-24 -24 -53 -35t-73 -11h-33l18 108h69z" />
    <glyph glyph-name="uni0437" unicode="&#x437;" 
d="M125 10q-55 22 -97 67l86 86q28 -32 61.5 -48.5t79.5 -16.5q52 0 77 15t30 50l1 12q0 17 -9.5 26t-35.5 9h-109l16 97h83q37 0 57 13.5t24 36.5l1 12q0 49 -81 49q-45 0 -77 -15t-62 -47l-75 77q47 46 102.5 70.5t134.5 24.5q97 0 149.5 -36.5t52.5 -96.5q0 -52 -31 -86
t-92 -47l-1 -5q98 -16 98 -96q0 -51 -30.5 -90.5t-88 -61t-136.5 -21.5q-73 0 -128 22z" />
    <glyph glyph-name="uni0438" unicode="&#x438;" 
d="M362 123h-5q-31 -67 -70 -101t-98 -34q-71 0 -106 42t-35 107q0 38 11 104l46 275h146l-49 -292q-7 -42 -7 -63q0 -24 14.5 -42.5t45.5 -18.5q25 0 44 11.5t37 35.5q39 52 47 100l45 269h146l-86 -516h-146z" />
    <glyph glyph-name="uni0439" unicode="&#x439;" 
d="M362 123h-5q-31 -67 -70 -101t-98 -34q-71 0 -106 42t-35 107q0 38 11 104l46 275h146l-49 -292q-7 -42 -7 -63q0 -24 14.5 -42.5t45.5 -18.5q25 0 44 11.5t37 35.5q39 52 47 100l45 269h146l-86 -516h-146zM201 689l-15 50l115 43l4 -107q10 -3 26.5 -5t30.5 -2t30 2
t25 5l34 107l111 -43l-30 -57q-29 -57 -75 -84.5t-104 -27.5q-117 0 -152 119z" />
    <glyph glyph-name="uni043A" unicode="&#x43a;" 
d="M116 516h146l-33 -201h69l130 201h153l-115 -178q-22 -33 -42.5 -48t-51.5 -21l-1 -7q25 -6 40.5 -22.5t29.5 -53.5l27 -72h55l-19 -114h-59q-45 0 -72.5 18.5t-43.5 60.5l-48 127h-71l-34 -206h-146z" />
    <glyph glyph-name="uni043B" unicode="&#x43b;" 
d="M-11 114h73q33 37 52.5 89t33.5 138l29 175h384l-86 -516h-146l68 405h-104l-12 -70q-20 -120 -44 -181t-62 -99q-31 -31 -68.5 -46t-90.5 -15h-47z" />
    <glyph glyph-name="uni043C" unicode="&#x43c;" 
d="M95 516h146l66 -217h8l138 217h138l-85 -516h-119l39 233l24 105h-8l-172 -270l-82 270h-8l-12 -105l-39 -233h-119z" />
    <glyph glyph-name="uni043D" unicode="&#x43d;" 
d="M109 516h146l-33 -200h175l33 200h146l-86 -516h-146l34 205h-175l-34 -205h-146z" />
    <glyph glyph-name="uni043E" unicode="&#x43e;" 
d="M102 47.5q-59 59.5 -59 162.5q0 97 36.5 169t103 110.5t152.5 38.5q104 0 163 -59.5t59 -162.5q0 -97 -36.5 -169t-103 -110.5t-152.5 -38.5q-104 0 -163 59.5zM354.5 126q30.5 29 39.5 83l13 78q5 30 5 41q0 45 -23.5 68t-64.5 23q-48 0 -78.5 -29t-39.5 -83l-13 -78
q-5 -30 -5 -41q0 -45 23.5 -68t64.5 -23q48 0 78.5 29z" />
    <glyph glyph-name="uni043F" unicode="&#x43f;" 
d="M25 0l86 516h146l-20 -123h5q31 67 70 101t98 34q71 0 106 -42t35 -107q0 -38 -11 -104l-46 -275h-146l49 293q1 4 4 22.5t3 39.5q0 24 -14.5 42.5t-45.5 18.5q-25 0 -44 -11.5t-37 -35.5q-39 -52 -47 -100l-45 -269h-146z" />
    <glyph glyph-name="uni0440" unicode="&#x440;" 
d="M107 516h146l-20 -123h5q33 66 72.5 100.5t100.5 34.5q151 0 151 -200q0 -102 -29.5 -179t-83 -119t-124.5 -42q-59 0 -91 27.5t-44 80.5h-7l-50 -296h-146zM360.5 132q29.5 31 39.5 91l10 60q4 24 4 45q-2 87 -68 87q-48 0 -87 -49q-39 -46 -47 -97l-14 -83
q-2 -14 -2 -20q0 -31 20.5 -48t61.5 -17q53 0 82.5 31z" />
    <glyph glyph-name="uni0441" unicode="&#x441;" 
d="M113 45q-56 57 -56 161q0 89 33.5 162.5t98.5 116.5t154 43q85 0 134 -34.5t66 -96.5l-119 -56q-12 35 -32 52.5t-61 17.5q-43 0 -72.5 -28.5t-38.5 -81.5l-10 -60q-4 -24 -4 -47q0 -89 91 -89q23 0 42 8t43 31.5t60 70.5l91 -59q-55 -87 -113.5 -127.5t-146.5 -40.5
q-104 0 -160 57z" />
    <glyph glyph-name="uni0442" unicode="&#x442;" horiz-adv-x="900" 
d="M129 525h140l-24 -122h6q31 65 71.5 99.5t97.5 34.5q58 0 89.5 -35t32.5 -99h5q32 64 73.5 99t100.5 35q57 0 88 -35.5t31 -97.5q0 -20 -3.5 -44t-8.5 -47l-40 -201h53l-22 -112h-91q-40 0 -62 20.5t-22 55.5q0 13 3 28l41 208q8 38 8 55q0 53 -44 53q-22 0 -43 -13
t-39 -34q-17 -20 -30 -48t-18 -55l-54 -270h-140l62 312q7 33 7 54q0 54 -47 54q-45 0 -84 -48q-36 -44 -48 -102l-54 -270h-140z" />
    <glyph glyph-name="uni0443" unicode="&#x443;" 
d="M92 -196q-49 16 -86 60l87 90q43 -53 120 -53q40 0 66 12.5t44 46t28 94.5l14 86h-5q-31 -67 -70 -101t-98 -34q-71 0 -106 42t-35 107q0 38 11 104l43 258h146l-46 -275q-7 -42 -7 -63q0 -24 14.5 -42.5t45.5 -18.5q25 0 44 11.5t37 35.5q39 52 47 100l42 252h146
l-80 -480q-21 -124 -91 -186t-186 -62q-76 0 -125 16z" />
    <glyph glyph-name="uni0444" unicode="&#x444;" 
d="M295 594q25 146 172 146h84l-18 -108h-112l-31 -182h5q22 42 45.5 60t52.5 18q44 0 68 -31t24 -93q0 -122 -27 -221t-72 -144q-31 -31 -71 -31q-33 0 -51.5 17.5t-27.5 59.5h-7l-30 -181q-19 -116 -110 -116q-25 0 -47.5 10t-60.5 39l-39 30l61 79l65 -49l12 5l30 184h-5
q-22 -42 -45.5 -60t-52.5 -18q-44 0 -68 31t-24 93q0 123 27 221.5t72 143.5q31 31 71 31q33 0 51.5 -17.5t27.5 -59.5h7zM257 348q3 17 3 28q0 41 -35 41q-24 0 -41.5 -28.5t-30.5 -101.5l-8 -46q-7 -43 -7 -73q0 -27 10 -38t29 -11q21 0 34 15.5t19 52.5zM417 147.5
q17 28.5 30 101.5l8 46q7 43 7 73q0 27 -10 38t-29 11q-21 0 -34 -15.5t-19 -52.5l-27 -161q-3 -16 -3 -28q0 -41 35 -41q25 0 42 28.5z" />
    <glyph glyph-name="uni0445" unicode="&#x445;" 
d="M25.5 24.5q-29.5 36.5 -29.5 104.5q0 20 2 44l116 14v-11q0 -44 8 -63t28 -19q31 0 51 47.5t29 112.5t9 119q0 16 -2 44l-12 5l-131 -91l-61 81l71 53q43 32 76 47.5t67 15.5q53 0 79.5 -35.5t26.5 -102.5v-15h7q21 81 54 117t83 36q49 0 78.5 -38t29.5 -100
q0 -36 -1 -47l-116 -14v16q0 39 -8.5 58t-28.5 19q-46 0 -66.5 -87t-20.5 -186q0 -19 2 -49l12 -6l134 93l61 -77l-51 -45q-87 -77 -163 -77q-50 0 -78 37t-28 114h-7q-20 -80 -54.5 -115.5t-85.5 -35.5t-80.5 36.5z" />
    <glyph glyph-name="uni0446" unicode="&#x446;" 
d="M367 -177q-38 13 -95 43l-11 -5l-8 -47h-111l6 38q18 112 112 112q27 0 76 -13l114 -30l11 5l36 92l-4 3q-27 -21 -64 -21q-45 0 -72 28t-27 74q0 13 2 33h-5q-32 -69 -67.5 -102t-93.5 -33q-71 0 -102 41t-31 108q0 38 11 104l44 263h146l-47 -280q-7 -42 -7 -63
q0 -61 52 -61q24 0 38.5 10.5t34.5 36.5q39 52 47 100l43 257h146l-64 -386l15 -4l54 54l65 -65l-20 -20l-36 -173q-13 -61 -40.5 -86.5t-72.5 -25.5q-37 0 -75 13z" />
    <glyph glyph-name="uni0447" unicode="&#x447;" 
d="M374 252h-5q-30 -55 -67.5 -79t-91.5 -24q-65 0 -103.5 35.5t-38.5 99.5q0 31 5 64l28 168h146l-25 -149q-5 -30 -5 -51q0 -26 17 -40.5t48 -14.5q47 0 74 24.5t36 76.5l26 154h146l-86 -516h-146z" />
    <glyph glyph-name="uni0448" unicode="&#x448;" 
d="M8 84q0 34 7 76l59 356h118l-57 -341q-4 -24 -4 -41q0 -18 8 -28.5t21 -10.5q14 0 25 7t22 25q17 28 25 77l52 312h118l-57 -341q-4 -24 -4 -42q0 -38 29 -38q26 0 46 32q18 30 24 65l54 324h118l-86 -516h-118l15 90h-6q-18 -48 -46.5 -75t-67.5 -27q-37 0 -58 21.5
t-21 62.5q0 12 1 18h-5q-21 -48 -50.5 -75t-73.5 -27q-88 0 -88 96z" />
    <glyph glyph-name="uni0449" unicode="&#x449;" 
d="M355.5 -178q-42.5 12 -112.5 44l-11 -5l-8 -47h-109l6 38q8 53 34.5 81.5t68.5 28.5q26 0 70 -9l159 -34l11 5l35 90l-4 3q-17 -17 -41 -17q-30 0 -47 20.5t-17 60.5q0 11 1 21h-5q-41 -102 -112 -102t-71 81q0 13 1 21h-5q-20 -50 -48.5 -76t-70.5 -26q-37 0 -57.5 24.5
t-20.5 71.5q0 36 7 78l57 342h117l-55 -330q-4 -24 -4 -42q0 -37 25 -37q22 0 37 28q16 28 25 81l50 300h116l-55 -330q-4 -24 -4 -42q0 -37 25 -37q22 0 37 28q16 28 25 81l50 300h117l-68 -409l11 -3l31 30l53 -55l-13 -14l-29 -143q-13 -61 -40.5 -86.5t-74.5 -25.5
q-44 0 -86.5 12z" />
    <glyph glyph-name="uni044A" unicode="&#x44a;" 
d="M210 10q-44 22 -67.5 61t-23.5 88q0 59 20.5 106t69.5 96l34 34l-93 17l-11 -5l-6 -38h-108l8 47q19 112 116 112q29 0 59.5 -13.5t74.5 -45.5l6 5l7 42h119l-10 -66l-106 -126l10 -8q30 25 59 37.5t62 12.5q60 0 95 -37t35 -107q0 -69 -31.5 -122t-87.5 -82.5
t-127 -29.5q-60 0 -104 22zM383.5 115q23.5 21 30.5 60q4 20 4 33q0 29 -17 44t-47 15q-37 0 -60.5 -22t-29.5 -57q-3 -16 -3 -30q0 -31 17.5 -47.5t50.5 -16.5q31 0 54.5 21z" />
    <glyph glyph-name="uni044B" unicode="&#x44b;" 
d="M20 146q0 48 11 114l44 256h123l-37 -220h6q20 43 47 64t69 21q101 0 101 -131q0 -84 -28 -143.5t-74 -89t-100 -29.5q-162 0 -162 158zM489 516h123l-86 -516h-123zM250 181q5 33 5 51q0 25 -9 37t-29 12q-26 0 -45.5 -22.5t-25.5 -58.5q-6 -34 -6 -54q0 -58 42 -58
q53 0 68 93z" />
    <glyph glyph-name="uni044C" unicode="&#x44c;" 
d="M168.5 10.5q-46.5 22.5 -71 61.5t-24.5 87q0 34 11 100l43 257h146l-38 -226h6q28 46 64.5 68.5t89.5 22.5q68 0 104.5 -38t36.5 -112q0 -73 -33.5 -128.5t-91.5 -85t-132 -29.5q-64 0 -110.5 22.5zM354.5 117.5q25.5 20.5 32.5 57.5q4 20 4 36q0 61 -66 61
q-90 0 -104 -81q-3 -15 -3 -32q0 -29 19 -45.5t57 -16.5q35 0 60.5 20.5z" />
    <glyph glyph-name="uni044D" unicode="&#x44d;" 
d="M226 307h162q1 6 1 18q0 93 -95 93q-37 0 -62.5 -16t-59.5 -58l-91 58q50 67 103.5 96.5t133.5 29.5q104 0 160 -57t56 -161q0 -89 -33.5 -162.5t-98.5 -116.5t-154 -43q-87 0 -136.5 32t-70.5 91l114 55q12 -35 34.5 -51.5t58.5 -16.5q52 0 84.5 28.5t41.5 83.5h-163z
" />
    <glyph glyph-name="uni044E" unicode="&#x44e;" 
d="M247.5 29.5q-37.5 41.5 -37.5 123.5q0 30 2 56h-67l-34 -209h-123l86 516h123l-34 -204h63q23 103 76 159.5t132 56.5q71 0 108.5 -41.5t37.5 -123.5q0 -115 -27 -199.5t-77.5 -130t-119.5 -45.5q-71 0 -108.5 41.5zM409 114q15 21 24 78l19 114q7 46 7 70q0 47 -39 47
q-24 0 -39 -21t-24 -78l-19 -114q-7 -45 -7 -70q0 -47 39 -47q24 0 39 21z" />
    <glyph glyph-name="uni044F" unicode="&#x44f;" 
d="M33 114h52l45 69q14 20 31 29.5t44 10.5l1 7q-58 7 -88.5 38t-30.5 79q0 55 32.5 96t89 63t127.5 22q119 0 212 -35l-82 -493h-144l32 192h-52l-85 -129q-22 -34 -49.5 -48.5t-69.5 -14.5h-84zM368 273l24 144q-32 7 -61 7q-90 0 -100 -64q-2 -12 -2 -23q0 -64 70 -64h69
z" />
    <glyph glyph-name="uni0450" unicode="&#x450;" 
d="M112.5 45.5q-56.5 57.5 -56.5 162.5q0 95 38 167.5t106.5 112.5t159.5 40q82 0 136 -37t54 -105q0 -75 -74 -125.5t-274 -57.5q-1 -8 -1 -17q0 -86 99 -86q43 0 72.5 18.5t69.5 69.5l91 -59q-47 -68 -104 -104.5t-148 -36.5q-112 0 -168.5 57.5zM215 301l-3 -14
q86 5 129 18.5t55.5 30t12.5 37.5q0 52 -64 52q-104 0 -130 -124zM222 747l124 59l77 -196l-87 -39z" />
    <glyph glyph-name="uni0451" unicode="&#x451;" 
d="M112.5 45.5q-56.5 57.5 -56.5 162.5q0 95 38 167.5t106.5 112.5t159.5 40q82 0 136 -37t54 -105q0 -75 -74 -125.5t-274 -57.5q-1 -8 -1 -17q0 -86 99 -86q43 0 72.5 18.5t69.5 69.5l91 -59q-47 -68 -104 -104.5t-148 -36.5q-112 0 -168.5 57.5zM215 301l-3 -14
q86 5 129 18.5t55.5 30t12.5 37.5q0 52 -64 52q-104 0 -130 -124zM328 745l-27 -158h-159l27 158h159zM591 745l-27 -158h-159l27 158h159z" />
    <glyph glyph-name="uni0452" unicode="&#x452;" 
d="M238 -186q-34 26 -65 71l-18 26l93 69l71 -81l13 5l65 389q1 4 4 22.5t3 39.5q0 24 -14.5 42.5t-45.5 18.5q-25 0 -44 -11.5t-37 -35.5q-39 -52 -47 -100l-45 -269h-146l97 581h-59l18 108h59l8 51h146l-8 -51h135l-18 -108h-135l-31 -188h5q31 67 70 101t98 34
q71 0 106 -42t35 -107q0 -38 -11 -104l-52 -312q-29 -175 -170 -175q-46 0 -80 26z" />
    <glyph glyph-name="uni0453" unicode="&#x453;" 
d="M98 25.5q-53 37.5 -53 108.5q0 67 45 113t137 61l76 13q49 9 68 22t19 35q0 41 -65 41q-79 0 -141 -55l-75 77q47 41 103.5 64t130.5 23q90 0 140.5 -37.5t50.5 -106.5q0 -65 -45 -110.5t-137 -61.5l-76 -13q-51 -8 -69 -22t-18 -37q0 -22 18.5 -32.5t62.5 -10.5
q42 0 83 15t68 40l75 -77q-96 -87 -244 -87q-101 0 -154 37.5zM361 570l-86 46l115 190l114 -60z" />
    <glyph glyph-name="uni0454" unicode="&#x454;" 
d="M113 45q-56 57 -56 161q0 89 33.5 162.5t98.5 116.5t154 43q85 0 134 -34.5t66 -96.5l-112 -53q-12 40 -34.5 57.5t-65.5 17.5q-45 0 -76.5 -29t-41.5 -83h163l-15 -97h-163v-19q0 -44 24 -69t74 -25q34 0 60 15.5t64 60.5l87 -56q-48 -66 -102 -97.5t-132 -31.5
q-104 0 -160 57z" />
    <glyph glyph-name="uni0455" unicode="&#x455;" 
d="M123.5 10q-56.5 22 -82.5 62l82 81q21 -30 59.5 -46t85.5 -16q46 0 72 15t26 42q0 19 -13.5 29t-39.5 16l-74 16q-66 14 -102.5 46t-36.5 95q0 85 65 131.5t169 46.5q69 0 124 -19.5t81 -53.5l-80 -82q-18 23 -52.5 37.5t-76.5 14.5q-40 0 -63 -14.5t-23 -41.5
q0 -20 12 -28.5t39 -14.5l77 -17q69 -15 104 -47t35 -92q0 -85 -68.5 -133.5t-184.5 -48.5q-78 0 -134.5 22z" />
    <glyph glyph-name="uni0456" unicode="&#x456;" horiz-adv-x="300" 
d="M119 516h148l-87 -514h-147zM312 745l-27 -158h-159l27 158h159z" />
    <glyph glyph-name="uni0457" unicode="&#x457;" horiz-adv-x="300" 
d="M119 516h148l-87 -514h-147zM173 745l-27 -158h-159l27 158h159zM436 745l-27 -158h-159l27 158h159z" />
    <glyph glyph-name="uni0458" unicode="&#x458;" horiz-adv-x="300" 
d="M-86.5 -178.5q-37.5 33.5 -87.5 113.5l-8 13l100 69l89 -118l13 5l102 612h146l-92 -553q-16 -93 -56.5 -134t-113.5 -41q-55 0 -92.5 33.5zM312 745l-27 -158h-159l27 158h159z" />
    <glyph glyph-name="uni0459" unicode="&#x459;" 
d="M276 28.5q-38 40.5 -38 117.5q0 48 11 114l25 152h-65l-8 -51q-23 -150 -46.5 -215.5t-57.5 -99.5q-28 -28 -59.5 -40t-73.5 -12h-20l18 110h42q26 29 45 85.5t39 175.5l25 151h297l-35 -212h6q19 38 45.5 57.5t66.5 19.5q45 0 70 -32.5t25 -98.5q0 -84 -28 -143.5
t-73.5 -89t-98.5 -29.5q-74 0 -112 40.5zM433.5 107.5q16.5 22.5 25.5 73.5q5 27 5 54q0 49 -36 49q-26 0 -44.5 -23.5t-24.5 -60.5q-6 -34 -6 -57q0 -58 40 -58q24 0 40.5 22.5z" />
    <glyph glyph-name="uni045A" unicode="&#x45a;" 
d="M275.5 29.5q-38.5 41.5 -38.5 118.5q0 28 3 53l1 8h-100l-35 -209h-118l86 516h118l-34 -203h100l34 203h118l-35 -212h6q19 38 45.5 57.5t66.5 19.5q45 0 70 -32.5t25 -98.5q0 -84 -28 -143.5t-73.5 -89t-98.5 -29.5q-74 0 -112.5 41.5zM433.5 107.5
q16.5 22.5 25.5 73.5q5 27 5 54q0 49 -36 49q-26 0 -44.5 -23.5t-24.5 -60.5q-6 -34 -6 -57q0 -58 40 -58q24 0 40.5 22.5z" />
    <glyph glyph-name="uni045B" unicode="&#x45b;" 
d="M122 581h-59l18 108h59l8 51h146l-8 -51h135l-18 -108h-135l-31 -188h5q31 67 70 101t98 34q71 0 106 -42t35 -107q0 -38 -11 -104l-46 -275h-146l49 292q7 42 7 63q0 24 -14.5 42.5t-45.5 18.5q-25 0 -44 -11.5t-37 -35.5q-39 -52 -47 -100l-45 -269h-146z" />
    <glyph glyph-name="uni045C" unicode="&#x45c;" 
d="M116 516h146l-33 -201h69l130 201h153l-115 -178q-22 -33 -42.5 -48t-51.5 -21l-1 -7q25 -6 40.5 -22.5t29.5 -53.5l27 -72h55l-19 -114h-59q-45 0 -72.5 18.5t-43.5 60.5l-48 127h-71l-34 -206h-146zM353 570l-86 46l115 190l114 -60z" />
    <glyph glyph-name="uni045D" unicode="&#x45d;" 
d="M362 123h-5q-31 -67 -70 -101t-98 -34q-71 0 -106 42t-35 107q0 38 11 104l46 275h146l-49 -292q-7 -42 -7 -63q0 -24 14.5 -42.5t45.5 -18.5q25 0 44 11.5t37 35.5q39 52 47 100l45 269h146l-86 -516h-146zM217 747l124 59l77 -196l-87 -39z" />
    <glyph glyph-name="uni045E" unicode="&#x45e;" 
d="M92 -196q-49 16 -86 60l87 90q43 -53 120 -53q40 0 66 12.5t44 46t28 94.5l14 86h-5q-31 -67 -70 -101t-98 -34q-71 0 -106 42t-35 107q0 38 11 104l43 258h146l-46 -275q-7 -42 -7 -63q0 -24 14.5 -42.5t45.5 -18.5q25 0 44 11.5t37 35.5q39 52 47 100l42 252h146
l-80 -480q-21 -124 -91 -186t-186 -62q-76 0 -125 16zM212 689l-15 50l115 43l4 -107q10 -3 26.5 -5t30.5 -2t30 2t25 5l34 107l111 -43l-30 -57q-29 -57 -75 -84.5t-104 -27.5q-117 0 -152 119z" />
    <glyph glyph-name="uni045F" unicode="&#x45f;" 
d="M83 30q-35 42 -35 107q0 38 11 104l46 275h146l-49 -292q-7 -42 -7 -63q0 -24 14.5 -42.5t45.5 -18.5q25 0 44 11.5t37 35.5q39 52 47 100l45 269h146l-86 -516h-146l20 123h-5q-31 -67 -70 -101t-98 -34q-71 0 -106 42zM182 -42h129l-27 -158h-129z" />
    <glyph glyph-name="uni0472" unicode="&#x472;" 
d="M96 56.5q-60 68.5 -60 194.5q0 125 33 229t103.5 167t176.5 63q123 0 183 -68.5t60 -194.5q0 -125 -33 -229t-103.5 -167t-176.5 -63q-123 0 -183 68.5zM203 414h244l2 15q4 25 4 58q0 115 -103 115q-62 0 -94.5 -41.5t-50.5 -134.5zM375 140.5q33 44.5 50 145.5l1 6
h-244l-3 -21q-4 -27 -4 -60q0 -115 103 -115q64 0 97 44.5z" />
    <glyph glyph-name="uni0473" unicode="&#x473;" 
d="M102 47.5q-59 59.5 -59 162.5q0 97 36.5 169t103 110.5t152.5 38.5q104 0 163 -59.5t59 -162.5q0 -97 -36.5 -169t-103 -110.5t-152.5 -38.5q-104 0 -163 59.5zM195 309h226q2 16 2 24q0 49 -25.5 73t-72.5 24q-107 0 -130 -121zM361.5 117q32.5 31 42.5 89l1 6h-225
q-3 -15 -3 -29q0 -49 25.5 -73t72.5 -24q54 0 86.5 31z" />
    <glyph glyph-name="uni0490" unicode="&#x490;" 
d="M182 698h287l25 150h133l-46 -272h-272l-95 -576h-148z" />
    <glyph glyph-name="uni0491" unicode="&#x491;" 
d="M163 516h257l24 143h129l-43 -254h-239l-68 -405h-146z" />
    <glyph glyph-name="uni0492" unicode="&#x492;" 
d="M65 396h82l51 302h420l-21 -122h-272l-30 -180h168l-19 -112h-167l-47 -284h-148l47 284h-83z" />
    <glyph glyph-name="uni0493" unicode="&#x493;" 
d="M130 190h-92l17 100h92l38 226h386l-19 -111h-239l-20 -115h145l-17 -100h-144l-32 -190h-146z" />
    <glyph glyph-name="uni0494" unicode="&#x494;" 
d="M265 -182.5q-33 22.5 -60 63.5l-24 36l94 71l68 -77l13 5l38 210q8 48 8 78q0 34 -21.5 53t-62.5 19q-60 0 -105 -17l-43 -259h-148l116 698h420l-21 -122h-272l-33 -202h6q47 22 114 22q97 0 146 -45.5t49 -132.5q0 -36 -2 -63t-9 -63l-25 -138q-28 -159 -167 -159
q-46 0 -79 22.5z" />
    <glyph glyph-name="uni0495" unicode="&#x495;" 
d="M236 -186q-34 26 -65 71l-15 22l93 69l68 -77l13 5l29 173q5 30 5 51q0 26 -17 40.5t-48 14.5q-47 0 -74 -24.5t-36 -76.5l-14 -82h-146l86 516h386l-19 -111h-239l-36 -213h5q30 55 67.5 79t91.5 24q65 0 103.5 -35.5t38.5 -99.5q0 -31 -5 -64l-22 -133
q-29 -175 -170 -175q-46 0 -80 26z" />
    <glyph glyph-name="uni0496" unicode="&#x496;" 
d="M461 0h-47l-11 298h-41l-49 -298h-126l49 298h-43l-104 -298h-133l88 251q17 50 41.5 75t63.5 31l1 6q-30 9 -43.5 32.5t-14.5 69.5l-5 233h121l6 -290h41l48 290h126l-48 -290h41l99 290h124l-83 -242q-16 -46 -36.5 -66.5t-55.5 -26.5l-1 -6q31 -9 45.5 -34t16.5 -73
l5 -138h44l-44 -262h-101z" />
    <glyph glyph-name="uni0497" unicode="&#x497;" 
d="M386 145q0 23 2 65h-46l-35 -210h-118l35 210h-43q-26 -124 -66 -164q-24 -24 -53 -35t-73 -11h-33l18 108h69q11 25 21.5 68.5t17.5 91.5q10 67 10 120v20h-64l18 108h33q58 0 87.5 -34t29.5 -111q0 -31 -2 -59h47l34 204h118l-34 -204h43q12 56 29 97.5t36 60.5
q25 25 53.5 35.5t72.5 10.5h29l-18 -108h-65q-11 -25 -21.5 -68.5t-17.5 -91.5q-10 -67 -10 -120v-20h83l-41 -248h-105l24 148q-65 26 -65 137z" />
    <glyph glyph-name="uni0498" unicode="&#x498;" 
d="M193 -6q-58 9 -102.5 35t-72.5 66l93 94q28 -36 69.5 -57.5t90.5 -21.5q47 0 74 21t33 60l2 15q2 14 2 23q0 31 -19.5 46t-65.5 15h-88l20 119h88q47 0 70.5 19.5t31.5 65.5l2 11q2 10 2 20q0 31 -24.5 48t-71.5 17q-86 0 -145 -74l-85 86q93 108 245 108
q111 0 170.5 -44t59.5 -125q0 -73 -48.5 -121.5t-123.5 -56.5l-1 -6q69 -12 101 -46.5t32 -91.5q0 -86 -53 -147.5t-149 -77.5l-24 -144h-137z" />
    <glyph glyph-name="uni0499" unicode="&#x499;" 
d="M190 -7q-97 14 -162 84l86 86q28 -32 61.5 -48.5t79.5 -16.5q52 0 77 15t30 50l1 12q0 17 -9.5 26t-35.5 9h-109l16 97h83q37 0 57 13.5t24 36.5l1 12q0 49 -81 49q-45 0 -77 -15t-62 -47l-75 77q47 46 102.5 70.5t134.5 24.5q97 0 149.5 -36.5t52.5 -96.5q0 -52 -31 -86
t-92 -47l-1 -5q98 -16 98 -96q0 -66 -50 -111t-140 -58l-21 -132h-129z" />
    <glyph glyph-name="uni049A" unicode="&#x49a;" 
d="M423 1q-28 9 -46.5 32.5t-27.5 66.5l-44 194h-89l-49 -294h-148l116 698h148l-47 -285h90l155 285h150l-141 -260q-20 -36 -42.5 -53t-51.5 -22l-1 -6q26 -7 40.5 -26.5t23.5 -58.5l34 -150h83l-45 -272h-133z" />
    <glyph glyph-name="uni049B" unicode="&#x49b;" 
d="M393 0q-51 18 -74 79l-48 127h-71l-34 -206h-146l86 516h146l-33 -201h69l130 201h153l-115 -178q-22 -33 -42.5 -48t-51.5 -21l-1 -7q25 -6 40.5 -22.5t29.5 -53.5l27 -72h83l-42 -254h-129z" />
    <glyph glyph-name="uni049C" unicode="&#x49c;" 
d="M220 296h-42l-49 -296h-135l116 698h135l-48 -287h42l24 143h103l-24 -143h34l148 287h137l-135 -262q-18 -34 -40.5 -51t-51.5 -22l-1 -6q26 -7 40 -26.5t21 -55.5l29 -153h56l-20 -122h-53q-50 0 -77 24.5t-39 86.5l-35 185h-32l-24 -142h-103z" />
    <glyph glyph-name="uni049D" unicode="&#x49d;" 
d="M199 208h-44l-35 -208h-132l86 516h132l-34 -204h44l21 124h95l-21 -124h30l126 204h139l-109 -178q-21 -33 -41.5 -48t-52.5 -21l-1 -7q26 -5 42.5 -22t27.5 -54l22 -76h55l-19 -110h-46q-46 0 -74 18.5t-42 60.5l-43 129h-31l-18 -109h-95z" />
    <glyph glyph-name="uni04A0" unicode="&#x4a0;" 
d="M172 575h-115l20 123h264l-47 -285h70l143 285h150l-130 -259q-33 -67 -93 -76l-1 -6q27 -8 41 -27t20 -56l25 -152h56l-20 -122h-66q-51 0 -78.5 25.5t-38.5 91.5l-29 177h-69l-49 -294h-149z" />
    <glyph glyph-name="uni04A1" unicode="&#x4a1;" 
d="M145 405h-114l18 111h260l-33 -201h53l124 201h153l-110 -178q-20 -33 -42 -48t-52 -21l-1 -7q25 -6 40.5 -22.5t27.5 -53.5l24 -72h55l-19 -114h-59q-48 0 -75.5 20t-42.5 65l-40 121h-55l-34 -206h-146z" />
    <glyph glyph-name="uni04A2" unicode="&#x4a2;" 
d="M408 0h-93l49 293h-158l-49 -293h-148l116 698h148l-47 -284h158l47 284h148l-96 -576h78l-45 -272h-133z" />
    <glyph glyph-name="uni04A3" unicode="&#x4a3;" 
d="M408 0h-96l34 205h-151l-34 -205h-146l86 516h146l-33 -200h151l33 200h146l-67 -402h79l-42 -254h-129z" />
    <glyph glyph-name="uni04A4" unicode="&#x4a4;" 
d="M102 698h138l-48 -287h124l48 287h290l-19 -114h-152l-97 -584h-138l49 297h-124l-49 -297h-138z" />
    <glyph glyph-name="uni04A5" unicode="&#x4a5;" 
d="M74 516h132l-33 -202h112l33 202h299l-18 -106h-166l-69 -410h-132l35 208h-112l-35 -208h-132z" />
    <glyph glyph-name="uni04AA" unicode="&#x4aa;" 
d="M209 -2q-80 21 -119.5 86.5t-39.5 169.5q0 135 39.5 238t113 160.5t170.5 57.5q112 0 168.5 -55t62.5 -150l-143 -29q-3 56 -23.5 85t-70.5 29q-59 0 -93 -47t-49 -135l-18 -109q-8 -48 -8 -78q0 -113 101 -113q83 0 132 119l127 -38q-36 -87 -87.5 -136t-126.5 -61
l-24 -142h-137z" />
    <glyph glyph-name="uni04AB" unicode="&#x4ab;" 
d="M211 -6q-75 16 -114.5 70.5t-39.5 141.5q0 89 33.5 162.5t98.5 116.5t154 43q85 0 134 -34.5t66 -96.5l-119 -56q-12 35 -32 52.5t-61 17.5q-43 0 -72.5 -28.5t-38.5 -81.5l-10 -60q-4 -24 -4 -47q0 -89 91 -89q23 0 42 8t43 31.5t60 70.5l91 -59q-44 -70 -89 -109
t-104 -52l-22 -135h-129z" />
    <glyph glyph-name="uni04AE" unicode="&#x4ae;" 
d="M184 0l41 246l-147 452h158l49 -164l31 -137h9l78 137l100 164h165l-295 -449l-41 -249h-148z" />
    <glyph glyph-name="uni04AF" unicode="&#x4af;" 
d="M183 0l-107 516h152l30 -197l21 -168h8l76 168l97 197h148l-279 -516l-34 -200h-146z" />
    <glyph glyph-name="uni04B0" unicode="&#x4b0;" 
d="M100 248h125l-147 450h158l49 -164l31 -137h9l78 137l100 164h165l-295 -450h125l-19 -112h-125l-22 -136h-148l22 136h-125z" />
    <glyph glyph-name="uni04B1" unicode="&#x4b1;" 
d="M166 -100h-120l17 100h120l-107 516h152l30 -197l21 -168h8l76 168l97 197h148l-279 -516h120l-17 -100h-120l-17 -100h-146z" />
    <glyph glyph-name="uni04B2" unicode="&#x4b2;" 
d="M428 0h-49l-49 139l-34 110h-9l-66 -110l-97 -139h-163l256 361l-129 337h166l39 -111l33 -112h8l70 112l78 111h162l-237 -339l91 -237h83l-45 -272h-133z" />
    <glyph glyph-name="uni04B3" unicode="&#x4b3;" 
d="M431 24q-33 -36 -72 -36q-50 0 -78 37t-28 114h-7q-20 -80 -54.5 -115.5t-85.5 -35.5t-80.5 36.5t-29.5 104.5q0 20 2 44l116 14v-11q0 -44 8 -63t28 -19q31 0 51 47.5t29 112.5t9 119q0 16 -2 44l-12 5l-131 -91l-61 81l71 53q43 32 76 47.5t67 15.5q53 0 79.5 -35.5
t26.5 -102.5v-15h7q21 81 54 117t83 36q49 0 78.5 -38t29.5 -100q0 -36 -1 -47l-116 -14v16q0 39 -8.5 58t-28.5 19q-46 0 -66.5 -87t-20.5 -186q0 -19 2 -49l12 -6l124 86l61 -77l-41 -243h-106l27 158z" />
    <glyph glyph-name="uni04B6" unicode="&#x4b6;" 
d="M408 0h-93l41 246h-6q-19 -10 -47 -16t-58 -6q-92 0 -140.5 45.5t-48.5 132.5q0 59 10 122l29 174h148l-34 -202q-8 -48 -8 -80q0 -34 20 -53t60 -19q52 0 94 17l56 337h148l-96 -576h78l-45 -272h-133z" />
    <glyph glyph-name="uni04B7" unicode="&#x4b7;" 
d="M408 0h-96l42 252h-5q-28 -54 -65.5 -78.5t-86.5 -24.5q-60 0 -97.5 35.5t-37.5 99.5q0 31 5 64l28 168h146l-25 -149q-5 -30 -5 -51q0 -25 16 -40t42 -15q86 0 103 101l26 154h146l-67 -402h79l-42 -254h-129z" />
    <glyph glyph-name="uni04B8" unicode="&#x4b8;" 
d="M231 226q-170 15 -170 176q0 59 10 122l29 174h148l-34 -202q-8 -48 -8 -80q0 -52 46 -66l26 154h103l-27 -158q31 4 61 15l56 337h148l-116 -698h-148l41 246h-6q-21 -11 -55 -17l-21 -125h-103z" />
    <glyph glyph-name="uni04B9" unicode="&#x4b9;" 
d="M376 229h-5q-9 -15 -23 -31.5t-26 -27.5l-16 -98h-95l13 77q-81 0 -121.5 34.5t-40.5 100.5q0 31 5 64l28 168h146l-25 -149q-5 -30 -5 -51q0 -37 32 -49l24 142h95l-24 -142q47 21 59 88l27 161h146l-86 -516h-146z" />
    <glyph glyph-name="uni04BA" unicode="&#x4ba;" 
d="M136 698h148l-41 -246h6q47 22 114 22q97 0 146 -45t49 -133q0 -59 -10 -122l-29 -174h-148l34 202q8 48 8 80q0 72 -84 72q-60 0 -105 -17l-56 -337h-148z" />
    <glyph glyph-name="uni04BB" unicode="&#x4bb;" 
d="M148 740h146l-57 -347h5q31 67 70 101t98 34q71 0 106 -42t35 -107q0 -38 -11 -104l-46 -275h-146l49 293q1 4 4 22.5t3 39.5q0 24 -14.5 42.5t-45.5 18.5q-25 0 -44 -11.5t-37 -35.5q-39 -52 -47 -100l-45 -269h-146z" />
    <glyph glyph-name="uni04C0" unicode="&#x4c0;" horiz-adv-x="300" 
d="M34 0l116 698h148l-116 -698h-148z" />
    <glyph glyph-name="uni04C1" unicode="&#x4c1;" 
d="M50 251q17 50 41.5 75t63.5 31l1 6q-30 9 -43.5 32.5t-14.5 69.5l-5 233h121l6 -290h43l48 290h126l-48 -290h43l99 290h124l-83 -242q-16 -46 -36.5 -66.5t-55.5 -26.5l-1 -6q31 -9 45.5 -34t16.5 -73l10 -250h-127l-11 298h-43l-49 -298h-126l49 298h-45l-104 -298
h-133zM234 859l-15 50l115 43l4 -107q10 -3 26.5 -5t30.5 -2t30 2t25 5l34 107l111 -43l-30 -57q-29 -57 -75 -84.5t-104 -27.5q-117 0 -152 119z" />
    <glyph glyph-name="uni04C2" unicode="&#x4c2;" 
d="M52 108q11 25 21.5 68.5t17.5 91.5q10 67 10 120v20h-64l18 108h33q58 0 87.5 -34t29.5 -111q0 -31 -2 -59h47l34 204h118l-34 -204h43q12 56 29 97.5t36 60.5q25 25 53.5 35.5t72.5 10.5h29l-18 -108h-65q-11 -25 -21.5 -68.5t-17.5 -91.5q-10 -67 -10 -120v-20h68
l-18 -108h-37q-58 0 -87.5 34t-29.5 111q0 23 2 65h-46l-35 -210h-118l35 210h-43q-26 -124 -66 -164q-24 -24 -53 -35t-73 -11h-33l18 108h69zM203 689l-15 50l115 43l4 -107q10 -3 26.5 -5t30.5 -2t30 2t25 5l34 107l111 -43l-30 -57q-29 -57 -75 -84.5t-104 -27.5
q-117 0 -152 119z" />
    <glyph glyph-name="uni04CF" unicode="&#x4cf;" 
d="M264 626h-152l19 114h299l-115 -626h152l-19 -114h-299z" />
    <glyph glyph-name="uni04D0" unicode="&#x4d0;" 
d="M400 0l-17 169h-196l-69 -169h-155l307 698h206l76 -698h-152zM356 553h-9l-110 -264h140zM231 859l-15 50l115 43l4 -107q10 -3 26.5 -5t30.5 -2t30 2t25 5l34 107l111 -43l-30 -57q-29 -57 -75 -84.5t-104 -27.5q-117 0 -152 119z" />
    <glyph glyph-name="uni04D1" unicode="&#x4d1;" 
d="M347 0l20 123h-5q-33 -66 -72.5 -100.5t-100.5 -34.5q-151 0 -151 200q0 102 29.5 179t83 119t124.5 42q59 0 91 -27.5t44 -80.5h7l16 96h146l-86 -516h-146zM341 150q39 46 47 97l14 83q2 14 2 20q0 31 -20.5 48t-61.5 17q-53 0 -82.5 -31t-39.5 -91l-10 -60
q-4 -24 -4 -45q2 -87 68 -87q48 0 87 49zM195 689l-15 50l115 43l4 -107q10 -3 26.5 -5t30.5 -2t30 2t25 5l34 107l111 -43l-30 -57q-29 -57 -75 -84.5t-104 -27.5q-117 0 -152 119z" />
    <glyph glyph-name="uni04D2" unicode="&#x4d2;" 
d="M400 0l-17 169h-196l-69 -169h-155l307 698h206l76 -698h-152zM356 553h-9l-110 -264h140zM336 907l-27 -158h-159l27 158h159zM599 907l-27 -158h-159l27 158h159z" />
    <glyph glyph-name="uni04D3" unicode="&#x4d3;" 
d="M347 0l20 123h-5q-33 -66 -72.5 -100.5t-100.5 -34.5q-151 0 -151 200q0 102 29.5 179t83 119t124.5 42q59 0 91 -27.5t44 -80.5h7l16 96h146l-86 -516h-146zM341 150q39 46 47 97l14 83q2 14 2 20q0 31 -20.5 48t-61.5 17q-53 0 -82.5 -31t-39.5 -91l-10 -60
q-4 -24 -4 -45q2 -87 68 -87q48 0 87 49zM317 745l-27 -158h-159l27 158h159zM580 745l-27 -158h-159l27 158h159z" />
    <glyph glyph-name="uni04D4" unicode="&#x4d4;" horiz-adv-x="900" 
d="M221 169l-101 -169h-156l444 698h525l-26 -128h-263l-31 -153h228l-26 -128h-228l-32 -161h274l-26 -128h-419l34 169h-197zM298 291h144l56 279h-29z" />
    <glyph glyph-name="uni04D5" unicode="&#x4d5;" horiz-adv-x="900" 
d="M69.5 24q-43.5 36 -43.5 101q0 81 65.5 122t197.5 47l91 4l5 27q3 18 3 30q0 70 -81 70q-56 0 -87 -17.5t-55 -50.5l-82 79q79 101 235 101q114 0 157 -76h7q68 76 169 76q85 0 145.5 -34t60.5 -111q0 -82 -83.5 -126.5t-268.5 -49.5q-2 -16 -2 -31q0 -84 94 -84
q50 0 81.5 15t65.5 58l86 -68q-48 -64 -104.5 -91t-139.5 -27q-73 0 -122.5 27t-74.5 77h-7q-25 -53 -71.5 -78.5t-107.5 -25.5q-90 0 -133.5 36zM566 400.5q-31 -29.5 -42 -80.5l-4 -19q82 4 126 14t59.5 25t15.5 37q0 31 -20.5 42t-59.5 11q-44 0 -75 -29.5zM316.5 107.5
q28.5 18.5 35.5 52.5l12 57l-81 -4q-52 -3 -76 -12t-31 -36q-4 -15 -4 -31q0 -23 19.5 -34t60.5 -11q36 0 64.5 18.5z" />
    <glyph glyph-name="uni04D6" unicode="&#x4d6;" 
d="M38 0l117 698h446l-20 -122h-300l-27 -162h286l-20 -122h-287l-28 -170h299l-20 -122h-446zM234 859l-15 50l115 43l4 -107q10 -3 26.5 -5t30.5 -2t30 2t25 5l34 107l111 -43l-30 -57q-29 -57 -75 -84.5t-104 -27.5q-117 0 -152 119z" />
    <glyph glyph-name="uni04D7" unicode="&#x4d7;" 
d="M112.5 45.5q-56.5 57.5 -56.5 162.5q0 95 38 167.5t106.5 112.5t159.5 40q82 0 136 -37t54 -105q0 -75 -74 -125.5t-274 -57.5q-1 -8 -1 -17q0 -86 99 -86q43 0 72.5 18.5t69.5 69.5l91 -59q-47 -68 -104 -104.5t-148 -36.5q-112 0 -168.5 57.5zM215 301l-3 -14
q86 5 129 18.5t55.5 30t12.5 37.5q0 52 -64 52q-104 0 -130 -124zM206 689l-15 50l115 43l4 -107q10 -3 26.5 -5t30.5 -2t30 2t25 5l34 107l111 -43l-30 -57q-29 -57 -75 -84.5t-104 -27.5q-117 0 -152 119z" />
    <glyph glyph-name="uni04D8" unicode="&#x4d8;" 
d="M100 57q-59 69 -59 199q0 50 7 92l8 50h388l2 12q5 30 5 58q0 123 -100 123q-51 0 -82.5 -31.5t-55.5 -93.5l-125 49q37 96 107 145.5t170 49.5q117 0 174.5 -70t57.5 -217q0 -114 -34 -213t-107 -160.5t-183 -61.5q-114 0 -173 69zM375.5 150.5q35.5 45.5 50.5 134.5
l1 6h-236q-8 -38 -8 -79q0 -107 95 -107q62 0 97.5 45.5z" />
    <glyph glyph-name="uni04D9" unicode="&#x4d9;" 
d="M104 25q-54 37 -54 105q0 75 74 125.5t274 57.5q1 8 1 17q0 86 -99 86q-43 0 -72.5 -18.5t-69.5 -69.5l-91 59q47 68 104 104.5t148 36.5q112 0 168.5 -57.5t56.5 -162.5q0 -95 -38 -167.5t-106.5 -112.5t-159.5 -40q-82 0 -136 37zM385 215l3 14q-86 -5 -129 -18.5
t-55.5 -30t-12.5 -37.5q0 -52 64 -52q104 0 130 124z" />
    <glyph glyph-name="uni04DC" unicode="&#x4dc;" 
d="M50 251q17 50 41.5 75t63.5 31l1 6q-30 9 -43.5 32.5t-14.5 69.5l-5 233h121l6 -290h43l48 290h126l-48 -290h43l99 290h124l-83 -242q-16 -46 -36.5 -66.5t-55.5 -26.5l-1 -6q31 -9 45.5 -34t16.5 -73l10 -250h-127l-11 298h-43l-49 -298h-126l49 298h-45l-104 -298
h-133zM339 907l-27 -158h-159l27 158h159zM602 907l-27 -158h-159l27 158h159z" />
    <glyph glyph-name="uni04DD" unicode="&#x4dd;" 
d="M52 108q11 25 21.5 68.5t17.5 91.5q10 67 10 120v20h-64l18 108h33q58 0 87.5 -34t29.5 -111q0 -31 -2 -59h47l34 204h118l-34 -204h43q12 56 29 97.5t36 60.5q25 25 53.5 35.5t72.5 10.5h29l-18 -108h-65q-11 -25 -21.5 -68.5t-17.5 -91.5q-10 -67 -10 -120v-20h68
l-18 -108h-37q-58 0 -87.5 34t-29.5 111q0 23 2 65h-46l-35 -210h-118l35 210h-43q-26 -124 -66 -164q-24 -24 -53 -35t-73 -11h-33l18 108h69zM325 745l-27 -158h-159l27 158h159zM588 745l-27 -158h-159l27 158h159z" />
    <glyph glyph-name="uni04DE" unicode="&#x4de;" 
d="M116.5 16q-62.5 28 -98.5 79l93 94q28 -36 69.5 -57.5t90.5 -21.5q47 0 74 21t33 60l2 15q2 14 2 23q0 31 -19.5 46t-65.5 15h-88l20 119h88q47 0 70.5 19.5t31.5 65.5l2 11q2 10 2 20q0 31 -24.5 48t-71.5 17q-86 0 -145 -74l-85 86q93 108 245 108q111 0 170.5 -44
t59.5 -125q0 -73 -48.5 -121.5t-123.5 -56.5l-1 -6q69 -12 101 -46.5t32 -91.5q0 -65 -31.5 -117.5t-92.5 -83t-146 -30.5q-83 0 -145.5 28zM323 907l-27 -158h-159l27 158h159zM586 907l-27 -158h-159l27 158h159z" />
    <glyph glyph-name="uni04DF" unicode="&#x4df;" 
d="M125 10q-55 22 -97 67l86 86q28 -32 61.5 -48.5t79.5 -16.5q52 0 77 15t30 50l1 12q0 17 -9.5 26t-35.5 9h-109l16 97h83q37 0 57 13.5t24 36.5l1 12q0 49 -81 49q-45 0 -77 -15t-62 -47l-75 77q47 46 102.5 70.5t134.5 24.5q97 0 149.5 -36.5t52.5 -96.5q0 -52 -31 -86
t-92 -47l-1 -5q98 -16 98 -96q0 -51 -30.5 -90.5t-88 -61t-136.5 -21.5q-73 0 -128 22zM321 745l-27 -158h-159l27 158h159zM584 745l-27 -158h-159l27 158h159z" />
    <glyph glyph-name="uni04E2" unicode="&#x4e2;" 
d="M129 698h140l-43 -259l-46 -189h9l293 448h137l-116 -698h-140l43 259l46 189h-9l-293 -448h-137zM249 888h305l-17 -102h-305z" />
    <glyph glyph-name="uni04E3" unicode="&#x4e3;" 
d="M362 123h-5q-31 -67 -70 -101t-98 -34q-71 0 -106 42t-35 107q0 38 11 104l46 275h146l-49 -292q-7 -42 -7 -63q0 -24 14.5 -42.5t45.5 -18.5q25 0 44 11.5t37 35.5q39 52 47 100l45 269h146l-86 -516h-146zM219 718h305l-17 -102h-305z" />
    <glyph glyph-name="uni04E4" unicode="&#x4e4;" 
d="M129 698h140l-43 -259l-46 -189h9l293 448h137l-116 -698h-140l43 259l46 189h-9l-293 -448h-137zM336 907l-27 -158h-159l27 158h159zM599 907l-27 -158h-159l27 158h159z" />
    <glyph glyph-name="uni04E5" unicode="&#x4e5;" 
d="M362 123h-5q-31 -67 -70 -101t-98 -34q-71 0 -106 42t-35 107q0 38 11 104l46 275h146l-49 -292q-7 -42 -7 -63q0 -24 14.5 -42.5t45.5 -18.5q25 0 44 11.5t37 35.5q39 52 47 100l45 269h146l-86 -516h-146zM323 745l-27 -158h-159l27 158h159zM586 745l-27 -158h-159
l27 158h159z" />
    <glyph glyph-name="uni04E6" unicode="&#x4e6;" 
d="M96 56.5q-60 68.5 -60 194.5q0 125 33 229t103.5 167t176.5 63q123 0 183 -68.5t60 -194.5q0 -125 -33 -229t-103.5 -167t-176.5 -63q-123 0 -183 68.5zM369.5 152.5q30.5 44.5 45.5 135.5l20 120q6 36 6 72q0 53 -23 81.5t-69 28.5q-60 0 -90.5 -44.5t-45.5 -135.5
l-20 -120q-6 -36 -6 -72q0 -53 23 -81.5t69 -28.5q60 0 90.5 44.5zM324 907l-27 -158h-159l27 158h159zM587 907l-27 -158h-159l27 158h159z" />
    <glyph glyph-name="uni04E7" unicode="&#x4e7;" 
d="M102 47.5q-59 59.5 -59 162.5q0 97 36.5 169t103 110.5t152.5 38.5q104 0 163 -59.5t59 -162.5q0 -97 -36.5 -169t-103 -110.5t-152.5 -38.5q-104 0 -163 59.5zM354.5 126q30.5 29 39.5 83l13 78q5 30 5 41q0 45 -23.5 68t-64.5 23q-48 0 -78.5 -29t-39.5 -83l-13 -78
q-5 -30 -5 -41q0 -45 23.5 -68t64.5 -23q48 0 78.5 29zM328 745l-27 -158h-159l27 158h159zM591 745l-27 -158h-159l27 158h159z" />
    <glyph glyph-name="uni04E8" unicode="&#x4e8;" 
d="M96 56.5q-60 68.5 -60 194.5q0 125 33 229t103.5 167t176.5 63q123 0 183 -68.5t60 -194.5q0 -125 -33 -229t-103.5 -167t-176.5 -63q-123 0 -183 68.5zM203 414h244l2 15q4 25 4 58q0 115 -103 115q-62 0 -94.5 -41.5t-50.5 -134.5zM375 140.5q33 44.5 50 145.5l1 6
h-244l-3 -21q-4 -27 -4 -60q0 -115 103 -115q64 0 97 44.5z" />
    <glyph glyph-name="uni04E9" unicode="&#x4e9;" 
d="M102 47.5q-59 59.5 -59 162.5q0 97 36.5 169t103 110.5t152.5 38.5q104 0 163 -59.5t59 -162.5q0 -97 -36.5 -169t-103 -110.5t-152.5 -38.5q-104 0 -163 59.5zM195 309h226q2 16 2 24q0 49 -25.5 73t-72.5 24q-107 0 -130 -121zM361.5 117q32.5 31 42.5 89l1 6h-225
q-3 -15 -3 -29q0 -49 25.5 -73t72.5 -24q54 0 86.5 31z" />
    <glyph glyph-name="uni04EE" unicode="&#x4ee;" 
d="M88 122h114l30 57l-141 519h150l59 -248l20 -124h3l51 124l127 248h155l-309 -575q-37 -69 -77.5 -96t-102.5 -27h-99zM245 888h305l-17 -102h-305z" />
    <glyph glyph-name="uni04EF" unicode="&#x4ef;" 
d="M92 -196q-49 16 -86 60l87 90q43 -53 120 -53q40 0 66 12.5t44 46t28 94.5l14 86h-5q-31 -67 -70 -101t-98 -34q-71 0 -106 42t-35 107q0 38 11 104l43 258h146l-46 -275q-7 -42 -7 -63q0 -24 14.5 -42.5t45.5 -18.5q25 0 44 11.5t37 35.5q39 52 47 100l42 252h146
l-80 -480q-21 -124 -91 -186t-186 -62q-76 0 -125 16zM230 718h305l-17 -102h-305z" />
    <glyph glyph-name="uni04F0" unicode="&#x4f0;" 
d="M88 122h114l30 57l-141 519h150l59 -248l20 -124h3l51 124l127 248h155l-309 -575q-37 -69 -77.5 -96t-102.5 -27h-99zM332 907l-27 -158h-159l27 158h159zM595 907l-27 -158h-159l27 158h159z" />
    <glyph glyph-name="uni04F1" unicode="&#x4f1;" 
d="M92 -196q-49 16 -86 60l87 90q43 -53 120 -53q40 0 66 12.5t44 46t28 94.5l14 86h-5q-31 -67 -70 -101t-98 -34q-71 0 -106 42t-35 107q0 38 11 104l43 258h146l-46 -275q-7 -42 -7 -63q0 -24 14.5 -42.5t45.5 -18.5q25 0 44 11.5t37 35.5q39 52 47 100l42 252h146
l-80 -480q-21 -124 -91 -186t-186 -62q-76 0 -125 16zM334 745l-27 -158h-159l27 158h159zM597 745l-27 -158h-159l27 158h159z" />
    <glyph glyph-name="uni04F2" unicode="&#x4f2;" 
d="M88 122h114l30 57l-141 519h150l59 -248l20 -124h3l51 124l127 248h155l-309 -575q-37 -69 -77.5 -96t-102.5 -27h-99zM284 741l-78 38l108 193l108 -56zM483 741l-78 38l108 193l108 -56z" />
    <glyph glyph-name="uni04F3" unicode="&#x4f3;" 
d="M92 -196q-49 16 -86 60l87 90q43 -53 120 -53q40 0 66 12.5t44 46t28 94.5l14 86h-5q-31 -67 -70 -101t-98 -34q-71 0 -106 42t-35 107q0 38 11 104l43 258h146l-46 -275q-7 -42 -7 -63q0 -24 14.5 -42.5t45.5 -18.5q25 0 44 11.5t37 35.5q39 52 47 100l42 252h146
l-80 -480q-21 -124 -91 -186t-186 -62q-76 0 -125 16zM269 571l-78 38l108 193l108 -56zM468 571l-78 38l108 193l108 -56z" />
    <glyph glyph-name="uni04F4" unicode="&#x4f4;" 
d="M386 246h-6q-47 -22 -114 -22q-97 0 -146 45.5t-49 132.5q0 59 10 122l29 174h148l-34 -202q-8 -48 -8 -80q0 -72 84 -72q60 0 105 17l56 337h148l-116 -698h-148zM325 907l-27 -158h-159l27 158h159zM588 907l-27 -158h-159l27 158h159z" />
    <glyph glyph-name="uni04F5" unicode="&#x4f5;" 
d="M374 252h-5q-30 -55 -67.5 -79t-91.5 -24q-65 0 -103.5 35.5t-38.5 99.5q0 31 5 64l28 168h146l-25 -149q-5 -30 -5 -51q0 -26 17 -40.5t48 -14.5q47 0 74 24.5t36 76.5l26 154h146l-86 -516h-146zM317 745l-27 -158h-159l27 158h159zM580 745l-27 -158h-159l27 158h159z
" />
    <glyph glyph-name="uni04F8" unicode="&#x4f8;" 
d="M102 698h128l-42 -252h27q87 0 133.5 -46t46.5 -126q0 -130 -64 -202t-175 -72h-170zM518 698h128l-116 -698h-128zM161 112q41 0 63 21.5t30 71.5l3 19q4 29 4 50q0 31 -13 45.5t-51 14.5h-28l-37 -222h29zM339 907l-27 -158h-159l27 158h159zM602 907l-27 -158h-159
l27 158h159z" />
    <glyph glyph-name="uni04F9" unicode="&#x4f9;" 
d="M20 146q0 48 11 114l44 256h123l-37 -220h6q20 43 47 64t69 21q101 0 101 -131q0 -84 -28 -143.5t-74 -89t-100 -29.5q-162 0 -162 158zM489 516h123l-86 -516h-123zM250 181q5 33 5 51q0 25 -9 37t-29 12q-26 0 -45.5 -22.5t-25.5 -58.5q-6 -34 -6 -54q0 -58 42 -58
q53 0 68 93zM328 745l-27 -158h-159l27 158h159zM591 745l-27 -158h-159l27 158h159z" />
    <glyph glyph-name="uni0E3F" unicode="&#xe3f;" 
d="M296 -113h-112l19 113h-178l115 698h179l19 113h112l-19 -115q76 -7 117.5 -49.5t41.5 -109.5q0 -72 -40 -117.5t-116 -60.5v-5q125 -25 125 -137q0 -65 -29 -114t-83 -76t-127 -27h-5zM279 402l32 192h-56l-32 -192h56zM403 591l-31 -186q32 5 48.5 21.5t21.5 47.5l5 30
q3 18 3 29q0 47 -47 58zM229 104l33 199h-56l-33 -199h56zM406 284.5q-16 15.5 -51 18.5l-33 -198q40 3 62.5 19.5t28.5 50.5l5 30q4 24 4 33q0 31 -16 46.5z" />
    <glyph glyph-name="Wgrave" unicode="&#x1e80;" horiz-adv-x="900" 
d="M93 698h143l-4 -279l-11 -275h10l97 257l126 297h159l7 -282l-7 -282h10l87 250l118 314h146l-291 -698h-168l-8 291v245h-9l-89 -224l-130 -312h-172zM407 917l124 59l77 -196l-87 -39z" />
    <glyph glyph-name="wgrave" unicode="&#x1e81;" horiz-adv-x="900" 
d="M227 525l10 -368h6l173 368h130l55 -375h6l152 375h138l-240 -525h-147l-58 349h-6l-169 -349h-149l-40 525h139zM359 747l124 59l77 -196l-87 -39z" />
    <glyph glyph-name="Wacute" unicode="&#x1e82;" horiz-adv-x="900" 
d="M93 698h143l-4 -279l-11 -275h10l97 257l126 297h159l7 -282l-7 -282h10l87 250l118 314h146l-291 -698h-168l-8 291v245h-9l-89 -224l-130 -312h-172zM551 740l-86 46l115 190l114 -60z" />
    <glyph glyph-name="wacute" unicode="&#x1e83;" horiz-adv-x="900" 
d="M227 525l10 -368h6l173 368h130l55 -375h6l152 375h138l-240 -525h-147l-58 349h-6l-169 -349h-149l-40 525h139zM503 570l-86 46l115 190l114 -60z" />
    <glyph glyph-name="Wdieresis" unicode="&#x1e84;" horiz-adv-x="900" 
d="M93 698h143l-4 -279l-11 -275h10l97 257l126 297h159l7 -282l-7 -282h10l87 250l118 314h146l-291 -698h-168l-8 291v245h-9l-89 -224l-130 -312h-172zM496 907l-27 -158h-159l27 158h159zM759 907l-27 -158h-159l27 158h159z" />
    <glyph glyph-name="wdieresis" unicode="&#x1e85;" horiz-adv-x="900" 
d="M227 525l10 -368h6l173 368h130l55 -375h6l152 375h138l-240 -525h-147l-58 349h-6l-169 -349h-149l-40 525h139zM465 745l-27 -158h-159l27 158h159zM728 745l-27 -158h-159l27 158h159z" />
    <glyph glyph-name="uni1E9E" unicode="&#x1e9e;" 
d="M105 698h510l-21 -129l-156 -157l-1 -6q57 -2 99.5 -40t42.5 -114q0 -63 -27 -124t-82.5 -100.5t-137.5 -39.5q-45 0 -90 15.5t-72 44.5l87 92q27 -35 77 -35q39 0 60 25t31 66q6 25 6 49q0 57 -69 57h-84l20 117l164 167h-228l-98 -586h-147z" />
    <glyph glyph-name="uni1EA0" unicode="&#x1ea0;" 
d="M400 0l-17 169h-196l-69 -169h-155l307 698h206l76 -698h-152zM356 553h-9l-110 -264h140zM335 -44l-27 -158h-159l27 158h159z" />
    <glyph glyph-name="uni1EA1" unicode="&#x1ea1;" 
d="M347 0l20 123h-5q-33 -66 -72.5 -100.5t-100.5 -34.5q-151 0 -151 200q0 102 29.5 179t83 119t124.5 42q59 0 91 -27.5t44 -80.5h7l16 96h146l-86 -516h-146zM341 150q39 46 47 97l14 83q2 14 2 20q0 31 -20.5 48t-61.5 17q-53 0 -82.5 -31t-39.5 -91l-10 -60
q-4 -24 -4 -45q2 -87 68 -87q48 0 87 49zM328 -44l-27 -158h-159l27 158h159z" />
    <glyph glyph-name="uni1EA2" unicode="&#x1ea2;" 
d="M400 0l-17 169h-196l-69 -169h-155l307 698h206l76 -698h-152zM356 553h-9l-110 -264h140zM295 962h147q40 0 60.5 -16.5t20.5 -42.5q0 -28 -12 -51.5t-37 -54.5l-54 -66l-71 34l50 93h-122z" />
    <glyph glyph-name="uni1EA3" unicode="&#x1ea3;" 
d="M347 0l20 123h-5q-33 -66 -72.5 -100.5t-100.5 -34.5q-151 0 -151 200q0 102 29.5 179t83 119t124.5 42q59 0 91 -27.5t44 -80.5h7l16 96h146l-86 -516h-146zM341 150q39 46 47 97l14 83q2 14 2 20q0 31 -20.5 48t-61.5 17q-53 0 -82.5 -31t-39.5 -91l-10 -60
q-4 -24 -4 -45q2 -87 68 -87q48 0 87 49zM259 792h147q40 0 60.5 -16.5t20.5 -42.5q0 -28 -12 -51.5t-37 -54.5l-54 -66l-71 34l50 93h-122z" />
    <glyph glyph-name="uni1EA4" unicode="&#x1ea4;" 
d="M400 0l-17 169h-196l-69 -169h-155l307 698h206l76 -698h-152zM356 553h-9l-110 -264h140zM579 896l-79 40l100 190l110 -55zM455 941l121 -146l-74 -63l-109 104l-136 -104l-63 63l167 146h94z" />
    <glyph glyph-name="uni1EA5" unicode="&#x1ea5;" 
d="M347 0l20 123h-5q-33 -66 -72.5 -100.5t-100.5 -34.5q-151 0 -151 200q0 102 29.5 179t83 119t124.5 42q59 0 91 -27.5t44 -80.5h7l16 96h146l-86 -516h-146zM341 150q39 46 47 97l14 83q2 14 2 20q0 31 -20.5 48t-61.5 17q-53 0 -82.5 -31t-39.5 -91l-10 -60
q-4 -24 -4 -45q2 -87 68 -87q48 0 87 49zM543 726l-79 40l100 190l110 -55zM419 771l121 -146l-74 -63l-109 104l-136 -104l-63 63l167 146h94z" />
    <glyph glyph-name="uni1EA6" unicode="&#x1ea6;" 
d="M400 0l-17 169h-196l-69 -169h-155l307 698h206l76 -698h-152zM356 553h-9l-110 -264h140zM114 1071l113 55l74 -193l-74 -38zM455 941l121 -146l-74 -63l-109 104l-136 -104l-63 63l167 146h94z" />
    <glyph glyph-name="uni1EA7" unicode="&#x1ea7;" 
d="M347 0l20 123h-5q-33 -66 -72.5 -100.5t-100.5 -34.5q-151 0 -151 200q0 102 29.5 179t83 119t124.5 42q59 0 91 -27.5t44 -80.5h7l16 96h146l-86 -516h-146zM341 150q39 46 47 97l14 83q2 14 2 20q0 31 -20.5 48t-61.5 17q-53 0 -82.5 -31t-39.5 -91l-10 -60
q-4 -24 -4 -45q2 -87 68 -87q48 0 87 49zM78 901l113 55l74 -193l-74 -38zM419 771l121 -146l-74 -63l-109 104l-136 -104l-63 63l167 146h94z" />
    <glyph glyph-name="uni1EA8" unicode="&#x1ea8;" 
d="M400 0l-17 169h-196l-69 -169h-155l307 698h206l76 -698h-152zM356 553h-9l-110 -264h140zM475 1113h137q40 0 60.5 -16.5t20.5 -42.5q0 -28 -12 -51.5t-37 -54.5l-54 -66l-71 34l52 96h-112zM455 941l121 -146l-74 -63l-109 104l-136 -104l-63 63l167 146h94z" />
    <glyph glyph-name="uni1EA9" unicode="&#x1ea9;" 
d="M347 0l20 123h-5q-33 -66 -72.5 -100.5t-100.5 -34.5q-151 0 -151 200q0 102 29.5 179t83 119t124.5 42q59 0 91 -27.5t44 -80.5h7l16 96h146l-86 -516h-146zM341 150q39 46 47 97l14 83q2 14 2 20q0 31 -20.5 48t-61.5 17q-53 0 -82.5 -31t-39.5 -91l-10 -60
q-4 -24 -4 -45q2 -87 68 -87q48 0 87 49zM439 943h137q40 0 60.5 -16.5t20.5 -42.5q0 -28 -12 -51.5t-37 -54.5l-54 -66l-71 34l52 96h-112zM419 771l121 -146l-74 -63l-109 104l-136 -104l-63 63l167 146h94z" />
    <glyph glyph-name="uni1EAA" unicode="&#x1eaa;" 
d="M400 0l-17 169h-196l-69 -169h-155l307 698h206l76 -698h-152zM356 553h-9l-110 -264h140zM396 1097q16 -5 37 -15q23 -11 40 -16.5t35 -5.5q16 0 30 5.5t33 19.5l38 -66q-22 -28 -54 -45t-70 -17q-20 0 -36 5t-37 15q-23 11 -40 16.5t-35 5.5q-16 0 -30 -5.5t-33 -19.5
l-38 66q22 28 54 45t70 17q20 0 36 -5zM454 929l122 -134l-72 -63l-111 96l-134 -96l-65 63l165 134h95z" />
    <glyph glyph-name="uni1EAB" unicode="&#x1eab;" 
d="M347 0l20 123h-5q-33 -66 -72.5 -100.5t-100.5 -34.5q-151 0 -151 200q0 102 29.5 179t83 119t124.5 42q59 0 91 -27.5t44 -80.5h7l16 96h146l-86 -516h-146zM341 150q39 46 47 97l14 83q2 14 2 20q0 31 -20.5 48t-61.5 17q-53 0 -82.5 -31t-39.5 -91l-10 -60
q-4 -24 -4 -45q2 -87 68 -87q48 0 87 49zM360 927q16 -5 37 -15q23 -11 40 -16.5t35 -5.5q16 0 30 5.5t33 19.5l38 -66q-22 -28 -54 -45t-70 -17q-20 0 -36 5t-37 15q-23 11 -40 16.5t-35 5.5q-16 0 -30 -5.5t-33 -19.5l-38 66q22 28 54 45t70 17q20 0 36 -5zM418 759
l122 -134l-72 -63l-111 96l-134 -96l-65 63l165 134h95z" />
    <glyph glyph-name="uni1EAC" unicode="&#x1eac;" 
d="M400 0l-17 169h-196l-69 -169h-155l307 698h206l76 -698h-152zM356 553h-9l-110 -264h140zM471 955l108 -158l-76 -57l-106 115l-134 -115l-70 57l154 158h124zM335 -44l-27 -158h-159l27 158h159z" />
    <glyph glyph-name="uni1EAD" unicode="&#x1ead;" 
d="M347 0l20 123h-5q-33 -66 -72.5 -100.5t-100.5 -34.5q-151 0 -151 200q0 102 29.5 179t83 119t124.5 42q59 0 91 -27.5t44 -80.5h7l16 96h146l-86 -516h-146zM341 150q39 46 47 97l14 83q2 14 2 20q0 31 -20.5 48t-61.5 17q-53 0 -82.5 -31t-39.5 -91l-10 -60
q-4 -24 -4 -45q2 -87 68 -87q48 0 87 49zM435 785l108 -158l-76 -57l-106 115l-134 -115l-70 57l154 158h124zM328 -44l-27 -158h-159l27 158h159z" />
    <glyph glyph-name="uni1EAE" unicode="&#x1eae;" 
d="M400 0l-17 169h-196l-69 -169h-155l307 698h206l76 -698h-152zM356 553h-9l-110 -264h140zM416 894l-79 40l103 194l109 -58zM259.5 774.5q-45.5 41.5 -62.5 107.5l74 47l18 -28q25 -39 46 -53t54 -14q30 0 54.5 14t58.5 53l25 28l74 -47q-42 -73 -89 -111t-123 -38
q-84 0 -129.5 41.5z" />
    <glyph glyph-name="uni1EAF" unicode="&#x1eaf;" 
d="M347 0l20 123h-5q-33 -66 -72.5 -100.5t-100.5 -34.5q-151 0 -151 200q0 102 29.5 179t83 119t124.5 42q59 0 91 -27.5t44 -80.5h7l16 96h146l-86 -516h-146zM341 150q39 46 47 97l14 83q2 14 2 20q0 31 -20.5 48t-61.5 17q-53 0 -82.5 -31t-39.5 -91l-10 -60
q-4 -24 -4 -45q2 -87 68 -87q48 0 87 49zM380 724l-79 40l103 194l109 -58zM223.5 604.5q-45.5 41.5 -62.5 107.5l74 47l18 -28q25 -39 46 -53t54 -14q30 0 54.5 14t58.5 53l25 28l74 -47q-42 -73 -89 -111t-123 -38q-84 0 -129.5 41.5z" />
    <glyph glyph-name="uni1EB0" unicode="&#x1eb0;" 
d="M400 0l-17 169h-196l-69 -169h-155l307 698h206l76 -698h-152zM356 553h-9l-110 -264h140zM265 1071l119 55l69 -193l-80 -38zM259.5 774.5q-45.5 41.5 -62.5 107.5l74 47l18 -28q25 -39 46 -53t54 -14q30 0 54.5 14t58.5 53l25 28l74 -47q-42 -73 -89 -111t-123 -38
q-84 0 -129.5 41.5z" />
    <glyph glyph-name="uni1EB1" unicode="&#x1eb1;" 
d="M347 0l20 123h-5q-33 -66 -72.5 -100.5t-100.5 -34.5q-151 0 -151 200q0 102 29.5 179t83 119t124.5 42q59 0 91 -27.5t44 -80.5h7l16 96h146l-86 -516h-146zM341 150q39 46 47 97l14 83q2 14 2 20q0 31 -20.5 48t-61.5 17q-53 0 -82.5 -31t-39.5 -91l-10 -60
q-4 -24 -4 -45q2 -87 68 -87q48 0 87 49zM229 901l119 55l69 -193l-80 -38zM223.5 604.5q-45.5 41.5 -62.5 107.5l74 47l18 -28q25 -39 46 -53t54 -14q30 0 54.5 14t58.5 53l25 28l74 -47q-42 -73 -89 -111t-123 -38q-84 0 -129.5 41.5z" />
    <glyph glyph-name="uni1EB2" unicode="&#x1eb2;" 
d="M400 0l-17 169h-196l-69 -169h-155l307 698h206l76 -698h-152zM356 553h-9l-110 -264h140zM286 1113h142q40 0 60.5 -16.5t20.5 -45.5q0 -27 -19.5 -57t-62.5 -74l-36 -37l-61 31l57 98h-117zM259.5 774.5q-45.5 41.5 -62.5 107.5l74 47l18 -28q25 -39 46 -53t54 -14
q30 0 54.5 14t58.5 53l25 28l74 -47q-42 -73 -89 -111t-123 -38q-84 0 -129.5 41.5z" />
    <glyph glyph-name="uni1EB3" unicode="&#x1eb3;" 
d="M347 0l20 123h-5q-33 -66 -72.5 -100.5t-100.5 -34.5q-151 0 -151 200q0 102 29.5 179t83 119t124.5 42q59 0 91 -27.5t44 -80.5h7l16 96h146l-86 -516h-146zM341 150q39 46 47 97l14 83q2 14 2 20q0 31 -20.5 48t-61.5 17q-53 0 -82.5 -31t-39.5 -91l-10 -60
q-4 -24 -4 -45q2 -87 68 -87q48 0 87 49zM250 943h142q40 0 60.5 -16.5t20.5 -45.5q0 -27 -19.5 -57t-62.5 -74l-36 -37l-61 31l57 98h-117zM223.5 604.5q-45.5 41.5 -62.5 107.5l74 47l18 -28q25 -39 46 -53t54 -14q30 0 54.5 14t58.5 53l25 28l74 -47q-42 -73 -89 -111
t-123 -38q-84 0 -129.5 41.5z" />
    <glyph glyph-name="uni1EB4" unicode="&#x1eb4;" 
d="M400 0l-17 169h-196l-69 -169h-155l307 698h206l76 -698h-152zM356 553h-9l-110 -264h140zM430.5 956.5q-14.5 4.5 -35.5 13.5q-25 11 -40.5 15.5t-33.5 4.5t-31.5 -5.5t-32.5 -19.5l-38 65q52 61 126 61q21 0 36 -4.5t35 -13.5q25 -11 40.5 -15.5t33.5 -4.5t31.5 5.5
t32.5 19.5l38 -65q-52 -61 -126 -61q-21 0 -35.5 4.5zM259.5 774.5q-45.5 41.5 -62.5 107.5l74 47l18 -28q25 -39 46 -53t54 -14q30 0 54.5 14t58.5 53l25 28l74 -47q-42 -73 -89 -111t-123 -38q-84 0 -129.5 41.5z" />
    <glyph glyph-name="uni1EB5" unicode="&#x1eb5;" 
d="M347 0l20 123h-5q-33 -66 -72.5 -100.5t-100.5 -34.5q-151 0 -151 200q0 102 29.5 179t83 119t124.5 42q59 0 91 -27.5t44 -80.5h7l16 96h146l-86 -516h-146zM341 150q39 46 47 97l14 83q2 14 2 20q0 31 -20.5 48t-61.5 17q-53 0 -82.5 -31t-39.5 -91l-10 -60
q-4 -24 -4 -45q2 -87 68 -87q48 0 87 49zM394 786.5q-15 4.5 -35 13.5q-25 11 -40.5 15.5t-33.5 4.5t-31.5 -5.5t-32.5 -19.5l-38 65q52 61 126 61q21 0 35.5 -4.5t35.5 -13.5q25 -11 40.5 -15.5t33.5 -4.5t31.5 5.5t32.5 19.5l38 -65q-52 -61 -126 -61q-21 0 -36 4.5z
M223.5 604.5q-45.5 41.5 -62.5 107.5l74 47l18 -28q25 -39 46 -53t54 -14q30 0 54.5 14t58.5 53l25 28l74 -47q-42 -73 -89 -111t-123 -38q-84 0 -129.5 41.5z" />
    <glyph glyph-name="uni1EB6" unicode="&#x1eb6;" 
d="M400 0l-17 169h-196l-69 -169h-155l307 698h206l76 -698h-152zM356 553h-9l-110 -264h140zM212 910l81 42l20 -37q21 -39 38 -55.5t46 -16.5q25 0 44.5 16.5t49.5 57.5l26 35l83 -42q-40 -78 -87.5 -124t-121.5 -46q-135 0 -179 170zM335 -44l-27 -158h-159l27 158h159z
" />
    <glyph glyph-name="uni1EB7" unicode="&#x1eb7;" 
d="M347 0l20 123h-5q-33 -66 -72.5 -100.5t-100.5 -34.5q-151 0 -151 200q0 102 29.5 179t83 119t124.5 42q59 0 91 -27.5t44 -80.5h7l16 96h146l-86 -516h-146zM341 150q39 46 47 97l14 83q2 14 2 20q0 31 -20.5 48t-61.5 17q-53 0 -82.5 -31t-39.5 -91l-10 -60
q-4 -24 -4 -45q2 -87 68 -87q48 0 87 49zM176 740l81 42l20 -37q21 -39 38 -55.5t46 -16.5q25 0 44.5 16.5t49.5 57.5l26 35l83 -42q-40 -78 -87.5 -124t-121.5 -46q-135 0 -179 170zM328 -44l-27 -158h-159l27 158h159z" />
    <glyph glyph-name="uni1EB8" unicode="&#x1eb8;" 
d="M38 0l117 698h446l-20 -122h-300l-27 -162h286l-20 -122h-287l-28 -170h299l-20 -122h-446zM357 -44l-27 -158h-159l27 158h159z" />
    <glyph glyph-name="uni1EB9" unicode="&#x1eb9;" 
d="M112.5 45.5q-56.5 57.5 -56.5 162.5q0 95 38 167.5t106.5 112.5t159.5 40q82 0 136 -37t54 -105q0 -75 -74 -125.5t-274 -57.5q-1 -8 -1 -17q0 -86 99 -86q43 0 72.5 18.5t69.5 69.5l91 -59q-47 -68 -104 -104.5t-148 -36.5q-112 0 -168.5 57.5zM215 301l-3 -14
q86 5 129 18.5t55.5 30t12.5 37.5q0 52 -64 52q-104 0 -130 -124zM368 -44l-27 -158h-159l27 158h159z" />
    <glyph glyph-name="uni1EBA" unicode="&#x1eba;" 
d="M38 0l117 698h446l-20 -122h-300l-27 -162h286l-20 -122h-287l-28 -170h299l-20 -122h-446zM298 962h147q40 0 60.5 -16.5t20.5 -42.5q0 -28 -12 -51.5t-37 -54.5l-54 -66l-71 34l50 93h-122z" />
    <glyph glyph-name="uni1EBB" unicode="&#x1ebb;" 
d="M112.5 45.5q-56.5 57.5 -56.5 162.5q0 95 38 167.5t106.5 112.5t159.5 40q82 0 136 -37t54 -105q0 -75 -74 -125.5t-274 -57.5q-1 -8 -1 -17q0 -86 99 -86q43 0 72.5 18.5t69.5 69.5l91 -59q-47 -68 -104 -104.5t-148 -36.5q-112 0 -168.5 57.5zM215 301l-3 -14
q86 5 129 18.5t55.5 30t12.5 37.5q0 52 -64 52q-104 0 -130 -124zM270 792h147q40 0 60.5 -16.5t20.5 -42.5q0 -28 -12 -51.5t-37 -54.5l-54 -66l-71 34l50 93h-122z" />
    <glyph glyph-name="uni1EBC" unicode="&#x1ebc;" 
d="M38 0l117 698h446l-20 -122h-300l-27 -162h286l-20 -122h-287l-28 -170h299l-20 -122h-446zM425 767q-15 5 -38 16q-26 12 -42 17t-33 5q-16 0 -30 -5.5t-33 -19.5l-40 67q23 29 54.5 46.5t69.5 17.5q20 0 35 -5t38 -16q26 -12 42 -17t33 -5q16 0 30 5.5t33 19.5l40 -67
q-23 -29 -54.5 -46.5t-69.5 -17.5q-20 0 -35 5z" />
    <glyph glyph-name="uni1EBD" unicode="&#x1ebd;" 
d="M112.5 45.5q-56.5 57.5 -56.5 162.5q0 95 38 167.5t106.5 112.5t159.5 40q82 0 136 -37t54 -105q0 -75 -74 -125.5t-274 -57.5q-1 -8 -1 -17q0 -86 99 -86q43 0 72.5 18.5t69.5 69.5l91 -59q-47 -68 -104 -104.5t-148 -36.5q-112 0 -168.5 57.5zM215 301l-3 -14
q86 5 129 18.5t55.5 30t12.5 37.5q0 52 -64 52q-104 0 -130 -124zM397 597q-15 5 -38 16q-26 12 -42 17t-33 5q-16 0 -30 -5.5t-33 -19.5l-40 67q23 29 54.5 46.5t69.5 17.5q20 0 35 -5t38 -16q26 -12 42 -17t33 -5q16 0 30 5.5t33 19.5l40 -67q-23 -29 -54.5 -46.5
t-69.5 -17.5q-20 0 -35 5z" />
    <glyph glyph-name="uni1EBE" unicode="&#x1ebe;" 
d="M38 0l117 698h446l-20 -122h-300l-27 -162h286l-20 -122h-287l-28 -170h299l-20 -122h-446zM582 896l-79 40l100 190l110 -55zM458 941l121 -146l-74 -63l-109 104l-136 -104l-63 63l167 146h94z" />
    <glyph glyph-name="uni1EBF" unicode="&#x1ebf;" 
d="M112.5 45.5q-56.5 57.5 -56.5 162.5q0 95 38 167.5t106.5 112.5t159.5 40q82 0 136 -37t54 -105q0 -75 -74 -125.5t-274 -57.5q-1 -8 -1 -17q0 -86 99 -86q43 0 72.5 18.5t69.5 69.5l91 -59q-47 -68 -104 -104.5t-148 -36.5q-112 0 -168.5 57.5zM215 301l-3 -14
q86 5 129 18.5t55.5 30t12.5 37.5q0 52 -64 52q-104 0 -130 -124zM554 726l-79 40l100 190l110 -55zM430 771l121 -146l-74 -63l-109 104l-136 -104l-63 63l167 146h94z" />
    <glyph glyph-name="uni1EC0" unicode="&#x1ec0;" 
d="M38 0l117 698h446l-20 -122h-300l-27 -162h286l-20 -122h-287l-28 -170h299l-20 -122h-446zM117 1071l113 55l74 -193l-74 -38zM458 941l121 -146l-74 -63l-109 104l-136 -104l-63 63l167 146h94z" />
    <glyph glyph-name="uni1EC1" unicode="&#x1ec1;" 
d="M112.5 45.5q-56.5 57.5 -56.5 162.5q0 95 38 167.5t106.5 112.5t159.5 40q82 0 136 -37t54 -105q0 -75 -74 -125.5t-274 -57.5q-1 -8 -1 -17q0 -86 99 -86q43 0 72.5 18.5t69.5 69.5l91 -59q-47 -68 -104 -104.5t-148 -36.5q-112 0 -168.5 57.5zM215 301l-3 -14
q86 5 129 18.5t55.5 30t12.5 37.5q0 52 -64 52q-104 0 -130 -124zM89 901l113 55l74 -193l-74 -38zM430 771l121 -146l-74 -63l-109 104l-136 -104l-63 63l167 146h94z" />
    <glyph glyph-name="uni1EC2" unicode="&#x1ec2;" 
d="M38 0l117 698h446l-20 -122h-300l-27 -162h286l-20 -122h-287l-28 -170h299l-20 -122h-446zM478 1113h137q40 0 60.5 -16.5t20.5 -42.5q0 -28 -12 -51.5t-37 -54.5l-54 -66l-71 34l52 96h-112zM458 941l121 -146l-74 -63l-109 104l-136 -104l-63 63l167 146h94z" />
    <glyph glyph-name="uni1EC3" unicode="&#x1ec3;" 
d="M112.5 45.5q-56.5 57.5 -56.5 162.5q0 95 38 167.5t106.5 112.5t159.5 40q82 0 136 -37t54 -105q0 -75 -74 -125.5t-274 -57.5q-1 -8 -1 -17q0 -86 99 -86q43 0 72.5 18.5t69.5 69.5l91 -59q-47 -68 -104 -104.5t-148 -36.5q-112 0 -168.5 57.5zM215 301l-3 -14
q86 5 129 18.5t55.5 30t12.5 37.5q0 52 -64 52q-104 0 -130 -124zM450 943h137q40 0 60.5 -16.5t20.5 -42.5q0 -28 -12 -51.5t-37 -54.5l-54 -66l-71 34l52 96h-112zM430 771l121 -146l-74 -63l-109 104l-136 -104l-63 63l167 146h94z" />
    <glyph glyph-name="uni1EC4" unicode="&#x1ec4;" 
d="M38 0l117 698h446l-20 -122h-300l-27 -162h286l-20 -122h-287l-28 -170h299l-20 -122h-446zM399 1097q16 -5 37 -15q23 -11 40 -16.5t35 -5.5q16 0 30 5.5t33 19.5l38 -66q-22 -28 -54 -45t-70 -17q-20 0 -36 5t-37 15q-23 11 -40 16.5t-35 5.5q-16 0 -30 -5.5t-33 -19.5
l-38 66q22 28 54 45t70 17q20 0 36 -5zM457 929l122 -134l-72 -63l-111 96l-134 -96l-65 63l165 134h95z" />
    <glyph glyph-name="uni1EC5" unicode="&#x1ec5;" 
d="M112.5 45.5q-56.5 57.5 -56.5 162.5q0 95 38 167.5t106.5 112.5t159.5 40q82 0 136 -37t54 -105q0 -75 -74 -125.5t-274 -57.5q-1 -8 -1 -17q0 -86 99 -86q43 0 72.5 18.5t69.5 69.5l91 -59q-47 -68 -104 -104.5t-148 -36.5q-112 0 -168.5 57.5zM215 301l-3 -14
q86 5 129 18.5t55.5 30t12.5 37.5q0 52 -64 52q-104 0 -130 -124zM371 927q16 -5 37 -15q23 -11 40 -16.5t35 -5.5q16 0 30 5.5t33 19.5l38 -66q-22 -28 -54 -45t-70 -17q-20 0 -36 5t-37 15q-23 11 -40 16.5t-35 5.5q-16 0 -30 -5.5t-33 -19.5l-38 66q22 28 54 45t70 17
q20 0 36 -5zM429 759l122 -134l-72 -63l-111 96l-134 -96l-65 63l165 134h95z" />
    <glyph glyph-name="uni1EC6" unicode="&#x1ec6;" 
d="M38 0l117 698h446l-20 -122h-300l-27 -162h286l-20 -122h-287l-28 -170h299l-20 -122h-446zM474 955l108 -158l-76 -57l-106 115l-134 -115l-70 57l154 158h124zM357 -44l-27 -158h-159l27 158h159z" />
    <glyph glyph-name="uni1EC7" unicode="&#x1ec7;" 
d="M112.5 45.5q-56.5 57.5 -56.5 162.5q0 95 38 167.5t106.5 112.5t159.5 40q82 0 136 -37t54 -105q0 -75 -74 -125.5t-274 -57.5q-1 -8 -1 -17q0 -86 99 -86q43 0 72.5 18.5t69.5 69.5l91 -59q-47 -68 -104 -104.5t-148 -36.5q-112 0 -168.5 57.5zM215 301l-3 -14
q86 5 129 18.5t55.5 30t12.5 37.5q0 52 -64 52q-104 0 -130 -124zM446 785l108 -158l-76 -57l-106 115l-134 -115l-70 57l154 158h124zM368 -44l-27 -158h-159l27 158h159z" />
    <glyph glyph-name="uni1EC8" unicode="&#x1ec8;" horiz-adv-x="300" 
d="M34 0l116 698h148l-116 -698h-148zM150 962h147q40 0 60.5 -16.5t20.5 -42.5q0 -28 -12 -51.5t-37 -54.5l-54 -66l-71 34l50 93h-122z" />
    <glyph glyph-name="uni1EC9" unicode="&#x1ec9;" horiz-adv-x="300" 
d="M119 516h148l-87 -514h-147zM115 792h147q40 0 60.5 -16.5t20.5 -42.5q0 -28 -12 -51.5t-37 -54.5l-54 -66l-71 34l50 93h-122z" />
    <glyph glyph-name="uni1ECA" unicode="&#x1eca;" horiz-adv-x="300" 
d="M34 0l116 698h148l-116 -698h-148zM183 -44l-27 -158h-159l27 158h159z" />
    <glyph glyph-name="uni1ECB" unicode="&#x1ecb;" horiz-adv-x="300" 
d="M119 516h148l-87 -514h-147zM312 745l-27 -158h-159l27 158h159zM173 -44l-27 -158h-159l27 158h159z" />
    <glyph glyph-name="uni1ECC" unicode="&#x1ecc;" 
d="M96 56.5q-60 68.5 -60 194.5q0 125 33 229t103.5 167t176.5 63q123 0 183 -68.5t60 -194.5q0 -125 -33 -229t-103.5 -167t-176.5 -63q-123 0 -183 68.5zM369.5 152.5q30.5 44.5 45.5 135.5l20 120q6 36 6 72q0 53 -23 81.5t-69 28.5q-60 0 -90.5 -44.5t-45.5 -135.5
l-20 -120q-6 -36 -6 -72q0 -53 23 -81.5t69 -28.5q60 0 90.5 44.5zM339 -44l-27 -158h-159l27 158h159z" />
    <glyph glyph-name="uni1ECD" unicode="&#x1ecd;" 
d="M102 47.5q-59 59.5 -59 162.5q0 97 36.5 169t103 110.5t152.5 38.5q104 0 163 -59.5t59 -162.5q0 -97 -36.5 -169t-103 -110.5t-152.5 -38.5q-104 0 -163 59.5zM354.5 126q30.5 29 39.5 83l13 78q5 30 5 41q0 45 -23.5 68t-64.5 23q-48 0 -78.5 -29t-39.5 -83l-13 -78
q-5 -30 -5 -41q0 -45 23.5 -68t64.5 -23q48 0 78.5 29zM333 -44l-27 -158h-159l27 158h159z" />
    <glyph glyph-name="uni1ECE" unicode="&#x1ece;" 
d="M96 56.5q-60 68.5 -60 194.5q0 125 33 229t103.5 167t176.5 63q123 0 183 -68.5t60 -194.5q0 -125 -33 -229t-103.5 -167t-176.5 -63q-123 0 -183 68.5zM369.5 152.5q30.5 44.5 45.5 135.5l20 120q6 36 6 72q0 53 -23 81.5t-69 28.5q-60 0 -90.5 -44.5t-45.5 -135.5
l-20 -120q-6 -36 -6 -72q0 -53 23 -81.5t69 -28.5q60 0 90.5 44.5zM283 962h147q40 0 60.5 -16.5t20.5 -42.5q0 -28 -12 -51.5t-37 -54.5l-54 -66l-71 34l50 93h-122z" />
    <glyph glyph-name="uni1ECF" unicode="&#x1ecf;" 
d="M102 47.5q-59 59.5 -59 162.5q0 97 36.5 169t103 110.5t152.5 38.5q104 0 163 -59.5t59 -162.5q0 -97 -36.5 -169t-103 -110.5t-152.5 -38.5q-104 0 -163 59.5zM354.5 126q30.5 29 39.5 83l13 78q5 30 5 41q0 45 -23.5 68t-64.5 23q-48 0 -78.5 -29t-39.5 -83l-13 -78
q-5 -30 -5 -41q0 -45 23.5 -68t64.5 -23q48 0 78.5 29zM270 792h147q40 0 60.5 -16.5t20.5 -42.5q0 -28 -12 -51.5t-37 -54.5l-54 -66l-71 34l50 93h-122z" />
    <glyph glyph-name="uni1ED0" unicode="&#x1ed0;" 
d="M96 56.5q-60 68.5 -60 194.5q0 125 33 229t103.5 167t176.5 63q123 0 183 -68.5t60 -194.5q0 -125 -33 -229t-103.5 -167t-176.5 -63q-123 0 -183 68.5zM369.5 152.5q30.5 44.5 45.5 135.5l20 120q6 36 6 72q0 53 -23 81.5t-69 28.5q-60 0 -90.5 -44.5t-45.5 -135.5
l-20 -120q-6 -36 -6 -72q0 -53 23 -81.5t69 -28.5q60 0 90.5 44.5zM567 896l-79 40l100 190l110 -55zM443 941l121 -146l-74 -63l-109 104l-136 -104l-63 63l167 146h94z" />
    <glyph glyph-name="uni1ED1" unicode="&#x1ed1;" 
d="M102 47.5q-59 59.5 -59 162.5q0 97 36.5 169t103 110.5t152.5 38.5q104 0 163 -59.5t59 -162.5q0 -97 -36.5 -169t-103 -110.5t-152.5 -38.5q-104 0 -163 59.5zM354.5 126q30.5 29 39.5 83l13 78q5 30 5 41q0 45 -23.5 68t-64.5 23q-48 0 -78.5 -29t-39.5 -83l-13 -78
q-5 -30 -5 -41q0 -45 23.5 -68t64.5 -23q48 0 78.5 29zM554 726l-79 40l100 190l110 -55zM430 771l121 -146l-74 -63l-109 104l-136 -104l-63 63l167 146h94z" />
    <glyph glyph-name="uni1ED2" unicode="&#x1ed2;" 
d="M96 56.5q-60 68.5 -60 194.5q0 125 33 229t103.5 167t176.5 63q123 0 183 -68.5t60 -194.5q0 -125 -33 -229t-103.5 -167t-176.5 -63q-123 0 -183 68.5zM369.5 152.5q30.5 44.5 45.5 135.5l20 120q6 36 6 72q0 53 -23 81.5t-69 28.5q-60 0 -90.5 -44.5t-45.5 -135.5
l-20 -120q-6 -36 -6 -72q0 -53 23 -81.5t69 -28.5q60 0 90.5 44.5zM102 1071l113 55l74 -193l-74 -38zM443 941l121 -146l-74 -63l-109 104l-136 -104l-63 63l167 146h94z" />
    <glyph glyph-name="uni1ED3" unicode="&#x1ed3;" 
d="M102 47.5q-59 59.5 -59 162.5q0 97 36.5 169t103 110.5t152.5 38.5q104 0 163 -59.5t59 -162.5q0 -97 -36.5 -169t-103 -110.5t-152.5 -38.5q-104 0 -163 59.5zM354.5 126q30.5 29 39.5 83l13 78q5 30 5 41q0 45 -23.5 68t-64.5 23q-48 0 -78.5 -29t-39.5 -83l-13 -78
q-5 -30 -5 -41q0 -45 23.5 -68t64.5 -23q48 0 78.5 29zM89 901l113 55l74 -193l-74 -38zM430 771l121 -146l-74 -63l-109 104l-136 -104l-63 63l167 146h94z" />
    <glyph glyph-name="uni1ED4" unicode="&#x1ed4;" 
d="M96 56.5q-60 68.5 -60 194.5q0 125 33 229t103.5 167t176.5 63q123 0 183 -68.5t60 -194.5q0 -125 -33 -229t-103.5 -167t-176.5 -63q-123 0 -183 68.5zM369.5 152.5q30.5 44.5 45.5 135.5l20 120q6 36 6 72q0 53 -23 81.5t-69 28.5q-60 0 -90.5 -44.5t-45.5 -135.5
l-20 -120q-6 -36 -6 -72q0 -53 23 -81.5t69 -28.5q60 0 90.5 44.5zM463 1113h137q40 0 60.5 -16.5t20.5 -42.5q0 -28 -12 -51.5t-37 -54.5l-54 -66l-71 34l52 96h-112zM443 941l121 -146l-74 -63l-109 104l-136 -104l-63 63l167 146h94z" />
    <glyph glyph-name="uni1ED5" unicode="&#x1ed5;" 
d="M102 47.5q-59 59.5 -59 162.5q0 97 36.5 169t103 110.5t152.5 38.5q104 0 163 -59.5t59 -162.5q0 -97 -36.5 -169t-103 -110.5t-152.5 -38.5q-104 0 -163 59.5zM354.5 126q30.5 29 39.5 83l13 78q5 30 5 41q0 45 -23.5 68t-64.5 23q-48 0 -78.5 -29t-39.5 -83l-13 -78
q-5 -30 -5 -41q0 -45 23.5 -68t64.5 -23q48 0 78.5 29zM450 943h137q40 0 60.5 -16.5t20.5 -42.5q0 -28 -12 -51.5t-37 -54.5l-54 -66l-71 34l52 96h-112zM430 771l121 -146l-74 -63l-109 104l-136 -104l-63 63l167 146h94z" />
    <glyph glyph-name="uni1ED6" unicode="&#x1ed6;" 
d="M96 56.5q-60 68.5 -60 194.5q0 125 33 229t103.5 167t176.5 63q123 0 183 -68.5t60 -194.5q0 -125 -33 -229t-103.5 -167t-176.5 -63q-123 0 -183 68.5zM369.5 152.5q30.5 44.5 45.5 135.5l20 120q6 36 6 72q0 53 -23 81.5t-69 28.5q-60 0 -90.5 -44.5t-45.5 -135.5
l-20 -120q-6 -36 -6 -72q0 -53 23 -81.5t69 -28.5q60 0 90.5 44.5zM384 1097q16 -5 37 -15q23 -11 40 -16.5t35 -5.5q16 0 30 5.5t33 19.5l38 -66q-22 -28 -54 -45t-70 -17q-20 0 -36 5t-37 15q-23 11 -40 16.5t-35 5.5q-16 0 -30 -5.5t-33 -19.5l-38 66q22 28 54 45t70 17
q20 0 36 -5zM442 929l122 -134l-72 -63l-111 96l-134 -96l-65 63l165 134h95z" />
    <glyph glyph-name="uni1ED7" unicode="&#x1ed7;" 
d="M102 47.5q-59 59.5 -59 162.5q0 97 36.5 169t103 110.5t152.5 38.5q104 0 163 -59.5t59 -162.5q0 -97 -36.5 -169t-103 -110.5t-152.5 -38.5q-104 0 -163 59.5zM354.5 126q30.5 29 39.5 83l13 78q5 30 5 41q0 45 -23.5 68t-64.5 23q-48 0 -78.5 -29t-39.5 -83l-13 -78
q-5 -30 -5 -41q0 -45 23.5 -68t64.5 -23q48 0 78.5 29zM371 927q16 -5 37 -15q23 -11 40 -16.5t35 -5.5q16 0 30 5.5t33 19.5l38 -66q-22 -28 -54 -45t-70 -17q-20 0 -36 5t-37 15q-23 11 -40 16.5t-35 5.5q-16 0 -30 -5.5t-33 -19.5l-38 66q22 28 54 45t70 17q20 0 36 -5z
M429 759l122 -134l-72 -63l-111 96l-134 -96l-65 63l165 134h95z" />
    <glyph glyph-name="uni1ED8" unicode="&#x1ed8;" 
d="M96 56.5q-60 68.5 -60 194.5q0 125 33 229t103.5 167t176.5 63q123 0 183 -68.5t60 -194.5q0 -125 -33 -229t-103.5 -167t-176.5 -63q-123 0 -183 68.5zM369.5 152.5q30.5 44.5 45.5 135.5l20 120q6 36 6 72q0 53 -23 81.5t-69 28.5q-60 0 -90.5 -44.5t-45.5 -135.5
l-20 -120q-6 -36 -6 -72q0 -53 23 -81.5t69 -28.5q60 0 90.5 44.5zM459 955l108 -158l-76 -57l-106 115l-134 -115l-70 57l154 158h124zM339 -44l-27 -158h-159l27 158h159z" />
    <glyph glyph-name="uni1ED9" unicode="&#x1ed9;" 
d="M102 47.5q-59 59.5 -59 162.5q0 97 36.5 169t103 110.5t152.5 38.5q104 0 163 -59.5t59 -162.5q0 -97 -36.5 -169t-103 -110.5t-152.5 -38.5q-104 0 -163 59.5zM354.5 126q30.5 29 39.5 83l13 78q5 30 5 41q0 45 -23.5 68t-64.5 23q-48 0 -78.5 -29t-39.5 -83l-13 -78
q-5 -30 -5 -41q0 -45 23.5 -68t64.5 -23q48 0 78.5 29zM446 785l108 -158l-76 -57l-106 115l-134 -115l-70 57l154 158h124zM333 -44l-27 -158h-159l27 158h159z" />
    <glyph glyph-name="uni1EDA" unicode="&#x1eda;" 
d="M664 710q-9 -50 -33 -74.5t-75 -24.5h-2q38 -63 38 -164q0 -125 -33 -229t-103.5 -167t-176.5 -63q-123 0 -183 68.5t-60 194.5q0 125 33 229t103.5 167t176.5 63q52 0 91 -12h98l20 115h123zM369.5 152.5q30.5 44.5 45.5 135.5l20 120q6 36 6 72q0 53 -23 81.5t-69 28.5
q-60 0 -90.5 -44.5t-45.5 -135.5l-20 -120q-6 -36 -6 -72q0 -53 23 -81.5t69 -28.5q60 0 90.5 44.5zM379 740l-86 46l115 190l114 -60z" />
    <glyph glyph-name="uni1EDB" unicode="&#x1edb;" 
d="M623 528q-8 -43 -25.5 -65t-54.5 -28l-24 -2q20 -26 29 -56t9 -71q0 -97 -36.5 -169t-103 -110.5t-152.5 -38.5q-104 0 -163 59.5t-59 162.5q0 97 36.5 169t103 110.5t152.5 38.5q45 0 83 -12h47q32 0 38 32l14 83h123zM354.5 126q30.5 29 39.5 83l13 78q5 30 5 41
q0 45 -23.5 68t-64.5 23q-48 0 -78.5 -29t-39.5 -83l-13 -78q-5 -30 -5 -41q0 -45 23.5 -68t64.5 -23q48 0 78.5 29zM361 570l-86 46l115 190l114 -60z" />
    <glyph glyph-name="uni1EDC" unicode="&#x1edc;" 
d="M664 710q-9 -50 -33 -74.5t-75 -24.5h-2q38 -63 38 -164q0 -125 -33 -229t-103.5 -167t-176.5 -63q-123 0 -183 68.5t-60 194.5q0 125 33 229t103.5 167t176.5 63q52 0 91 -12h98l20 115h123zM369.5 152.5q30.5 44.5 45.5 135.5l20 120q6 36 6 72q0 53 -23 81.5t-69 28.5
q-60 0 -90.5 -44.5t-45.5 -135.5l-20 -120q-6 -36 -6 -72q0 -53 23 -81.5t69 -28.5q60 0 90.5 44.5zM235 917l124 59l77 -196l-87 -39z" />
    <glyph glyph-name="uni1EDD" unicode="&#x1edd;" 
d="M623 528q-8 -43 -25.5 -65t-54.5 -28l-24 -2q20 -26 29 -56t9 -71q0 -97 -36.5 -169t-103 -110.5t-152.5 -38.5q-104 0 -163 59.5t-59 162.5q0 97 36.5 169t103 110.5t152.5 38.5q45 0 83 -12h47q32 0 38 32l14 83h123zM354.5 126q30.5 29 39.5 83l13 78q5 30 5 41
q0 45 -23.5 68t-64.5 23q-48 0 -78.5 -29t-39.5 -83l-13 -78q-5 -30 -5 -41q0 -45 23.5 -68t64.5 -23q48 0 78.5 29zM217 747l124 59l77 -196l-87 -39z" />
    <glyph glyph-name="uni1EDE" unicode="&#x1ede;" 
d="M664 710q-9 -50 -33 -74.5t-75 -24.5h-2q38 -63 38 -164q0 -125 -33 -229t-103.5 -167t-176.5 -63q-123 0 -183 68.5t-60 194.5q0 125 33 229t103.5 167t176.5 63q52 0 91 -12h98l20 115h123zM369.5 152.5q30.5 44.5 45.5 135.5l20 120q6 36 6 72q0 53 -23 81.5t-69 28.5
q-60 0 -90.5 -44.5t-45.5 -135.5l-20 -120q-6 -36 -6 -72q0 -53 23 -81.5t69 -28.5q60 0 90.5 44.5zM283 962h147q40 0 60.5 -16.5t20.5 -42.5q0 -28 -12 -51.5t-37 -54.5l-54 -66l-71 34l50 93h-122z" />
    <glyph glyph-name="uni1EDF" unicode="&#x1edf;" 
d="M623 528q-8 -43 -25.5 -65t-54.5 -28l-24 -2q20 -26 29 -56t9 -71q0 -97 -36.5 -169t-103 -110.5t-152.5 -38.5q-104 0 -163 59.5t-59 162.5q0 97 36.5 169t103 110.5t152.5 38.5q45 0 83 -12h47q32 0 38 32l14 83h123zM354.5 126q30.5 29 39.5 83l13 78q5 30 5 41
q0 45 -23.5 68t-64.5 23q-48 0 -78.5 -29t-39.5 -83l-13 -78q-5 -30 -5 -41q0 -45 23.5 -68t64.5 -23q48 0 78.5 29zM265 792h147q40 0 60.5 -16.5t20.5 -42.5q0 -28 -12 -51.5t-37 -54.5l-54 -66l-71 34l50 93h-122z" />
    <glyph glyph-name="uni1EE0" unicode="&#x1ee0;" 
d="M664 710q-9 -50 -33 -74.5t-75 -24.5h-2q38 -63 38 -164q0 -125 -33 -229t-103.5 -167t-176.5 -63q-123 0 -183 68.5t-60 194.5q0 125 33 229t103.5 167t176.5 63q52 0 91 -12h98l20 115h123zM369.5 152.5q30.5 44.5 45.5 135.5l20 120q6 36 6 72q0 53 -23 81.5t-69 28.5
q-60 0 -90.5 -44.5t-45.5 -135.5l-20 -120q-6 -36 -6 -72q0 -53 23 -81.5t69 -28.5q60 0 90.5 44.5zM390 768q-14 5 -32 15q-23 12 -35.5 17t-27.5 5q-25 0 -52 -21l-41 61q51 65 113 65q18 0 32 -5t32 -15q23 -12 35.5 -17t27.5 -5q25 0 52 21l41 -61q-51 -65 -113 -65
q-18 0 -32 5z" />
    <glyph glyph-name="uni1EE1" unicode="&#x1ee1;" 
d="M623 528q-8 -43 -25.5 -65t-54.5 -28l-24 -2q20 -26 29 -56t9 -71q0 -97 -36.5 -169t-103 -110.5t-152.5 -38.5q-104 0 -163 59.5t-59 162.5q0 97 36.5 169t103 110.5t152.5 38.5q45 0 83 -12h47q32 0 38 32l14 83h123zM354.5 126q30.5 29 39.5 83l13 78q5 30 5 41
q0 45 -23.5 68t-64.5 23q-48 0 -78.5 -29t-39.5 -83l-13 -78q-5 -30 -5 -41q0 -45 23.5 -68t64.5 -23q48 0 78.5 29zM364 598q-14 5 -32 15q-23 12 -35.5 17t-27.5 5q-25 0 -52 -21l-41 61q51 65 113 65q18 0 32 -5t32 -15q23 -12 35.5 -17t27.5 -5q25 0 52 21l41 -61
q-51 -65 -113 -65q-18 0 -32 5z" />
    <glyph glyph-name="uni1EE2" unicode="&#x1ee2;" 
d="M664 710q-9 -50 -33 -74.5t-75 -24.5h-2q38 -63 38 -164q0 -125 -33 -229t-103.5 -167t-176.5 -63q-123 0 -183 68.5t-60 194.5q0 125 33 229t103.5 167t176.5 63q52 0 91 -12h98l20 115h123zM369.5 152.5q30.5 44.5 45.5 135.5l20 120q6 36 6 72q0 53 -23 81.5t-69 28.5
q-60 0 -90.5 -44.5t-45.5 -135.5l-20 -120q-6 -36 -6 -72q0 -53 23 -81.5t69 -28.5q60 0 90.5 44.5zM339 -44l-27 -158h-159l27 158h159z" />
    <glyph glyph-name="uni1EE3" unicode="&#x1ee3;" 
d="M623 528q-8 -43 -25.5 -65t-54.5 -28l-24 -2q20 -26 29 -56t9 -71q0 -97 -36.5 -169t-103 -110.5t-152.5 -38.5q-104 0 -163 59.5t-59 162.5q0 97 36.5 169t103 110.5t152.5 38.5q45 0 83 -12h47q32 0 38 32l14 83h123zM354.5 126q30.5 29 39.5 83l13 78q5 30 5 41
q0 45 -23.5 68t-64.5 23q-48 0 -78.5 -29t-39.5 -83l-13 -78q-5 -30 -5 -41q0 -45 23.5 -68t64.5 -23q48 0 78.5 29zM333 -44l-27 -158h-159l27 158h159z" />
    <glyph glyph-name="uni1EE4" unicode="&#x1ee4;" 
d="M275 698l-73 -438q-8 -48 -8 -74q0 -39 19.5 -58.5t63.5 -19.5q43 0 66 17t34 47t20 83l74 443h147l-71 -426q-17 -103 -43.5 -162.5t-81.5 -90.5t-153 -31q-119 0 -169.5 48.5t-50.5 139.5q0 49 11 115l68 407h147zM341 -44l-27 -158h-159l27 158h159z" />
    <glyph glyph-name="uni1EE5" unicode="&#x1ee5;" 
d="M362 123h-5q-31 -67 -70 -101t-98 -34q-71 0 -106 42t-35 107q0 38 11 104l46 275h146l-49 -292q-7 -42 -7 -63q0 -24 14.5 -42.5t45.5 -18.5q25 0 44 11.5t37 35.5q39 52 47 100l45 269h146l-86 -516h-146zM341 -44l-27 -158h-159l27 158h159z" />
    <glyph glyph-name="uni1EE6" unicode="&#x1ee6;" 
d="M275 698l-73 -438q-8 -48 -8 -74q0 -39 19.5 -58.5t63.5 -19.5q43 0 66 17t34 47t20 83l74 443h147l-71 -426q-17 -103 -43.5 -162.5t-81.5 -90.5t-153 -31q-119 0 -169.5 48.5t-50.5 139.5q0 49 11 115l68 407h147zM296 962h147q40 0 60.5 -16.5t20.5 -42.5
q0 -28 -12 -51.5t-37 -54.5l-54 -66l-71 34l50 93h-122z" />
    <glyph glyph-name="uni1EE7" unicode="&#x1ee7;" 
d="M362 123h-5q-31 -67 -70 -101t-98 -34q-71 0 -106 42t-35 107q0 38 11 104l46 275h146l-49 -292q-7 -42 -7 -63q0 -24 14.5 -42.5t45.5 -18.5q25 0 44 11.5t37 35.5q39 52 47 100l45 269h146l-86 -516h-146zM265 792h147q40 0 60.5 -16.5t20.5 -42.5q0 -28 -12 -51.5
t-37 -54.5l-54 -66l-71 34l50 93h-122z" />
    <glyph glyph-name="uni1EE8" unicode="&#x1ee8;" 
d="M202 261q-8 -48 -8 -75q0 -39 19.5 -58.5t63.5 -19.5q43 0 66 17t34 47.5t20 83.5l74 442h73l20 115h123l-17 -103q-6 -32 -17 -53t-30 -32l-19 -8l-57 -346q-17 -102 -43.5 -161.5t-81.5 -90.5t-153 -31q-119 0 -169.5 48.5t-50.5 139.5q0 49 11 115l68 407h147z
M388 740l-86 46l115 190l114 -60z" />
    <glyph glyph-name="uni1EE9" unicode="&#x1ee9;" 
d="M618 470q-13 -22 -37 -32l-21 -6l-72 -432h-146l20 123h-5q-31 -67 -70 -101t-98 -34q-71 0 -106 42t-35 107q0 38 11 104l46 275h146l-49 -292q-7 -42 -7 -63q0 -24 14.5 -42.5t45.5 -18.5q25 0 44 11.5t37 35.5q39 52 47 100l45 269h51q32 0 38 32l14 83h123l-17 -103
q-6 -36 -19 -58zM355 570l-86 46l115 190l114 -60z" />
    <glyph glyph-name="uni1EEA" unicode="&#x1eea;" 
d="M202 261q-8 -48 -8 -75q0 -39 19.5 -58.5t63.5 -19.5q43 0 66 17t34 47.5t20 83.5l74 442h73l20 115h123l-17 -103q-6 -32 -17 -53t-30 -32l-19 -8l-57 -346q-17 -102 -43.5 -161.5t-81.5 -90.5t-153 -31q-119 0 -169.5 48.5t-50.5 139.5q0 49 11 115l68 407h147z
M244 917l124 59l77 -196l-87 -39z" />
    <glyph glyph-name="uni1EEB" unicode="&#x1eeb;" 
d="M618 470q-13 -22 -37 -32l-21 -6l-72 -432h-146l20 123h-5q-31 -67 -70 -101t-98 -34q-71 0 -106 42t-35 107q0 38 11 104l46 275h146l-49 -292q-7 -42 -7 -63q0 -24 14.5 -42.5t45.5 -18.5q25 0 44 11.5t37 35.5q39 52 47 100l45 269h51q32 0 38 32l14 83h123l-17 -103
q-6 -36 -19 -58zM211 747l124 59l77 -196l-87 -39z" />
    <glyph glyph-name="uni1EEC" unicode="&#x1eec;" 
d="M202 261q-8 -48 -8 -75q0 -39 19.5 -58.5t63.5 -19.5q43 0 66 17t34 47.5t20 83.5l74 442h73l20 115h123l-17 -103q-6 -32 -17 -53t-30 -32l-19 -8l-57 -346q-17 -102 -43.5 -161.5t-81.5 -90.5t-153 -31q-119 0 -169.5 48.5t-50.5 139.5q0 49 11 115l68 407h147z
M292 962h147q40 0 60.5 -16.5t20.5 -42.5q0 -28 -12 -51.5t-37 -54.5l-54 -66l-71 34l50 93h-122z" />
    <glyph glyph-name="uni1EED" unicode="&#x1eed;" 
d="M618 470q-13 -22 -37 -32l-21 -6l-72 -432h-146l20 123h-5q-31 -67 -70 -101t-98 -34q-71 0 -106 42t-35 107q0 38 11 104l46 275h146l-49 -292q-7 -42 -7 -63q0 -24 14.5 -42.5t45.5 -18.5q25 0 44 11.5t37 35.5q39 52 47 100l45 269h51q32 0 38 32l14 83h123l-17 -103
q-6 -36 -19 -58zM259 792h147q40 0 60.5 -16.5t20.5 -42.5q0 -28 -12 -51.5t-37 -54.5l-54 -66l-71 34l50 93h-122z" />
    <glyph glyph-name="uni1EEE" unicode="&#x1eee;" 
d="M202 261q-8 -48 -8 -75q0 -39 19.5 -58.5t63.5 -19.5q43 0 66 17t34 47.5t20 83.5l74 442h73l20 115h123l-17 -103q-6 -32 -17 -53t-30 -32l-19 -8l-57 -346q-17 -102 -43.5 -161.5t-81.5 -90.5t-153 -31q-119 0 -169.5 48.5t-50.5 139.5q0 49 11 115l68 407h147z
M392 768q-14 5 -32 15q-23 12 -35.5 17t-27.5 5q-25 0 -52 -21l-41 61q51 65 113 65q18 0 32 -5t32 -15q23 -12 35.5 -17t27.5 -5q25 0 52 21l41 -61q-51 -65 -113 -65q-18 0 -32 5z" />
    <glyph glyph-name="uni1EEF" unicode="&#x1eef;" 
d="M618 470q-13 -22 -37 -32l-21 -6l-72 -432h-146l20 123h-5q-31 -67 -70 -101t-98 -34q-71 0 -106 42t-35 107q0 38 11 104l46 275h146l-49 -292q-7 -42 -7 -63q0 -24 14.5 -42.5t45.5 -18.5q25 0 44 11.5t37 35.5q39 52 47 100l45 269h51q32 0 38 32l14 83h123l-17 -103
q-6 -36 -19 -58zM358 598q-14 5 -32 15q-23 12 -35.5 17t-27.5 5q-25 0 -52 -21l-41 61q51 65 113 65q18 0 32 -5t32 -15q23 -12 35.5 -17t27.5 -5q25 0 52 21l41 -61q-51 -65 -113 -65q-18 0 -32 5z" />
    <glyph glyph-name="uni1EF0" unicode="&#x1ef0;" 
d="M202 261q-8 -48 -8 -75q0 -39 19.5 -58.5t63.5 -19.5q43 0 66 17t34 47.5t20 83.5l74 442h73l20 115h123l-17 -103q-6 -32 -17 -53t-30 -32l-19 -8l-57 -346q-17 -102 -43.5 -161.5t-81.5 -90.5t-153 -31q-119 0 -169.5 48.5t-50.5 139.5q0 49 11 115l68 407h147z
M341 -44l-27 -158h-159l27 158h159z" />
    <glyph glyph-name="uni1EF1" unicode="&#x1ef1;" 
d="M618 470q-13 -22 -37 -32l-21 -6l-72 -432h-146l20 123h-5q-31 -67 -70 -101t-98 -34q-71 0 -106 42t-35 107q0 38 11 104l46 275h146l-49 -292q-7 -42 -7 -63q0 -24 14.5 -42.5t45.5 -18.5q25 0 44 11.5t37 35.5q39 52 47 100l45 269h51q32 0 38 32l14 83h123l-17 -103
q-6 -36 -19 -58zM351 -44l-27 -158h-159l27 158h159z" />
    <glyph glyph-name="Ygrave" unicode="&#x1ef2;" 
d="M184 0l41 246l-147 452h158l49 -164l31 -137h9l78 137l100 164h165l-295 -449l-41 -249h-148zM244 917l124 59l77 -196l-87 -39z" />
    <glyph glyph-name="ygrave" unicode="&#x1ef3;" 
d="M92 -196q-49 16 -86 60l87 90q43 -53 120 -53q40 0 66 12.5t44 46t28 94.5l14 86h-5q-31 -67 -70 -101t-98 -34q-71 0 -106 42t-35 107q0 38 11 104l43 258h146l-46 -275q-7 -42 -7 -63q0 -24 14.5 -42.5t45.5 -18.5q25 0 44 11.5t37 35.5q39 52 47 100l42 252h146
l-80 -480q-21 -124 -91 -186t-186 -62q-76 0 -125 16zM228 747l124 59l77 -196l-87 -39z" />
    <glyph glyph-name="uni1EF4" unicode="&#x1ef4;" 
d="M184 0l41 246l-147 452h158l49 -164l31 -137h9l78 137l100 164h165l-295 -449l-41 -249h-148zM332 -44l-27 -158h-159l27 158h159z" />
    <glyph glyph-name="uni1EF5" unicode="&#x1ef5;" 
d="M92 -196q-49 16 -86 60l84 85q43 -53 123 -53q61 0 94.5 33t48.5 123l21 131h-6q-28 -65 -69.5 -97t-101.5 -32q-73 0 -108.5 35.5t-35.5 92.5q0 45 10 102l39 232h146l-42 -250q-5 -26 -5 -48q0 -26 13 -42t44 -16q52 0 88 42q34 40 44 104l35 210h146l-80 -480
q-21 -124 -91 -186t-186 -62q-76 0 -125 16zM170.5 -70.5q-14.5 11.5 -14.5 31.5q0 6 4 29q4 22 19.5 34t46.5 12q58 0 58 -43q0 -6 -4 -29q-4 -22 -19.5 -34t-46.5 -12q-29 0 -43.5 11.5z" />
    <glyph glyph-name="uni1EF6" unicode="&#x1ef6;" 
d="M184 0l41 246l-147 452h158l49 -164l31 -137h9l78 137l100 164h165l-295 -449l-41 -249h-148zM292 962h147q40 0 60.5 -16.5t20.5 -42.5q0 -28 -12 -51.5t-37 -54.5l-54 -66l-71 34l50 93h-122z" />
    <glyph glyph-name="uni1EF7" unicode="&#x1ef7;" 
d="M92 -196q-49 16 -86 60l87 90q43 -53 120 -53q40 0 66 12.5t44 46t28 94.5l14 86h-5q-31 -67 -70 -101t-98 -34q-71 0 -106 42t-35 107q0 38 11 104l43 258h146l-46 -275q-7 -42 -7 -63q0 -24 14.5 -42.5t45.5 -18.5q25 0 44 11.5t37 35.5q39 52 47 100l42 252h146
l-80 -480q-21 -124 -91 -186t-186 -62q-76 0 -125 16zM276 792h147q40 0 60.5 -16.5t20.5 -42.5q0 -28 -12 -51.5t-37 -54.5l-54 -66l-71 34l50 93h-122z" />
    <glyph glyph-name="uni1EF8" unicode="&#x1ef8;" 
d="M184 0l41 246l-147 452h158l49 -164l31 -137h9l78 137l100 164h165l-295 -449l-41 -249h-148zM419 767q-15 5 -38 16q-26 12 -42 17t-33 5q-16 0 -30 -5.5t-33 -19.5l-40 67q23 29 54.5 46.5t69.5 17.5q20 0 35 -5t38 -16q26 -12 42 -17t33 -5q16 0 30 5.5t33 19.5
l40 -67q-23 -29 -54.5 -46.5t-69.5 -17.5q-20 0 -35 5z" />
    <glyph glyph-name="uni1EF9" unicode="&#x1ef9;" 
d="M92 -196q-49 16 -86 60l87 90q43 -53 120 -53q40 0 66 12.5t44 46t28 94.5l14 86h-5q-31 -67 -70 -101t-98 -34q-71 0 -106 42t-35 107q0 38 11 104l43 258h146l-46 -275q-7 -42 -7 -63q0 -24 14.5 -42.5t45.5 -18.5q25 0 44 11.5t37 35.5q39 52 47 100l42 252h146
l-80 -480q-21 -124 -91 -186t-186 -62q-76 0 -125 16zM403 597q-15 5 -38 16q-26 12 -42 17t-33 5q-16 0 -30 -5.5t-33 -19.5l-40 67q23 29 54.5 46.5t69.5 17.5q20 0 35 -5t38 -16q26 -12 42 -17t33 -5q16 0 30 5.5t33 19.5l40 -67q-23 -29 -54.5 -46.5t-69.5 -17.5
q-20 0 -35 5z" />
    <glyph glyph-name="endash" unicode="&#x2013;" 
d="M62 245l20 119h475l-20 -119h-475z" />
    <glyph glyph-name="emdash" unicode="&#x2014;" horiz-adv-x="900" 
d="M82 364h775l-20 -119h-775z" />
    <glyph glyph-name="quoteleft" unicode="&#x2018;" 
d="M368 740h107l-110 -325h-188z" />
    <glyph glyph-name="quoteright" unicode="&#x2019;" 
d="M326 740h188l-190 -325h-108z" />
    <glyph glyph-name="quotesinglbase" unicode="&#x201a;" 
d="M230 173h188l-189 -324h-109z" />
    <glyph glyph-name="quotedblleft" unicode="&#x201c;" 
d="M252 740h107l-110 -325h-188zM509 740h107l-110 -325h-188z" />
    <glyph glyph-name="quotedblright" unicode="&#x201d;" 
d="M198 740h188l-190 -325h-108zM454 740h188l-190 -325h-108z" />
    <glyph glyph-name="quotedblbase" unicode="&#x201e;" 
d="M96 173h188l-189 -324h-109zM352 173h188l-189 -324h-109z" />
    <glyph glyph-name="dagger" unicode="&#x2020;" 
d="M163 -200l101 609h-176l18 107h176l37 224h124l-37 -224h177l-18 -107h-177l-101 -609h-124z" />
    <glyph glyph-name="daggerdbl" unicode="&#x2021;" 
d="M163 -200l37 224h-176l18 107h176l46 278h-176l18 107h176l37 224h124l-37 -224h176l-18 -107h-176l-46 -278h176l-18 -107h-176l-37 -224h-124z" />
    <glyph glyph-name="bullet" unicode="&#x2022;" 
d="M482 450l-48 -287h-298l48 287h298z" />
    <glyph glyph-name="ellipsis" unicode="&#x2026;" horiz-adv-x="900" 
d="M241 178l-30 -178h-185l30 178h185zM531 178l-30 -178h-185l30 178h185zM825 178l-30 -178h-185l30 178h185z" />
    <glyph glyph-name="perthousand" unicode="&#x2030;" horiz-adv-x="1200" 
d="M103.5 355q-41.5 41 -41.5 120q0 70 28.5 123.5t75.5 82.5t99 29q72 0 113.5 -41t41.5 -120q0 -70 -28.5 -123.5t-75.5 -82.5t-99 -29q-72 0 -113.5 41zM648 698h124l-564 -698h-124zM262.5 419q14.5 21 23.5 67l10 50q5 25 5 40q0 24 -11 37t-31 13q-25 0 -39.5 -21
t-23.5 -67l-10 -50q-5 -25 -5 -40q0 -24 11 -37t31 -13q25 0 39.5 21zM861.5 31q-41.5 41 -41.5 120q0 70 28.5 123.5t75.5 82.5t99 29q72 0 113.5 -41t41.5 -120q0 -69 -28.5 -123t-75.5 -83t-99 -29q-72 0 -113.5 41zM487.5 29q-41.5 41 -41.5 120q0 70 28.5 123.5
t75.5 82.5t99 29q72 0 113.5 -41t41.5 -120q0 -69 -28.5 -123t-75.5 -83t-99 -29q-72 0 -113.5 41zM1020.5 95q14.5 21 23.5 67l10 50q5 25 5 40q0 24 -11 37t-31 13q-25 0 -39.5 -21t-23.5 -67l-10 -50q-5 -25 -5 -40q0 -24 11 -37t31 -13q25 0 39.5 21zM646.5 93
q14.5 21 23.5 67l10 50q5 25 5 40q0 24 -11 37t-31 13q-25 0 -39.5 -21t-23.5 -67l-10 -50q-5 -25 -5 -40q0 -24 11 -37t31 -13q25 0 39.5 21z" />
    <glyph glyph-name="guilsinglleft" unicode="&#x2039;" 
d="M333 43l-170 168l22 130l214 160l39 -92l-152 -141l106 -138z" />
    <glyph glyph-name="guilsinglright" unicode="&#x203a;" 
d="M161 135l152 141l-106 138l59 87l170 -168l-22 -130l-214 -160z" />
    <glyph glyph-name="fraction" unicode="&#x2044;" 
d="M568 698h106l-223 -300h-106zM181 300h106l-223 -300h-106z" />
    <glyph glyph-name="uni2070" unicode="&#x2070;" 
d="M224 367q-30 44 -30 102q0 103 45 169t127 66q75 0 105 -44t30 -102q0 -103 -45 -169t-127 -66q-75 0 -105 44zM370.5 417.5q12.5 18.5 19.5 61.5l11 66q4 23 4 39q0 22 -9.5 33t-31.5 11q-27 0 -39.5 -18.5t-19.5 -61.5l-11 -66q-4 -23 -4 -39q0 -22 9.5 -33t31.5 -11
q27 0 39.5 18.5zM318 505l2 16q4 21 32 21q25 0 25 -20l-2 -16q-3 -21 -32 -21q-25 0 -25 20z" />
    <glyph glyph-name="uni2074" unicode="&#x2074;" 
d="M332 329l11 69h-169l13 82l189 218h110l-38 -228h45l-12 -72h-45l-11 -69h-93zM375 589h-7l-103 -119h90z" />
    <glyph glyph-name="uni2075" unicode="&#x2075;" 
d="M492 615h-180l-27 -105h6q28 65 94 65q46 0 74.5 -29t28.5 -75q0 -37 -18.5 -71t-56.5 -55.5t-94 -21.5q-52 0 -85 19.5t-53 56.5l74 45q19 -45 66 -45q27 0 41.5 13t17.5 30q2 12 2 19q0 19 -12.5 28.5t-32.5 9.5q-33 0 -55 -22l-77 10l54 211h247z" />
    <glyph glyph-name="uni2076" unicode="&#x2076;" 
d="M230.5 360q-36.5 37 -36.5 99q0 75 50 136t126 103h142l-28 -17q-56 -34 -87 -55.5t-54.5 -48.5t-36.5 -62l5 -2q2 3 14 20t32 27.5t45 10.5q43 0 68 -28t25 -73q0 -39 -19.5 -72.5t-56 -54t-86.5 -20.5q-66 0 -102.5 37zM373 407q14 12 18 34q2 12 2 23q0 17 -10.5 26.5
t-32.5 9.5q-23 0 -37 -12t-18 -34q-2 -12 -2 -23q0 -17 10.5 -26.5t32.5 -9.5q23 0 37 12z" />
    <glyph glyph-name="uni2077" unicode="&#x2077;" 
d="M231 329l180 292h-109l-11 -66h-82l24 143h289l-13 -79l-172 -290h-106z" />
    </font>
</defs>
</svg>
