<?xml version="1.0" standalone="no"?>
<!DOCTYPE svg PUBLIC "-//W3C//DTD SVG 1.1//EN" "http://www.w3.org/Graphics/SVG/1.1/DTD/svg11.dtd" >
<svg xmlns="http://www.w3.org/2000/svg" xmlns:xlink="http://www.w3.org/1999/xlink" version="1.1">
<metadata>
Created by FontForge 20170731 at Mon Dec 24 14:15:42 2018
 By Aleksey,,,
Copyright 2017 IBM Corp. and iA Inc. All rights reserved.
</metadata>
<defs>
<font id="iAWriterQuattroS-Regular" horiz-adv-x="600" >
  <font-face 
    font-family="iA Writer Quattro S"
    font-weight="400"
    font-stretch="normal"
    units-per-em="1000"
    panose-1="0 0 5 0 0 0 0 0 0 0"
    ascent="780"
    descent="-220"
    x-height="516"
    cap-height="698"
    bbox="-394 -251 1161 1119"
    underline-thickness="60"
    underline-position="-200"
    unicode-range="U+0020-FB02"
  />
<missing-glyph 
d="M32 780h536v-780h-536v780zM508 60v660h-416v-660h416z" />
    <glyph glyph-name=".notdef" 
d="M32 780h536v-780h-536v780zM508 60v660h-416v-660h416z" />
    <glyph glyph-name=".null" horiz-adv-x="0" 
 />
    <glyph glyph-name="nonmarkingreturn" horiz-adv-x="333" 
 />
    <glyph glyph-name="space" unicode=" " horiz-adv-x="450" 
 />
    <glyph glyph-name="exclam" unicode="!" 
d="M284 233l-28 262v203h88v-203l-28 -262h-32zM364 131v-131h-130v131h130z" />
    <glyph glyph-name="quotedbl" unicode="&#x22;" 
d="M173 463v277h76v-277h-76zM351 463v277h76v-277h-76z" />
    <glyph glyph-name="numbersign" unicode="#" 
d="M440 416l-23 -134h131v-66h-143l-38 -216h-73l38 216h-111l-38 -216h-73l38 216h-132v66h144l23 134h-131v66h143l38 216h73l-38 -216h111l38 216h73l-38 -216h132v-66h-144zM367 416h-111l-23 -134h111z" />
    <glyph glyph-name="dollar" unicode="$" 
d="M279 -11q-148 9 -229 122l61 50q37 -46 77.5 -70.5t91.5 -29.5v261l-23 4q-97 16 -139.5 67.5t-42.5 126.5q0 83 54.5 132.5t149.5 56.5v102h62v-102q68 -5 119 -33t89 -80l-63 -45q-28 38 -63 59t-83 26v-245l30 -5q182 -31 182 -195q0 -87 -55 -140.5t-156 -61.5v-102
h-62v102zM185 442.5q29 -28.5 95 -41.5v236q-60 -6 -92 -36t-32 -81q0 -49 29 -77.5zM440.5 271.5q-30.5 28.5 -100.5 40.5v-250q63 7 97 40t34 88q0 53 -30.5 81.5z" />
    <glyph glyph-name="percent" unicode="%" horiz-adv-x="900" 
d="M106 365q-41 51 -41 147t41 147t117 51t117 -51t41 -147t-41 -147t-117 -51t-117 51zM667 698h77l-484 -698h-77zM309 482v60q0 116 -86 116t-86 -116v-60q0 -116 86 -116t86 116zM587 39q-41 51 -41 147t41 147t117 51t117 -51t41 -147t-41 -147t-117 -51t-117 51z
M790 156v60q0 116 -86 116t-86 -116v-60q0 -116 86 -116t86 116z" />
    <glyph glyph-name="ampersand" unicode="&#x26;" 
d="M114.5 13.5q-43.5 25.5 -66.5 69.5t-23 98q0 60 30 114t99 89q-31 40 -48 78t-17 79q0 49 24.5 87.5t66 60t90.5 21.5q62 0 106 -31.5t60 -74.5l-66 -34q-14 33 -40.5 52.5t-63.5 19.5q-44 0 -71 -27.5t-27 -70.5v-8q0 -31 15.5 -61t55.5 -80l163 -201h5q7 41 11 147
l2 40h141v-67h-75l-3 -22q-6 -47 -12.5 -78.5t-20.5 -69.5l122 -144h-95l-87 103h-5q-15 -53 -58.5 -84t-109.5 -31q-59 0 -102.5 25.5zM314 77q33 18 52 50l-174 210q-84 -52 -84 -145v-15q0 -54 36 -86t94 -32q43 0 76 18z" />
    <glyph glyph-name="quotesingle" unicode="'" 
d="M262 463v277h76v-277h-76z" />
    <glyph glyph-name="parenleft" unicode="(" 
d="M233 492q28 87 75 156t105 112h81q-93 -70 -153.5 -177t-60.5 -229v-86q0 -122 60.5 -229t153.5 -177h-81q-58 43 -105 112t-75 156t-28 181t28 181z" />
    <glyph glyph-name="parenright" unicode=")" 
d="M367 130q-28 -87 -75 -156t-105 -112h-81q93 70 153.5 177t60.5 229v86q0 122 -60.5 229t-153.5 177h81q58 -43 105 -112t75 -156t28 -181t-28 -181z" />
    <glyph glyph-name="asterisk" unicode="*" 
d="M175 52l-57 42l124 170l-199 66l21 66l199 -64v216h74v-216l199 64l21 -66l-199 -66l124 -170l-57 -42l-125 172z" />
    <glyph glyph-name="plus" unicode="+" 
d="M262 62v209h-200v68h200v209h76v-209h200v-68h-200v-209h-76z" />
    <glyph glyph-name="comma" unicode="," 
d="M257 136h129l-115 -277h-67z" />
    <glyph glyph-name="hyphen" unicode="-" 
d="M155 262v84h290v-84h-290z" />
    <glyph glyph-name="period" unicode="." 
d="M364 131v-131h-130v131h130z" />
    <glyph glyph-name="slash" unicode="/" 
d="M90 -138l348 898h72l-348 -898h-72z" />
    <glyph glyph-name="zero" unicode="0" 
d="M56 349q0 361 244 361t244 -361t-244 -361t-244 361zM419 121.5q38 60.5 38 170.5v114q0 110 -38 170.5t-119 60.5t-119 -60.5t-38 -170.5v-114q0 -110 38 -170.5t119 -60.5t119 60.5zM238 338v22q0 48 62 48t62 -48v-22q0 -48 -62 -48t-62 48z" />
    <glyph glyph-name="one" unicode="1" 
d="M85 0v73h200v563h-7l-176 -164l-49 53l185 173h131v-625h184v-73h-468z" />
    <glyph glyph-name="two" unicode="2" 
d="M537 0h-466v86l233 210q56 50 86.5 98.5t30.5 98.5v12q0 63 -33.5 97.5t-97.5 34.5q-61 0 -96.5 -31t-53.5 -88l-75 28q24 71 78.5 117.5t148.5 46.5q102 0 159.5 -55.5t57.5 -146.5q0 -74 -39.5 -136t-116.5 -129l-195 -170h379v-73z" />
    <glyph glyph-name="three" unicode="3" 
d="M270 402q71 0 108.5 32t37.5 84v7q0 54 -34.5 83t-93.5 29q-53 0 -88.5 -23t-58.5 -66l-63 48q73 114 212 114q60 0 109 -20.5t77 -60.5t28 -95q0 -64 -37.5 -106t-98.5 -57v-4q64 -12 107 -57t43 -119q0 -60 -30 -106t-84.5 -71.5t-126.5 -25.5q-84 0 -137 32.5
t-92 86.5l63 48q31 -47 68 -70.5t98 -23.5q73 0 113 34.5t40 96.5v8q0 62 -39 96t-115 34h-83v72h77z" />
    <glyph glyph-name="four" unicode="4" 
d="M378 0v137h-344v74l302 487h122v-492h104v-69h-104v-137h-80zM109 206h269v427h-4z" />
    <glyph glyph-name="five" unicode="5" 
d="M501 625h-312l-20 -267h7q28 38 61 57t85 19q61 0 109 -26t75 -74.5t27 -114.5q0 -68 -28.5 -120.5t-82.5 -81.5t-127 -29q-80 0 -131.5 32.5t-90.5 86.5l63 48q32 -47 67 -70.5t94 -23.5q71 0 110 39t39 108v8q0 69 -39.5 108t-111.5 39q-45 0 -73.5 -15t-54.5 -44
l-71 10l25 384h380v-73z" />
    <glyph glyph-name="six" unicode="6" 
d="M127.5 59.5q-63.5 71.5 -63.5 196.5q0 97 37.5 184t95.5 152.5t120 105.5h108q-121 -87 -184 -166.5t-91 -195.5l5 -2q28 47 69.5 73.5t102.5 26.5t108.5 -26.5t74 -75t26.5 -113.5q0 -68 -29 -120.5t-82.5 -81.5t-123.5 -29q-110 0 -173.5 71.5zM411 98.5
q40 39.5 40 109.5v8q0 70 -40 109.5t-111 39.5t-111 -39.5t-40 -109.5v-8q0 -70 40 -109.5t111 -39.5t111 39.5z" />
    <glyph glyph-name="seven" unicode="7" 
d="M173 0l273 626h-306v-130h-75v202h466v-74l-268 -624h-90z" />
    <glyph glyph-name="eight" unicode="8" 
d="M166 14q-55 26 -83 72t-28 104q0 69 37.5 112t104.5 61v8q-56 19 -88.5 62t-32.5 102q0 80 59.5 127.5t164.5 47.5t164.5 -47.5t59.5 -127.5q0 -59 -32.5 -102t-88.5 -62v-8q67 -18 104.5 -61t37.5 -112q0 -58 -28 -104t-83 -72t-134 -26t-134 26zM403 430q36 29 36 83
v14q0 53 -36.5 82.5t-102.5 29.5t-102.5 -29.5t-36.5 -82.5v-14q0 -54 36 -83t103 -29t103 29zM416 92.5q42 33.5 42 92.5v22q0 60 -41.5 93t-116.5 33t-116.5 -33t-41.5 -93v-22q0 -59 42 -92.5t116 -33.5t116 33.5z" />
    <glyph glyph-name="nine" unicode="9" 
d="M498.5 258q-37.5 -87 -95.5 -152.5t-120 -105.5h-108q121 87 184 166.5t91 195.5l-5 2q-28 -47 -69.5 -73.5t-102.5 -26.5t-108.5 26.5t-74 75t-26.5 113.5q0 68 29 120.5t82.5 81.5t123.5 29q110 0 173.5 -71.5t63.5 -196.5q0 -97 -37.5 -184zM411 372.5
q40 39.5 40 109.5v8q0 70 -40 109.5t-111 39.5t-111 -39.5t-40 -109.5v-8q0 -70 40 -109.5t111 -39.5t111 39.5z" />
    <glyph glyph-name="colon" unicode=":" 
d="M364 131v-131h-130v131h130zM364 527v-131h-130v131h130z" />
    <glyph glyph-name="semicolon" unicode=";" 
d="M257 136h129l-115 -277h-67zM384 527v-131h-130v131h130z" />
    <glyph glyph-name="less" unicode="&#x3c;" 
d="M85 265v80l430 249v-83l-355 -201v-8l355 -201v-85z" />
    <glyph glyph-name="equal" unicode="=" 
d="M62 372v68h476v-68h-476zM62 172v68h476v-68h-476z" />
    <glyph glyph-name="greater" unicode="&#x3e;" 
d="M85 99l355 201v8l-355 201v85l430 -249v-80l-430 -249v83z" />
    <glyph glyph-name="question" unicode="?" 
d="M239 215v157q88 4 136 38.5t48 100.5v14q0 55 -33 83.5t-92 28.5q-57 0 -94.5 -32t-51.5 -85l-75 28q21 72 77.5 117t146.5 45q95 0 152 -51.5t57 -137.5q0 -87 -56 -139t-136 -66v-101h-79zM344 131v-131h-130v131h130z" />
    <glyph glyph-name="at" unicode="@" horiz-adv-x="900" 
d="M447 -121q-114 0 -200.5 50.5t-134 143.5t-47.5 215q0 123 48.5 218.5t137.5 148.5t205 53q99 0 183 -40.5t135.5 -127t51.5 -217.5q0 -112 -42.5 -183t-131.5 -71q-46 0 -71 23t-30 63h-4q-21 -42 -50.5 -64t-73.5 -22q-48 0 -87.5 24.5t-63 74t-23.5 121.5t23.5 121.5
t63 74t87.5 24.5q43 0 71 -21t43 -56h4v68h69v-304q0 -38 13 -52t42 -14q46 0 70.5 48t24.5 132v46q0 86 -40 152.5t-109.5 103t-155.5 36.5q-94 0 -167.5 -43t-114.5 -118t-41 -166v-59q0 -94 39.5 -167t111.5 -114t165 -41h231v-61h-232zM515 160q26 25 26 71v122
q0 40 -26.5 65t-77.5 25q-52 0 -78 -30.5t-26 -83.5v-80q0 -53 26 -83.5t78 -30.5t78 25z" />
    <glyph glyph-name="A" unicode="A" 
d="M481 0l-59 199h-245l-59 -199h-87l214 698h111l214 -698h-89zM304 609h-9l-98 -337h205z" />
    <glyph glyph-name="B" unicode="B" 
d="M88 698h237q89 0 140.5 -49t51.5 -131q0 -60 -29 -97t-80 -53v-3q63 -14 99 -54.5t36 -109.5q0 -56 -24.5 -102t-67.5 -72.5t-96 -26.5h-267v698zM316 395q54 0 83.5 24t29.5 71v39q0 47 -29.5 71.5t-83.5 24.5h-144v-230h144zM330 73q59 0 91.5 27t32.5 79v41
q0 52 -32.5 79t-91.5 27h-158v-253h158z" />
    <glyph glyph-name="C" unicode="C" 
d="M133.5 80.5q-63.5 92.5 -63.5 268.5t63.5 268.5t189.5 92.5q87 0 135.5 -41.5t79.5 -111.5l-72 -33q-22 55 -53.5 84t-89.5 29q-81 0 -122.5 -61.5t-41.5 -169.5v-114q0 -108 41.5 -169.5t122.5 -61.5q58 0 89.5 29t53.5 84l72 -33q-31 -70 -79.5 -111.5t-135.5 -41.5
q-126 0 -189.5 92.5z" />
    <glyph glyph-name="D" unicode="D" 
d="M95 698h195q127 0 190.5 -88t63.5 -261t-63.5 -261t-190.5 -88h-195v698zM286 73q82 0 125.5 58t43.5 164v108q0 106 -43.5 164t-125.5 58h-107v-552h107z" />
    <glyph glyph-name="E" unicode="E" 
d="M90 0v698h430v-73h-346v-235h334v-73h-334v-244h346v-73h-430z" />
    <glyph glyph-name="F" unicode="F" 
d="M90 0v698h440v-73h-356v-235h326v-73h-326v-317h-84z" />
    <glyph glyph-name="G" unicode="G" 
d="M444 93h-5q-20 -48 -56 -76.5t-102 -28.5q-112 0 -168.5 91.5t-56.5 264.5q0 180 62 273t187 93q89 0 139.5 -42.5t77.5 -110.5l-72 -33q-22 55 -53 84t-89 29q-82 0 -122.5 -61t-40.5 -170v-108q0 -112 37 -175.5t118 -63.5q66 0 105 40.5t39 106.5v72h-147v67h225v-345
h-78v93z" />
    <glyph glyph-name="H" unicode="H" 
d="M436 317h-272v-317h-84v698h84v-308h272v308h84v-698h-84v317z" />
    <glyph glyph-name="I" unicode="I" horiz-adv-x="300" 
d="M108 698h84v-698h-84v698z" />
    <glyph glyph-name="J" unicode="J" 
d="M480 698v-517q0 -58 -26 -102t-73 -67.5t-107 -23.5q-79 0 -131.5 41.5t-68.5 116.5l80 17q11 -47 39.5 -74t82.5 -27q58 0 89 33.5t31 100.5v429h-252v73h336z" />
    <glyph glyph-name="K" unicode="K" 
d="M269 342l-100 -118v-224h-84v698h84v-364h3l92 116l206 248h101l-245 -294l252 -404h-98z" />
    <glyph glyph-name="L" unicode="L" 
d="M120 0v698h84v-625h331v-73h-415z" />
    <glyph glyph-name="M" unicode="M" horiz-adv-x="900" 
d="M678 588l-59 -117l-167 -304l-166 304l-59 116h-25v-587h-82v698h130l200 -376h4l201 376h130v-698h-82v588h-25z" />
    <glyph glyph-name="N" unicode="N" 
d="M163 591h-7v-591h-76v698h119l238 -585h7v585h76v-698h-119z" />
    <glyph glyph-name="O" unicode="O" 
d="M56 349q0 361 244 361t244 -361t-244 -361t-244 361zM417.5 121.5q37.5 60.5 37.5 170.5v114q0 110 -37.5 170.5t-117.5 60.5t-117.5 -60.5t-37.5 -170.5v-114q0 -110 37.5 -170.5t117.5 -60.5t117.5 60.5z" />
    <glyph glyph-name="P" unicode="P" 
d="M90 0v698h254q96 0 147.5 -53t51.5 -148t-51.5 -148t-147.5 -53h-170v-296h-84zM174 369h168q53 0 82.5 26.5t29.5 75.5v52q0 49 -29.5 75.5t-82.5 26.5h-168v-256z" />
    <glyph glyph-name="Q" unicode="Q" 
d="M530 -38l-81 77q-59 -51 -149 -51q-244 0 -244 361t244 361t244 -361q0 -162 -50 -252l143 -135h-107zM393 92l-138 131h107l72 -68q21 56 21 137v114q0 110 -37.5 170.5t-117.5 60.5t-117.5 -60.5t-37.5 -170.5v-114q0 -110 37.5 -170.5t117.5 -60.5q56 0 93 31z" />
    <glyph glyph-name="R" unicode="R" 
d="M174 0h-84v698h254q96 0 147.5 -53t51.5 -148q0 -85 -44.5 -136t-127.5 -59l178 -302h-94l-170 298h-111v-298zM342 369q53 0 82.5 26.5t29.5 75.5v52q0 49 -29.5 75.5t-82.5 26.5h-168v-256h168z" />
    <glyph glyph-name="S" unicode="S" 
d="M148 20.5q-61 32.5 -103 90.5l61 50q41 -52 87 -76.5t108 -24.5q75 0 115.5 35t40.5 98q0 52 -30 80t-100 40l-78 13q-96 16 -138 66.5t-42 123.5q0 94 62 144t171 50q159 0 234 -107l-59 -51q-32 42 -73.5 64t-102.5 22q-71 0 -109 -30.5t-38 -89.5q0 -49 29.5 -78
t101.5 -41l75 -13q182 -32 182 -191q0 -97 -64 -152t-180 -55q-89 0 -150 32.5z" />
    <glyph glyph-name="T" unicode="T" 
d="M342 625v-625h-84v625h-233v73h550v-73h-233z" />
    <glyph glyph-name="U" unicode="U" 
d="M164 698v-419q0 -81 7.5 -124.5t36.5 -68.5t92 -25t92 25t36.5 68.5t7.5 124.5v419h84v-399q0 -113 -16.5 -178.5t-63.5 -99t-140 -33.5t-140 33.5t-63.5 99t-16.5 178.5v399h84z" />
    <glyph glyph-name="V" unicode="V" 
d="M243 0l-207 698h89l174 -613h5l174 613h86l-207 -698h-114z" />
    <glyph glyph-name="W" unicode="W" horiz-adv-x="900" 
d="M25 698h89l75 -336l58 -261h2l65 261l88 336h96l85 -336l65 -260h3l60 260l79 336h86l-179 -698h-93l-91 348l-64 256h-2l-66 -256l-93 -348h-93z" />
    <glyph glyph-name="X" unicode="X" 
d="M575 0h-95l-83 139l-92 152h-4l-95 -152l-88 -139h-92l228 356l-215 342h95l81 -135l87 -141h4l86 141l84 135h92l-216 -341z" />
    <glyph glyph-name="Y" unicode="Y" 
d="M258 0v274l-241 424h96l100 -182l85 -159h4l187 341h94l-241 -424v-274h-84z" />
    <glyph glyph-name="Z" unicode="Z" 
d="M552 0h-504v75l395 550h-378v73h470v-75l-396 -550h413v-73z" />
    <glyph glyph-name="bracketleft" unicode="[" 
d="M225 -138v898h280v-62h-211v-774h211v-62h-280z" />
    <glyph glyph-name="backslash" unicode="\" 
d="M438 -138l-348 898h72l348 -898h-72z" />
    <glyph glyph-name="bracketright" unicode="]" 
d="M375 760v-898h-280v62h211v774h-211v62h280z" />
    <glyph glyph-name="asciicircum" unicode="^" 
d="M489 287l-189 342h-4l-189 -342l-62 31l210 380h90l210 -380z" />
    <glyph glyph-name="underscore" unicode="_" 
d="M60 -169v74h480v-74h-480z" />
    <glyph glyph-name="grave" unicode="`" 
d="M187 744l73 35l85 -170l-52 -24z" />
    <glyph glyph-name="a" unicode="a" 
d="M495 0q-81 0 -92 84h-5q-36 -96 -155 -96q-81 0 -129 42t-48 115q0 150 222 150h110v51q0 56 -32 85t-91 29q-94 0 -138 -76l-54 40q21 44 72 74t125 30q91 0 144.5 -46.5t53.5 -127.5v-248q0 -15 10.5 -25.5t25.5 -10.5h36v-70h-55zM358 82.5q40 27.5 40 67.5v85h-110
q-138 0 -138 -78v-21q0 -39 28.5 -60t78.5 -21q61 0 101 27.5z" />
    <glyph glyph-name="b" unicode="b" 
d="M95 740h80v-308h4q50 96 159 96q95 0 148.5 -71.5t53.5 -198.5t-53.5 -198.5t-148.5 -71.5q-109 0 -159 96h-4v-84h-80v740zM415 101q39 42 39 113v88q0 71 -39 113t-108 42q-56 0 -94 -28t-38 -78v-186q0 -50 38 -78t94 -28q69 0 108 42z" />
    <glyph glyph-name="c" unicode="c" 
d="M146 61q-62 73 -62 197t62 197t171 73q72 0 120 -32t71 -87l-64 -34q-14 40 -47 62t-80 22q-69 0 -108 -43.5t-39 -113.5v-88q0 -70 39 -113.5t110 -43.5q98 0 140 90l57 -39q-24 -55 -74 -87.5t-124 -32.5q-110 0 -172 73z" />
    <glyph glyph-name="d" unicode="d" 
d="M425 84h-4q-50 -96 -159 -96q-95 0 -148.5 71.5t-53.5 198.5t53.5 198.5t148.5 71.5q109 0 159 -96h4v308h80v-740h-80v84zM387 87q38 28 38 78v186q0 50 -38 78t-94 28q-69 0 -108 -42t-39 -113v-88q0 -71 39 -113t108 -42q56 0 94 28z" />
    <glyph glyph-name="e" unicode="e" 
d="M181 21q-55 33 -84.5 94t-29.5 142t30 142.5t83.5 95t123.5 33.5q68 0 120 -32.5t80.5 -89.5t28.5 -130v-38h-382v-24q0 -69 43 -113t115 -44q51 0 89 23.5t59 66.5l59 -40q-24 -54 -78.5 -86.5t-128.5 -32.5q-73 0 -128 33zM226 441.5q-35 -20.5 -55 -56.5t-20 -80v-7
h296v11q0 68 -39.5 110.5t-103.5 42.5q-43 0 -78 -20.5z" />
    <glyph glyph-name="f" unicode="f" horiz-adv-x="450" 
d="M174 448h-104v68h104v51q0 70 25.5 108t73 51.5t126.5 13.5h22v-68h-23q-57 0 -85.5 -5.5t-43.5 -28t-15 -70.5v-52h137v-68h-137v-448h-80v448z" />
    <glyph glyph-name="g" unicode="g" 
d="M505 17q0 -107 -60 -168t-167 -61q-116 0 -185 71l47 55q54 -56 139 -56q146 0 146 154v86h-4q-50 -96 -159 -96q-94 0 -148 70.5t-54 192.5t54 192.5t148 70.5q109 0 159 -96h4v84h80v-499zM387 101q38 28 38 78v172q0 50 -38 78t-94 28q-69 0 -108 -42t-39 -113v-74
q0 -71 39 -113t108 -42q56 0 94 28z" />
    <glyph glyph-name="h" unicode="h" 
d="M98 740h80v-308h4q41 96 147 96q82 0 130.5 -52t48.5 -145v-331h-80v317q0 70 -31 105t-91 35q-53 0 -90.5 -25.5t-37.5 -73.5v-358h-80v740z" />
    <glyph glyph-name="i" unicode="i" horiz-adv-x="300" 
d="M203 740v-106h-106v106h106zM110 516h80v-516h-80v516z" />
    <glyph glyph-name="j" unicode="j" horiz-adv-x="300" 
d="M208 740v-106h-106v106h106zM192 -27q0 -70 -25.5 -108t-73 -51.5t-126.5 -13.5h-5v68h6q57 0 85.5 5.5t43.5 28t15 70.5v544h80v-543z" />
    <glyph glyph-name="k" unicode="k" 
d="M105 740h80v-467h4l90 85l172 158h98l-214 -202l239 -314h-99l-201 268l-89 -81v-187h-80v740z" />
    <glyph glyph-name="l" unicode="l" horiz-adv-x="300" 
d="M179 0q-40 0 -62.5 23t-22.5 60v657h80v-645q0 -25 25 -25h51v-70h-71z" />
    <glyph glyph-name="m" unicode="m" horiz-adv-x="900" 
d="M96 516h80v-84h4q20 45 52 70.5t87 25.5q54 0 96 -26t62 -79h2q16 46 55.5 75.5t101.5 29.5q79 0 123.5 -52t44.5 -145v-331h-80v317q0 69 -27.5 104t-85.5 35q-51 0 -86 -25.5t-35 -72.5v-358h-80v317q0 70 -27 104.5t-84 34.5q-51 0 -87 -25.5t-36 -72.5v-358h-80v516z
" />
    <glyph glyph-name="n" unicode="n" 
d="M98 0v516h80v-84h4q41 96 147 96q82 0 130.5 -52t48.5 -145v-331h-80v317q0 70 -31 105t-91 35q-53 0 -90.5 -25.5t-37.5 -73.5v-358h-80z" />
    <glyph glyph-name="o" unicode="o" 
d="M175.5 21q-52.5 33 -81 94t-28.5 143t28.5 143t81 94t124.5 33t124.5 -33t81 -94t28.5 -143t-28.5 -143t-81 -94t-124.5 -33t-124.5 33zM409 98.5q40 41.5 40 122.5v74q0 81 -40 122.5t-109 41.5t-109 -41.5t-40 -122.5v-74q0 -81 40 -122.5t109 -41.5t109 41.5z" />
    <glyph glyph-name="p" unicode="p" 
d="M95 516h80v-84h4q50 96 159 96q95 0 148.5 -71.5t53.5 -198.5t-53.5 -198.5t-148.5 -71.5q-109 0 -159 96h-4v-284h-80v716zM415 101q39 42 39 113v88q0 71 -39 113t-108 42q-56 0 -94 -28t-38 -78v-186q0 -50 38 -78t94 -28q69 0 108 42z" />
    <glyph glyph-name="q" unicode="q" 
d="M425 84h-4q-50 -96 -159 -96q-95 0 -148.5 71.5t-53.5 198.5t53.5 198.5t148.5 71.5q109 0 159 -96h4v84h80v-716h-80v284zM387 87q38 28 38 78v186q0 50 -38 78t-94 28q-69 0 -108 -42t-39 -113v-88q0 -71 39 -113t108 -42q56 0 94 28z" />
    <glyph glyph-name="r" unicode="r" horiz-adv-x="450" 
d="M112 516h80v-130h5q38 130 174 130h52v-80h-77q-73 0 -113.5 -41t-40.5 -104v-291h-80v516z" />
    <glyph glyph-name="s" unicode="s" 
d="M67 89l54 47q38 -41 83 -61t104 -20q63 0 100 22.5t37 66.5q0 37 -24 53t-67 22l-81 12q-49 7 -86 19.5t-64 42t-27 81.5q0 75 57 114.5t151 39.5q132 0 210 -83l-52 -49q-54 65 -161 65q-61 0 -93.5 -21t-32.5 -61q0 -37 24.5 -53t66.5 -22l81 -12q50 -7 87 -19.5
t63.5 -42t26.5 -81.5q0 -76 -59 -118.5t-159 -42.5q-150 0 -239 101z" />
    <glyph glyph-name="t" unicode="t" horiz-adv-x="450" 
d="M241 172q0 -48 15 -70.5t43.5 -28t85.5 -5.5h13v-68h-12q-79 0 -126.5 13.5t-73 51.5t-25.5 108v275h-112v68h112v182h80v-182h155v-68h-155v-276z" />
    <glyph glyph-name="u" unicode="u" 
d="M422 84h-4q-41 -96 -147 -96q-82 0 -130.5 52t-48.5 145v331h80v-317q0 -70 31 -105t91 -35q53 0 90.5 25.5t37.5 73.5v358h80v-516h-80v84z" />
    <glyph glyph-name="v" unicode="v" 
d="M249 0l-185 516h81l154 -449h4l154 449h79l-185 -516h-102z" />
    <glyph glyph-name="w" unicode="w" horiz-adv-x="900" 
d="M155 516l53 -199l67 -250h2l77 252l61 197h71l62 -197l79 -252h2l66 251l53 198h75l-147 -516h-99l-127 405h-2l-51 -165l-75 -240h-97l-148 516h78z" />
    <glyph glyph-name="x" unicode="x" 
d="M61 0l192 262l-187 254h96l78 -109l62 -86h4l60 86l77 109h92l-189 -253l194 -263h-96l-146 203h-4l-141 -203h-92z" />
    <glyph glyph-name="y" unicode="y" 
d="M467 516h80l-256 -629q-19 -47 -47.5 -67t-84.5 -20h-76v68h91q30 0 40 27l47 115l-208 506h82l87 -216l77 -196h4l77 196z" />
    <glyph glyph-name="z" unicode="z" 
d="M85 0v77l333 371h-322v68h409v-77l-333 -371h343v-68h-430z" />
    <glyph glyph-name="braceleft" unicode="{" 
d="M319 -138q-40 0 -62 23t-22 59v63q0 33 8 57.5t17.5 38t30.5 39.5q17 20 23.5 34.5t6.5 30.5q0 73 -138 73h-78v62h78q138 0 138 73q0 16 -6.5 30.5t-23.5 34.5q-3 4 -20 24.5t-26.5 49t-9.5 61.5v63q0 36 22 59t62 23h176v-62h-191v-77q0 -37 9.5 -57.5t30.5 -48.5
q24 -32 35.5 -52.5t11.5 -48.5q0 -41 -29.5 -67.5t-80.5 -33.5v-4q51 -7 80.5 -33.5t29.5 -67.5q0 -28 -11.5 -48.5t-35.5 -52.5q-21 -28 -30.5 -48.5t-9.5 -57.5v-77h191v-62h-176z" />
    <glyph glyph-name="bar" unicode="|" 
d="M265 -138v898h70v-898h-70z" />
    <glyph glyph-name="braceright" unicode="}" 
d="M281 760q40 0 62 -23t22 -59v-63q0 -33 -8 -57.5t-17.5 -38t-30.5 -39.5q-17 -20 -23.5 -34.5t-6.5 -30.5q0 -73 138 -73h78v-62h-78q-138 0 -138 -73q0 -16 6.5 -30.5t23.5 -34.5q3 -4 20 -24.5t26.5 -49t9.5 -61.5v-63q0 -36 -22 -59t-62 -23h-176v62h191v77
q0 37 -9.5 57.5t-30.5 48.5q-24 32 -35.5 52.5t-11.5 48.5q0 41 29.5 67.5t80.5 33.5v4q-51 7 -80.5 33.5t-29.5 67.5q0 28 11.5 48.5t35.5 52.5q21 28 30.5 48.5t9.5 57.5v77h-191v62h176z" />
    <glyph glyph-name="asciitilde" unicode="~" 
d="M353 245.5q-27 8.5 -58 23.5q-6 3 -28.5 14t-41.5 17t-34 6q-27 0 -45.5 -18t-32.5 -51l-61 25q14 50 50.5 80.5t89.5 30.5q28 0 55 -8.5t58 -23.5q6 -3 28.5 -14t41.5 -17t34 -6q27 0 45.5 18t32.5 51l61 -25q-14 -50 -50.5 -80.5t-89.5 -30.5q-28 0 -55 8.5z" />
    <glyph glyph-name="uni00A0" unicode="&#xa0;" 
 />
    <glyph glyph-name="exclamdown" unicode="&#xa1;" 
d="M364 515v-131h-130v131h130zM256 -182v203l28 262h32l28 -262v-203h-88z" />
    <glyph glyph-name="cent" unicode="&#xa2;" 
d="M279 -114v105q-92 13 -143.5 84t-51.5 183t51.5 183t143.5 84v105h62v-103q62 -5 104 -36.5t63 -81.5l-64 -34q-13 35 -39.5 56.5t-64.5 26.5v-400q82 9 119 89l57 -39q-22 -51 -66 -82.5t-109 -36.5v-103h-62zM198.5 113q28.5 -41 81.5 -52v394q-52 -11 -81 -52
t-29 -101v-88q0 -60 28.5 -101z" />
    <glyph glyph-name="sterling" unicode="&#xa3;" 
d="M75 0v105q79 32 79 132q0 22 -5 49h-97v69h78q-2 7 -12 36t-15 56t-5 52q0 62 28.5 110t81.5 74.5t124 26.5q144 0 218 -114l-63 -45q-29 43 -67 64.5t-93 21.5q-143 0 -143 -143q0 -35 7 -63.5t23 -75.5h201v-69h-182l3 -39q0 -56 -24.5 -98t-57.5 -64v-5h384v-80h-463z
" />
    <glyph glyph-name="yen" unicode="&#xa5;" 
d="M75 69h185v186h-185v69h141l-194 374h93l184 -374h4l184 374h91l-194 -374h141v-69h-185v-186h185v-69h-450v69z" />
    <glyph glyph-name="brokenbar" unicode="&#xa6;" 
d="M265 401v359h70v-359h-70zM265 -138v359h70v-359h-70z" />
    <glyph glyph-name="section" unicode="&#xa7;" 
d="M431.5 -112q-55.5 -43 -145.5 -43q-48 0 -92 13.5t-78 42.5l47 56q51 -43 124 -43q57 0 89 23.5t32 64.5q0 36 -26.5 59t-79.5 38l-64 18q-80 23 -118.5 62.5t-38.5 92.5q0 48 29 85t83 58v5q-38 23 -57 57t-19 75q0 72 55.5 115t145.5 43q48 0 92 -13.5t78 -42.5
l-47 -56q-51 43 -124 43q-57 0 -89 -23.5t-32 -64.5q0 -36 26.5 -59t79.5 -38l64 -18q80 -23 118.5 -62.5t38.5 -92.5q0 -48 -29 -85t-83 -58v-5q38 -23 57 -57t19 -75q0 -72 -55.5 -115zM415 331.5q-29 26.5 -91 43.5l-63 17q-17 4 -34 11q-67 -46 -67 -111q0 -42 29 -68.5
t91 -43.5l63 -17q17 -4 34 -11q67 46 67 111q0 42 -29 68.5z" />
    <glyph glyph-name="dieresis" unicode="&#xa8;" 
d="M445 722v-106h-106v106h106zM259 722v-106h-106v106h106z" />
    <glyph glyph-name="copyright" unicode="&#xa9;" horiz-adv-x="900" 
d="M280 33q-76 44 -120 126t-44 190t44 190t120 126t170 44t170 -44t120 -126t44 -190t-44 -190t-120 -126t-170 -44t-170 44zM587.5 84q60.5 35 94.5 96.5t34 138.5v60q0 77 -34 138.5t-94.5 96.5t-137.5 35t-137.5 -35t-94.5 -96.5t-34 -138.5v-60q0 -77 34 -138.5
t94.5 -96.5t137.5 -35t137.5 35zM337 207.5q-44 52.5 -44 141.5t44 141.5t121 52.5q48 0 81.5 -23t51.5 -64l-57 -32q-12 28 -30 42t-46 14q-42 0 -65.5 -27t-23.5 -72v-65q0 -45 23.5 -72t65.5 -27q30 0 49.5 15t35.5 45l54 -34q-18 -40 -53.5 -64t-85.5 -24
q-77 0 -121 52.5z" />
    <glyph glyph-name="ordfeminine" unicode="&#xaa;" 
d="M429 357q-32 0 -46.5 13.5t-16.5 39.5h-4q-13 -26 -41.5 -43.5t-71.5 -17.5q-53 0 -82 27t-29 72q0 52 39 78t112 26h73v28q0 78 -77 78q-33 0 -57 -14t-36 -38l-42 34q17 29 52 49.5t86 20.5q64 0 100.5 -33.5t36.5 -93.5v-170h38v-56h-34zM287 506q-42 0 -64 -12
t-22 -35v-10q0 -49 61 -49q41 0 70.5 18t29.5 47v41h-75z" />
    <glyph glyph-name="guillemotleft" unicode="&#xab;" 
d="M279 56l-206 174v80l206 174l25 -57l-148 -157l148 -157zM509 56l-206 174v80l206 174l25 -57l-148 -157l148 -157z" />
    <glyph glyph-name="logicalnot" unicode="&#xac;" 
d="M453 78v193h-391v68h460v-261h-69z" />
    <glyph glyph-name="uni00AD" unicode="&#xad;" 
d="M155 262v84h290v-84h-290z" />
    <glyph glyph-name="registered" unicode="&#xae;" 
d="M208 370q-42 24 -66.5 65.5t-24.5 92.5t24.5 92.5t66.5 65.5t92 24t92 -24t66.5 -65.5t24.5 -92.5t-24.5 -92.5t-66.5 -65.5t-92 -24t-92 24zM397 423q38 36 38 95v20q0 59 -38 95t-97 36t-97 -36t-38 -95v-20q0 -59 38 -95t97 -36t97 36zM270 436h-40v185h85
q28 0 43.5 -15.5t15.5 -41.5q0 -19 -10 -32.5t-27 -19.5l46 -76h-45l-39 70h-29v-70zM306 535q12 0 19 6.5t7 17.5v7q0 11 -7 17.5t-19 6.5h-36v-55h36z" />
    <glyph glyph-name="macron" unicode="&#xaf;" 
d="M160 705h280v-68h-280v68z" />
    <glyph glyph-name="degree" unicode="&#xb0;" 
d="M213.5 390.5q-39.5 22.5 -62 61.5t-22.5 87t22.5 87t62 61.5t86.5 22.5t86.5 -22.5t62 -61.5t22.5 -87t-22.5 -87t-62 -61.5t-86.5 -22.5t-86.5 22.5zM373 462.5q28 30.5 28 76.5t-28 76.5t-73 30.5t-73 -30.5t-28 -76.5t28 -76.5t73 -30.5t73 30.5z" />
    <glyph glyph-name="plusminus" unicode="&#xb1;" 
d="M262 152v199h-200v68h200v199h76v-199h200v-68h-200v-199h-76zM62 0v68h476v-68h-476z" />
    <glyph glyph-name="uni00B2" unicode="&#xb2;" 
d="M438 329h-272v57l130 105q31 25 46.5 48.5t15.5 49.5v6q0 26 -17 41.5t-48 15.5q-58 0 -78 -58l-54 20q13 40 46.5 65t89.5 25q60 0 94 -30t34 -79q0 -40 -24 -72.5t-71 -68.5l-97 -75h205v-50z" />
    <glyph glyph-name="uni00B3" unicode="&#xb3;" 
d="M282 546q37 0 56 14t19 38v4q0 25 -17.5 38.5t-47.5 13.5q-54 0 -83 -45l-43 34q43 61 128 61q58 0 94 -25.5t36 -69.5q0 -34 -22 -56t-56 -29v-3q37 -6 60.5 -29t23.5 -61q0 -49 -39 -78.5t-104 -29.5q-50 0 -82 18t-54 48l47 34q16 -24 36.5 -37t52.5 -13q37 0 57 16
t20 45v6q0 55 -77 55h-45v51h40z" />
    <glyph glyph-name="acute" unicode="&#xb4;" 
d="M307 585l-52 24l85 170l73 -35z" />
    <glyph glyph-name="uni00B5" unicode="&#xb5;" 
d="M98 -200v716h80v-317q0 -140 119 -140q52 0 88.5 25.5t36.5 73.5v358h80v-516h-80v84h-4q-20 -45 -52 -70.5t-88 -25.5q-75 0 -103 52h-4l7 -84v-156h-80z" />
    <glyph glyph-name="paragraph" unicode="&#xb6;" 
d="M270 246q-62 0 -113.5 29.5t-81.5 81t-30 115.5t30 115.5t81.5 81t113.5 29.5h234v-847h-72v783h-90v-783h-72v395z" />
    <glyph glyph-name="periodcentered" unicode="&#xb7;" 
d="M365 370v-131h-130v131h130z" />
    <glyph glyph-name="cedilla" unicode="&#xb8;" 
d="M250 -195q-25 12 -37 29l38 41q22 -28 61 -28q20 0 32 8t12 23t-14.5 25t-53.5 16l-28 4l19 97h50l-16 -81l3 -3q19 6 39 6q30 0 49 -17.5t19 -48.5q0 -41 -31.5 -62t-79.5 -21q-37 0 -62 12z" />
    <glyph glyph-name="uni00B9" unicode="&#xb9;" 
d="M176 329v50h109v265l-106 -55l-25 44l126 65h68v-319h98v-50h-270z" />
    <glyph glyph-name="ordmasculine" unicode="&#xba;" 
d="M182.5 397.5q-42.5 48.5 -42.5 132.5t42.5 132t117.5 48t117.5 -48t42.5 -132t-42.5 -132.5t-117.5 -48.5t-117.5 48.5zM367.5 429q23.5 27 23.5 71v59q0 44 -23.5 71t-67.5 27t-67.5 -27t-23.5 -71v-59q0 -44 23.5 -71t67.5 -27t67.5 27z" />
    <glyph glyph-name="guillemotright" unicode="&#xbb;" 
d="M66 113l148 157l-148 157l25 57l206 -174v-80l-206 -174zM296 113l148 157l-148 157l25 57l206 -174v-80l-206 -174z" />
    <glyph glyph-name="onequarter" unicode="&#xbc;" 
d="M39 413h94v230l-89 -45l-24 44l108 56h68v-285h83v-50h-240v50zM510 698h72l-160 -300h-72zM178 300h72l-160 -300h-72zM477 64h-163v59l142 212h82v-223h47v-48h-47v-64h-61v64zM477 112v170h-3l-114 -170h117z" />
    <glyph glyph-name="onehalf" unicode="&#xbd;" 
d="M39 413h94v230l-89 -45l-24 44l108 56h68v-285h83v-50h-240v50zM510 698h72l-160 -300h-72zM178 300h72l-160 -300h-72zM329 58l113 90q54 44 54 90v5q0 20 -14 33t-39 13t-41 -14t-26 -41l-53 22q12 38 43.5 61.5t81.5 23.5q54 0 84 -27.5t30 -69.5q0 -38 -23.5 -70
t-66.5 -65l-77 -59h180v-50h-246v58z" />
    <glyph glyph-name="threequarters" unicode="&#xbe;" 
d="M17 428l47 33q14 -25 32 -39t47 -14t45.5 13.5t16.5 36.5v7q0 22 -18 34t-51 12h-35v50h35q30 0 46.5 11.5t16.5 29.5v7q0 20 -15 32t-41 12q-47 0 -72 -41l-42 34q19 28 47 43t69 15q53 0 85.5 -23.5t32.5 -63.5q0 -31 -20 -51t-50 -26v-4q34 -6 55 -26t21 -54
q0 -45 -35 -72t-91 -27q-86 0 -126 71zM510 698h72l-160 -300h-72zM178 300h72l-160 -300h-72zM477 64h-163v59l142 212h82v-223h47v-48h-47v-64h-61v64zM477 112v170h-3l-114 -170h117z" />
    <glyph glyph-name="questiondown" unicode="&#xbf;" 
d="M384 515v-131h-130v131h130zM147 -142.5q-57 51.5 -57 137.5q0 87 56 139t136 66v101h79v-157q-88 -4 -136 -38.5t-48 -100.5v-14q0 -55 33 -83.5t92 -28.5q57 0 94.5 32t51.5 85l75 -28q-21 -72 -77.5 -117t-146.5 -45q-95 0 -152 51.5z" />
    <glyph glyph-name="Agrave" unicode="&#xc0;" 
d="M481 0l-59 199h-245l-59 -199h-87l214 698h111l214 -698h-89zM304 609h-9l-98 -337h205zM187 914l73 35l85 -170l-52 -24z" />
    <glyph glyph-name="Aacute" unicode="&#xc1;" 
d="M481 0l-59 199h-245l-59 -199h-87l214 698h111l214 -698h-89zM304 609h-9l-98 -337h205zM307 755l-52 24l85 170l73 -35z" />
    <glyph glyph-name="Acircumflex" unicode="&#xc2;" 
d="M481 0l-59 199h-245l-59 -199h-87l214 698h111l214 -698h-89zM304 609h-9l-98 -337h205zM350 935l111 -143l-45 -31l-117 117l-117 -117l-43 31l111 143h100z" />
    <glyph glyph-name="Atilde" unicode="&#xc3;" 
d="M481 0l-59 199h-245l-59 -199h-87l214 698h111l214 -698h-89zM304 609h-9l-98 -337h205zM336 788q-16 6 -28 12t-15 8q-45 24 -70 24q-15 0 -28.5 -6.5t-29.5 -20.5l-33 40q15 23 39 38t56 15q21 0 37 -6t28 -12t15 -8q45 -24 70 -24q16 0 29 6.5t29 20.5l33 -40
q-15 -23 -39 -38t-56 -15q-21 0 -37 6z" />
    <glyph glyph-name="Adieresis" unicode="&#xc4;" 
d="M481 0l-59 199h-245l-59 -199h-87l214 698h111l214 -698h-89zM304 609h-9l-98 -337h205zM445 892v-106h-106v106h106zM259 892v-106h-106v106h106z" />
    <glyph glyph-name="Aring" unicode="&#xc5;" 
d="M481 0l-59 199h-245l-59 -199h-87l214 698h111l214 -698h-89zM304 609h-9l-98 -337h205zM217.5 779q-33.5 33 -33.5 82t33.5 82t82.5 33t82.5 -33t33.5 -82t-33.5 -82t-82.5 -33t-82.5 33zM342.5 809.5q15.5 14.5 15.5 40.5v22q0 26 -15.5 40.5t-42.5 14.5t-42.5 -14.5
t-15.5 -40.5v-22q0 -26 15.5 -40.5t42.5 -14.5t42.5 14.5z" />
    <glyph glyph-name="AE" unicode="&#xc6;" horiz-adv-x="900" 
d="M219 205l-102 -205h-86l357 698h462v-74h-323v-234h303v-74h-303v-242h323v-74h-406v205h-225zM254 279h190v345h-13z" />
    <glyph glyph-name="Ccedilla" unicode="&#xc7;" 
d="M200.5 575.5q-41.5 -61.5 -41.5 -169.5v-114q0 -108 41.5 -169.5t122.5 -61.5q58 0 89.5 29t53.5 84l72 -33q-31 -69 -78 -110t-130 -43l-9 -49l3 -3q19 6 39 6q30 0 49 -17.5t19 -48.5q0 -41 -31.5 -62t-79.5 -21q-37 0 -62 12t-37 29l38 41q22 -28 61 -28q20 0 32 8
t12 23t-14.5 25t-53.5 16l-28 4l13 68q-106 15 -158.5 106t-52.5 252q0 176 63.5 268.5t189.5 92.5q87 0 135.5 -41.5t79.5 -111.5l-72 -33q-22 55 -53.5 84t-89.5 29q-81 0 -122.5 -61.5z" />
    <glyph glyph-name="Egrave" unicode="&#xc8;" 
d="M90 0v698h430v-73h-346v-235h334v-73h-334v-244h346v-73h-430zM192 914l73 35l85 -170l-52 -24z" />
    <glyph glyph-name="Eacute" unicode="&#xc9;" 
d="M90 0v698h430v-73h-346v-235h334v-73h-334v-244h346v-73h-430zM312 755l-52 24l85 170l73 -35z" />
    <glyph glyph-name="Ecircumflex" unicode="&#xca;" 
d="M90 0v698h430v-73h-346v-235h334v-73h-334v-244h346v-73h-430zM355 935l111 -143l-45 -31l-117 117l-117 -117l-43 31l111 143h100z" />
    <glyph glyph-name="Edieresis" unicode="&#xcb;" 
d="M90 0v698h430v-73h-346v-235h334v-73h-334v-244h346v-73h-430zM450 892v-106h-106v106h106zM264 892v-106h-106v106h106z" />
    <glyph glyph-name="Igrave" unicode="&#xcc;" horiz-adv-x="300" 
d="M108 698h84v-698h-84v698zM37 914l73 35l85 -170l-52 -24z" />
    <glyph glyph-name="Iacute" unicode="&#xcd;" horiz-adv-x="300" 
d="M108 698h84v-698h-84v698zM157 755l-52 24l85 170l73 -35z" />
    <glyph glyph-name="Icircumflex" unicode="&#xce;" horiz-adv-x="300" 
d="M108 698h84v-698h-84v698zM200 935l111 -143l-45 -31l-117 117l-117 -117l-43 31l111 143h100z" />
    <glyph glyph-name="Idieresis" unicode="&#xcf;" horiz-adv-x="300" 
d="M108 698h84v-698h-84v698zM295 892v-106h-106v106h106zM109 892v-106h-106v106h106z" />
    <glyph glyph-name="Eth" unicode="&#xd0;" 
d="M102 336h-80v64h80v298h188q127 0 190.5 -88t63.5 -261t-63.5 -261t-190.5 -88h-188v336zM286 73q82 0 125.5 58t43.5 164v108q0 106 -43.5 164t-125.5 58h-100v-225h141v-64h-141v-263h100z" />
    <glyph glyph-name="Ntilde" unicode="&#xd1;" 
d="M163 591h-7v-591h-76v698h119l238 -585h7v585h76v-698h-119zM336 788q-16 6 -28 12t-15 8q-45 24 -70 24q-15 0 -28.5 -6.5t-29.5 -20.5l-33 40q15 23 39 38t56 15q21 0 37 -6t28 -12t15 -8q45 -24 70 -24q16 0 29 6.5t29 20.5l33 -40q-15 -23 -39 -38t-56 -15
q-21 0 -37 6z" />
    <glyph glyph-name="Ograve" unicode="&#xd2;" 
d="M56 349q0 361 244 361t244 -361t-244 -361t-244 361zM417.5 121.5q37.5 60.5 37.5 170.5v114q0 110 -37.5 170.5t-117.5 60.5t-117.5 -60.5t-37.5 -170.5v-114q0 -110 37.5 -170.5t117.5 -60.5t117.5 60.5zM187 914l73 35l85 -170l-52 -24z" />
    <glyph glyph-name="Oacute" unicode="&#xd3;" 
d="M56 349q0 361 244 361t244 -361t-244 -361t-244 361zM417.5 121.5q37.5 60.5 37.5 170.5v114q0 110 -37.5 170.5t-117.5 60.5t-117.5 -60.5t-37.5 -170.5v-114q0 -110 37.5 -170.5t117.5 -60.5t117.5 60.5zM307 755l-52 24l85 170l73 -35z" />
    <glyph glyph-name="Ocircumflex" unicode="&#xd4;" 
d="M56 349q0 361 244 361t244 -361t-244 -361t-244 361zM417.5 121.5q37.5 60.5 37.5 170.5v114q0 110 -37.5 170.5t-117.5 60.5t-117.5 -60.5t-37.5 -170.5v-114q0 -110 37.5 -170.5t117.5 -60.5t117.5 60.5zM350 935l111 -143l-45 -31l-117 117l-117 -117l-43 31l111 143
h100z" />
    <glyph glyph-name="Otilde" unicode="&#xd5;" 
d="M56 349q0 361 244 361t244 -361t-244 -361t-244 361zM417.5 121.5q37.5 60.5 37.5 170.5v114q0 110 -37.5 170.5t-117.5 60.5t-117.5 -60.5t-37.5 -170.5v-114q0 -110 37.5 -170.5t117.5 -60.5t117.5 60.5zM336 788q-16 6 -28 12t-15 8q-45 24 -70 24q-15 0 -28.5 -6.5
t-29.5 -20.5l-33 40q15 23 39 38t56 15q21 0 37 -6t28 -12t15 -8q45 -24 70 -24q16 0 29 6.5t29 20.5l33 -40q-15 -23 -39 -38t-56 -15q-21 0 -37 6z" />
    <glyph glyph-name="Odieresis" unicode="&#xd6;" 
d="M56 349q0 361 244 361t244 -361t-244 -361t-244 361zM417.5 121.5q37.5 60.5 37.5 170.5v114q0 110 -37.5 170.5t-117.5 60.5t-117.5 -60.5t-37.5 -170.5v-114q0 -110 37.5 -170.5t117.5 -60.5t117.5 60.5zM445 892v-106h-106v106h106zM259 892v-106h-106v106h106z" />
    <glyph glyph-name="multiply" unicode="&#xd7;" 
d="M300 256l-163 -163l-49 49l163 163l-163 163l49 49l163 -163l163 163l49 -49l-163 -163l163 -163l-49 -49z" />
    <glyph glyph-name="Oslash" unicode="&#xd8;" 
d="M154 36l-47 -80l-60 36l60 102q-51 89 -51 255q0 361 244 361q91 0 146 -48l47 80l60 -36l-60 -102q51 -89 51 -255q0 -361 -244 -361q-90 0 -146 48zM159 174l248 417q-40 46 -107 46q-80 0 -117.5 -60.5t-37.5 -170.5v-114q0 -72 14 -118zM417.5 121.5
q37.5 60.5 37.5 170.5v114q0 72 -14 118l-248 -417q40 -46 107 -46q80 0 117.5 60.5z" />
    <glyph glyph-name="Ugrave" unicode="&#xd9;" 
d="M164 698v-419q0 -81 7.5 -124.5t36.5 -68.5t92 -25t92 25t36.5 68.5t7.5 124.5v419h84v-399q0 -113 -16.5 -178.5t-63.5 -99t-140 -33.5t-140 33.5t-63.5 99t-16.5 178.5v399h84zM187 914l73 35l85 -170l-52 -24z" />
    <glyph glyph-name="Uacute" unicode="&#xda;" 
d="M164 698v-419q0 -81 7.5 -124.5t36.5 -68.5t92 -25t92 25t36.5 68.5t7.5 124.5v419h84v-399q0 -113 -16.5 -178.5t-63.5 -99t-140 -33.5t-140 33.5t-63.5 99t-16.5 178.5v399h84zM307 755l-52 24l85 170l73 -35z" />
    <glyph glyph-name="Ucircumflex" unicode="&#xdb;" 
d="M164 698v-419q0 -81 7.5 -124.5t36.5 -68.5t92 -25t92 25t36.5 68.5t7.5 124.5v419h84v-399q0 -113 -16.5 -178.5t-63.5 -99t-140 -33.5t-140 33.5t-63.5 99t-16.5 178.5v399h84zM350 935l111 -143l-45 -31l-117 117l-117 -117l-43 31l111 143h100z" />
    <glyph glyph-name="Udieresis" unicode="&#xdc;" 
d="M164 698v-419q0 -81 7.5 -124.5t36.5 -68.5t92 -25t92 25t36.5 68.5t7.5 124.5v419h84v-399q0 -113 -16.5 -178.5t-63.5 -99t-140 -33.5t-140 33.5t-63.5 99t-16.5 178.5v399h84zM445 892v-106h-106v106h106zM259 892v-106h-106v106h106z" />
    <glyph glyph-name="Yacute" unicode="&#xdd;" 
d="M258 0v274l-241 424h96l100 -182l85 -159h4l187 341h94l-241 -424v-274h-84zM307 755l-52 24l85 170l73 -35z" />
    <glyph glyph-name="Thorn" unicode="&#xde;" 
d="M90 0v698h84v-145h170q95 0 147 -53t52 -146t-52 -146t-147 -53h-170v-155h-84zM174 228h170q53 0 82.5 26t29.5 74v52q0 48 -29.5 74t-82.5 26h-170v-252z" />
    <glyph glyph-name="germandbls" unicode="&#xdf;" 
d="M102 448h-74v68h74v5q0 106 54 168.5t150 62.5q95 0 146.5 -62t51.5 -169v-61h-47q-62 0 -93 -19.5t-31 -63.5q0 -33 18 -48.5t59 -29.5l24 -8q74 -24 106 -57t32 -94q0 -75 -45 -113.5t-127 -38.5q-55 0 -95 18t-71 58l51 46q43 -58 120 -58q46 0 69 19.5t23 60.5
q0 68 -68 89l-25 8q-49 16 -78 30t-48.5 41.5t-19.5 73.5q0 69 45 106.5t123 39.5v8q0 80 -29.5 118.5t-91.5 38.5q-63 0 -93.5 -39t-30.5 -118v-528h-79v448z" />
    <glyph glyph-name="agrave" unicode="&#xe0;" 
d="M495 0q-81 0 -92 84h-5q-36 -96 -155 -96q-81 0 -129 42t-48 115q0 150 222 150h110v51q0 56 -32 85t-91 29q-94 0 -138 -76l-54 40q21 44 72 74t125 30q91 0 144.5 -46.5t53.5 -127.5v-248q0 -15 10.5 -25.5t25.5 -10.5h36v-70h-55zM358 82.5q40 27.5 40 67.5v85h-110
q-138 0 -138 -78v-21q0 -39 28.5 -60t78.5 -21q61 0 101 27.5zM170 744l73 35l85 -170l-52 -24z" />
    <glyph glyph-name="aacute" unicode="&#xe1;" 
d="M495 0q-81 0 -92 84h-5q-36 -96 -155 -96q-81 0 -129 42t-48 115q0 150 222 150h110v51q0 56 -32 85t-91 29q-94 0 -138 -76l-54 40q21 44 72 74t125 30q91 0 144.5 -46.5t53.5 -127.5v-248q0 -15 10.5 -25.5t25.5 -10.5h36v-70h-55zM358 82.5q40 27.5 40 67.5v85h-110
q-138 0 -138 -78v-21q0 -39 28.5 -60t78.5 -21q61 0 101 27.5zM290 585l-52 24l85 170l73 -35z" />
    <glyph glyph-name="acircumflex" unicode="&#xe2;" 
d="M495 0q-81 0 -92 84h-5q-36 -96 -155 -96q-81 0 -129 42t-48 115q0 150 222 150h110v51q0 56 -32 85t-91 29q-94 0 -138 -76l-54 40q21 44 72 74t125 30q91 0 144.5 -46.5t53.5 -127.5v-248q0 -15 10.5 -25.5t25.5 -10.5h36v-70h-55zM358 82.5q40 27.5 40 67.5v85h-110
q-138 0 -138 -78v-21q0 -39 28.5 -60t78.5 -21q61 0 101 27.5zM333 765l111 -143l-45 -31l-117 117l-117 -117l-43 31l111 143h100z" />
    <glyph glyph-name="atilde" unicode="&#xe3;" 
d="M495 0q-81 0 -92 84h-5q-36 -96 -155 -96q-81 0 -129 42t-48 115q0 150 222 150h110v51q0 56 -32 85t-91 29q-94 0 -138 -76l-54 40q21 44 72 74t125 30q91 0 144.5 -46.5t53.5 -127.5v-248q0 -15 10.5 -25.5t25.5 -10.5h36v-70h-55zM358 82.5q40 27.5 40 67.5v85h-110
q-138 0 -138 -78v-21q0 -39 28.5 -60t78.5 -21q61 0 101 27.5zM319 618q-16 6 -28 12t-15 8q-45 24 -70 24q-15 0 -28.5 -6.5t-29.5 -20.5l-33 40q15 23 39 38t56 15q21 0 37 -6t28 -12t15 -8q45 -24 70 -24q16 0 29 6.5t29 20.5l33 -40q-15 -23 -39 -38t-56 -15
q-21 0 -37 6z" />
    <glyph glyph-name="adieresis" unicode="&#xe4;" 
d="M495 0q-81 0 -92 84h-5q-36 -96 -155 -96q-81 0 -129 42t-48 115q0 150 222 150h110v51q0 56 -32 85t-91 29q-94 0 -138 -76l-54 40q21 44 72 74t125 30q91 0 144.5 -46.5t53.5 -127.5v-248q0 -15 10.5 -25.5t25.5 -10.5h36v-70h-55zM358 82.5q40 27.5 40 67.5v85h-110
q-138 0 -138 -78v-21q0 -39 28.5 -60t78.5 -21q61 0 101 27.5zM428 722v-106h-106v106h106zM242 722v-106h-106v106h106z" />
    <glyph glyph-name="aring" unicode="&#xe5;" 
d="M495 0q-81 0 -92 84h-5q-36 -96 -155 -96q-81 0 -129 42t-48 115q0 150 222 150h110v51q0 56 -32 85t-91 29q-94 0 -138 -76l-54 40q21 44 72 74t125 30q91 0 144.5 -46.5t53.5 -127.5v-248q0 -15 10.5 -25.5t25.5 -10.5h36v-70h-55zM358 82.5q40 27.5 40 67.5v85h-110
q-138 0 -138 -78v-21q0 -39 28.5 -60t78.5 -21q61 0 101 27.5zM200.5 609q-33.5 33 -33.5 82t33.5 82t82.5 33t82.5 -33t33.5 -82t-33.5 -82t-82.5 -33t-82.5 33zM325.5 639.5q15.5 14.5 15.5 40.5v22q0 26 -15.5 40.5t-42.5 14.5t-42.5 -14.5t-15.5 -40.5v-22
q0 -26 15.5 -40.5t42.5 -14.5t42.5 14.5z" />
    <glyph glyph-name="ae" unicode="&#xe6;" horiz-adv-x="900" 
d="M761 146l57 -40q-25 -54 -77 -86t-118 -32q-51 0 -92.5 18.5t-67 45.5t-31.5 52h-6q-5 -24 -29.5 -51t-66 -46t-95.5 -19q-78 0 -124.5 42t-46.5 112q0 75 56 115.5t164 40.5h102v48q0 55 -30.5 84t-88.5 29q-48 0 -79.5 -19t-54.5 -57l-48 44q22 44 69.5 72.5
t114.5 28.5q78 0 114.5 -35.5t47.5 -79.5h6q6 25 31.5 51.5t65.5 45t89 18.5q64 0 112.5 -32.5t75 -89.5t26.5 -130v-38h-371v-24q0 -68 41.5 -112t111.5 -44q99 0 142 88zM751 309q0 68 -37.5 110t-99.5 42q-65 0 -106.5 -44t-41.5 -112v-7h285v11zM180.5 217
q-32.5 -21 -32.5 -60v-21q0 -38 27.5 -59t75.5 -21q58 0 96.5 27t38.5 67v88h-106q-67 0 -99.5 -21z" />
    <glyph glyph-name="ccedilla" unicode="&#xe7;" 
d="M437 496q48 -32 71 -87l-64 -34q-14 40 -47 62t-80 22q-69 0 -108 -43.5t-39 -113.5v-88q0 -70 39 -113.5t110 -43.5q98 0 140 90l57 -39q-24 -54 -71.5 -86t-118.5 -34l-10 -49l3 -3q20 6 39 6q30 0 49 -17.5t19 -48.5q0 -41 -31.5 -62t-79.5 -21q-37 0 -62 12t-37 29
l38 41q22 -28 61 -28q20 0 32 8t12 23t-14.5 25t-53.5 16l-28 4l14 68q-91 13 -142 84.5t-51 182.5q0 124 62 197t171 73q72 0 120 -32z" />
    <glyph glyph-name="egrave" unicode="&#xe8;" 
d="M181 21q-55 33 -84.5 94t-29.5 142t30 142.5t83.5 95t123.5 33.5q68 0 120 -32.5t80.5 -89.5t28.5 -130v-38h-382v-24q0 -69 43 -113t115 -44q51 0 89 23.5t59 66.5l59 -40q-24 -54 -78.5 -86.5t-128.5 -32.5q-73 0 -128 33zM226 441.5q-35 -20.5 -55 -56.5t-20 -80v-7
h296v11q0 68 -39.5 110.5t-103.5 42.5q-43 0 -78 -20.5zM189 744l73 35l85 -170l-52 -24z" />
    <glyph glyph-name="eacute" unicode="&#xe9;" 
d="M181 21q-55 33 -84.5 94t-29.5 142t30 142.5t83.5 95t123.5 33.5q68 0 120 -32.5t80.5 -89.5t28.5 -130v-38h-382v-24q0 -69 43 -113t115 -44q51 0 89 23.5t59 66.5l59 -40q-24 -54 -78.5 -86.5t-128.5 -32.5q-73 0 -128 33zM226 441.5q-35 -20.5 -55 -56.5t-20 -80v-7
h296v11q0 68 -39.5 110.5t-103.5 42.5q-43 0 -78 -20.5zM309 585l-52 24l85 170l73 -35z" />
    <glyph glyph-name="ecircumflex" unicode="&#xea;" 
d="M181 21q-55 33 -84.5 94t-29.5 142t30 142.5t83.5 95t123.5 33.5q68 0 120 -32.5t80.5 -89.5t28.5 -130v-38h-382v-24q0 -69 43 -113t115 -44q51 0 89 23.5t59 66.5l59 -40q-24 -54 -78.5 -86.5t-128.5 -32.5q-73 0 -128 33zM226 441.5q-35 -20.5 -55 -56.5t-20 -80v-7
h296v11q0 68 -39.5 110.5t-103.5 42.5q-43 0 -78 -20.5zM352 765l111 -143l-45 -31l-117 117l-117 -117l-43 31l111 143h100z" />
    <glyph glyph-name="edieresis" unicode="&#xeb;" 
d="M181 21q-55 33 -84.5 94t-29.5 142t30 142.5t83.5 95t123.5 33.5q68 0 120 -32.5t80.5 -89.5t28.5 -130v-38h-382v-24q0 -69 43 -113t115 -44q51 0 89 23.5t59 66.5l59 -40q-24 -54 -78.5 -86.5t-128.5 -32.5q-73 0 -128 33zM226 441.5q-35 -20.5 -55 -56.5t-20 -80v-7
h296v11q0 68 -39.5 110.5t-103.5 42.5q-43 0 -78 -20.5zM447 722v-106h-106v106h106zM261 722v-106h-106v106h106z" />
    <glyph glyph-name="igrave" unicode="&#xec;" horiz-adv-x="300" 
d="M110 516h80v-516h-80v516zM37 744l73 35l85 -170l-52 -24z" />
    <glyph glyph-name="iacute" unicode="&#xed;" horiz-adv-x="300" 
d="M110 516h80v-516h-80v516zM157 585l-52 24l85 170l73 -35z" />
    <glyph glyph-name="icircumflex" unicode="&#xee;" horiz-adv-x="300" 
d="M110 516h80v-516h-80v516zM200 765l111 -143l-45 -31l-117 117l-117 -117l-43 31l111 143h100z" />
    <glyph glyph-name="idieresis" unicode="&#xef;" horiz-adv-x="300" 
d="M110 516h80v-516h-80v516zM295 722v-106h-106v106h106zM109 722v-106h-106v106h106z" />
    <glyph glyph-name="eth" unicode="&#xf0;" 
d="M459 708l-87 -61q72 -70 117 -165t45 -216q0 -137 -61 -207.5t-170 -70.5q-111 0 -174 69.5t-63 188.5q0 77 27.5 135.5t76 90.5t110.5 32q107 0 165 -96l4 2q-46 115 -134 198l-99 -70l-38 45l92 64q-59 47 -143 93h126q45 -29 74 -52l94 65zM409 96q40 39 40 115v70
q0 76 -40 115t-109 39t-109 -39t-40 -115v-70q0 -76 40 -115t109 -39t109 39z" />
    <glyph glyph-name="ntilde" unicode="&#xf1;" 
d="M98 0v516h80v-84h4q41 96 147 96q82 0 130.5 -52t48.5 -145v-331h-80v317q0 70 -31 105t-91 35q-53 0 -90.5 -25.5t-37.5 -73.5v-358h-80zM339 618q-16 6 -28 12t-15 8q-45 24 -70 24q-15 0 -28.5 -6.5t-29.5 -20.5l-33 40q15 23 39 38t56 15q21 0 37 -6t28 -12t15 -8
q45 -24 70 -24q16 0 29 6.5t29 20.5l33 -40q-15 -23 -39 -38t-56 -15q-21 0 -37 6z" />
    <glyph glyph-name="ograve" unicode="&#xf2;" 
d="M175.5 21q-52.5 33 -81 94t-28.5 143t28.5 143t81 94t124.5 33t124.5 -33t81 -94t28.5 -143t-28.5 -143t-81 -94t-124.5 -33t-124.5 33zM409 98.5q40 41.5 40 122.5v74q0 81 -40 122.5t-109 41.5t-109 -41.5t-40 -122.5v-74q0 -81 40 -122.5t109 -41.5t109 41.5zM187 744
l73 35l85 -170l-52 -24z" />
    <glyph glyph-name="oacute" unicode="&#xf3;" 
d="M175.5 21q-52.5 33 -81 94t-28.5 143t28.5 143t81 94t124.5 33t124.5 -33t81 -94t28.5 -143t-28.5 -143t-81 -94t-124.5 -33t-124.5 33zM409 98.5q40 41.5 40 122.5v74q0 81 -40 122.5t-109 41.5t-109 -41.5t-40 -122.5v-74q0 -81 40 -122.5t109 -41.5t109 41.5zM307 585
l-52 24l85 170l73 -35z" />
    <glyph glyph-name="ocircumflex" unicode="&#xf4;" 
d="M175.5 21q-52.5 33 -81 94t-28.5 143t28.5 143t81 94t124.5 33t124.5 -33t81 -94t28.5 -143t-28.5 -143t-81 -94t-124.5 -33t-124.5 33zM409 98.5q40 41.5 40 122.5v74q0 81 -40 122.5t-109 41.5t-109 -41.5t-40 -122.5v-74q0 -81 40 -122.5t109 -41.5t109 41.5zM350 765
l111 -143l-45 -31l-117 117l-117 -117l-43 31l111 143h100z" />
    <glyph glyph-name="otilde" unicode="&#xf5;" 
d="M175.5 21q-52.5 33 -81 94t-28.5 143t28.5 143t81 94t124.5 33t124.5 -33t81 -94t28.5 -143t-28.5 -143t-81 -94t-124.5 -33t-124.5 33zM409 98.5q40 41.5 40 122.5v74q0 81 -40 122.5t-109 41.5t-109 -41.5t-40 -122.5v-74q0 -81 40 -122.5t109 -41.5t109 41.5zM336 618
q-16 6 -28 12t-15 8q-45 24 -70 24q-15 0 -28.5 -6.5t-29.5 -20.5l-33 40q15 23 39 38t56 15q21 0 37 -6t28 -12t15 -8q45 -24 70 -24q16 0 29 6.5t29 20.5l33 -40q-15 -23 -39 -38t-56 -15q-21 0 -37 6z" />
    <glyph glyph-name="odieresis" unicode="&#xf6;" 
d="M175.5 21q-52.5 33 -81 94t-28.5 143t28.5 143t81 94t124.5 33t124.5 -33t81 -94t28.5 -143t-28.5 -143t-81 -94t-124.5 -33t-124.5 33zM409 98.5q40 41.5 40 122.5v74q0 81 -40 122.5t-109 41.5t-109 -41.5t-40 -122.5v-74q0 -81 40 -122.5t109 -41.5t109 41.5zM445 722
v-106h-106v106h106zM259 722v-106h-106v106h106z" />
    <glyph glyph-name="divide" unicode="&#xf7;" 
d="M351 558v-106h-106v106h106zM62 271v68h476v-68h-476zM349 168v-106h-106v106h106z" />
    <glyph glyph-name="oslash" unicode="&#xf8;" 
d="M47 -6l69 84q-50 72 -50 180q0 82 28.5 143t81 94t124.5 33q85 0 145 -49l63 77l45 -34l-69 -84q50 -72 50 -180q0 -82 -28.5 -143t-81 -94t-124.5 -33q-85 0 -145 49l-63 -77zM191 417.5q-40 -41.5 -40 -122.5v-74q0 -50 15 -83l235 287q-37 34 -101 34
q-69 0 -109 -41.5zM409 98.5q40 41.5 40 122.5v74q0 50 -15 83l-235 -287q37 -34 101 -34q69 0 109 41.5z" />
    <glyph glyph-name="ugrave" unicode="&#xf9;" 
d="M422 84h-4q-41 -96 -147 -96q-82 0 -130.5 52t-48.5 145v331h80v-317q0 -70 31 -105t91 -35q53 0 90.5 25.5t37.5 73.5v358h80v-516h-80v84zM184 744l73 35l85 -170l-52 -24z" />
    <glyph glyph-name="uacute" unicode="&#xfa;" 
d="M422 84h-4q-41 -96 -147 -96q-82 0 -130.5 52t-48.5 145v331h80v-317q0 -70 31 -105t91 -35q53 0 90.5 25.5t37.5 73.5v358h80v-516h-80v84zM304 585l-52 24l85 170l73 -35z" />
    <glyph glyph-name="ucircumflex" unicode="&#xfb;" 
d="M422 84h-4q-41 -96 -147 -96q-82 0 -130.5 52t-48.5 145v331h80v-317q0 -70 31 -105t91 -35q53 0 90.5 25.5t37.5 73.5v358h80v-516h-80v84zM347 765l111 -143l-45 -31l-117 117l-117 -117l-43 31l111 143h100z" />
    <glyph glyph-name="udieresis" unicode="&#xfc;" 
d="M422 84h-4q-41 -96 -147 -96q-82 0 -130.5 52t-48.5 145v331h80v-317q0 -70 31 -105t91 -35q53 0 90.5 25.5t37.5 73.5v358h80v-516h-80v84zM442 722v-106h-106v106h106zM256 722v-106h-106v106h106z" />
    <glyph glyph-name="yacute" unicode="&#xfd;" 
d="M467 516h80l-256 -629q-19 -47 -47.5 -67t-84.5 -20h-76v68h91q30 0 40 27l47 115l-208 506h82l87 -216l77 -196h4l77 196zM307 585l-52 24l85 170l73 -35z" />
    <glyph glyph-name="thorn" unicode="&#xfe;" 
d="M95 740h80v-308h4q50 96 159 96q95 0 148.5 -71.5t53.5 -198.5t-53.5 -198.5t-148.5 -71.5q-109 0 -159 96h-4v-284h-80v940zM415 101q39 42 39 113v88q0 71 -39 113t-108 42q-56 0 -94 -28t-38 -78v-186q0 -50 38 -78t94 -28q69 0 108 42z" />
    <glyph glyph-name="ydieresis" unicode="&#xff;" 
d="M467 516h80l-256 -629q-19 -47 -47.5 -67t-84.5 -20h-76v68h91q30 0 40 27l47 115l-208 506h82l87 -216l77 -196h4l77 196zM445 722v-106h-106v106h106zM259 722v-106h-106v106h106z" />
    <glyph glyph-name="Amacron" unicode="&#x100;" 
d="M481 0l-59 199h-245l-59 -199h-87l214 698h111l214 -698h-89zM304 609h-9l-98 -337h205zM160 875h280v-68h-280v68z" />
    <glyph glyph-name="amacron" unicode="&#x101;" 
d="M495 0q-81 0 -92 84h-5q-36 -96 -155 -96q-81 0 -129 42t-48 115q0 150 222 150h110v51q0 56 -32 85t-91 29q-94 0 -138 -76l-54 40q21 44 72 74t125 30q91 0 144.5 -46.5t53.5 -127.5v-248q0 -15 10.5 -25.5t25.5 -10.5h36v-70h-55zM358 82.5q40 27.5 40 67.5v85h-110
q-138 0 -138 -78v-21q0 -39 28.5 -60t78.5 -21q61 0 101 27.5zM143 705h280v-68h-280v68z" />
    <glyph glyph-name="Abreve" unicode="&#x102;" 
d="M481 0l-59 199h-245l-59 -199h-87l214 698h111l214 -698h-89zM304 609h-9l-98 -337h205zM194 808q-35 43 -55 108l51 22l21 -34q19 -31 29.5 -45t24.5 -21.5t35 -7.5t35 7.5t24.5 21.5t29.5 45l21 34l51 -22q-20 -65 -55 -108t-106 -43t-106 43z" />
    <glyph glyph-name="abreve" unicode="&#x103;" 
d="M495 0q-81 0 -92 84h-5q-36 -96 -155 -96q-81 0 -129 42t-48 115q0 150 222 150h110v51q0 56 -32 85t-91 29q-94 0 -138 -76l-54 40q21 44 72 74t125 30q91 0 144.5 -46.5t53.5 -127.5v-248q0 -15 10.5 -25.5t25.5 -10.5h36v-70h-55zM358 82.5q40 27.5 40 67.5v85h-110
q-138 0 -138 -78v-21q0 -39 28.5 -60t78.5 -21q61 0 101 27.5zM177 638q-35 43 -55 108l51 22l21 -34q19 -31 29.5 -45t24.5 -21.5t35 -7.5t35 7.5t24.5 21.5t29.5 45l21 34l51 -22q-20 -65 -55 -108t-106 -43t-106 43z" />
    <glyph glyph-name="Aogonek" unicode="&#x104;" 
d="M245 698h111l214 -698q-69 -44 -91 -69.5t-22 -44.5t12 -28t30 -9q31 0 52 26l40 -41q-11 -18 -34.5 -29.5t-58.5 -11.5q-48 0 -78.5 21t-30.5 59q0 69 115 124l-1 3h-22l-59 199h-245l-59 -199h-87zM304 609h-9l-98 -337h205z" />
    <glyph glyph-name="aogonek" unicode="&#x105;" 
d="M550 0q-69 -44 -91 -69.5t-22 -44.5t12 -28t30 -9q31 0 52 26l40 -41q-11 -18 -34.5 -29.5t-58.5 -11.5q-48 0 -78.5 21t-30.5 59q0 69 115 124l-1 3q-36 3 -56.5 25.5t-23.5 58.5h-5q-36 -96 -155 -96q-81 0 -129 42t-48 115q0 150 222 150h110v51q0 56 -32 85t-92 29
q-93 0 -137 -76l-54 40q21 44 72 74t125 30q91 0 144.5 -46.5t53.5 -127.5v-284h72v-70zM288 235q-138 0 -138 -78v-21q0 -39 28.5 -60t78.5 -21q61 0 101 27.5t40 67.5v85h-110z" />
    <glyph glyph-name="Cacute" unicode="&#x106;" 
d="M133.5 80.5q-63.5 92.5 -63.5 268.5t63.5 268.5t189.5 92.5q87 0 135.5 -41.5t79.5 -111.5l-72 -33q-22 55 -53.5 84t-89.5 29q-81 0 -122.5 -61.5t-41.5 -169.5v-114q0 -108 41.5 -169.5t122.5 -61.5q58 0 89.5 29t53.5 84l72 -33q-31 -70 -79.5 -111.5t-135.5 -41.5
q-126 0 -189.5 92.5zM335 755l-52 24l85 170l73 -35z" />
    <glyph glyph-name="cacute" unicode="&#x107;" 
d="M146 61q-62 73 -62 197t62 197t171 73q72 0 120 -32t71 -87l-64 -34q-14 40 -47 62t-80 22q-69 0 -108 -43.5t-39 -113.5v-88q0 -70 39 -113.5t110 -43.5q98 0 140 90l57 -39q-24 -55 -74 -87.5t-124 -32.5q-110 0 -172 73zM320 585l-52 24l85 170l73 -35z" />
    <glyph glyph-name="Ccircumflex" unicode="&#x108;" 
d="M133.5 80.5q-63.5 92.5 -63.5 268.5t63.5 268.5t189.5 92.5q87 0 135.5 -41.5t79.5 -111.5l-72 -33q-22 55 -53.5 84t-89.5 29q-81 0 -122.5 -61.5t-41.5 -169.5v-114q0 -108 41.5 -169.5t122.5 -61.5q58 0 89.5 29t53.5 84l72 -33q-31 -70 -79.5 -111.5t-135.5 -41.5
q-126 0 -189.5 92.5zM378 935l111 -143l-45 -31l-117 117l-117 -117l-43 31l111 143h100z" />
    <glyph glyph-name="ccircumflex" unicode="&#x109;" 
d="M146 61q-62 73 -62 197t62 197t171 73q72 0 120 -32t71 -87l-64 -34q-14 40 -47 62t-80 22q-69 0 -108 -43.5t-39 -113.5v-88q0 -70 39 -113.5t110 -43.5q98 0 140 90l57 -39q-24 -55 -74 -87.5t-124 -32.5q-110 0 -172 73zM363 765l111 -143l-45 -31l-117 117l-117 -117
l-43 31l111 143h100z" />
    <glyph glyph-name="Cdotaccent" unicode="&#x10a;" 
d="M133.5 80.5q-63.5 92.5 -63.5 268.5t63.5 268.5t189.5 92.5q87 0 135.5 -41.5t79.5 -111.5l-72 -33q-22 55 -53.5 84t-89.5 29q-81 0 -122.5 -61.5t-41.5 -169.5v-114q0 -108 41.5 -169.5t122.5 -61.5q58 0 89.5 29t53.5 84l72 -33q-31 -70 -79.5 -111.5t-135.5 -41.5
q-126 0 -189.5 92.5zM381 894v-106h-106v106h106z" />
    <glyph glyph-name="cdotaccent" unicode="&#x10b;" 
d="M146 61q-62 73 -62 197t62 197t171 73q72 0 120 -32t71 -87l-64 -34q-14 40 -47 62t-80 22q-69 0 -108 -43.5t-39 -113.5v-88q0 -70 39 -113.5t110 -43.5q98 0 140 90l57 -39q-24 -55 -74 -87.5t-124 -32.5q-110 0 -172 73zM365 724v-106h-106v106h106z" />
    <glyph glyph-name="Ccaron" unicode="&#x10c;" 
d="M133.5 80.5q-63.5 92.5 -63.5 268.5t63.5 268.5t189.5 92.5q87 0 135.5 -41.5t79.5 -111.5l-72 -33q-22 55 -53.5 84t-89.5 29q-81 0 -122.5 -61.5t-41.5 -169.5v-114q0 -108 41.5 -169.5t122.5 -61.5q58 0 89.5 29t53.5 84l72 -33q-31 -70 -79.5 -111.5t-135.5 -41.5
q-126 0 -189.5 92.5zM278 769l-111 143l45 31l117 -117l117 117l43 -31l-111 -143h-100z" />
    <glyph glyph-name="ccaron" unicode="&#x10d;" 
d="M146 61q-62 73 -62 197t62 197t171 73q72 0 120 -32t71 -87l-64 -34q-14 40 -47 62t-80 22q-69 0 -108 -43.5t-39 -113.5v-88q0 -70 39 -113.5t110 -43.5q98 0 140 90l57 -39q-24 -55 -74 -87.5t-124 -32.5q-110 0 -172 73zM263 599l-111 143l46 31l117 -117l117 117
l42 -31l-111 -143h-100z" />
    <glyph glyph-name="Dcaron" unicode="&#x10e;" 
d="M95 698h195q127 0 190.5 -88t63.5 -261t-63.5 -261t-190.5 -88h-195v698zM286 73q82 0 125.5 58t43.5 164v108q0 106 -43.5 164t-125.5 58h-107v-552h107zM227 769l-111 143l45 31l117 -117l117 117l43 -31l-111 -143h-100z" />
    <glyph glyph-name="dcaron" unicode="&#x10f;" 
d="M96 59.5q-51 71.5 -51 198.5t51 198.5t141 71.5q50 0 88 -24.5t61 -71.5h4v308h80v-740h-80v84h-4q-23 -47 -61 -71.5t-88 -24.5q-90 0 -141 71.5zM545 740h103l-49 -189h-61zM353 87.5q37 28.5 37 77.5v186q0 49 -37 77.5t-90 28.5q-64 0 -98 -41t-34 -114v-88
q0 -73 34 -114t98 -41q53 0 90 28.5z" />
    <glyph glyph-name="Dcroat" unicode="&#x110;" 
d="M102 336h-80v64h80v298h188q127 0 190.5 -88t63.5 -261t-63.5 -261t-190.5 -88h-188v336zM286 73q82 0 125.5 58t43.5 164v108q0 106 -43.5 164t-125.5 58h-100v-225h141v-64h-141v-263h100z" />
    <glyph glyph-name="dcroat" unicode="&#x111;" 
d="M425 84h-4q-50 -96 -159 -96q-95 0 -148.5 71.5t-53.5 198.5t53.5 198.5t148.5 71.5q109 0 159 -96h4v176h-153v62h153v70h80v-70h65v-62h-65v-608h-80v84zM387 87q38 28 38 78v186q0 50 -38 78t-94 28q-69 0 -108 -42t-39 -113v-88q0 -71 39 -113t108 -42q56 0 94 28z
" />
    <glyph glyph-name="Emacron" unicode="&#x112;" 
d="M90 0v698h430v-73h-346v-235h334v-73h-334v-244h346v-73h-430zM165 875h280v-68h-280v68z" />
    <glyph glyph-name="emacron" unicode="&#x113;" 
d="M181 21q-55 33 -84.5 94t-29.5 142t30 142.5t83.5 95t123.5 33.5q68 0 120 -32.5t80.5 -89.5t28.5 -130v-38h-382v-24q0 -69 43 -113t115 -44q51 0 89 23.5t59 66.5l59 -40q-24 -54 -78.5 -86.5t-128.5 -32.5q-73 0 -128 33zM226 441.5q-35 -20.5 -55 -56.5t-20 -80v-7
h296v11q0 68 -39.5 110.5t-103.5 42.5q-43 0 -78 -20.5zM162 705h280v-68h-280v68z" />
    <glyph glyph-name="Ebreve" unicode="&#x114;" 
d="M90 0v698h430v-73h-346v-235h334v-73h-334v-244h346v-73h-430zM199 808q-35 43 -55 108l51 22l21 -34q19 -31 29.5 -45t24.5 -21.5t35 -7.5t35 7.5t24.5 21.5t29.5 45l21 34l51 -22q-20 -65 -55 -108t-106 -43t-106 43z" />
    <glyph glyph-name="ebreve" unicode="&#x115;" 
d="M181 21q-55 33 -84.5 94t-29.5 142t30 142.5t83.5 95t123.5 33.5q68 0 120 -32.5t80.5 -89.5t28.5 -130v-38h-382v-24q0 -69 43 -113t115 -44q51 0 89 23.5t59 66.5l59 -40q-24 -54 -78.5 -86.5t-128.5 -32.5q-73 0 -128 33zM226 441.5q-35 -20.5 -55 -56.5t-20 -80v-7
h296v11q0 68 -39.5 110.5t-103.5 42.5q-43 0 -78 -20.5zM196 638q-35 43 -55 108l51 22l21 -34q19 -31 29.5 -45t24.5 -21.5t35 -7.5t35 7.5t24.5 21.5t29.5 45l21 34l51 -22q-20 -65 -55 -108t-106 -43t-106 43z" />
    <glyph glyph-name="Edotaccent" unicode="&#x116;" 
d="M90 0v698h430v-73h-346v-235h334v-73h-334v-244h346v-73h-430zM358 894v-106h-106v106h106z" />
    <glyph glyph-name="edotaccent" unicode="&#x117;" 
d="M181 21q-55 33 -84.5 94t-29.5 142t30 142.5t83.5 95t123.5 33.5q68 0 120 -32.5t80.5 -89.5t28.5 -130v-38h-382v-24q0 -69 43 -113t115 -44q51 0 89 23.5t59 66.5l59 -40q-24 -54 -78.5 -86.5t-128.5 -32.5q-73 0 -128 33zM226 441.5q-35 -20.5 -55 -56.5t-20 -80v-7
h296v11q0 68 -39.5 110.5t-103.5 42.5q-43 0 -78 -20.5zM354 724v-106h-106v106h106z" />
    <glyph glyph-name="Eogonek" unicode="&#x118;" 
d="M90 698h430v-73h-346v-235h334v-73h-334v-244h346v-73q-69 -44 -91 -69.5t-22 -44.5t12 -28t30 -9q31 0 52 26l40 -41q-11 -18 -34.5 -29.5t-58.5 -11.5q-48 0 -78.5 21t-30.5 59q0 69 115 124l-1 3h-363v698z" />
    <glyph glyph-name="eogonek" unicode="&#x119;" 
d="M282.5 -186q-30.5 21 -30.5 59q0 68 113 121l-2 3q-23 -9 -61 -9q-69 0 -122 33.5t-83 94.5t-30 142q0 80 30 141.5t84 95t123 33.5q68 0 120 -32.5t80.5 -89.5t28.5 -130v-38h-382v-24q0 -69 43 -113t115 -44q51 0 89 23.5t59 66.5l59 -40q-13 -28 -41.5 -57t-69.5 -62
q-50 -41 -67.5 -61t-17.5 -41q0 -19 12 -28t30 -9q31 0 52 26l40 -41q-11 -18 -34.5 -29.5t-58.5 -11.5q-48 0 -78.5 21zM447 298v11q0 68 -39.5 110.5t-103.5 42.5q-43 0 -78 -20.5t-55 -56.5t-20 -80v-7h296z" />
    <glyph glyph-name="Ecaron" unicode="&#x11a;" 
d="M90 0v698h430v-73h-346v-235h334v-73h-334v-244h346v-73h-430zM255 769l-111 143l45 31l117 -117l117 117l43 -31l-111 -143h-100z" />
    <glyph glyph-name="ecaron" unicode="&#x11b;" 
d="M181 21q-55 33 -84.5 94t-29.5 142t30 142.5t83.5 95t123.5 33.5q68 0 120 -32.5t80.5 -89.5t28.5 -130v-38h-382v-24q0 -69 43 -113t115 -44q51 0 89 23.5t59 66.5l59 -40q-24 -54 -78.5 -86.5t-128.5 -32.5q-73 0 -128 33zM226 441.5q-35 -20.5 -55 -56.5t-20 -80v-7
h296v11q0 68 -39.5 110.5t-103.5 42.5q-43 0 -78 -20.5zM252 599l-111 143l46 31l117 -117l117 117l42 -31l-111 -143h-100z" />
    <glyph glyph-name="Gcircumflex" unicode="&#x11c;" 
d="M444 93h-5q-20 -48 -56 -76.5t-102 -28.5q-112 0 -168.5 91.5t-56.5 264.5q0 180 62 273t187 93q89 0 139.5 -42.5t77.5 -110.5l-72 -33q-22 55 -53 84t-89 29q-82 0 -122.5 -61t-40.5 -170v-108q0 -112 37 -175.5t118 -63.5q66 0 105 40.5t39 106.5v72h-147v67h225v-345
h-78v93zM356 935l111 -143l-45 -31l-117 117l-117 -117l-43 31l111 143h100z" />
    <glyph glyph-name="gcircumflex" unicode="&#x11d;" 
d="M505 17q0 -107 -60 -168t-167 -61q-116 0 -185 71l47 55q54 -56 139 -56q146 0 146 154v86h-4q-50 -96 -159 -96q-94 0 -148 70.5t-54 192.5t54 192.5t148 70.5q109 0 159 -96h4v84h80v-499zM387 101q38 28 38 78v172q0 50 -38 78t-94 28q-69 0 -108 -42t-39 -113v-74
q0 -71 39 -113t108 -42q56 0 94 28zM347 765l111 -143l-45 -31l-117 117l-117 -117l-43 31l111 143h100z" />
    <glyph glyph-name="Gbreve" unicode="&#x11e;" 
d="M444 93h-5q-20 -48 -56 -76.5t-102 -28.5q-112 0 -168.5 91.5t-56.5 264.5q0 180 62 273t187 93q89 0 139.5 -42.5t77.5 -110.5l-72 -33q-22 55 -53 84t-89 29q-82 0 -122.5 -61t-40.5 -170v-108q0 -112 37 -175.5t118 -63.5q66 0 105 40.5t39 106.5v72h-147v67h225v-345
h-78v93zM200 808q-35 43 -55 108l51 22l21 -34q19 -31 29.5 -45t24.5 -21.5t35 -7.5t35 7.5t24.5 21.5t29.5 45l21 34l51 -22q-20 -65 -55 -108t-106 -43t-106 43z" />
    <glyph glyph-name="gbreve" unicode="&#x11f;" 
d="M505 17q0 -107 -60 -168t-167 -61q-116 0 -185 71l47 55q54 -56 139 -56q146 0 146 154v86h-4q-50 -96 -159 -96q-94 0 -148 70.5t-54 192.5t54 192.5t148 70.5q109 0 159 -96h4v84h80v-499zM387 101q38 28 38 78v172q0 50 -38 78t-94 28q-69 0 -108 -42t-39 -113v-74
q0 -71 39 -113t108 -42q56 0 94 28zM191 638q-35 43 -55 108l51 22l21 -34q19 -31 29.5 -45t24.5 -21.5t35 -7.5t35 7.5t24.5 21.5t29.5 45l21 34l51 -22q-20 -65 -55 -108t-106 -43t-106 43z" />
    <glyph glyph-name="Gdotaccent" unicode="&#x120;" 
d="M444 93h-5q-20 -48 -56 -76.5t-102 -28.5q-112 0 -168.5 91.5t-56.5 264.5q0 180 62 273t187 93q89 0 139.5 -42.5t77.5 -110.5l-72 -33q-22 55 -53 84t-89 29q-82 0 -122.5 -61t-40.5 -170v-108q0 -112 37 -175.5t118 -63.5q66 0 105 40.5t39 106.5v72h-147v67h225v-345
h-78v93zM359 894v-106h-106v106h106z" />
    <glyph glyph-name="gdotaccent" unicode="&#x121;" 
d="M505 17q0 -107 -60 -168t-167 -61q-116 0 -185 71l47 55q54 -56 139 -56q146 0 146 154v86h-4q-50 -96 -159 -96q-94 0 -148 70.5t-54 192.5t54 192.5t148 70.5q109 0 159 -96h4v84h80v-499zM387 101q38 28 38 78v172q0 50 -38 78t-94 28q-69 0 -108 -42t-39 -113v-74
q0 -71 39 -113t108 -42q56 0 94 28zM339 724v-106h-106v106h106z" />
    <glyph glyph-name="uni0122" unicode="&#x122;" 
d="M444 93h-5q-20 -48 -56 -76.5t-102 -28.5q-112 0 -168.5 91.5t-56.5 264.5q0 180 62 273t187 93q89 0 139.5 -42.5t77.5 -110.5l-72 -33q-22 55 -53 84t-89 29q-82 0 -122.5 -61t-40.5 -170v-108q0 -112 37 -175.5t118 -63.5q66 0 105 40.5t39 106.5v72h-147v67h225v-345
h-78v93zM248 -62h109l-76 -189h-61z" />
    <glyph glyph-name="uni0123" unicode="&#x123;" 
d="M505 17q0 -107 -60 -168t-167 -61q-116 0 -185 71l47 55q54 -56 139 -56q146 0 146 154v86h-4q-50 -96 -159 -96q-94 0 -148 70.5t-54 192.5t54 192.5t148 70.5q109 0 159 -96h4v84h80v-499zM387 101q38 28 38 78v172q0 50 -38 78t-94 28q-69 0 -108 -42t-39 -113v-74
q0 -71 39 -113t108 -42q56 0 94 28zM306 776h61l-28 -189h-109z" />
    <glyph glyph-name="Hcircumflex" unicode="&#x124;" 
d="M436 317h-272v-317h-84v698h84v-308h272v308h84v-698h-84v317zM350 935l111 -143l-45 -31l-117 117l-117 -117l-43 31l111 143h100z" />
    <glyph glyph-name="hcircumflex" unicode="&#x125;" 
d="M98 740h80v-308h4q41 96 147 96q82 0 130.5 -52t48.5 -145v-331h-80v317q0 70 -31 105t-91 35q-53 0 -90.5 -25.5t-37.5 -73.5v-358h-80v740zM188 947l111 -143l-45 -31l-117 117l-117 -117l-43 31l111 143h100z" />
    <glyph glyph-name="Hbar" unicode="&#x126;" 
d="M436 317h-272v-317h-84v518h-70v64h70v116h84v-116h272v116h84v-116h70v-64h-70v-518h-84v317zM436 390v128h-272v-128h272z" />
    <glyph glyph-name="hbar" unicode="&#x127;" 
d="M98 0v608h-65v62h65v70h80v-70h153v-62h-153v-176h4q41 96 147 96q82 0 130.5 -52t48.5 -145v-331h-80v317q0 70 -31 105t-91 35q-53 0 -90.5 -25.5t-37.5 -73.5v-358h-80z" />
    <glyph glyph-name="Itilde" unicode="&#x128;" horiz-adv-x="300" 
d="M108 698h84v-698h-84v698zM186 788q-16 6 -28 12t-15 8q-45 24 -70 24q-15 0 -28.5 -6.5t-29.5 -20.5l-33 40q15 23 39 38t56 15q21 0 37 -6t28 -12t15 -8q45 -24 70 -24q16 0 29 6.5t29 20.5l33 -40q-15 -23 -39 -38t-56 -15q-21 0 -37 6z" />
    <glyph glyph-name="itilde" unicode="&#x129;" horiz-adv-x="300" 
d="M110 516h80v-516h-80v516zM186 618q-16 6 -28 12t-15 8q-45 24 -70 24q-15 0 -28.5 -6.5t-29.5 -20.5l-33 40q15 23 39 38t56 15q21 0 37 -6t28 -12t15 -8q45 -24 70 -24q16 0 29 6.5t29 20.5l33 -40q-15 -23 -39 -38t-56 -15q-21 0 -37 6z" />
    <glyph glyph-name="Imacron" unicode="&#x12a;" horiz-adv-x="300" 
d="M108 698h84v-698h-84v698zM10 875h280v-68h-280v68z" />
    <glyph glyph-name="imacron" unicode="&#x12b;" horiz-adv-x="300" 
d="M110 516h80v-516h-80v516zM10 705h280v-68h-280v68z" />
    <glyph glyph-name="Ibreve" unicode="&#x12c;" horiz-adv-x="300" 
d="M108 698h84v-698h-84v698zM44 808q-35 43 -55 108l51 22l21 -34q19 -31 29.5 -45t24.5 -21.5t35 -7.5t35 7.5t24.5 21.5t29.5 45l21 34l51 -22q-20 -65 -55 -108t-106 -43t-106 43z" />
    <glyph glyph-name="ibreve" unicode="&#x12d;" horiz-adv-x="300" 
d="M110 516h80v-516h-80v516zM44 638q-35 43 -55 108l51 22l21 -34q19 -31 29.5 -45t24.5 -21.5t35 -7.5t35 7.5t24.5 21.5t29.5 45l21 34l51 -22q-20 -65 -55 -108t-106 -43t-106 43z" />
    <glyph glyph-name="Iogonek" unicode="&#x12e;" 
d="M84 67h174v564h-174v67h432v-67h-174v-564h174v-67q-69 -44 -91 -69.5t-22 -44.5t12 -28t30 -9q31 0 52 26l40 -41q-11 -18 -34.5 -29.5t-58.5 -11.5q-48 0 -78.5 21t-30.5 59q0 69 115 124l-1 3h-365v67z" />
    <glyph glyph-name="iogonek" unicode="&#x12f;" horiz-adv-x="300" 
d="M203 618h-106v106h106v-106zM211 -168q-11 -18 -34.5 -29.5t-58.5 -11.5q-48 0 -78.5 21t-30.5 59q0 69 115 124l-2 5h-12v516h80v-516h-1l1 -2q-69 -44 -91 -69.5t-22 -44.5t12 -28t30 -9q31 0 52 26z" />
    <glyph glyph-name="Idotaccent" unicode="&#x130;" horiz-adv-x="300" 
d="M108 698h84v-698h-84v698zM203 894v-106h-106v106h106z" />
    <glyph glyph-name="dotlessi" unicode="&#x131;" horiz-adv-x="300" 
d="M110 516h80v-516h-80v516z" />
    <glyph glyph-name="IJ" unicode="&#x132;" 
d="M510 698v-507q0 -61 -27.5 -107t-76.5 -71t-113 -25q-82 0 -137 41t-71 116l84 21q11 -47 39.5 -75.5t87.5 -28.5q63 0 96.5 36t33.5 108v492h84zM90 698h84v-408h-84v408z" />
    <glyph glyph-name="ij" unicode="&#x133;" 
d="M197 741v-106h-106v106h106zM508 741v-106h-106v106h106zM105 516h80v-516h-80v516zM495 -27q0 -70 -25.5 -108t-73 -51.5t-126.5 -13.5h-105v68h106q57 0 85.5 5.5t43.5 28t15 70.5v544h80v-543z" />
    <glyph glyph-name="Jcircumflex" unicode="&#x134;" 
d="M480 698v-517q0 -58 -26 -102t-73 -67.5t-107 -23.5q-79 0 -131.5 41.5t-68.5 116.5l80 17q11 -47 39.5 -74t82.5 -27q58 0 89 33.5t31 100.5v429h-252v73h336zM363 935l111 -143l-45 -31l-117 117l-117 -117l-43 31l111 143h100z" />
    <glyph glyph-name="jcircumflex" unicode="&#x135;" horiz-adv-x="300" 
d="M192 -27q0 -70 -25.5 -108t-73 -51.5t-126.5 -13.5h-5v68h6q57 0 85.5 5.5t43.5 28t15 70.5v544h80v-543zM201 765l111 -143l-45 -31l-117 117l-117 -117l-43 31l111 143h100z" />
    <glyph glyph-name="uni0136" unicode="&#x136;" 
d="M269 342l-100 -118v-224h-84v698h84v-364h3l92 116l206 248h101l-245 -294l252 -404h-98zM270 -62h109l-76 -189h-61z" />
    <glyph glyph-name="uni0137" unicode="&#x137;" 
d="M105 740h80v-467h4l90 85l172 158h98l-214 -202l239 -314h-99l-201 268l-89 -81v-187h-80v740zM271 -62h109l-76 -189h-61z" />
    <glyph glyph-name="kgreenlandic" unicode="&#x138;" 
d="M283 253l-97 -88v-165h-80v516h80v-261h4l265 261h98l-214 -210l239 -306h-99z" />
    <glyph glyph-name="Lacute" unicode="&#x139;" 
d="M120 0v698h84v-625h331v-73h-415zM169 755l-52 24l85 170l73 -35z" />
    <glyph glyph-name="lacute" unicode="&#x13a;" horiz-adv-x="300" 
d="M179 0q-40 0 -62.5 23t-22.5 60v657h80v-645q0 -25 25 -25h51v-70h-71zM150 809l-52 24l85 170l73 -35z" />
    <glyph glyph-name="uni013B" unicode="&#x13b;" 
d="M120 0v698h84v-625h331v-73h-415zM275 -62h109l-76 -189h-61z" />
    <glyph glyph-name="uni013C" unicode="&#x13c;" horiz-adv-x="300" 
d="M179 0q-40 0 -62.5 23t-22.5 60v657h80v-645q0 -25 25 -25h51v-70h-71zM107 -62h109l-76 -189h-61z" />
    <glyph glyph-name="Lcaron" unicode="&#x13d;" 
d="M120 0v698h84v-625h331v-73h-415zM351 551h-61l7 189h103z" />
    <glyph glyph-name="lcaron" unicode="&#x13e;" horiz-adv-x="300" 
d="M179 0q-40 0 -62.5 23t-22.5 60v657h80v-645q0 -25 25 -25h51v-70h-71zM357 551h-61l7 189h103z" />
    <glyph glyph-name="Ldot" unicode="&#x13f;" 
d="M120 0v698h84v-625h331v-73h-415zM487 378v-106h-106v106h106z" />
    <glyph glyph-name="ldot" unicode="&#x140;" 
d="M179 0q-40 0 -62.5 23t-22.5 60v657h80v-645q0 -25 25 -25h51v-70h-71zM566 358v-106h-106v106h106z" />
    <glyph glyph-name="Lslash" unicode="&#x141;" 
d="M535 0h-415v271l-80 -26v69l80 26v358h84v-334l211 69v-69l-211 -69v-222h331v-73z" />
    <glyph glyph-name="lslash" unicode="&#x142;" 
d="M80 68h180v220l-153 -50v67l153 50v317h-180v68h260v-362l153 50v-67l-153 -50v-243h180v-68h-440v68z" />
    <glyph glyph-name="Nacute" unicode="&#x143;" 
d="M163 591h-7v-591h-76v698h119l238 -585h7v585h76v-698h-119zM307 755l-52 24l85 170l73 -35z" />
    <glyph glyph-name="nacute" unicode="&#x144;" 
d="M98 0v516h80v-84h4q41 96 147 96q82 0 130.5 -52t48.5 -145v-331h-80v317q0 70 -31 105t-91 35q-53 0 -90.5 -25.5t-37.5 -73.5v-358h-80zM310 585l-52 24l85 170l73 -35z" />
    <glyph glyph-name="uni0145" unicode="&#x145;" 
d="M163 591h-7v-591h-76v698h119l238 -585h7v585h76v-698h-119zM248 -62h109l-76 -189h-61z" />
    <glyph glyph-name="uni0146" unicode="&#x146;" 
d="M98 0v516h80v-84h4q41 96 147 96q82 0 130.5 -52t48.5 -145v-331h-80v317q0 70 -31 105t-91 35q-53 0 -90.5 -25.5t-37.5 -73.5v-358h-80zM251 -62h109l-76 -189h-61z" />
    <glyph glyph-name="Ncaron" unicode="&#x147;" 
d="M163 591h-7v-591h-76v698h119l238 -585h7v585h76v-698h-119zM250 769l-111 143l45 31l117 -117l117 117l43 -31l-111 -143h-100z" />
    <glyph glyph-name="ncaron" unicode="&#x148;" 
d="M98 0v516h80v-84h4q41 96 147 96q82 0 130.5 -52t48.5 -145v-331h-80v317q0 70 -31 105t-91 35q-53 0 -90.5 -25.5t-37.5 -73.5v-358h-80zM253 599l-111 143l46 31l117 -117l117 117l42 -31l-111 -143h-100z" />
    <glyph glyph-name="napostrophe" unicode="&#x149;" 
d="M12 740h93l-52 -185h-53zM98 516h80v-84h4q41 96 147 96q82 0 130.5 -52t48.5 -145v-331h-80v317q0 70 -31 105t-91 35q-53 0 -90.5 -25.5t-37.5 -73.5v-358h-80v516z" />
    <glyph glyph-name="Eng" unicode="&#x14a;" 
d="M80 0v698h119l238 -585h7v585h76v-780q0 -54 -29 -86t-85 -32h-249v68h251q15 0 25.5 10.5t10.5 25.5v96h-43l-238 591h-7v-591h-76z" />
    <glyph glyph-name="eng" unicode="&#x14b;" 
d="M178 -132h225q11 0 18 7t7 18v424q0 70 -31 105t-91 35q-53 0 -90.5 -25.5t-37.5 -73.5v-358h-80v516h80v-84h4q41 96 147 96q82 0 130.5 -52t48.5 -145v-413q0 -54 -29 -86t-85 -32h-216v68z" />
    <glyph glyph-name="Omacron" unicode="&#x14c;" 
d="M56 349q0 361 244 361t244 -361t-244 -361t-244 361zM417.5 121.5q37.5 60.5 37.5 170.5v114q0 110 -37.5 170.5t-117.5 60.5t-117.5 -60.5t-37.5 -170.5v-114q0 -110 37.5 -170.5t117.5 -60.5t117.5 60.5zM160 875h280v-68h-280v68z" />
    <glyph glyph-name="omacron" unicode="&#x14d;" 
d="M175.5 21q-52.5 33 -81 94t-28.5 143t28.5 143t81 94t124.5 33t124.5 -33t81 -94t28.5 -143t-28.5 -143t-81 -94t-124.5 -33t-124.5 33zM409 98.5q40 41.5 40 122.5v74q0 81 -40 122.5t-109 41.5t-109 -41.5t-40 -122.5v-74q0 -81 40 -122.5t109 -41.5t109 41.5zM160 705
h280v-68h-280v68z" />
    <glyph glyph-name="Obreve" unicode="&#x14e;" 
d="M56 349q0 361 244 361t244 -361t-244 -361t-244 361zM417.5 121.5q37.5 60.5 37.5 170.5v114q0 110 -37.5 170.5t-117.5 60.5t-117.5 -60.5t-37.5 -170.5v-114q0 -110 37.5 -170.5t117.5 -60.5t117.5 60.5zM194 808q-35 43 -55 108l51 22l21 -34q19 -31 29.5 -45
t24.5 -21.5t35 -7.5t35 7.5t24.5 21.5t29.5 45l21 34l51 -22q-20 -65 -55 -108t-106 -43t-106 43z" />
    <glyph glyph-name="obreve" unicode="&#x14f;" 
d="M175.5 21q-52.5 33 -81 94t-28.5 143t28.5 143t81 94t124.5 33t124.5 -33t81 -94t28.5 -143t-28.5 -143t-81 -94t-124.5 -33t-124.5 33zM409 98.5q40 41.5 40 122.5v74q0 81 -40 122.5t-109 41.5t-109 -41.5t-40 -122.5v-74q0 -81 40 -122.5t109 -41.5t109 41.5zM194 638
q-35 43 -55 108l51 22l21 -34q19 -31 29.5 -45t24.5 -21.5t35 -7.5t35 7.5t24.5 21.5t29.5 45l21 34l51 -22q-20 -65 -55 -108t-106 -43t-106 43z" />
    <glyph glyph-name="Ohungarumlaut" unicode="&#x150;" 
d="M56 349q0 361 244 361t244 -361t-244 -361t-244 361zM417.5 121.5q37.5 60.5 37.5 170.5v114q0 110 -37.5 170.5t-117.5 60.5t-117.5 -60.5t-37.5 -170.5v-114q0 -110 37.5 -170.5t117.5 -60.5t117.5 60.5zM227 756l-48 22l85 170l69 -33zM387 756l-48 22l85 170l69 -33z
" />
    <glyph glyph-name="ohungarumlaut" unicode="&#x151;" 
d="M175.5 21q-52.5 33 -81 94t-28.5 143t28.5 143t81 94t124.5 33t124.5 -33t81 -94t28.5 -143t-28.5 -143t-81 -94t-124.5 -33t-124.5 33zM409 98.5q40 41.5 40 122.5v74q0 81 -40 122.5t-109 41.5t-109 -41.5t-40 -122.5v-74q0 -81 40 -122.5t109 -41.5t109 41.5zM227 586
l-48 22l85 170l69 -33zM387 586l-48 22l85 170l69 -33z" />
    <glyph glyph-name="OE" unicode="&#x152;" horiz-adv-x="900" 
d="M337 -12q-146 0 -227.5 93t-81.5 268t81.5 268t227.5 93q65 0 128 -12h396v-74h-313v-234h293v-74h-293v-242h313v-74h-396q-63 -12 -128 -12zM464 81v536q-54 18 -117 18q-114 0 -171.5 -60.5t-57.5 -167.5v-116q0 -107 57.5 -167.5t171.5 -60.5q63 0 117 18z" />
    <glyph glyph-name="oe" unicode="&#x153;" horiz-adv-x="900" 
d="M547 20q-49 32 -74 83h-5q-23 -51 -74 -83t-114 -32q-69 0 -121.5 33.5t-82 94.5t-29.5 142t29.5 142t82 94.5t121.5 33.5q66 0 115 -30t73 -85h6q22 53 71 84t116 31t117.5 -32t78 -89.5t27.5 -130.5v-38h-371v-24q0 -68 41.5 -112t111.5 -44q49 0 85.5 23t57.5 66
l56 -41q-26 -54 -77.5 -86t-120.5 -32q-71 0 -120 32zM798 309q0 68 -37.5 110t-99.5 42q-65 0 -106.5 -44t-41.5 -112v-7h285v11zM387 100.5q40 41.5 40 120.5v74q0 79 -40 120.5t-107 41.5t-107 -41.5t-40 -120.5v-74q0 -79 40 -120.5t107 -41.5t107 41.5z" />
    <glyph glyph-name="Racute" unicode="&#x154;" 
d="M174 0h-84v698h254q96 0 147.5 -53t51.5 -148q0 -85 -44.5 -136t-127.5 -59l178 -302h-94l-170 298h-111v-298zM342 369q53 0 82.5 26.5t29.5 75.5v52q0 49 -29.5 75.5t-82.5 26.5h-168v-256h168zM315 755l-52 24l85 170l73 -35z" />
    <glyph glyph-name="racute" unicode="&#x155;" horiz-adv-x="450" 
d="M112 516h80v-130h5q38 130 174 130h52v-80h-77q-73 0 -113.5 -41t-40.5 -104v-291h-80v516zM271 585l-52 24l85 170l73 -35z" />
    <glyph glyph-name="uni0156" unicode="&#x156;" 
d="M174 0h-84v698h254q96 0 147.5 -53t51.5 -148q0 -85 -44.5 -136t-127.5 -59l178 -302h-94l-170 298h-111v-298zM342 369q53 0 82.5 26.5t29.5 75.5v52q0 49 -29.5 75.5t-82.5 26.5h-168v-256h168zM256 -62h109l-76 -189h-61z" />
    <glyph glyph-name="uni0157" unicode="&#x157;" horiz-adv-x="450" 
d="M112 516h80v-130h5q38 130 174 130h52v-80h-77q-73 0 -113.5 -41t-40.5 -104v-291h-80v516zM79 -62h109l-76 -189h-61z" />
    <glyph glyph-name="Rcaron" unicode="&#x158;" 
d="M174 0h-84v698h254q96 0 147.5 -53t51.5 -148q0 -85 -44.5 -136t-127.5 -59l178 -302h-94l-170 298h-111v-298zM342 369q53 0 82.5 26.5t29.5 75.5v52q0 49 -29.5 75.5t-82.5 26.5h-168v-256h168zM258 769l-111 143l45 31l117 -117l117 117l43 -31l-111 -143h-100z" />
    <glyph glyph-name="rcaron" unicode="&#x159;" horiz-adv-x="450" 
d="M112 516h80v-130h5q38 130 174 130h52v-80h-77q-73 0 -113.5 -41t-40.5 -104v-291h-80v516zM214 599l-111 143l46 31l117 -117l117 117l42 -31l-111 -143h-100z" />
    <glyph glyph-name="Sacute" unicode="&#x15a;" 
d="M148 20.5q-61 32.5 -103 90.5l61 50q41 -52 87 -76.5t108 -24.5q75 0 115.5 35t40.5 98q0 52 -30 80t-100 40l-78 13q-96 16 -138 66.5t-42 123.5q0 94 62 144t171 50q159 0 234 -107l-59 -51q-32 42 -73.5 64t-102.5 22q-71 0 -109 -30.5t-38 -89.5q0 -49 29.5 -78
t101.5 -41l75 -13q182 -32 182 -191q0 -97 -64 -152t-180 -55q-89 0 -150 32.5zM305 755l-52 24l85 170l73 -35z" />
    <glyph glyph-name="sacute" unicode="&#x15b;" 
d="M67 89l54 47q38 -41 83 -61t104 -20q63 0 100 22.5t37 66.5q0 37 -24 53t-67 22l-81 12q-49 7 -86 19.5t-64 42t-27 81.5q0 75 57 114.5t151 39.5q132 0 210 -83l-52 -49q-54 65 -161 65q-61 0 -93.5 -21t-32.5 -61q0 -37 24.5 -53t66.5 -22l81 -12q50 -7 87 -19.5
t63.5 -42t26.5 -81.5q0 -76 -59 -118.5t-159 -42.5q-150 0 -239 101zM305 585l-52 24l85 170l73 -35z" />
    <glyph glyph-name="Scircumflex" unicode="&#x15c;" 
d="M148 20.5q-61 32.5 -103 90.5l61 50q41 -52 87 -76.5t108 -24.5q75 0 115.5 35t40.5 98q0 52 -30 80t-100 40l-78 13q-96 16 -138 66.5t-42 123.5q0 94 62 144t171 50q159 0 234 -107l-59 -51q-32 42 -73.5 64t-102.5 22q-71 0 -109 -30.5t-38 -89.5q0 -49 29.5 -78
t101.5 -41l75 -13q182 -32 182 -191q0 -97 -64 -152t-180 -55q-89 0 -150 32.5zM348 935l111 -143l-45 -31l-117 117l-117 -117l-43 31l111 143h100z" />
    <glyph glyph-name="scircumflex" unicode="&#x15d;" 
d="M67 89l54 47q38 -41 83 -61t104 -20q63 0 100 22.5t37 66.5q0 37 -24 53t-67 22l-81 12q-49 7 -86 19.5t-64 42t-27 81.5q0 75 57 114.5t151 39.5q132 0 210 -83l-52 -49q-54 65 -161 65q-61 0 -93.5 -21t-32.5 -61q0 -37 24.5 -53t66.5 -22l81 -12q50 -7 87 -19.5
t63.5 -42t26.5 -81.5q0 -76 -59 -118.5t-159 -42.5q-150 0 -239 101zM348 765l111 -143l-45 -31l-117 117l-117 -117l-43 31l111 143h100z" />
    <glyph glyph-name="Scedilla" unicode="&#x15e;" 
d="M247 -195q-25 12 -37 29l38 41q22 -28 61 -28q20 0 32 8t12 23t-14.5 25t-53.5 16l-28 4l13 66q-78 5 -132 36.5t-93 85.5l61 50q41 -52 87 -76.5t108 -24.5q75 0 115.5 35t40.5 98q0 52 -30 80t-100 40l-78 13q-96 16 -138 66.5t-42 123.5q0 94 62 144t171 50
q159 0 234 -107l-59 -51q-32 42 -73.5 64t-102.5 22q-71 0 -109 -30.5t-38 -89.5q0 -49 29.5 -78t101.5 -41l75 -13q182 -32 182 -191q0 -92 -58 -146.5t-164 -59.5l-10 -50l3 -3q20 6 39 6q30 0 49 -17.5t19 -48.5q0 -41 -31.5 -62t-79.5 -21q-37 0 -62 12z" />
    <glyph glyph-name="scedilla" unicode="&#x15f;" 
d="M248 -195q-25 12 -37 29l38 41q22 -28 61 -28q20 0 32 8t12 23t-14.5 25t-53.5 16l-28 4l13 67q-125 10 -204 99l54 47q38 -41 83 -61t104 -20q63 0 100 22.5t37 66.5q0 37 -24 53t-67 22l-81 12q-49 7 -86 19.5t-64 42t-27 81.5q0 75 57 114.5t151 39.5q132 0 210 -83
l-52 -49q-54 65 -161 65q-61 0 -93.5 -21t-32.5 -61q0 -37 24.5 -53t66.5 -22l81 -12q50 -7 87 -19.5t63.5 -42t26.5 -81.5q0 -73 -55 -115.5t-149 -45.5l-9 -49l3 -3q20 6 39 6q30 0 49 -17.5t19 -48.5q0 -41 -31.5 -62t-79.5 -21q-37 0 -62 12z" />
    <glyph glyph-name="Scaron" unicode="&#x160;" 
d="M148 20.5q-61 32.5 -103 90.5l61 50q41 -52 87 -76.5t108 -24.5q75 0 115.5 35t40.5 98q0 52 -30 80t-100 40l-78 13q-96 16 -138 66.5t-42 123.5q0 94 62 144t171 50q159 0 234 -107l-59 -51q-32 42 -73.5 64t-102.5 22q-71 0 -109 -30.5t-38 -89.5q0 -49 29.5 -78
t101.5 -41l75 -13q182 -32 182 -191q0 -97 -64 -152t-180 -55q-89 0 -150 32.5zM248 769l-111 143l45 31l117 -117l117 117l43 -31l-111 -143h-100z" />
    <glyph glyph-name="scaron" unicode="&#x161;" 
d="M67 89l54 47q38 -41 83 -61t104 -20q63 0 100 22.5t37 66.5q0 37 -24 53t-67 22l-81 12q-49 7 -86 19.5t-64 42t-27 81.5q0 75 57 114.5t151 39.5q132 0 210 -83l-52 -49q-54 65 -161 65q-61 0 -93.5 -21t-32.5 -61q0 -37 24.5 -53t66.5 -22l81 -12q50 -7 87 -19.5
t63.5 -42t26.5 -81.5q0 -76 -59 -118.5t-159 -42.5q-150 0 -239 101zM248 599l-111 143l46 31l117 -117l117 117l42 -31l-111 -143h-100z" />
    <glyph glyph-name="uni0162" unicode="&#x162;" 
d="M342 625v-625h-84v625h-233v73h550v-73h-233zM248 -62h109l-76 -189h-61z" />
    <glyph glyph-name="uni0163" unicode="&#x163;" horiz-adv-x="450" 
d="M241 172q0 -48 15 -70.5t43.5 -28t85.5 -5.5h13v-68h-12q-79 0 -126.5 13.5t-73 51.5t-25.5 108v275h-112v68h112v182h80v-182h155v-68h-155v-276zM323 -62h109l-76 -189h-61z" />
    <glyph glyph-name="Tcaron" unicode="&#x164;" 
d="M342 625v-625h-84v625h-233v73h550v-73h-233zM250 769l-111 143l45 31l117 -117l117 117l43 -31l-111 -143h-100z" />
    <glyph glyph-name="tcaron" unicode="&#x165;" horiz-adv-x="450" 
d="M241 172q0 -48 15 -70.5t43.5 -28t85.5 -5.5h13v-68h-12q-79 0 -126.5 13.5t-73 51.5t-25.5 108v275h-112v68h112v182h80v-182h155v-68h-155v-276zM448 571h-61l7 189h103z" />
    <glyph glyph-name="Tbar" unicode="&#x166;" 
d="M342 336v-336h-84v336h-173v64h173v225h-233v73h550v-73h-233v-225h173v-64h-173z" />
    <glyph glyph-name="tbar" unicode="&#x167;" 
d="M524 0h-199q-56 0 -85 32t-29 86v129h-109v62h109v139h-172v68h172v182h80v-182h235v-68h-235v-139h173v-62h-173v-143q0 -15 10.5 -25.5t25.5 -10.5h197v-68z" />
    <glyph glyph-name="Utilde" unicode="&#x168;" 
d="M164 698v-419q0 -81 7.5 -124.5t36.5 -68.5t92 -25t92 25t36.5 68.5t7.5 124.5v419h84v-399q0 -113 -16.5 -178.5t-63.5 -99t-140 -33.5t-140 33.5t-63.5 99t-16.5 178.5v399h84zM336 788q-16 6 -28 12t-15 8q-45 24 -70 24q-15 0 -28.5 -6.5t-29.5 -20.5l-33 40
q15 23 39 38t56 15q21 0 37 -6t28 -12t15 -8q45 -24 70 -24q16 0 29 6.5t29 20.5l33 -40q-15 -23 -39 -38t-56 -15q-21 0 -37 6z" />
    <glyph glyph-name="utilde" unicode="&#x169;" 
d="M422 84h-4q-41 -96 -147 -96q-82 0 -130.5 52t-48.5 145v331h80v-317q0 -70 31 -105t91 -35q53 0 90.5 25.5t37.5 73.5v358h80v-516h-80v84zM333 618q-16 6 -28 12t-15 8q-45 24 -70 24q-15 0 -28.5 -6.5t-29.5 -20.5l-33 40q15 23 39 38t56 15q21 0 37 -6t28 -12t15 -8
q45 -24 70 -24q16 0 29 6.5t29 20.5l33 -40q-15 -23 -39 -38t-56 -15q-21 0 -37 6z" />
    <glyph glyph-name="Umacron" unicode="&#x16a;" 
d="M164 698v-419q0 -81 7.5 -124.5t36.5 -68.5t92 -25t92 25t36.5 68.5t7.5 124.5v419h84v-399q0 -113 -16.5 -178.5t-63.5 -99t-140 -33.5t-140 33.5t-63.5 99t-16.5 178.5v399h84zM160 875h280v-68h-280v68z" />
    <glyph glyph-name="umacron" unicode="&#x16b;" 
d="M422 84h-4q-41 -96 -147 -96q-82 0 -130.5 52t-48.5 145v331h80v-317q0 -70 31 -105t91 -35q53 0 90.5 25.5t37.5 73.5v358h80v-516h-80v84zM157 705h280v-68h-280v68z" />
    <glyph glyph-name="Ubreve" unicode="&#x16c;" 
d="M164 698v-419q0 -81 7.5 -124.5t36.5 -68.5t92 -25t92 25t36.5 68.5t7.5 124.5v419h84v-399q0 -113 -16.5 -178.5t-63.5 -99t-140 -33.5t-140 33.5t-63.5 99t-16.5 178.5v399h84zM194 808q-35 43 -55 108l51 22l21 -34q19 -31 29.5 -45t24.5 -21.5t35 -7.5t35 7.5
t24.5 21.5t29.5 45l21 34l51 -22q-20 -65 -55 -108t-106 -43t-106 43z" />
    <glyph glyph-name="ubreve" unicode="&#x16d;" 
d="M422 84h-4q-41 -96 -147 -96q-82 0 -130.5 52t-48.5 145v331h80v-317q0 -70 31 -105t91 -35q53 0 90.5 25.5t37.5 73.5v358h80v-516h-80v84zM191 638q-35 43 -55 108l51 22l21 -34q19 -31 29.5 -45t24.5 -21.5t35 -7.5t35 7.5t24.5 21.5t29.5 45l21 34l51 -22
q-20 -65 -55 -108t-106 -43t-106 43z" />
    <glyph glyph-name="Uring" unicode="&#x16e;" 
d="M164 698v-419q0 -81 7.5 -124.5t36.5 -68.5t92 -25t92 25t36.5 68.5t7.5 124.5v419h84v-399q0 -113 -16.5 -178.5t-63.5 -99t-140 -33.5t-140 33.5t-63.5 99t-16.5 178.5v399h84zM217.5 779q-33.5 33 -33.5 82t33.5 82t82.5 33t82.5 -33t33.5 -82t-33.5 -82t-82.5 -33
t-82.5 33zM342.5 809.5q15.5 14.5 15.5 40.5v22q0 26 -15.5 40.5t-42.5 14.5t-42.5 -14.5t-15.5 -40.5v-22q0 -26 15.5 -40.5t42.5 -14.5t42.5 14.5z" />
    <glyph glyph-name="uring" unicode="&#x16f;" 
d="M422 84h-4q-41 -96 -147 -96q-82 0 -130.5 52t-48.5 145v331h80v-317q0 -70 31 -105t91 -35q53 0 90.5 25.5t37.5 73.5v358h80v-516h-80v84zM214.5 609q-33.5 33 -33.5 82t33.5 82t82.5 33t82.5 -33t33.5 -82t-33.5 -82t-82.5 -33t-82.5 33zM339.5 639.5
q15.5 14.5 15.5 40.5v22q0 26 -15.5 40.5t-42.5 14.5t-42.5 -14.5t-15.5 -40.5v-22q0 -26 15.5 -40.5t42.5 -14.5t42.5 14.5z" />
    <glyph glyph-name="Uhungarumlaut" unicode="&#x170;" 
d="M164 698v-419q0 -81 7.5 -124.5t36.5 -68.5t92 -25t92 25t36.5 68.5t7.5 124.5v419h84v-399q0 -113 -16.5 -178.5t-63.5 -99t-140 -33.5t-140 33.5t-63.5 99t-16.5 178.5v399h84zM227 756l-48 22l85 170l69 -33zM387 756l-48 22l85 170l69 -33z" />
    <glyph glyph-name="uhungarumlaut" unicode="&#x171;" 
d="M422 84h-4q-41 -96 -147 -96q-82 0 -130.5 52t-48.5 145v331h80v-317q0 -70 31 -105t91 -35q53 0 90.5 25.5t37.5 73.5v358h80v-516h-80v84zM224 586l-48 22l85 170l69 -33zM384 586l-48 22l85 170l69 -33z" />
    <glyph glyph-name="Uogonek" unicode="&#x172;" 
d="M164 698v-419q0 -81 7.5 -124.5t36.5 -68.5t92 -25t92 25t36.5 68.5t7.5 124.5v419h84v-399q0 -85 -7 -135.5t-30 -89.5t-70 -74l-22 -15q-44 -31 -67.5 -54t-23.5 -47q0 -17 12 -26t30 -9q31 0 52 26l40 -41q-11 -18 -34.5 -29.5t-58.5 -11.5q-47 0 -78 21t-31 58
q0 34 28.5 62.5t86.5 54.5l-2 4q-20 -5 -50 -5q-90 0 -136.5 34t-62.5 99.5t-16 177.5v399h84z" />
    <glyph glyph-name="uogonek" unicode="&#x173;" 
d="M502 0q-69 -44 -91 -69.5t-22 -44.5t12 -28t30 -9q31 0 52 26l40 -41q-11 -18 -34.5 -29.5t-58.5 -11.5q-48 0 -78.5 21t-30.5 59q0 69 115 124l-1 3h-13v84h-4q-41 -96 -147 -96q-82 0 -130.5 52t-48.5 145v331h80v-317q0 -70 31 -105t91 -35q53 0 90.5 25.5t37.5 73.5
v358h80v-516z" />
    <glyph glyph-name="Wcircumflex" unicode="&#x174;" horiz-adv-x="900" 
d="M25 698h89l75 -336l58 -261h2l65 261l88 336h96l85 -336l65 -260h3l60 260l79 336h86l-179 -698h-93l-91 348l-64 256h-2l-66 -256l-93 -348h-93zM496 935l111 -143l-45 -31l-117 117l-117 -117l-43 31l111 143h100z" />
    <glyph glyph-name="wcircumflex" unicode="&#x175;" horiz-adv-x="900" 
d="M155 516l53 -199l67 -250h2l77 252l61 197h71l62 -197l79 -252h2l66 251l53 198h75l-147 -516h-99l-127 405h-2l-51 -165l-75 -240h-97l-148 516h78zM501 765l111 -143l-45 -31l-117 117l-117 -117l-43 31l111 143h100z" />
    <glyph glyph-name="Ycircumflex" unicode="&#x176;" 
d="M258 0v274l-241 424h96l100 -182l85 -159h4l187 341h94l-241 -424v-274h-84zM350 935l111 -143l-45 -31l-117 117l-117 -117l-43 31l111 143h100z" />
    <glyph glyph-name="ycircumflex" unicode="&#x177;" 
d="M467 516h80l-256 -629q-19 -47 -47.5 -67t-84.5 -20h-76v68h91q30 0 40 27l47 115l-208 506h82l87 -216l77 -196h4l77 196zM350 765l111 -143l-45 -31l-117 117l-117 -117l-43 31l111 143h100z" />
    <glyph glyph-name="Ydieresis" unicode="&#x178;" 
d="M258 0v274l-241 424h96l100 -182l85 -159h4l187 341h94l-241 -424v-274h-84zM445 892v-106h-106v106h106zM259 892v-106h-106v106h106z" />
    <glyph glyph-name="Zacute" unicode="&#x179;" 
d="M552 0h-504v75l395 550h-378v73h470v-75l-396 -550h413v-73zM307 755l-52 24l85 170l73 -35z" />
    <glyph glyph-name="zacute" unicode="&#x17a;" 
d="M85 0v77l333 371h-322v68h409v-77l-333 -371h343v-68h-430zM307 585l-52 24l85 170l73 -35z" />
    <glyph glyph-name="Zdotaccent" unicode="&#x17b;" 
d="M552 0h-504v75l395 550h-378v73h470v-75l-396 -550h413v-73zM353 894v-106h-106v106h106z" />
    <glyph glyph-name="zdotaccent" unicode="&#x17c;" 
d="M85 0v77l333 371h-322v68h409v-77l-333 -371h343v-68h-430zM352 724v-106h-106v106h106z" />
    <glyph glyph-name="Zcaron" unicode="&#x17d;" 
d="M552 0h-504v75l395 550h-378v73h470v-75l-396 -550h413v-73zM250 769l-111 143l45 31l117 -117l117 117l43 -31l-111 -143h-100z" />
    <glyph glyph-name="zcaron" unicode="&#x17e;" 
d="M85 0v77l333 371h-322v68h409v-77l-333 -371h343v-68h-430zM250 599l-111 143l46 31l117 -117l117 117l42 -31l-111 -143h-100z" />
    <glyph glyph-name="uni018F" unicode="&#x18f;" 
d="M56 349v22h399v33q0 111 -39 172t-127 61q-51 0 -91 -28.5t-65 -109.5l-70 33q23 87 82.5 132.5t149.5 45.5q130 0 189.5 -92.5t59.5 -267.5q0 -362 -244 -362t-244 361zM417 121.5q38 60.5 38 170.5v10h-312v-10q0 -110 38 -170.5t118 -60.5t118 60.5z" />
    <glyph glyph-name="florin" unicode="&#x192;" 
d="M-31 -132h169q20 0 33 10.5t16 30.5l76 461h-185l11 68h186l24 147q20 113 128 113h183l-12 -69h-170q-42 0 -49 -41l-25 -150h185l-11 -68h-185l-76 -457q-20 -113 -128 -113h-182z" />
    <glyph glyph-name="Ohorn" unicode="&#x1a0;" 
d="M549 710q0 -29 -14 -46t-49 -17h-28q45 -42 65.5 -116.5t20.5 -181.5q0 -361 -244 -361t-244 361t244 361q44 0 80 -12h83q7 0 11 4t4 11v97h71v-100zM417.5 121.5q37.5 60.5 37.5 170.5v114q0 110 -37.5 170.5t-117.5 60.5t-117.5 -60.5t-37.5 -170.5v-114
q0 -110 37.5 -170.5t117.5 -60.5t117.5 60.5z" />
    <glyph glyph-name="ohorn" unicode="&#x1a1;" 
d="M540 628v-100q0 -61 -63 -61h-22q38 -35 58.5 -88.5t20.5 -120.5q0 -82 -28.5 -143t-81 -94t-124.5 -33t-124.5 33t-81 94t-28.5 143t28.5 143t81 94t124.5 33q43 0 79 -12h75q7 0 11 4t4 11v97h71zM409 98.5q40 41.5 40 122.5v74q0 81 -40 122.5t-109 41.5t-109 -41.5
t-40 -122.5v-74q0 -81 40 -122.5t109 -41.5t109 41.5z" />
    <glyph glyph-name="Uhorn" unicode="&#x1af;" 
d="M164 698v-419q0 -81 7.5 -124.5t36.5 -68.5t92 -25t92 25t36.5 68.5t7.5 124.5v419h78q7 0 11 4t4 11v97h71v-102q0 -29 -14 -46t-49 -17h-17v-346q0 -113 -16.5 -178.5t-63.5 -99t-140 -33.5t-140 33.5t-63.5 99t-16.5 178.5v399h84z" />
    <glyph glyph-name="uhorn" unicode="&#x1b0;" 
d="M587 526q0 -29 -14 -46t-49 -17h-22v-463h-80v84h-4q-41 -96 -147 -96q-82 0 -130.5 52t-48.5 145v331h80v-317q0 -70 31 -105t91 -35q53 0 90.5 25.5t37.5 73.5v358h79q7 0 11 4t4 11v97h71v-102z" />
    <glyph glyph-name="Aringacute" unicode="&#x1fa;" 
d="M481 0l-59 199h-245l-59 -199h-87l214 698h111l214 -698h-89zM304 609h-9l-98 -337h205zM314 987l-47 19l73 113l70 -25zM217.5 769q-33.5 33 -33.5 82t33.5 82t82.5 33t82.5 -33t33.5 -82t-33.5 -82t-82.5 -33t-82.5 33zM342.5 799.5q15.5 14.5 15.5 40.5v22
q0 26 -15.5 40.5t-42.5 14.5t-42.5 -14.5t-15.5 -40.5v-22q0 -26 15.5 -40.5t42.5 -14.5t42.5 14.5z" />
    <glyph glyph-name="aringacute" unicode="&#x1fb;" 
d="M495 0q-81 0 -92 84h-5q-36 -96 -155 -96q-81 0 -129 42t-48 115q0 150 222 150h110v51q0 56 -32 85t-91 29q-94 0 -138 -76l-54 40q21 44 72 74t125 30q91 0 144.5 -46.5t53.5 -127.5v-248q0 -15 10.5 -25.5t25.5 -10.5h36v-70h-55zM358 82.5q40 27.5 40 67.5v85h-110
q-138 0 -138 -78v-21q0 -39 28.5 -60t78.5 -21q61 0 101 27.5zM294 814l-41 26l75 116l60 -37zM200.5 599q-33.5 33 -33.5 82t33.5 82t82.5 33t82.5 -33t33.5 -82t-33.5 -82t-82.5 -33t-82.5 33zM325.5 629.5q15.5 14.5 15.5 40.5v22q0 26 -15.5 40.5t-42.5 14.5
t-42.5 -14.5t-15.5 -40.5v-22q0 -26 15.5 -40.5t42.5 -14.5t42.5 14.5z" />
    <glyph glyph-name="AEacute" unicode="&#x1fc;" horiz-adv-x="900" 
d="M219 205l-102 -205h-86l357 698h462v-74h-323v-234h303v-74h-303v-242h323v-74h-406v205h-225zM254 279h190v345h-13zM491 755l-52 24l85 170l73 -35z" />
    <glyph glyph-name="aeacute" unicode="&#x1fd;" horiz-adv-x="900" 
d="M761 146l57 -40q-25 -54 -77 -86t-118 -32q-51 0 -92.5 18.5t-67 45.5t-31.5 52h-6q-5 -24 -29.5 -51t-66 -46t-95.5 -19q-78 0 -124.5 42t-46.5 112q0 75 56 115.5t164 40.5h102v48q0 55 -30.5 84t-88.5 29q-48 0 -79.5 -19t-54.5 -57l-48 44q22 44 69.5 72.5
t114.5 28.5q78 0 114.5 -35.5t47.5 -79.5h6q6 25 31.5 51.5t65.5 45t89 18.5q64 0 112.5 -32.5t75 -89.5t26.5 -130v-38h-371v-24q0 -68 41.5 -112t111.5 -44q99 0 142 88zM751 309q0 68 -37.5 110t-99.5 42q-65 0 -106.5 -44t-41.5 -112v-7h285v11zM180.5 217
q-32.5 -21 -32.5 -60v-21q0 -38 27.5 -59t75.5 -21q58 0 96.5 27t38.5 67v88h-106q-67 0 -99.5 -21zM440 585l-52 24l85 170l73 -35z" />
    <glyph glyph-name="Oslashacute" unicode="&#x1fe;" 
d="M154 36l-47 -80l-60 36l60 102q-51 89 -51 255q0 361 244 361q91 0 146 -48l47 80l60 -36l-60 -102q51 -89 51 -255q0 -361 -244 -361q-90 0 -146 48zM159 174l248 417q-40 46 -107 46q-80 0 -117.5 -60.5t-37.5 -170.5v-114q0 -72 14 -118zM417.5 121.5
q37.5 60.5 37.5 170.5v114q0 72 -14 118l-248 -417q40 -46 107 -46q80 0 117.5 60.5zM307 755l-52 24l85 170l73 -35z" />
    <glyph glyph-name="oslashacute" unicode="&#x1ff;" 
d="M47 -6l69 84q-50 72 -50 180q0 82 28.5 143t81 94t124.5 33q85 0 145 -49l63 77l45 -34l-69 -84q50 -72 50 -180q0 -82 -28.5 -143t-81 -94t-124.5 -33q-85 0 -145 49l-63 -77zM191 417.5q-40 -41.5 -40 -122.5v-74q0 -50 15 -83l235 287q-37 34 -101 34
q-69 0 -109 -41.5zM409 98.5q40 41.5 40 122.5v74q0 50 -15 83l-235 -287q37 -34 101 -34q69 0 109 41.5zM307 585l-52 24l85 170l73 -35z" />
    <glyph glyph-name="uni0218" unicode="&#x218;" 
d="M148 20.5q-61 32.5 -103 90.5l61 50q41 -52 87 -76.5t108 -24.5q75 0 115.5 35t40.5 98q0 52 -30 80t-100 40l-78 13q-96 16 -138 66.5t-42 123.5q0 94 62 144t171 50q159 0 234 -107l-59 -51q-32 42 -73.5 64t-102.5 22q-71 0 -109 -30.5t-38 -89.5q0 -49 29.5 -78
t101.5 -41l75 -13q182 -32 182 -191q0 -97 -64 -152t-180 -55q-89 0 -150 32.5zM245 -62h109l-76 -189h-61z" />
    <glyph glyph-name="uni0219" unicode="&#x219;" 
d="M67 89l54 47q38 -41 83 -61t104 -20q63 0 100 22.5t37 66.5q0 37 -24 53t-67 22l-81 12q-49 7 -86 19.5t-64 42t-27 81.5q0 75 57 114.5t151 39.5q132 0 210 -83l-52 -49q-54 65 -161 65q-61 0 -93.5 -21t-32.5 -61q0 -37 24.5 -53t66.5 -22l81 -12q50 -7 87 -19.5
t63.5 -42t26.5 -81.5q0 -76 -59 -118.5t-159 -42.5q-150 0 -239 101zM242 -62h109l-76 -189h-61z" />
    <glyph glyph-name="uni021A" unicode="&#x21a;" 
d="M342 625v-625h-84v625h-233v73h550v-73h-233zM248 -62h109l-76 -189h-61z" />
    <glyph glyph-name="uni021B" unicode="&#x21b;" horiz-adv-x="450" 
d="M241 172q0 -48 15 -70.5t43.5 -28t85.5 -5.5h13v-68h-12q-79 0 -126.5 13.5t-73 51.5t-25.5 108v275h-112v68h112v182h80v-182h155v-68h-155v-276zM323 -62h109l-76 -189h-61z" />
    <glyph glyph-name="uni0237" unicode="&#x237;" horiz-adv-x="300" 
d="M192 -27q0 -70 -25.5 -108t-73 -51.5t-126.5 -13.5h-5v68h6q57 0 85.5 5.5t43.5 28t15 70.5v544h80v-543z" />
    <glyph glyph-name="uni0259" unicode="&#x259;" 
d="M449 278v24q0 69 -43 113t-115 44q-51 0 -89 -23.5t-59 -66.5l-59 40q24 54 78.5 86.5t128.5 32.5q73 0 128 -33t84.5 -94t29.5 -142t-30 -142.5t-83.5 -95t-123.5 -33.5q-68 0 -120 32.5t-80.5 89.5t-28.5 130v38h382zM153 207q0 -68 39.5 -110.5t103.5 -42.5
q43 0 78 20.5t55 56.5t20 80v7h-296v-11z" />
    <glyph glyph-name="uni02BB" unicode="&#x2bb;" 
d="M319 776h61l-28 -189h-109z" />
    <glyph glyph-name="uni02BC" unicode="&#x2bc;" 
d="M251 551h-61l7 189h103z" />
    <glyph glyph-name="circumflex" unicode="&#x2c6;" 
d="M350 765l111 -143l-45 -31l-117 117l-117 -117l-43 31l111 143h100z" />
    <glyph glyph-name="caron" unicode="&#x2c7;" 
d="M250 599l-111 143l46 31l117 -117l117 117l42 -31l-111 -143h-100z" />
    <glyph glyph-name="breve" unicode="&#x2d8;" 
d="M194 638q-35 43 -55 108l51 22l21 -34q19 -31 29.5 -45t24.5 -21.5t35 -7.5t35 7.5t24.5 21.5t29.5 45l21 34l51 -22q-20 -65 -55 -108t-106 -43t-106 43z" />
    <glyph glyph-name="dotaccent" unicode="&#x2d9;" 
d="M352 724v-106h-106v106h106z" />
    <glyph glyph-name="ring" unicode="&#x2da;" 
d="M217.5 609q-33.5 33 -33.5 82t33.5 82t82.5 33t82.5 -33t33.5 -82t-33.5 -82t-82.5 -33t-82.5 33zM342.5 639.5q15.5 14.5 15.5 40.5v22q0 26 -15.5 40.5t-42.5 14.5t-42.5 -14.5t-15.5 -40.5v-22q0 -26 15.5 -40.5t42.5 -14.5t42.5 14.5z" />
    <glyph glyph-name="ogonek" unicode="&#x2db;" 
d="M149.5 -186q-30.5 21 -30.5 59q0 69 115 124l-6 15l65 7l7 -19q-69 -44 -91 -69.5t-22 -44.5t12 -28t30 -9q31 0 52 26l40 -41q-11 -18 -34.5 -29.5t-58.5 -11.5q-48 0 -78.5 21z" />
    <glyph glyph-name="tilde" unicode="&#x2dc;" 
d="M336 618q-16 6 -28 12t-15 8q-45 24 -70 24q-15 0 -28.5 -6.5t-29.5 -20.5l-33 40q15 23 39 38t56 15q21 0 37 -6t28 -12t15 -8q45 -24 70 -24q16 0 29 6.5t29 20.5l33 -40q-15 -23 -39 -38t-56 -15q-21 0 -37 6z" />
    <glyph glyph-name="hungarumlaut" unicode="&#x2dd;" 
d="M227 586l-48 22l85 170l69 -33zM387 586l-48 22l85 170l69 -33z" />
    <glyph glyph-name="gravecomb" unicode="&#x300;" horiz-adv-x="0" 
d="M-113 744l73 35l85 -170l-52 -24z" />
    <glyph glyph-name="acutecomb" unicode="&#x301;" horiz-adv-x="0" 
d="M7 585l-52 24l85 170l73 -35z" />
    <glyph glyph-name="uni0302" unicode="&#x302;" horiz-adv-x="0" 
d="M50 765l111 -143l-45 -31l-117 117l-117 -117l-43 31l111 143h100z" />
    <glyph glyph-name="tildecomb" unicode="&#x303;" horiz-adv-x="0" 
d="M36 618q-16 6 -28 12t-15 8q-45 24 -70 24q-15 0 -28.5 -6.5t-29.5 -20.5l-33 40q15 23 39 38t56 15q21 0 37 -6t28 -12t15 -8q45 -24 70 -24q16 0 29 6.5t29 20.5l33 -40q-15 -23 -39 -38t-56 -15q-21 0 -37 6z" />
    <glyph glyph-name="uni0304" unicode="&#x304;" horiz-adv-x="0" 
d="M-140 705h280v-68h-280v68z" />
    <glyph glyph-name="uni0306" unicode="&#x306;" horiz-adv-x="0" 
d="M-106 638q-35 43 -55 108l51 22l21 -34q19 -31 29.5 -45t24.5 -21.5t35 -7.5t35 7.5t24.5 21.5t29.5 45l21 34l51 -22q-20 -65 -55 -108t-106 -43t-106 43z" />
    <glyph glyph-name="uni0307" unicode="&#x307;" horiz-adv-x="0" 
d="M52 724v-106h-106v106h106z" />
    <glyph glyph-name="uni0308" unicode="&#x308;" horiz-adv-x="0" 
d="M145 722v-106h-106v106h106zM-41 722v-106h-106v106h106z" />
    <glyph glyph-name="hookcomb" unicode="&#x309;" horiz-adv-x="0" 
d="M-84 765h109q36 0 53 -15.5t17 -39.5q0 -41 -49 -103l-24 -30l-46 23l58 104h-118v61z" />
    <glyph glyph-name="uni030A" unicode="&#x30a;" horiz-adv-x="0" 
d="M-82.5 609q-33.5 33 -33.5 82t33.5 82t82.5 33t82.5 -33t33.5 -82t-33.5 -82t-82.5 -33t-82.5 33zM42.5 639.5q15.5 14.5 15.5 40.5v22q0 26 -15.5 40.5t-42.5 14.5t-42.5 -14.5t-15.5 -40.5v-22q0 -26 15.5 -40.5t42.5 -14.5t42.5 14.5z" />
    <glyph glyph-name="uni030B" unicode="&#x30b;" horiz-adv-x="0" 
d="M-73 586l-48 22l85 170l69 -33zM87 586l-48 22l85 170l69 -33z" />
    <glyph glyph-name="uni030C" unicode="&#x30c;" horiz-adv-x="0" 
d="M-50 599l-111 143l46 31l117 -117l117 117l42 -31l-111 -143h-100z" />
    <glyph glyph-name="uni0312" unicode="&#x312;" horiz-adv-x="0" 
d="M19 776h61l-28 -189h-109z" />
    <glyph glyph-name="uni0315" unicode="&#x315;" horiz-adv-x="0" 
d="M61 551h-61l7 189h103z" />
    <glyph glyph-name="uni031B" unicode="&#x31b;" horiz-adv-x="0" 
d="M77 526q0 -29 -14 -46t-49 -17h-91v53h83v112h71v-102z" />
    <glyph glyph-name="dotbelowcomb" unicode="&#x323;" horiz-adv-x="0" 
d="M53 -67v-106h-106v106h106z" />
    <glyph glyph-name="uni0326" unicode="&#x326;" horiz-adv-x="0" 
d="M-52 -62h109l-76 -189h-61z" />
    <glyph glyph-name="uni0327" unicode="&#x327;" horiz-adv-x="0" 
d="M-50 -195q-25 12 -37 29l38 41q22 -28 61 -28q20 0 32 8t12 23t-14.5 25t-53.5 16l-28 4l19 97h50l-16 -81l3 -3q19 6 39 6q30 0 49 -17.5t19 -48.5q0 -41 -31.5 -62t-79.5 -21q-37 0 -62 12z" />
    <glyph glyph-name="uni0328" unicode="&#x328;" horiz-adv-x="0" 
d="M-150.5 -186q-30.5 21 -30.5 59q0 69 115 124l-6 15l65 7l7 -19q-69 -44 -91 -69.5t-22 -44.5t12 -28t30 -9q31 0 52 26l40 -41q-11 -18 -34.5 -29.5t-58.5 -11.5q-48 0 -78.5 21z" />
    <glyph glyph-name="uni0374" unicode="&#x374;" 
d="M287 696h129l-115 -277h-67z" />
    <glyph glyph-name="uni0375" unicode="&#x375;" 
d="M257 136h129l-115 -277h-67z" />
    <glyph glyph-name="uni037A" unicode="&#x37a;" horiz-adv-x="300" 
d="M173 -116q0 -42 32 -42q9 0 18 2t15 3v-58q-8 -3 -24.5 -6t-36.5 -3q-36 0 -57.5 23t-21.5 72v63h75v-54z" />
    <glyph glyph-name="uni037E" unicode="&#x37e;" 
d="M257 136h129l-115 -277h-67zM384 527v-131h-130v131h130z" />
    <glyph glyph-name="tonos" unicode="&#x384;" 
d="M279 592l29 188l80 -11l-52 -184z" />
    <glyph glyph-name="dieresistonos" unicode="&#x385;" 
d="M257 622l29 188l80 -11l-52 -184zM215 722v-106h-106v106h106zM493 722v-106h-106v106h106z" />
    <glyph glyph-name="Alphatonos" unicode="&#x386;" 
d="M481 0l-59 199h-245l-59 -199h-87l214 698h111l214 -698h-89zM304 609h-9l-98 -337h205zM54 592l29 188l80 -11l-52 -184z" />
    <glyph glyph-name="anoteleia" unicode="&#x387;" 
d="M364 516v-131h-130v131h130z" />
    <glyph glyph-name="Epsilontonos" unicode="&#x388;" 
d="M90 0v698h430v-73h-346v-235h334v-73h-334v-244h346v-73h-430zM-61 592l29 188l80 -11l-52 -184z" />
    <glyph glyph-name="Etatonos" unicode="&#x389;" 
d="M436 317h-272v-317h-84v698h84v-308h272v308h84v-698h-84v317zM-68 592l29 188l80 -11l-52 -184z" />
    <glyph glyph-name="Iotatonos" unicode="&#x38a;" horiz-adv-x="300" 
d="M108 698h84v-698h-84v698zM-83 592l29 188l80 -11l-52 -184z" />
    <glyph glyph-name="Omicrontonos" unicode="&#x38c;" 
d="M56 349q0 361 244 361t244 -361t-244 -361t-244 361zM417.5 121.5q37.5 60.5 37.5 170.5v114q0 110 -37.5 170.5t-117.5 60.5t-117.5 -60.5t-37.5 -170.5v-114q0 -110 37.5 -170.5t117.5 -60.5t117.5 60.5zM-59 592l29 188l80 -11l-52 -184z" />
    <glyph glyph-name="Upsilontonos" unicode="&#x38e;" 
d="M258 0v274l-241 424h96l100 -182l85 -159h4l187 341h94l-241 -424v-274h-84zM-121 592l29 188l80 -11l-52 -184z" />
    <glyph glyph-name="Omegatonos" unicode="&#x38f;" 
d="M54 68h137v10q-64 37 -95.5 118.5t-31.5 196.5q0 153 57.5 235t178.5 82t178.5 -82t57.5 -235q0 -115 -31.5 -196.5t-95.5 -118.5v-10h137v-68h-208v104q48 17 78.5 83t30.5 144v107q0 98 -35 149t-112 51q-76 0 -111.5 -51t-35.5 -149v-107q0 -78 30.5 -144t78.5 -83
v-104h-208v68zM-59 602l29 188l80 -11l-52 -184z" />
    <glyph glyph-name="iotadieresistonos" unicode="&#x390;" horiz-adv-x="300" 
d="M270 0h-100q-40 0 -62.5 23.5t-22.5 61.5v431h80v-420q0 -15 5.5 -20.5t20.5 -5.5h79v-70zM89 622l29 188l80 -11l-52 -184zM47 722v-106h-106v106h106zM325 722v-106h-106v106h106z" />
    <glyph glyph-name="Alpha" unicode="&#x391;" 
d="M481 0l-59 199h-245l-59 -199h-87l214 698h111l214 -698h-89zM304 609h-9l-98 -337h205z" />
    <glyph glyph-name="Beta" unicode="&#x392;" 
d="M88 698h237q89 0 140.5 -49t51.5 -131q0 -60 -29 -97t-80 -53v-3q63 -14 99 -54.5t36 -109.5q0 -56 -24.5 -102t-67.5 -72.5t-96 -26.5h-267v698zM316 395q54 0 83.5 24t29.5 71v39q0 47 -29.5 71.5t-83.5 24.5h-144v-230h144zM330 73q59 0 91.5 27t32.5 79v41
q0 52 -32.5 79t-91.5 27h-158v-253h158z" />
    <glyph glyph-name="Gamma" unicode="&#x393;" 
d="M132 698h391v-73h-307v-625h-84v698z" />
    <glyph glyph-name="uni0394" unicode="&#x394;" 
d="M46 75l199 623h111l198 -623v-75h-508v75zM304 610h-9l-164 -537h336z" />
    <glyph glyph-name="Epsilon" unicode="&#x395;" 
d="M90 0v698h430v-73h-346v-235h334v-73h-334v-244h346v-73h-430z" />
    <glyph glyph-name="Zeta" unicode="&#x396;" 
d="M552 0h-504v75l395 550h-378v73h470v-75l-396 -550h413v-73z" />
    <glyph glyph-name="Eta" unicode="&#x397;" 
d="M436 317h-272v-317h-84v698h84v-308h272v308h84v-698h-84v317z" />
    <glyph glyph-name="Theta" unicode="&#x398;" 
d="M56 349q0 361 244 361t244 -361t-244 -361t-244 361zM417.5 121.5q37.5 60.5 37.5 170.5v114q0 110 -37.5 170.5t-117.5 60.5t-117.5 -60.5t-37.5 -170.5v-114q0 -110 37.5 -170.5t117.5 -60.5t117.5 60.5zM155 302v84h290v-84h-290z" />
    <glyph glyph-name="Iota" unicode="&#x399;" horiz-adv-x="300" 
d="M108 698h84v-698h-84v698z" />
    <glyph glyph-name="Kappa" unicode="&#x39a;" 
d="M269 342l-100 -118v-224h-84v698h84v-364h3l92 116l206 248h101l-245 -294l252 -404h-98z" />
    <glyph glyph-name="Lambda" unicode="&#x39b;" 
d="M355 698l218 -698h-88l-105 352l-78 268h-5l-77 -268l-105 -352h-85l218 698h107z" />
    <glyph glyph-name="Mu" unicode="&#x39c;" horiz-adv-x="900" 
d="M678 588l-59 -117l-167 -304l-166 304l-59 116h-25v-587h-82v698h130l200 -376h4l201 376h130v-698h-82v588h-25z" />
    <glyph glyph-name="Nu" unicode="&#x39d;" 
d="M163 591h-7v-591h-76v698h119l238 -585h7v585h76v-698h-119z" />
    <glyph glyph-name="Xi" unicode="&#x39e;" 
d="M64 698h456v-74h-456v74zM104 390h376v-74h-376v74zM64 74h456v-74h-456v74z" />
    <glyph glyph-name="Omicron" unicode="&#x39f;" 
d="M56 349q0 361 244 361t244 -361t-244 -361t-244 361zM417.5 121.5q37.5 60.5 37.5 170.5v114q0 110 -37.5 170.5t-117.5 60.5t-117.5 -60.5t-37.5 -170.5v-114q0 -110 37.5 -170.5t117.5 -60.5t117.5 60.5z" />
    <glyph glyph-name="Pi" unicode="&#x3a0;" 
d="M83 698h434v-698h-84v625h-266v-625h-84v698z" />
    <glyph glyph-name="Rho" unicode="&#x3a1;" 
d="M90 0v698h254q96 0 147.5 -53t51.5 -148t-51.5 -148t-147.5 -53h-170v-296h-84zM174 369h168q53 0 82.5 26.5t29.5 75.5v52q0 49 -29.5 75.5t-82.5 26.5h-168v-256z" />
    <glyph glyph-name="Sigma" unicode="&#x3a3;" 
d="M70 0v76l228 276l-220 270v76h431v-74h-331l210 -270l-222 -280h343v-74h-439z" />
    <glyph glyph-name="Tau" unicode="&#x3a4;" 
d="M342 625v-625h-84v625h-233v73h550v-73h-233z" />
    <glyph glyph-name="Upsilon" unicode="&#x3a5;" 
d="M258 0v274l-241 424h96l100 -182l85 -159h4l187 341h94l-241 -424v-274h-84z" />
    <glyph glyph-name="Phi" unicode="&#x3a6;" horiz-adv-x="900" 
d="M390 31q-98 0 -168.5 42t-107 115t-36.5 166t36.5 166t107 115t168.5 42h18v48h84v-48h18q98 0 168.5 -42t107 -115t36.5 -166t-36.5 -166t-107 -115t-168.5 -42h-18v-60h-84v60h-18zM390 607q-67 0 -117 -29t-77.5 -79.5t-27.5 -113.5v-62q0 -63 27.5 -113.5t77.5 -79.5
t117 -29h20v506h-20zM627 130q50 29 77.5 79.5t27.5 113.5v62q0 63 -27.5 113.5t-77.5 79.5t-117 29h-20v-506h20q67 0 117 29z" />
    <glyph glyph-name="Chi" unicode="&#x3a7;" 
d="M575 0h-95l-83 139l-92 152h-4l-95 -152l-88 -139h-92l228 356l-215 342h95l81 -135l87 -141h4l86 141l84 135h92l-216 -341z" />
    <glyph glyph-name="Psi" unicode="&#x3a8;" horiz-adv-x="900" 
d="M403 203q-131 0 -208 66.5t-77 198.5v230h84v-230q0 -103 54.5 -149t146.5 -46v425h84v-425q92 0 146.5 46t54.5 149v230h84v-230q0 -132 -77 -198.5t-208 -66.5v-203h-84v203z" />
    <glyph glyph-name="Iotadieresis" unicode="&#x3aa;" horiz-adv-x="300" 
d="M108 698h84v-698h-84v698zM297 892v-106h-106v106h106zM111 892v-106h-106v106h106z" />
    <glyph glyph-name="Upsilondieresis" unicode="&#x3ab;" 
d="M258 0v274l-241 424h96l100 -182l85 -159h4l187 341h94l-241 -424v-274h-84zM445 892v-106h-106v106h106zM259 892v-106h-106v106h106z" />
    <glyph glyph-name="alphatonos" unicode="&#x3ac;" 
d="M554 0h-54q-40 0 -62.5 23t-22.5 61h-4q-46 -96 -151 -96q-64 0 -111.5 33t-73 94t-25.5 143t25.5 143t73 94t111.5 33q54 0 92.5 -24t58.5 -72h4v84h80v-446h59v-70zM377 88q38 28 38 77v192q0 42 -39 70.5t-94 28.5q-67 0 -106.5 -42t-39.5 -112v-88q0 -70 39.5 -112
t106.5 -42q57 0 95 28zM249 616l29 188l80 -11l-52 -184z" />
    <glyph glyph-name="epsilontonos" unicode="&#x3ad;" 
d="M510 99q-63 -111 -224 -111q-101 0 -153.5 40t-52.5 109q0 105 127 128v4q-55 6 -85.5 34.5t-30.5 75.5q0 43 24.5 76.5t71 53t108.5 19.5q74 0 128 -27t82 -74l-58 -46q-20 36 -59 56t-94 20q-59 0 -88 -21t-29 -50v-12q0 -33 26.5 -53.5t71.5 -20.5h122v-67h-122
q-54 0 -81.5 -20.5t-27.5 -59.5v-12q0 -39 31.5 -60.5t93.5 -21.5q118 0 162 81zM272 602l29 188l80 -11l-52 -184z" />
    <glyph glyph-name="etatonos" unicode="&#x3ae;" 
d="M110 0v446h-59v70h54q40 0 62.5 -23t22.5 -61h4q41 96 146 96q80 0 126.5 -52t46.5 -145v-531h-80v517q0 69 -29.5 104t-87.5 35q-52 0 -89 -25.5t-37 -72.5v-358h-80zM295 604l29 188l80 -11l-52 -184z" />
    <glyph glyph-name="iotatonos" unicode="&#x3af;" horiz-adv-x="300" 
d="M270 0h-100q-40 0 -62.5 23.5t-22.5 61.5v431h80v-420q0 -15 5.5 -20.5t20.5 -5.5h79v-70zM101 592l29 188l80 -11l-52 -184z" />
    <glyph glyph-name="upsilondieresistonos" unicode="&#x3b0;" 
d="M176 234q0 -91 29.5 -133t94.5 -42t94.5 42t29.5 133v282h80v-270q0 -132 -51 -195t-153 -63t-153 63t-51 195v270h80v-282zM267 646l29 188l80 -11l-52 -184zM225 746v-106h-106v106h106zM503 746v-106h-106v106h106z" />
    <glyph glyph-name="alpha" unicode="&#x3b1;" 
d="M554 0h-54q-40 0 -62.5 23t-22.5 61h-4q-46 -96 -151 -96q-64 0 -111.5 33t-73 94t-25.5 143t25.5 143t73 94t111.5 33q54 0 92.5 -24t58.5 -72h4v84h80v-446h59v-70zM377 88q38 28 38 77v192q0 42 -39 70.5t-94 28.5q-67 0 -106.5 -42t-39.5 -112v-88q0 -70 39.5 -112
t106.5 -42q57 0 95 28z" />
    <glyph glyph-name="beta" unicode="&#x3b2;" 
d="M85 521q0 107 54.5 169t156.5 62q90 0 144 -48t54 -130q0 -71 -40 -114.5t-94 -52.5v-4q71 -9 120.5 -55t49.5 -137q0 -63 -26 -114t-74.5 -80t-113.5 -29q-50 0 -87.5 18t-59.5 54h-4v-260h-80v721zM246 438h47q58 0 86.5 30t28.5 83v24q0 49 -29.5 77t-87.5 28
q-64 0 -95 -36.5t-31 -116.5v-390q0 -35 38 -56t93 -21q70 0 109 37t39 105v24q0 68 -39 105t-107 37h-52v70z" />
    <glyph glyph-name="gamma" unicode="&#x3b3;" 
d="M276 0l-152 446h-64v70h55q34 0 54.5 -13t31.5 -46l66 -198l47 -165h5l53 165l95 257h77l-188 -516v-200h-80v200z" />
    <glyph glyph-name="delta" unicode="&#x3b4;" 
d="M279 670l-70 5v-4l143 -114q100 -80 140.5 -147.5t40.5 -150.5t-29.5 -144t-82 -94t-121.5 -33q-68 0 -121 33t-82.5 92.5t-29.5 136.5q0 84 29.5 144t78.5 91t107 31v5l-145 126v93h342v-70h-200zM437 330.5q-10 36.5 -36.5 72.5t-79.5 84q-75 -9 -121.5 -63.5
t-46.5 -146.5v-54q0 -81 40 -122.5t107 -41.5t107 41.5t40 122.5v18q0 53 -10 89.5z" />
    <glyph glyph-name="epsilon" unicode="&#x3b5;" 
d="M510 99q-63 -111 -224 -111q-101 0 -153.5 40t-52.5 109q0 105 127 128v4q-55 6 -85.5 34.5t-30.5 75.5q0 43 24.5 76.5t71 53t108.5 19.5q74 0 128 -27t82 -74l-58 -46q-20 36 -59 56t-94 20q-59 0 -88 -21t-29 -50v-12q0 -33 26.5 -53.5t71.5 -20.5h122v-67h-122
q-54 0 -81.5 -20.5t-27.5 -59.5v-12q0 -39 31.5 -60.5t93.5 -21.5q118 0 162 81z" />
    <glyph glyph-name="zeta" unicode="&#x3b6;" 
d="M114 740h372v-60l-196 -221q-62 -69 -84.5 -124t-22.5 -106v-14q0 -56 33 -87.5t115 -48.5l92 -19q34 -7 50.5 -26.5t16.5 -47.5q0 -13 -5 -33l-30 -112l-76 19l34 127l-92 18q-86 17 -134.5 44t-69 68t-20.5 105q0 61 24 119.5t99 141.5l169 187v5l-62 -5h-213v70z" />
    <glyph glyph-name="eta" unicode="&#x3b7;" 
d="M110 0v446h-59v70h54q40 0 62.5 -23t22.5 -61h4q41 96 146 96q80 0 126.5 -52t46.5 -145v-531h-80v517q0 69 -29.5 104t-87.5 35q-52 0 -89 -25.5t-37 -72.5v-358h-80z" />
    <glyph glyph-name="theta" unicode="&#x3b8;" 
d="M468.5 664.5q56.5 -87.5 56.5 -294.5t-56.5 -294.5t-168.5 -87.5t-168.5 87.5t-56.5 294.5t56.5 294.5t168.5 87.5t168.5 -87.5zM161 405h278v63q0 114 -35 164.5t-104 50.5t-104 -50.5t-35 -164.5v-63zM404 107.5q35 50.5 35 164.5v63h-278v-63q0 -114 35 -164.5
t104 -50.5t104 50.5z" />
    <glyph glyph-name="iota" unicode="&#x3b9;" horiz-adv-x="300" 
d="M270 0h-100q-40 0 -62.5 23.5t-22.5 61.5v431h80v-420q0 -15 5.5 -20.5t20.5 -5.5h79v-70z" />
    <glyph glyph-name="kappa" unicode="&#x3ba;" 
d="M240 246l-67 -72v-174h-80v516h80v-253h4l50 59l153 165q15 16 30 22.5t36 6.5h49v-70h-59l-139 -150l221 -296h-97z" />
    <glyph glyph-name="lambda" unicode="&#x3bb;" 
d="M192 670h-104v70h95q36 0 56 -14t29 -43l199 -613h64v-70h-55q-36 0 -56 14t-29 43l-65 201l-47 178h-5l-58 -178l-101 -258h-79l206 516z" />
    <glyph glyph-name="uni03BC" unicode="&#x3bc;" 
d="M85 -200v716h80v-317q0 -69 30 -104t88 -35q51 0 88 26t37 74v356h80v-446h59v-70h-54q-40 0 -62.5 23t-22.5 61h-4q-36 -96 -126 -96q-47 0 -79.5 25t-46.5 71h-4l17 -149v-135h-80z" />
    <glyph glyph-name="nu" unicode="&#x3bd;" 
d="M253 0l-149 446h-54v70h45q34 0 54.5 -13t31.5 -46l64 -198l53 -175h5l58 175l95 257h77l-187 -516h-93z" />
    <glyph glyph-name="xi" unicode="&#x3be;" 
d="M345 670q-55 0 -87 -33.5t-32 -94.5v-14q0 -53 28.5 -81t81.5 -28h87v-70h-87q-76 0 -111 -32t-35 -94v-14q0 -50 30.5 -80.5t99.5 -48.5l76 -20q67 -17 67 -74q0 -13 -5 -33l-30 -112l-76 19l34 127l-76 19q-77 19 -121.5 45.5t-64.5 65.5t-20 99q0 67 41 113t112 55v4
q-60 15 -88.5 51t-28.5 96q0 47 23.5 80t68.5 48v7h-137v70h383v-70h-133z" />
    <glyph glyph-name="omicron" unicode="&#x3bf;" 
d="M175.5 21q-52.5 33 -81 94t-28.5 143t28.5 143t81 94t124.5 33t124.5 -33t81 -94t28.5 -143t-28.5 -143t-81 -94t-124.5 -33t-124.5 33zM409 98.5q40 41.5 40 122.5v74q0 81 -40 122.5t-109 41.5t-109 -41.5t-40 -122.5v-74q0 -81 40 -122.5t109 -41.5t109 41.5z" />
    <glyph glyph-name="pi" unicode="&#x3c0;" 
d="M112 448h-92v68h545v-68h-92v-380h92v-68h-58q-56 0 -85 32t-29 86v330h-201v-448h-80v448z" />
    <glyph glyph-name="rho" unicode="&#x3c1;" 
d="M78 296q0 65 25.5 118t76 83.5t122.5 30.5q107 0 163.5 -69.5t56.5 -196.5q0 -129 -56.5 -201.5t-155.5 -72.5q-50 0 -89 18.5t-59 52.5h-4v-259h-80v496zM399.5 101.5q36.5 41.5 36.5 119.5v74q0 77 -36.5 119t-102.5 42t-102.5 -42t-36.5 -119v-158q0 -35 39 -56
t93 -21q73 0 109.5 41.5z" />
    <glyph glyph-name="uni03C2" unicode="&#x3c2;" 
d="M391 -13l-121 33q-89 24 -132 81.5t-43 158.5q0 125 59 196.5t160 71.5q66 0 112.5 -31.5t71.5 -89.5l-67 -34q-14 40 -45 62t-74 22q-60 0 -95.5 -43t-35.5 -112v-68q0 -58 31.5 -94.5t96.5 -54.5l92 -25q67 -19 67 -74q0 -13 -5 -33l-30 -112l-76 19z" />
    <glyph glyph-name="sigma" unicode="&#x3c3;" 
d="M420 446v-7q49 -23 71 -68t22 -119q0 -78 -29.5 -138t-82.5 -93t-121 -33t-121 33t-82.5 93t-29.5 138q0 121 64.5 192.5t180.5 71.5h266v-70h-138zM292 446q-75 0 -117 -41.5t-42 -121.5v-62q0 -79 40 -120.5t107 -41.5t107 41.5t40 120.5v62q0 53 -15.5 90.5
t-49.5 72.5h-70z" />
    <glyph glyph-name="tau" unicode="&#x3c4;" 
d="M333 0q-40 0 -62.5 23.5t-22.5 61.5v361h-168v70h425v-70h-177v-351q0 -25 25 -25h90v-70h-110z" />
    <glyph glyph-name="upsilon" unicode="&#x3c5;" 
d="M176 234q0 -91 29.5 -133t94.5 -42t94.5 42t29.5 133v282h80v-270q0 -132 -51 -195t-153 -63t-153 63t-51 195v270h80v-282z" />
    <glyph glyph-name="phi" unicode="&#x3c6;" horiz-adv-x="900" 
d="M407 -12q-97 0 -166.5 32.5t-105 91.5t-35.5 138q0 105 37.5 174.5t107.5 103.5l45 -56q-54 -27 -79 -75t-25 -128v-39q0 -88 55.5 -129.5t165.5 -41.5v215q0 131 44.5 192.5t130.5 61.5q118 0 169.5 -59.5t51.5 -194.5q0 -141 -79 -213.5t-237 -72.5v-188h-80v188z
M487 59q118 0 174 40t56 131v69q0 60 -13 94t-42.5 49t-79.5 15q-47 0 -71 -36.5t-24 -121.5v-240z" />
    <glyph glyph-name="chi" unicode="&#x3c7;" 
d="M132 516q36 0 54 -12.5t32 -44.5l93 -219h3l134 276h88l-179 -344l128 -302h69v-70h-60q-36 0 -54.5 12.5t-31.5 44.5l-100 242h-3l-140 -299h-88l185 367l-121 279h-69v70h60z" />
    <glyph glyph-name="psi" unicode="&#x3c8;" horiz-adv-x="900" 
d="M410 -200v188q-293 0 -293 270v258h80v-282q0 -89 48.5 -132t164.5 -43v651h80v-651q116 0 164.5 43t48.5 132v282h80v-258q0 -270 -293 -270v-188h-80z" />
    <glyph glyph-name="omega" unicode="&#x3c9;" horiz-adv-x="900" 
d="M490 217q0 -85 24 -121.5t71 -36.5q55 0 86.5 15t45 49t13.5 94v52q0 152 -104 203l-5 56q105 -32 150 -99.5t45 -186.5q0 -134 -53 -194t-168 -60q-59 0 -94.5 34t-48.5 93h-4q-13 -59 -48.5 -93t-94.5 -34q-115 0 -168 60t-53 194q0 217 145 286l45 -56
q-54 -27 -79 -75t-25 -128v-52q0 -60 13.5 -94t45 -49t86.5 -15q47 0 71 36.5t24 121.5v132h80v-132z" />
    <glyph glyph-name="iotadieresis" unicode="&#x3ca;" horiz-adv-x="300" 
d="M270 0h-100q-40 0 -62.5 23.5t-22.5 61.5v431h80v-420q0 -15 5.5 -20.5t20.5 -5.5h79v-70zM269 722v-106h-106v106h106zM83 722v-106h-106v106h106z" />
    <glyph glyph-name="upsilondieresis" unicode="&#x3cb;" 
d="M176 234q0 -91 29.5 -133t94.5 -42t94.5 42t29.5 133v282h80v-270q0 -132 -51 -195t-153 -63t-153 63t-51 195v270h80v-282zM447 746v-106h-106v106h106zM261 746v-106h-106v106h106z" />
    <glyph glyph-name="omicrontonos" unicode="&#x3cc;" 
d="M175.5 21q-52.5 33 -81 94t-28.5 143t28.5 143t81 94t124.5 33t124.5 -33t81 -94t28.5 -143t-28.5 -143t-81 -94t-124.5 -33t-124.5 33zM409 98.5q40 41.5 40 122.5v74q0 81 -40 122.5t-109 41.5t-109 -41.5t-40 -122.5v-74q0 -81 40 -122.5t109 -41.5t109 41.5zM277 592
l29 188l80 -11l-52 -184z" />
    <glyph glyph-name="upsilontonos" unicode="&#x3cd;" 
d="M176 234q0 -91 29.5 -133t94.5 -42t94.5 42t29.5 133v282h80v-270q0 -132 -51 -195t-153 -63t-153 63t-51 195v270h80v-282zM279 616l29 188l80 -11l-52 -184z" />
    <glyph glyph-name="omegatonos" unicode="&#x3ce;" horiz-adv-x="900" 
d="M490 217q0 -85 24 -121.5t71 -36.5q55 0 86.5 15t45 49t13.5 94v52q0 152 -104 203l-5 56q105 -32 150 -99.5t45 -186.5q0 -134 -53 -194t-168 -60q-59 0 -94.5 34t-48.5 93h-4q-13 -59 -48.5 -93t-94.5 -34q-115 0 -168 60t-53 194q0 217 145 286l45 -56
q-54 -27 -79 -75t-25 -128v-52q0 -60 13.5 -94t45 -49t86.5 -15q47 0 71 36.5t24 121.5v132h80v-132zM420 592l29 188l80 -11l-52 -184z" />
    <glyph glyph-name="uni0400" unicode="&#x400;" 
d="M90 0v698h430v-73h-346v-235h334v-73h-334v-244h346v-73h-430zM192 914l73 35l85 -170l-52 -24z" />
    <glyph glyph-name="uni0401" unicode="&#x401;" 
d="M90 0v698h430v-73h-346v-235h334v-73h-334v-244h346v-73h-430zM450 892v-106h-106v106h106zM264 892v-106h-106v106h106z" />
    <glyph glyph-name="uni0402" unicode="&#x402;" 
d="M254 -91h214v321q0 70 -25.5 102.5t-81.5 32.5q-28 0 -57 -5.5t-50 -14.5v-345h-84v625h-160v73h404v-73h-160v-206h5q57 19 105 19q98 0 143 -53t45 -155v-276q0 -54 -29 -86t-85 -32h-184v73z" />
    <glyph glyph-name="uni0403" unicode="&#x403;" 
d="M132 698h391v-73h-307v-625h-84v698zM334 755l-52 24l85 170l73 -35z" />
    <glyph glyph-name="uni0404" unicode="&#x404;" 
d="M156 317v-25q0 -108 42 -169.5t125 -61.5q60 0 92 29t54 84l72 -33q-31 -70 -80 -111.5t-138 -41.5q-128 0 -192 92.5t-64 268.5t64 268.5t192 92.5q89 0 138 -41.5t80 -111.5l-72 -33q-22 55 -54 84t-92 29q-83 0 -125 -61.5t-42 -169.5v-16h231v-73h-231z" />
    <glyph glyph-name="uni0405" unicode="&#x405;" 
d="M148 20.5q-61 32.5 -103 90.5l61 50q41 -52 87 -76.5t108 -24.5q75 0 115.5 35t40.5 98q0 52 -30 80t-100 40l-78 13q-96 16 -138 66.5t-42 123.5q0 94 62 144t171 50q159 0 234 -107l-59 -51q-32 42 -73.5 64t-102.5 22q-71 0 -109 -30.5t-38 -89.5q0 -49 29.5 -78
t101.5 -41l75 -13q182 -32 182 -191q0 -97 -64 -152t-180 -55q-89 0 -150 32.5z" />
    <glyph glyph-name="uni0406" unicode="&#x406;" horiz-adv-x="300" 
d="M108 698h84v-698h-84v698z" />
    <glyph glyph-name="uni0407" unicode="&#x407;" horiz-adv-x="300" 
d="M108 698h84v-698h-84v698zM295 892v-106h-106v106h106zM109 892v-106h-106v106h106z" />
    <glyph glyph-name="uni0408" unicode="&#x408;" 
d="M480 698v-517q0 -58 -26 -102t-73 -67.5t-107 -23.5q-79 0 -131.5 41.5t-68.5 116.5l80 17q11 -47 39.5 -74t82.5 -27q58 0 89 33.5t31 100.5v429h-252v73h336z" />
    <glyph glyph-name="uni0409" unicode="&#x409;" horiz-adv-x="900" 
d="M40 74q33 31 52 79t28 131.5t9 220.5v193h400v-280h208q93 0 144 -55t51 -154t-51 -154t-144 -55h-292v624h-236v-125q0 -206 -23.5 -307.5t-72.5 -150.5q-21 -21 -47 -31t-62 -10h-36v74h72zM814.5 101.5q27.5 27.5 27.5 81.5v52q0 54 -27.5 81.5t-77.5 27.5h-208v-270
h208q50 0 77.5 27.5z" />
    <glyph glyph-name="uni040A" unicode="&#x40a;" horiz-adv-x="900" 
d="M82 698v-308h333v308h84v-280h208q93 0 144 -55t51 -154t-51 -154t-144 -55h-292v316h-333v-316h-84v698h84zM784.5 101.5q27.5 27.5 27.5 81.5v52q0 54 -27.5 81.5t-77.5 27.5h-208v-270h208q50 0 77.5 27.5z" />
    <glyph glyph-name="uni040B" unicode="&#x40b;" 
d="M170 625h-160v73h404v-73h-160v-206h5q57 19 105 19q98 0 143 -53t45 -155v-230h-84v230q0 70 -25.5 102.5t-81.5 32.5q-28 0 -57 -5.5t-50 -14.5v-345h-84v625z" />
    <glyph glyph-name="uni040C" unicode="&#x40c;" 
d="M80 698h84v-308h123l148 308h89l-133 -276q-17 -34 -31.5 -48t-33.5 -17v-5q23 -5 37.5 -20.5t32.5 -56.5l75 -168q15 -34 52 -34h28v-73h-63q-30 0 -53 18t-40 56l-108 244h-123v-318h-84v698zM293 755l-52 24l85 170l73 -35z" />
    <glyph glyph-name="uni040D" unicode="&#x40d;" 
d="M80 698h84v-352l-14 -202h5l285 554h80v-698h-84v352l14 202h-5l-285 -554h-80v698zM187 914l73 35l85 -170l-52 -24z" />
    <glyph glyph-name="uni040E" unicode="&#x40e;" 
d="M139 73h104l35 90l-234 535h90l139 -328l41 -112h2l38 111l122 329h86l-228 -602q-15 -40 -31.5 -60.5t-40 -28t-63.5 -7.5h-60v73zM217.5 787q-32.5 22 -56.5 71l-28 57l72 23l40 -106q17 -6 55 -6t55 6l40 106l72 -23l-28 -57q-24 -49 -56.5 -71t-82.5 -22t-82.5 22z
" />
    <glyph glyph-name="uni040F" unicode="&#x40f;" 
d="M262 0h-179v698h84v-625h266v625h84v-698h-178v-150h-77v150z" />
    <glyph glyph-name="uni0410" unicode="&#x410;" 
d="M481 0l-59 199h-245l-59 -199h-87l214 698h111l214 -698h-89zM304 609h-9l-98 -337h205z" />
    <glyph glyph-name="uni0411" unicode="&#x411;" 
d="M85 698h394v-73h-310v-207h172q94 0 144.5 -54.5t50.5 -154.5t-50.5 -154.5t-144.5 -54.5h-256v698zM339 73q51 0 79.5 27.5t28.5 82.5v52q0 55 -28.5 82.5t-79.5 27.5h-170v-272h170z" />
    <glyph glyph-name="uni0412" unicode="&#x412;" 
d="M88 698h237q89 0 140.5 -49t51.5 -131q0 -60 -29 -97t-80 -53v-3q63 -14 99 -54.5t36 -109.5q0 -56 -24.5 -102t-67.5 -72.5t-96 -26.5h-267v698zM316 395q54 0 83.5 24t29.5 71v39q0 47 -29.5 71.5t-83.5 24.5h-144v-230h144zM330 73q59 0 91.5 27t32.5 79v41
q0 52 -32.5 79t-91.5 27h-158v-253h158z" />
    <glyph glyph-name="uni0413" unicode="&#x413;" 
d="M132 698h391v-73h-307v-625h-84v698z" />
    <glyph glyph-name="uni0414" unicode="&#x414;" horiz-adv-x="900" 
d="M181 74q46 67 69.5 167.5t23.5 251.5v205h420v-624h98v-224h-77v150h-530v-150h-77v224h73zM610 624h-256v-137q0 -291 -75 -408v-5h331v550z" />
    <glyph glyph-name="uni0415" unicode="&#x415;" 
d="M90 0v698h430v-73h-346v-235h334v-73h-334v-244h346v-73h-430z" />
    <glyph glyph-name="uni0416" unicode="&#x416;" horiz-adv-x="900" 
d="M38 74q29 0 41 25l95 184q17 32 33 47t40 21v5q-21 6 -37 21t-30 44l-82 177q-12 26 -41 26h-34v74h52q33 0 57.5 -17t42.5 -55l110 -237h123v309h84v-309h123l112 237q18 39 41.5 55.5t56.5 16.5h52v-74h-34q-29 0 -41 -26l-84 -177q-14 -29 -29.5 -44t-35.5 -21v-5
q24 -6 41.5 -21t33.5 -47l93 -184q13 -25 41 -25h35v-74h-64q-29 0 -51.5 16.5t-42.5 56.5l-124 244h-123v-317h-84v317h-123l-126 -244q-21 -40 -42 -56.5t-50 -16.5h-64v74h35z" />
    <glyph glyph-name="uni0417" unicode="&#x417;" 
d="M140.5 21q-59.5 33 -100.5 90l61 50q38 -51 82 -76t98 -25q70 0 110.5 33.5t40.5 93.5v21q0 53 -36.5 84.5t-107.5 31.5h-98v73h92q135 0 135 114v21q0 49 -34.5 77.5t-98.5 28.5q-55 0 -93 -20t-63 -58l-63 41q37 54 90.5 81.5t128.5 27.5q107 0 164 -49.5t57 -134.5
q0 -70 -36.5 -111t-96.5 -50v-5q66 -8 107.5 -49t41.5 -115q0 -61 -29 -108.5t-83 -73.5t-128 -26q-81 0 -140.5 33z" />
    <glyph glyph-name="uni0418" unicode="&#x418;" 
d="M80 698h84v-352l-14 -202h5l285 554h80v-698h-84v352l14 202h-5l-285 -554h-80v698z" />
    <glyph glyph-name="uni0419" unicode="&#x419;" 
d="M80 698h84v-352l-14 -202h5l285 554h80v-698h-84v352l14 202h-5l-285 -554h-80v698zM217.5 787q-32.5 22 -56.5 71l-28 57l72 23l40 -106q17 -6 55 -6t55 6l40 106l72 -23l-28 -57q-24 -49 -56.5 -71t-82.5 -22t-82.5 22z" />
    <glyph glyph-name="uni041A" unicode="&#x41a;" 
d="M80 698h84v-308h123l148 308h89l-133 -276q-17 -34 -31.5 -48t-33.5 -17v-5q23 -5 37.5 -20.5t32.5 -56.5l75 -168q15 -34 52 -34h28v-73h-63q-30 0 -53 18t-40 56l-108 244h-123v-318h-84v698z" />
    <glyph glyph-name="uni041B" unicode="&#x41b;" 
d="M437 625h-196v-126q0 -206 -23.5 -308t-72.5 -151q-21 -21 -47 -30.5t-62 -9.5h-31v73h67q32 31 51 79t27.5 131.5t8.5 221.5v193h362v-698h-84v625z" />
    <glyph glyph-name="uni041C" unicode="&#x41c;" horiz-adv-x="900" 
d="M678 588l-59 -117l-167 -304l-166 304l-59 116h-25v-587h-82v698h130l200 -376h4l201 376h130v-698h-82v588h-25z" />
    <glyph glyph-name="uni041D" unicode="&#x41d;" 
d="M436 317h-272v-317h-84v698h84v-308h272v308h84v-698h-84v317z" />
    <glyph glyph-name="uni041E" unicode="&#x41e;" 
d="M56 349q0 361 244 361t244 -361t-244 -361t-244 361zM417.5 121.5q37.5 60.5 37.5 170.5v114q0 110 -37.5 170.5t-117.5 60.5t-117.5 -60.5t-37.5 -170.5v-114q0 -110 37.5 -170.5t117.5 -60.5t117.5 60.5z" />
    <glyph glyph-name="uni041F" unicode="&#x41f;" 
d="M83 698h434v-698h-84v625h-266v-625h-84v698z" />
    <glyph glyph-name="uni0420" unicode="&#x420;" 
d="M90 0v698h254q96 0 147.5 -53t51.5 -148t-51.5 -148t-147.5 -53h-170v-296h-84zM174 369h168q53 0 82.5 26.5t29.5 75.5v52q0 49 -29.5 75.5t-82.5 26.5h-168v-256z" />
    <glyph glyph-name="uni0421" unicode="&#x421;" 
d="M133.5 80.5q-63.5 92.5 -63.5 268.5t63.5 268.5t189.5 92.5q87 0 135.5 -41.5t79.5 -111.5l-72 -33q-22 55 -53.5 84t-89.5 29q-81 0 -122.5 -61.5t-41.5 -169.5v-114q0 -108 41.5 -169.5t122.5 -61.5q58 0 89.5 29t53.5 84l72 -33q-31 -70 -79.5 -111.5t-135.5 -41.5
q-126 0 -189.5 92.5z" />
    <glyph glyph-name="uni0422" unicode="&#x422;" 
d="M342 625v-625h-84v625h-233v73h550v-73h-233z" />
    <glyph glyph-name="uni0423" unicode="&#x423;" 
d="M139 73h104l35 90l-234 535h90l139 -328l41 -112h2l38 111l122 329h86l-228 -602q-15 -40 -31.5 -60.5t-40 -28t-63.5 -7.5h-60v73z" />
    <glyph glyph-name="uni0424" unicode="&#x424;" horiz-adv-x="900" 
d="M377 61q-92 0 -160 37t-103.5 102.5t-35.5 147.5t36 147.5t104 102.5t160 37h30v90h84v-90h30q92 0 160 -37t104 -102.5t36 -147.5t-36 -147.5t-104 -102.5t-160 -37h-30v-90h-84v90h-31zM410 565h-32q-61 0 -109 -24t-74.5 -66.5t-26.5 -95.5v-62q0 -53 26.5 -95.5
t74 -66.5t108.5 -24h33v434zM631 155q48 24 74.5 66.5t26.5 95.5v62q0 53 -26.5 95.5t-74.5 66.5t-109 24h-32v-434h32q61 0 109 24z" />
    <glyph glyph-name="uni0425" unicode="&#x425;" 
d="M575 0h-95l-83 139l-92 152h-4l-95 -152l-88 -139h-92l228 356l-215 342h95l81 -135l87 -141h4l86 141l84 135h92l-216 -341z" />
    <glyph glyph-name="uni0426" unicode="&#x426;" 
d="M497 0h-417v698h84v-625h251v625h84v-625h75v-223h-77v150z" />
    <glyph glyph-name="uni0427" unicode="&#x427;" 
d="M428 275h-5q-59 -23 -140 -23q-122 0 -172.5 59.5t-50.5 188.5v198h84v-198q0 -65 13.5 -103t44 -55t84.5 -17q44 0 76.5 6t65.5 18v349h84v-698h-84v275z" />
    <glyph glyph-name="uni0428" unicode="&#x428;" horiz-adv-x="900" 
d="M149 698v-624h259v624h84v-624h259v624h84v-698h-770v698h84z" />
    <glyph glyph-name="uni0429" unicode="&#x429;" horiz-adv-x="900" 
d="M32 0v698h84v-624h259v624h84v-624h259v624h84v-624h98v-224h-77v150h-791z" />
    <glyph glyph-name="uni042A" unicode="&#x42a;" 
d="M170 625h-160v73h244v-280h131q94 0 144.5 -54.5t50.5 -154.5t-50.5 -154.5t-144.5 -54.5h-215v625zM383 73q51 0 79.5 27.5t28.5 82.5v52q0 55 -28.5 82.5t-79.5 27.5h-129v-272h129z" />
    <glyph glyph-name="uni042B" unicode="&#x42b;" horiz-adv-x="900" 
d="M190 698v-280h208q93 0 144 -55t51 -154t-51 -154t-144 -55h-292v698h84zM795 698v-698h-84v698h84zM475.5 101.5q27.5 27.5 27.5 81.5v52q0 54 -27.5 81.5t-77.5 27.5h-208v-270h208q50 0 77.5 27.5z" />
    <glyph glyph-name="uni042C" unicode="&#x42c;" 
d="M92 698h84v-280h171q94 0 144.5 -54.5t50.5 -154.5t-50.5 -154.5t-144.5 -54.5h-255v698zM345 73q51 0 79.5 27.5t28.5 82.5v52q0 55 -28.5 82.5t-79.5 27.5h-169v-272h169z" />
    <glyph glyph-name="uni042D" unicode="&#x42d;" 
d="M139.5 29.5q-49.5 41.5 -80.5 111.5l72 33q22 -54 54 -83.5t92 -29.5q83 0 125 61.5t42 169.5v25h-231v73h231v16q0 108 -42 169.5t-125 61.5q-60 0 -92 -29.5t-54 -83.5l-72 33q31 70 80.5 111.5t137.5 41.5q128 0 192 -92.5t64 -268.5t-64 -268.5t-192 -92.5
q-88 0 -137.5 41.5z" />
    <glyph glyph-name="uni042E" unicode="&#x42e;" horiz-adv-x="900" 
d="M363.5 72q-73.5 84 -80.5 244h-153v-316h-84v698h84v-308h155q6 155 80.5 237.5t203.5 82.5q137 0 211.5 -91.5t74.5 -269.5t-74.5 -269.5t-211.5 -91.5q-132 0 -205.5 84zM712.5 123.5q52.5 60.5 52.5 167.5v116q0 107 -52.5 167.5t-143.5 60.5t-143.5 -60.5
t-52.5 -167.5v-116q0 -107 52.5 -167.5t143.5 -60.5t143.5 60.5z" />
    <glyph glyph-name="uni042F" unicode="&#x42f;" 
d="M39 73h64l82 171q15 31 31 45t40 19v5q-90 4 -136 53.5t-46 133.5q0 92 51 145t144 53h245v-698h-84v300h-126l-110 -229q-19 -39 -40.5 -55t-51.5 -16h-63v73zM430 625h-159q-51 0 -79.5 -27.5t-28.5 -82.5v-33q0 -55 28.5 -82.5t79.5 -27.5h159v253z" />
    <glyph glyph-name="uni0430" unicode="&#x430;" 
d="M495 0q-81 0 -92 84h-5q-36 -96 -155 -96q-81 0 -129 42t-48 115q0 150 222 150h110v51q0 56 -32 85t-91 29q-94 0 -138 -76l-54 40q21 44 72 74t125 30q91 0 144.5 -46.5t53.5 -127.5v-248q0 -15 10.5 -25.5t25.5 -10.5h36v-70h-55zM358 82.5q40 27.5 40 67.5v85h-110
q-138 0 -138 -78v-21q0 -39 28.5 -60t78.5 -21q61 0 101 27.5z" />
    <glyph glyph-name="uni0431" unicode="&#x431;" 
d="M131 67.5q-62 79.5 -62 237.5q0 152 28 244.5t86 137.5t153 51l158 10v-79l-166 -11q-59 -4 -93.5 -27.5t-54 -75t-27.5 -144.5h5q45 105 154 105q66 0 116 -31.5t78 -91.5t28 -142q0 -77 -29.5 -137t-82.5 -93t-121 -33q-108 0 -170 79.5zM408 99q41 42 41 117v63
q0 81 -40 124.5t-106 43.5q-73 0 -111 -35.5t-38 -94.5v-101q0 -76 40 -117.5t107 -41.5q66 0 107 42z" />
    <glyph glyph-name="uni0432" unicode="&#x432;" 
d="M107 516h263q63 0 99 -35.5t36 -95.5q0 -48 -25.5 -75.5t-75.5 -33.5v-4q58 -4 88.5 -36t30.5 -82q0 -65 -40 -109.5t-110 -44.5h-266v516zM349 299q33 0 52 17t19 48v22q0 31 -19 48.5t-52 17.5h-162v-153h162zM353 64q40 0 62.5 20t22.5 55v23q0 35 -21.5 54.5
t-57.5 19.5h-172v-172h166z" />
    <glyph glyph-name="uni0433" unicode="&#x433;" 
d="M135 516h370v-68h-290v-448h-80v516z" />
    <glyph glyph-name="uni0434" unicode="&#x434;" 
d="M22 68h58q69 112 69 284v164h333v-448h85v-208h-73v140h-399v-140h-73v208zM402 68v380h-175v-100q0 -91 -14.5 -158t-45.5 -122h235z" />
    <glyph glyph-name="uni0435" unicode="&#x435;" 
d="M181 21q-55 33 -84.5 94t-29.5 142t30 142.5t83.5 95t123.5 33.5q68 0 120 -32.5t80.5 -89.5t28.5 -130v-38h-382v-24q0 -69 43 -113t115 -44q51 0 89 23.5t59 66.5l59 -40q-24 -54 -78.5 -86.5t-128.5 -32.5q-73 0 -128 33zM226 441.5q-35 -20.5 -55 -56.5t-20 -80v-7
h296v11q0 68 -39.5 110.5t-103.5 42.5q-43 0 -78 -20.5z" />
    <glyph glyph-name="uni0436" unicode="&#x436;" horiz-adv-x="900" 
d="M152 70q14 0 18 12l53 127q20 48 63 55v4q-40 12 -61 59l-48 108q-4 11 -17 11h-48v70h47q61 0 90 -63l69 -153h92v216h80v-216h92l69 153q29 63 90 63h47v-70h-48q-13 0 -17 -11l-48 -108q-21 -47 -61 -59v-4q43 -7 63 -55l53 -127q5 -12 18 -12h47v-70h-57
q-29 0 -50.5 15.5t-37.5 54.5l-68 162h-92v-232h-80v232h-92l-68 -162q-16 -39 -37.5 -54.5t-50.5 -15.5h-57v70h47z" />
    <glyph glyph-name="uni0437" unicode="&#x437;" 
d="M148 13.5q-53 25.5 -87 74.5l59 48q50 -79 159 -79q69 0 102.5 22t33.5 60v14q0 39 -25.5 59.5t-73.5 20.5h-139v67h129q48 0 73 19t25 54v12q0 74 -123 74q-58 0 -95.5 -19t-60.5 -57l-56 38q36 53 87.5 80t128.5 27q101 0 152.5 -36.5t51.5 -102.5q0 -91 -95 -115v-4
q51 -7 78.5 -39t27.5 -81q0 -75 -58.5 -118.5t-162.5 -43.5q-78 0 -131 25.5z" />
    <glyph glyph-name="uni0438" unicode="&#x438;" 
d="M95 516h80v-263l-8 -132h4l259 395h75v-516h-80v263l8 132h-4l-259 -395h-75v516z" />
    <glyph glyph-name="uni0439" unicode="&#x439;" 
d="M95 516h80v-263l-8 -132h4l259 395h75v-516h-80v263l8 132h-4l-259 -395h-75v516zM213.5 617q-32.5 22 -56.5 71l-28 57l72 23l40 -106q17 -6 55 -6t55 6l40 106l72 -23l-28 -57q-24 -49 -56.5 -71t-82.5 -22t-82.5 22z" />
    <glyph glyph-name="uni043A" unicode="&#x43a;" 
d="M107 516h80v-216h110l139 216h83l-126 -196q-17 -26 -30 -36.5t-31 -15.5v-4q20 -3 34 -14t29 -36l75 -130q4 -7 11.5 -11.5t15.5 -4.5h40v-68h-58q-26 0 -45 14t-38 46l-99 172h-110v-232h-80v516z" />
    <glyph glyph-name="uni043B" unicode="&#x43b;" 
d="M26 68h64q31 41 46 110t15 191v147h343v-516h-80v448h-185v-81q0 -258 -75 -333q-18 -18 -41.5 -26t-55.5 -8h-31v68z" />
    <glyph glyph-name="uni043C" unicode="&#x43c;" 
d="M72 516h110l119 -263h6l119 263h102v-516h-77v323l3 92h-6l-148 -327l-148 327h-6l3 -92v-323h-77v516z" />
    <glyph glyph-name="uni043D" unicode="&#x43d;" 
d="M95 516h80v-216h250v216h80v-516h-80v232h-250v-232h-80v516z" />
    <glyph glyph-name="uni043E" unicode="&#x43e;" 
d="M175.5 21q-52.5 33 -81 94t-28.5 143t28.5 143t81 94t124.5 33t124.5 -33t81 -94t28.5 -143t-28.5 -143t-81 -94t-124.5 -33t-124.5 33zM409 98.5q40 41.5 40 122.5v74q0 81 -40 122.5t-109 41.5t-109 -41.5t-40 -122.5v-74q0 -81 40 -122.5t109 -41.5t109 41.5z" />
    <glyph glyph-name="uni043F" unicode="&#x43f;" 
d="M97 516h406v-516h-80v448h-246v-448h-80v516z" />
    <glyph glyph-name="uni0440" unicode="&#x440;" 
d="M95 516h80v-84h4q50 96 159 96q95 0 148.5 -71.5t53.5 -198.5t-53.5 -198.5t-148.5 -71.5q-109 0 -159 96h-4v-284h-80v716zM415 101q39 42 39 113v88q0 71 -39 113t-108 42q-56 0 -94 -28t-38 -78v-186q0 -50 38 -78t94 -28q69 0 108 42z" />
    <glyph glyph-name="uni0441" unicode="&#x441;" 
d="M146 61q-62 73 -62 197t62 197t171 73q72 0 120 -32t71 -87l-64 -34q-14 40 -47 62t-80 22q-69 0 -108 -43.5t-39 -113.5v-88q0 -70 39 -113.5t110 -43.5q98 0 140 90l57 -39q-24 -55 -74 -87.5t-124 -32.5q-110 0 -172 73z" />
    <glyph glyph-name="uni0442" unicode="&#x442;" 
d="M260 448h-190v68h460v-68h-190v-448h-80v448z" />
    <glyph glyph-name="uni0443" unicode="&#x443;" 
d="M467 516h80l-256 -629q-19 -47 -47.5 -67t-84.5 -20h-76v68h91q30 0 40 27l47 115l-208 506h82l87 -216l77 -196h4l77 196z" />
    <glyph glyph-name="uni0444" unicode="&#x444;" horiz-adv-x="900" 
d="M407 54q-21 -32 -47.5 -49t-62.5 -17q-86 0 -128.5 66.5t-42.5 203.5t42.5 203.5t128.5 66.5q36 0 62.5 -17t47.5 -49h3v248h80v-248h3q21 32 47.5 49t62.5 17q86 0 128.5 -66.5t42.5 -203.5t-42.5 -203.5t-128.5 -66.5q-36 0 -62.5 17t-47.5 49h-3v-254h-80v254h-3z
M411 129v258q0 70 -93 70q-56 0 -81 -36t-25 -119v-88q0 -83 25 -119t81 -36q93 0 93 70zM663 95q25 36 25 119v88q0 83 -25 119t-81 36q-93 0 -93 -70v-258q0 -70 93 -70q56 0 81 36z" />
    <glyph glyph-name="uni0445" unicode="&#x445;" 
d="M61 0l192 262l-187 254h96l78 -109l62 -86h4l60 86l77 109h92l-189 -253l194 -263h-96l-146 203h-4l-141 -203h-92z" />
    <glyph glyph-name="uni0446" unicode="&#x446;" 
d="M497 0h-413v516h80v-448h241v448h80v-448h85v-208h-73v140z" />
    <glyph glyph-name="uni0447" unicode="&#x447;" 
d="M410 237h-5q-29 -32 -65 -47t-89 -15q-84 0 -127.5 40t-43.5 119v182h80v-175q0 -48 27.5 -71t87.5 -23q61 0 98 16t37 47v206h80v-516h-80v237z" />
    <glyph glyph-name="uni0448" unicode="&#x448;" horiz-adv-x="900" 
d="M216 516v-446h194v446h80v-446h194v446h80v-516h-628v516h80z" />
    <glyph glyph-name="uni0449" unicode="&#x449;" horiz-adv-x="900" 
d="M93 0v516h80v-446h194v446h80v-446h194v446h80v-446h86v-210h-73v140h-641z" />
    <glyph glyph-name="uni044A" unicode="&#x44a;" 
d="M161 448h-150v68h230v-187h146q78 0 124 -44.5t46 -120.5q0 -77 -45 -120.5t-124 -43.5h-227v448zM376 68q96 0 96 76v42q0 75 -96 75h-135v-193h135z" />
    <glyph glyph-name="uni044B" unicode="&#x44b;" horiz-adv-x="900" 
d="M223 516v-187h167q78 0 124 -44.5t46 -120.5q0 -77 -45 -120.5t-124 -43.5h-248v516h80zM757 516v-516h-80v516h80zM474 144v42q0 38 -24 55.5t-71 17.5h-156v-189h156q95 0 95 74z" />
    <glyph glyph-name="uni044C" unicode="&#x44c;" 
d="M111 516h80v-187h160q78 0 124 -44.5t46 -120.5q0 -77 -45 -120.5t-124 -43.5h-241v516zM340 68q96 0 96 76v42q0 75 -96 75h-149v-193h149z" />
    <glyph glyph-name="uni044D" unicode="&#x44d;" 
d="M206 294h224v8q0 70 -39 113.5t-110 43.5q-51 0 -83.5 -21t-51.5 -63l-62 33q52 120 198 120q110 0 172 -73t62 -197t-62 -197t-171 -73q-74 0 -124.5 32.5t-74.5 85.5l59 41q43 -90 140 -90q69 0 108 43.5t39 113.5v13h-224v67z" />
    <glyph glyph-name="uni044E" unicode="&#x44e;" horiz-adv-x="750" 
d="M320.5 52.5q-60.5 64.5 -67.5 179.5h-117v-232h-80v516h80v-216h119q10 107 69.5 167.5t154.5 60.5q68 0 119 -32t79 -93t28 -145t-28 -145t-79 -93t-119 -32q-98 0 -158.5 64.5zM582.5 98.5q36.5 39.5 36.5 122.5v74q0 83 -36.5 122.5t-103.5 39.5t-103.5 -39.5
t-36.5 -122.5v-74q0 -83 36.5 -122.5t103.5 -39.5t103.5 39.5z" />
    <glyph glyph-name="uni044F" unicode="&#x44f;" 
d="M68 68h58l45 85q12 23 26.5 35t33.5 15v4q-65 3 -103.5 41.5t-38.5 108.5q0 74 45 116.5t124 42.5h232v-516h-80v199h-125l-71 -133q-19 -34 -39.5 -50t-51.5 -16h-55v68zM410 448h-140q-96 0 -96 -76v-31q0 -76 96 -76h140v183z" />
    <glyph glyph-name="uni0450" unicode="&#x450;" 
d="M181 21q-55 33 -84.5 94t-29.5 142t30 142.5t83.5 95t123.5 33.5q68 0 120 -32.5t80.5 -89.5t28.5 -130v-38h-382v-24q0 -69 43 -113t115 -44q51 0 89 23.5t59 66.5l59 -40q-24 -54 -78.5 -86.5t-128.5 -32.5q-73 0 -128 33zM226 441.5q-35 -20.5 -55 -56.5t-20 -80v-7
h296v11q0 68 -39.5 110.5t-103.5 42.5q-43 0 -78 -20.5zM189 744l73 35l85 -170l-52 -24z" />
    <glyph glyph-name="uni0451" unicode="&#x451;" 
d="M181 21q-55 33 -84.5 94t-29.5 142t30 142.5t83.5 95t123.5 33.5q68 0 120 -32.5t80.5 -89.5t28.5 -130v-38h-382v-24q0 -69 43 -113t115 -44q51 0 89 23.5t59 66.5l59 -40q-24 -54 -78.5 -86.5t-128.5 -32.5q-73 0 -128 33zM226 441.5q-35 -20.5 -55 -56.5t-20 -80v-7
h296v11q0 68 -39.5 110.5t-103.5 42.5q-43 0 -78 -20.5zM447 722v-106h-106v106h106zM261 722v-106h-106v106h106z" />
    <glyph glyph-name="uni0452" unicode="&#x452;" 
d="M178 -132h214q15 0 25.5 10.5t10.5 25.5v413q0 70 -31 105t-91 35q-53 0 -90.5 -25.5t-37.5 -73.5v-358h-80v608h-65v62h65v70h80v-70h153v-62h-153v-176h4q41 96 147 96q82 0 130.5 -52t48.5 -145v-413q0 -54 -29 -86t-85 -32h-216v68z" />
    <glyph glyph-name="uni0453" unicode="&#x453;" 
d="M135 516h370v-68h-290v-448h-80v516zM327 585l-52 24l85 170l73 -35z" />
    <glyph glyph-name="uni0454" unicode="&#x454;" 
d="M146 61q-62 73 -62 197t62 197t171 73q72 0 120 -32t71 -87l-64 -34q-14 40 -47 62t-80 22q-69 0 -108 -43.5t-39 -113.5v-8h224v-67h-224v-13q0 -70 39 -113.5t110 -43.5q98 0 140 90l57 -39q-24 -55 -74 -87.5t-124 -32.5q-110 0 -172 73z" />
    <glyph glyph-name="uni0455" unicode="&#x455;" 
d="M67 89l54 47q38 -41 83 -61t104 -20q63 0 100 22.5t37 66.5q0 37 -24 53t-67 22l-81 12q-49 7 -86 19.5t-64 42t-27 81.5q0 75 57 114.5t151 39.5q132 0 210 -83l-52 -49q-54 65 -161 65q-61 0 -93.5 -21t-32.5 -61q0 -37 24.5 -53t66.5 -22l81 -12q50 -7 87 -19.5
t63.5 -42t26.5 -81.5q0 -76 -59 -118.5t-159 -42.5q-150 0 -239 101z" />
    <glyph glyph-name="uni0456" unicode="&#x456;" horiz-adv-x="300" 
d="M203 740v-106h-106v106h106zM110 516h80v-516h-80v516z" />
    <glyph glyph-name="uni0457" unicode="&#x457;" horiz-adv-x="300" 
d="M110 516h80v-516h-80v516zM295 722v-106h-106v106h106zM109 722v-106h-106v106h106z" />
    <glyph glyph-name="uni0458" unicode="&#x458;" horiz-adv-x="300" 
d="M208 740v-106h-106v106h106zM192 -27q0 -70 -25.5 -108t-73 -51.5t-126.5 -13.5h-5v68h6q57 0 85.5 5.5t43.5 28t15 70.5v544h80v-543z" />
    <glyph glyph-name="uni0459" unicode="&#x459;" horiz-adv-x="900" 
d="M104 70q38 0 52 30q19 39 28.5 103.5t9.5 165.5v147h329v-187h137q78 0 124 -44.5t46 -120.5q0 -77 -45 -120.5t-124 -43.5h-218v446h-173v-79q0 -262 -71 -333q-18 -18 -41.5 -26t-55.5 -8h-31v70h33zM744 144v42q0 38 -24 55.5t-71 17.5h-126v-189h126q95 0 95 74z" />
    <glyph glyph-name="uni045A" unicode="&#x45a;" horiz-adv-x="900" 
d="M176 516v-215h242v215h80v-187h137q78 0 124 -44.5t46 -120.5q0 -77 -45 -120.5t-124 -43.5h-218v231h-242v-231h-80v516h80zM719 144v42q0 38 -24 55.5t-71 17.5h-126v-189h126q95 0 95 74z" />
    <glyph glyph-name="uni045B" unicode="&#x45b;" 
d="M98 0v608h-65v62h65v70h80v-70h153v-62h-153v-176h4q41 96 147 96q82 0 130.5 -52t48.5 -145v-331h-80v317q0 70 -31 105t-91 35q-53 0 -90.5 -25.5t-37.5 -73.5v-358h-80z" />
    <glyph glyph-name="uni045C" unicode="&#x45c;" 
d="M107 516h80v-216h110l139 216h83l-126 -196q-17 -26 -30 -36.5t-31 -15.5v-4q20 -3 34 -14t29 -36l75 -130q4 -7 11.5 -11.5t15.5 -4.5h40v-68h-58q-26 0 -45 14t-38 46l-99 172h-110v-232h-80v516zM303 585l-52 24l85 170l73 -35z" />
    <glyph glyph-name="uni045D" unicode="&#x45d;" 
d="M95 516h80v-263l-8 -132h4l259 395h75v-516h-80v263l8 132h-4l-259 -395h-75v516zM183 744l73 35l85 -170l-52 -24z" />
    <glyph glyph-name="uni045E" unicode="&#x45e;" 
d="M467 516h80l-256 -629q-19 -47 -47.5 -67t-84.5 -20h-76v68h91q30 0 40 27l47 115l-208 506h82l87 -216l77 -196h4l77 196zM217.5 617q-32.5 22 -56.5 71l-28 57l72 23l40 -106q17 -6 55 -6t55 6l40 106l72 -23l-28 -57q-24 -49 -56.5 -71t-82.5 -22t-82.5 22z" />
    <glyph glyph-name="uni045F" unicode="&#x45f;" 
d="M97 516h80v-448h246v448h80v-516h-166v-140h-73v140h-167v516z" />
    <glyph glyph-name="uni0472" unicode="&#x472;" 
d="M56 349q0 361 244 361t244 -361t-244 -361t-244 361zM145 390h310v16q0 110 -37.5 170.5t-117.5 60.5t-117.5 -60.5t-37.5 -170.5v-16zM417.5 121.5q37.5 60.5 37.5 170.5v25h-310v-25q0 -110 37.5 -170.5t117.5 -60.5t117.5 60.5z" />
    <glyph glyph-name="uni0473" unicode="&#x473;" 
d="M175.5 21q-52.5 33 -81 94t-28.5 143t28.5 143t81 94t124.5 33t124.5 -33t81 -94t28.5 -143t-28.5 -143t-81 -94t-124.5 -33t-124.5 33zM191 417.5q-40 -41.5 -40 -122.5h298q0 81 -40 122.5t-109 41.5t-109 -41.5zM409 98.5q40 41.5 40 122.5v6h-298v-6q0 -81 40 -122.5
t109 -41.5t109 41.5z" />
    <glyph glyph-name="uni0490" unicode="&#x490;" 
d="M132 698h314v150h77v-223h-307v-625h-84v698z" />
    <glyph glyph-name="uni0491" unicode="&#x491;" 
d="M135 516h297v140h73v-208h-290v-448h-80v516z" />
    <glyph glyph-name="uni0492" unicode="&#x492;" 
d="M150 400v298h391v-73h-307v-225h198v-64h-198v-336h-84v336h-99v64h99z" />
    <glyph glyph-name="uni0493" unicode="&#x493;" 
d="M153 223h-109v62h109v231h370v-68h-290v-163h193v-62h-193v-223h-80v223z" />
    <glyph glyph-name="uni0494" unicode="&#x494;" 
d="M242 -91h163q51 41 51 155v88q0 65 -13.5 103t-44 55t-84.5 17q-44 0 -76.5 -6t-65.5 -18v-303h-84v698h391v-73h-307v-248h5q59 23 140 23q122 0 172.5 -59.5t50.5 -188.5v-88q0 -118 -43.5 -173t-129.5 -55h-125v73z" />
    <glyph glyph-name="uni0495" unicode="&#x495;" 
d="M323 -132h84q33 40 33 127v97q0 67 -26.5 94t-88.5 27q-61 0 -98 -16t-37 -47v-150h-80v516h326v-68h-246v-225h5q29 32 65 47t89 15q85 0 128 -44t43 -139v-119q0 -94 -40 -138.5t-111 -44.5h-46v68z" />
    <glyph glyph-name="uni0496" unicode="&#x496;" horiz-adv-x="900" 
d="M816 0q-29 0 -51.5 16.5t-42.5 56.5l-124 244h-123v-317h-84v317h-123l-126 -244q-21 -40 -42 -56.5t-50 -16.5h-65v74h52q13 0 18 11l102 198q17 32 33 47t40 21v5q-21 6 -37 21t-30 44l-89 192q-5 11 -17 11h-51v74h52q33 0 57.5 -17t42.5 -55l110 -237h123v309h84
v-309h123l112 237q18 39 41.5 55.5t56.5 16.5h52v-74h-51q-12 0 -17 -11l-91 -192q-14 -29 -29.5 -44t-35.5 -21v-5q24 -6 41.5 -21t33.5 -47l100 -198q6 -11 18 -11h86v-224h-77v150h-22z" />
    <glyph glyph-name="uni0497" unicode="&#x497;" horiz-adv-x="900" 
d="M725 0q-29 0 -50.5 15.5t-37.5 54.5l-68 162h-92v-232h-80v232h-92l-68 -162q-16 -39 -37.5 -54.5t-50.5 -15.5h-57v70h47q14 0 18 12l53 127q20 48 63 55v4q-40 12 -61 59l-48 108q-4 11 -17 11h-48v70h47q61 0 90 -63l69 -153h92v216h80v-216h92l69 153q29 63 90 63h47
v-70h-48q-13 0 -17 -11l-48 -108q-21 -47 -61 -59v-4q43 -7 63 -55l53 -127q5 -12 18 -12h73v-210h-73v140h-10z" />
    <glyph glyph-name="uni0498" unicode="&#x498;" 
d="M244 -10q-128 14 -204 121l61 50q38 -51 82 -76t98 -25q70 0 110.5 33.5t40.5 93.5v21q0 53 -36.5 84.5t-107.5 31.5h-98v73h92q135 0 135 114v21q0 49 -34.5 77.5t-98.5 28.5q-55 0 -93 -20t-63 -58l-63 41q37 54 90.5 81.5t128.5 27.5q107 0 164 -49.5t57 -134.5
q0 -70 -36.5 -111t-96.5 -50v-5q66 -8 107.5 -49t41.5 -115q0 -84 -53.5 -140t-146.5 -66v-140h-77v140z" />
    <glyph glyph-name="uni0499" unicode="&#x499;" 
d="M243 -10q-63 5 -107.5 29.5t-74.5 68.5l59 48q50 -79 159 -79q69 0 102.5 22t33.5 60v14q0 39 -25.5 59.5t-73.5 20.5h-139v67h129q48 0 73 19t25 54v12q0 74 -123 74q-58 0 -95.5 -19t-60.5 -57l-56 38q36 53 87.5 80t128.5 27q101 0 152.5 -36.5t51.5 -102.5
q0 -91 -95 -115v-4q51 -7 78.5 -39t27.5 -81q0 -68 -48.5 -110.5t-135.5 -49.5v-130h-73v130z" />
    <glyph glyph-name="uni049A" unicode="&#x49a;" 
d="M482 0q-33 0 -55.5 17.5t-39.5 56.5l-108 244h-123v-318h-84v698h84v-308h123l148 308h89l-133 -276q-17 -34 -31.5 -48t-33.5 -17v-5q23 -5 37.5 -20.5t32.5 -56.5l85 -191q4 -11 17 -11h69v-223h-77v150z" />
    <glyph glyph-name="uni049B" unicode="&#x49b;" 
d="M462 0q-23 3 -40.5 17t-33.5 43l-99 172h-110v-232h-80v516h80v-216h110l139 216h83l-126 -196q-17 -26 -30 -36.5t-31 -15.5v-4q20 -3 34 -14t29 -36l78 -136q5 -10 18 -10h52v-208h-73v140z" />
    <glyph glyph-name="uni049C" unicode="&#x49c;" 
d="M200 318h-56v-318h-84v698h84v-308h56v154h66v-154h47l142 308h89l-127 -275q-27 -60 -65 -66v-5q23 -5 36.5 -20.5t32.5 -58.5l80 -188q5 -12 18 -12h52v-73h-63q-62 0 -93 74l-102 244h-47v-154h-66v154z" />
    <glyph glyph-name="uni049D" unicode="&#x49d;" 
d="M221 232h-54v-232h-80v516h80v-216h54v118h62v-118h40l133 216h83l-120 -195q-16 -26 -29 -37t-32 -16v-4q20 -3 34.5 -14t27.5 -36l73 -135q6 -11 18 -11h46v-68h-58q-26 0 -46 14.5t-39 49.5l-91 168h-40v-117h-62v117z" />
    <glyph glyph-name="uni04A0" unicode="&#x4a0;" 
d="M162 625h-160v73h244v-308h101l136 308h89l-121 -271q-16 -35 -31 -50t-36 -20v-5q23 -5 37.5 -20.5t30.5 -55.5l77 -191q5 -12 18 -12h52v-73h-63q-30 0 -53 19.5t-41 62.5l-95 236h-101v-318h-84v625z" />
    <glyph glyph-name="uni04A1" unicode="&#x4a1;" 
d="M161 448h-150v68h230v-216h96l129 216h83l-117 -194q-14 -25 -29 -37t-34 -17v-4q40 -6 65 -53l69 -132q6 -11 18 -11h46v-68h-58q-27 0 -47 15.5t-41 56.5l-84 160h-96v-232h-80v448z" />
    <glyph glyph-name="uni04A2" unicode="&#x4a2;" 
d="M497 0h-82v317h-251v-317h-84v698h84v-308h251v308h84v-625h75v-223h-77v150z" />
    <glyph glyph-name="uni04A3" unicode="&#x4a3;" 
d="M84 516h80v-216h241v216h80v-448h85v-208h-73v140h-92v232h-241v-232h-80v516z" />
    <glyph glyph-name="uni04A4" unicode="&#x4a4;" horiz-adv-x="900" 
d="M136 698v-308h333v308h380v-74h-296v-624h-84v316h-333v-316h-84v698h84z" />
    <glyph glyph-name="uni04A5" unicode="&#x4a5;" 
d="M54 516h80v-216h181v216h261v-68h-181v-448h-80v232h-181v-232h-80v516z" />
    <glyph glyph-name="uni04AA" unicode="&#x4aa;" 
d="M284 -9q-107 13 -160.5 104.5t-53.5 253.5q0 176 63.5 268.5t189.5 92.5q87 0 135.5 -41.5t79.5 -111.5l-72 -33q-22 55 -53.5 84t-89.5 29q-81 0 -122.5 -61.5t-41.5 -169.5v-114q0 -108 41.5 -169.5t122.5 -61.5q58 0 89.5 29t53.5 84l72 -33q-28 -62 -68 -101.5
t-109 -48.5v-141h-77v141z" />
    <glyph glyph-name="uni04AB" unicode="&#x4ab;" 
d="M282 -10q-94 12 -146 83.5t-52 184.5q0 124 62 197t171 73q72 0 120 -32t71 -87l-64 -34q-14 40 -47 62t-80 22q-69 0 -108 -43.5t-39 -113.5v-88q0 -70 39 -113.5t110 -43.5q98 0 140 90l57 -39q-21 -48 -61.5 -79t-99.5 -39v-130h-73v130z" />
    <glyph glyph-name="uni04AE" unicode="&#x4ae;" 
d="M258 0v274l-241 424h96l100 -182l85 -159h4l187 341h94l-241 -424v-274h-84z" />
    <glyph glyph-name="uni04AF" unicode="&#x4af;" 
d="M260 0l-196 516h81l74 -202l80 -224h4l80 224l74 202h79l-196 -516v-200h-80v200z" />
    <glyph glyph-name="uni04B0" unicode="&#x4b0;" 
d="M258 274l-241 424h96l100 -182l85 -159h4l187 341h94l-241 -424h149v-64h-149v-210h-84v210h-149v64h149z" />
    <glyph glyph-name="uni04B1" unicode="&#x4b1;" 
d="M260 -62h-135v62h135l-196 516h81l74 -202l80 -224h4l80 224l74 202h79l-196 -516h135v-62h-135v-138h-80v138z" />
    <glyph glyph-name="uni04B2" unicode="&#x4b2;" 
d="M528 0h-54l-84 141l-92 152h-4l-95 -152l-87 -141h-92l228 356l-215 342h95l81 -135l87 -141h4l86 141l84 135h92l-216 -341l178 -284h81v-223h-77v150z" />
    <glyph glyph-name="uni04B3" unicode="&#x4b3;" 
d="M502 0h-58l-146 203h-4l-141 -203h-92l192 262l-187 254h96l78 -109l62 -86h4l60 86l77 109h92l-189 -253l144 -195h85v-208h-73v140z" />
    <glyph glyph-name="uni04B6" unicode="&#x4b6;" 
d="M497 0h-82v275h-5q-53 -23 -137 -23q-120 0 -170 59.5t-50 188.5v198h84v-198q0 -65 13 -103t43.5 -55t82.5 -17q46 0 77.5 6t61.5 18v349h84v-625h75v-223h-77v150z" />
    <glyph glyph-name="uni04B7" unicode="&#x4b7;" 
d="M497 0h-92v237h-5q-29 -32 -64.5 -47t-89.5 -15q-84 0 -127.5 40t-43.5 119v182h80v-175q0 -48 27.5 -71t87.5 -23q62 0 98.5 16t36.5 47v206h80v-448h85v-208h-73v140z" />
    <glyph glyph-name="uni04B8" unicode="&#x4b8;" 
d="M256 253q-106 6 -151 65.5t-45 181.5v198h84v-198q0 -88 25 -127.5t87 -46.5v168h66v-168q54 3 106 23v349h84v-698h-84v275h-5q-45 -18 -101 -22v-139h-66v139z" />
    <glyph glyph-name="uni04B9" unicode="&#x4b9;" 
d="M410 236h-5q-36 -42 -89 -55v-92h-62v86q-174 0 -174 159v182h80v-175q0 -88 94 -93v144h62v-144q43 5 68.5 20.5t25.5 41.5v206h80v-516h-80v236z" />
    <glyph glyph-name="uni04BA" unicode="&#x4ba;" 
d="M88 698h84v-275h5q59 23 140 23q122 0 172.5 -59.5t50.5 -188.5v-198h-84v198q0 65 -13.5 103t-44 55t-84.5 17q-44 0 -76.5 -6t-65.5 -18v-349h-84v698z" />
    <glyph glyph-name="uni04BB" unicode="&#x4bb;" 
d="M98 740h80v-308h4q41 96 147 96q82 0 130.5 -52t48.5 -145v-331h-80v317q0 70 -31 105t-91 35q-53 0 -90.5 -25.5t-37.5 -73.5v-358h-80v740z" />
    <glyph glyph-name="uni04C0" unicode="&#x4c0;" horiz-adv-x="300" 
d="M108 698h84v-698h-84v698z" />
    <glyph glyph-name="uni04C1" unicode="&#x4c1;" horiz-adv-x="900" 
d="M365 786q-33 20 -53 58l-20 38l70 31l35 -82q24 -6 52 -6t52 6l35 82l70 -31l-20 -38q-20 -38 -53 -58t-84 -20t-84 20zM54 74q13 0 18 11l102 198q17 32 33 47t40 21v5q-21 6 -37 21t-30 44l-89 192q-5 11 -17 11h-51v74h52q33 0 57.5 -17t42.5 -55l110 -237h123v309h84
v-309h123l112 237q18 39 41.5 55.5t56.5 16.5h52v-74h-51q-12 0 -17 -11l-91 -192q-14 -29 -29.5 -44t-35.5 -21v-5q24 -6 41.5 -21t33.5 -47l100 -198q6 -11 18 -11h51v-74h-64q-29 0 -51.5 16.5t-42.5 56.5l-124 244h-123v-317h-84v317h-123l-126 -244q-21 -40 -42 -56.5
t-50 -16.5h-64v74h51z" />
    <glyph glyph-name="uni04C2" unicode="&#x4c2;" horiz-adv-x="900" 
d="M366 616q-33 20 -53 58l-20 38l70 31l35 -82q24 -6 52 -6t52 6l35 82l70 -31l-20 -38q-20 -38 -53 -58t-84 -20t-84 20zM152 70q14 0 18 12l53 127q20 48 63 55v4q-40 12 -61 59l-48 108q-4 11 -17 11h-48v70h47q61 0 90 -63l69 -153h92v216h80v-216h92l69 153
q29 63 90 63h47v-70h-48q-13 0 -17 -11l-48 -108q-21 -47 -61 -59v-4q43 -7 63 -55l53 -127q5 -12 18 -12h47v-70h-57q-29 0 -50.5 15.5t-37.5 54.5l-68 162h-92v-232h-80v232h-92l-68 -162q-16 -39 -37.5 -54.5t-50.5 -15.5h-57v70h47z" />
    <glyph glyph-name="uni04CF" unicode="&#x4cf;" 
d="M80 68h180v604h-180v68h440v-68h-180v-604h180v-68h-440v68z" />
    <glyph glyph-name="uni04D0" unicode="&#x4d0;" 
d="M481 0l-59 199h-245l-59 -199h-87l214 698h111l214 -698h-89zM304 609h-9l-98 -337h205zM217.5 787q-32.5 22 -56.5 71l-28 57l72 23l40 -106q17 -6 55 -6t55 6l40 106l72 -23l-28 -57q-24 -49 -56.5 -71t-82.5 -22t-82.5 22z" />
    <glyph glyph-name="uni04D1" unicode="&#x4d1;" 
d="M495 0q-81 0 -92 84h-5q-36 -96 -155 -96q-81 0 -129 42t-48 115q0 150 222 150h110v51q0 56 -32 85t-91 29q-94 0 -138 -76l-54 40q21 44 72 74t125 30q91 0 144.5 -46.5t53.5 -127.5v-248q0 -15 10.5 -25.5t25.5 -10.5h36v-70h-55zM358 82.5q40 27.5 40 67.5v85h-110
q-138 0 -138 -78v-21q0 -39 28.5 -60t78.5 -21q61 0 101 27.5zM200.5 617q-32.5 22 -56.5 71l-28 57l72 23l40 -106q17 -6 55 -6t55 6l40 106l72 -23l-28 -57q-24 -49 -56.5 -71t-82.5 -22t-82.5 22z" />
    <glyph glyph-name="uni04D2" unicode="&#x4d2;" 
d="M481 0l-59 199h-245l-59 -199h-87l214 698h111l214 -698h-89zM304 609h-9l-98 -337h205zM445 892v-106h-106v106h106zM259 892v-106h-106v106h106z" />
    <glyph glyph-name="uni04D3" unicode="&#x4d3;" 
d="M495 0q-81 0 -92 84h-5q-36 -96 -155 -96q-81 0 -129 42t-48 115q0 150 222 150h110v51q0 56 -32 85t-91 29q-94 0 -138 -76l-54 40q21 44 72 74t125 30q91 0 144.5 -46.5t53.5 -127.5v-248q0 -15 10.5 -25.5t25.5 -10.5h36v-70h-55zM358 82.5q40 27.5 40 67.5v85h-110
q-138 0 -138 -78v-21q0 -39 28.5 -60t78.5 -21q61 0 101 27.5zM428 722v-106h-106v106h106zM242 722v-106h-106v106h106z" />
    <glyph glyph-name="uni04D4" unicode="&#x4d4;" horiz-adv-x="900" 
d="M219 205l-102 -205h-86l357 698h462v-74h-323v-234h303v-74h-303v-242h323v-74h-406v205h-225zM254 279h190v345h-13z" />
    <glyph glyph-name="uni04D5" unicode="&#x4d5;" horiz-adv-x="900" 
d="M761 146l57 -40q-25 -54 -77 -86t-118 -32q-51 0 -92.5 18.5t-67 45.5t-31.5 52h-6q-5 -24 -29.5 -51t-66 -46t-95.5 -19q-78 0 -124.5 42t-46.5 112q0 75 56 115.5t164 40.5h102v48q0 55 -30.5 84t-88.5 29q-48 0 -79.5 -19t-54.5 -57l-48 44q22 44 69.5 72.5
t114.5 28.5q78 0 114.5 -35.5t47.5 -79.5h6q6 25 31.5 51.5t65.5 45t89 18.5q64 0 112.5 -32.5t75 -89.5t26.5 -130v-38h-371v-24q0 -68 41.5 -112t111.5 -44q99 0 142 88zM751 309q0 68 -37.5 110t-99.5 42q-65 0 -106.5 -44t-41.5 -112v-7h285v11zM180.5 217
q-32.5 -21 -32.5 -60v-21q0 -38 27.5 -59t75.5 -21q58 0 96.5 27t38.5 67v88h-106q-67 0 -99.5 -21z" />
    <glyph glyph-name="uni04D6" unicode="&#x4d6;" 
d="M90 0v698h430v-73h-346v-235h334v-73h-334v-244h346v-73h-430zM222.5 787q-32.5 22 -56.5 71l-28 57l72 23l40 -106q17 -6 55 -6t55 6l40 106l72 -23l-28 -57q-24 -49 -56.5 -71t-82.5 -22t-82.5 22z" />
    <glyph glyph-name="uni04D7" unicode="&#x4d7;" 
d="M181 21q-55 33 -84.5 94t-29.5 142t30 142.5t83.5 95t123.5 33.5q68 0 120 -32.5t80.5 -89.5t28.5 -130v-38h-382v-24q0 -69 43 -113t115 -44q51 0 89 23.5t59 66.5l59 -40q-24 -54 -78.5 -86.5t-128.5 -32.5q-73 0 -128 33zM226 441.5q-35 -20.5 -55 -56.5t-20 -80v-7
h296v11q0 68 -39.5 110.5t-103.5 42.5q-43 0 -78 -20.5zM219.5 617q-32.5 22 -56.5 71l-28 57l72 23l40 -106q17 -6 55 -6t55 6l40 106l72 -23l-28 -57q-24 -49 -56.5 -71t-82.5 -22t-82.5 22z" />
    <glyph glyph-name="uni04D8" unicode="&#x4d8;" 
d="M56 349v22h399v33q0 111 -39 172t-127 61q-51 0 -91 -28.5t-65 -109.5l-70 33q23 87 82.5 132.5t149.5 45.5q130 0 189.5 -92.5t59.5 -267.5q0 -362 -244 -362t-244 361zM417 121.5q38 60.5 38 170.5v10h-312v-10q0 -110 38 -170.5t118 -60.5t118 60.5z" />
    <glyph glyph-name="uni04D9" unicode="&#x4d9;" 
d="M449 278v24q0 69 -43 113t-115 44q-51 0 -89 -23.5t-59 -66.5l-59 40q24 54 78.5 86.5t128.5 32.5q73 0 128 -33t84.5 -94t29.5 -142t-30 -142.5t-83.5 -95t-123.5 -33.5q-68 0 -120 32.5t-80.5 89.5t-28.5 130v38h382zM153 207q0 -68 39.5 -110.5t103.5 -42.5
q43 0 78 20.5t55 56.5t20 80v7h-296v-11z" />
    <glyph glyph-name="uni04DC" unicode="&#x4dc;" horiz-adv-x="900" 
d="M409 892v-106h-106v106h106zM595 892v-106h-106v106h106zM54 74q13 0 18 11l102 198q17 32 33 47t40 21v5q-21 6 -37 21t-30 44l-89 192q-5 11 -17 11h-51v74h52q33 0 57.5 -17t42.5 -55l110 -237h123v309h84v-309h123l112 237q18 39 41.5 55.5t56.5 16.5h52v-74h-51
q-12 0 -17 -11l-91 -192q-14 -29 -29.5 -44t-35.5 -21v-5q24 -6 41.5 -21t33.5 -47l100 -198q6 -11 18 -11h51v-74h-64q-29 0 -51.5 16.5t-42.5 56.5l-124 244h-123v-317h-84v317h-123l-126 -244q-21 -40 -42 -56.5t-50 -16.5h-64v74h51z" />
    <glyph glyph-name="uni04DD" unicode="&#x4dd;" horiz-adv-x="900" 
d="M411 732v-106h-106v106h106zM597 732v-106h-106v106h106zM152 70q14 0 18 12l53 127q20 48 63 55v4q-40 12 -61 59l-48 108q-4 11 -17 11h-48v70h47q61 0 90 -63l69 -153h92v216h80v-216h92l69 153q29 63 90 63h47v-70h-48q-13 0 -17 -11l-48 -108q-21 -47 -61 -59v-4
q43 -7 63 -55l53 -127q5 -12 18 -12h47v-70h-57q-29 0 -50.5 15.5t-37.5 54.5l-68 162h-92v-232h-80v232h-92l-68 -162q-16 -39 -37.5 -54.5t-50.5 -15.5h-57v70h47z" />
    <glyph glyph-name="uni04DE" unicode="&#x4de;" 
d="M140.5 21q-59.5 33 -100.5 90l61 50q38 -51 82 -76t98 -25q70 0 110.5 33.5t40.5 93.5v21q0 53 -36.5 84.5t-107.5 31.5h-98v73h92q135 0 135 114v21q0 49 -34.5 77.5t-98.5 28.5q-55 0 -93 -20t-63 -58l-63 41q37 54 90.5 81.5t128.5 27.5q107 0 164 -49.5t57 -134.5
q0 -70 -36.5 -111t-96.5 -50v-5q66 -8 107.5 -49t41.5 -115q0 -61 -29 -108.5t-83 -73.5t-128 -26q-81 0 -140.5 33zM429 892v-106h-106v106h106zM243 892v-106h-106v106h106z" />
    <glyph glyph-name="uni04DF" unicode="&#x4df;" 
d="M148 13.5q-53 25.5 -87 74.5l59 48q50 -79 159 -79q69 0 102.5 22t33.5 60v14q0 39 -25.5 59.5t-73.5 20.5h-139v67h129q48 0 73 19t25 54v12q0 74 -123 74q-58 0 -95.5 -19t-60.5 -57l-56 38q36 53 87.5 80t128.5 27q101 0 152.5 -36.5t51.5 -102.5q0 -91 -95 -115v-4
q51 -7 78.5 -39t27.5 -81q0 -75 -58.5 -118.5t-162.5 -43.5q-78 0 -131 25.5zM430 722v-106h-106v106h106zM244 722v-106h-106v106h106z" />
    <glyph glyph-name="uni04E2" unicode="&#x4e2;" 
d="M80 698h84v-352l-14 -202h5l285 554h80v-698h-84v352l14 202h-5l-285 -554h-80v698zM160 875h280v-68h-280v68z" />
    <glyph glyph-name="uni04E3" unicode="&#x4e3;" 
d="M95 516h80v-263l-8 -132h4l259 395h75v-516h-80v263l8 132h-4l-259 -395h-75v516zM156 705h280v-68h-280v68z" />
    <glyph glyph-name="uni04E4" unicode="&#x4e4;" 
d="M80 698h84v-352l-14 -202h5l285 554h80v-698h-84v352l14 202h-5l-285 -554h-80v698zM445 892v-106h-106v106h106zM259 892v-106h-106v106h106z" />
    <glyph glyph-name="uni04E5" unicode="&#x4e5;" 
d="M95 516h80v-263l-8 -132h4l259 395h75v-516h-80v263l8 132h-4l-259 -395h-75v516zM441 722v-106h-106v106h106zM255 722v-106h-106v106h106z" />
    <glyph glyph-name="uni04E6" unicode="&#x4e6;" 
d="M56 349q0 361 244 361t244 -361t-244 -361t-244 361zM417.5 121.5q37.5 60.5 37.5 170.5v114q0 110 -37.5 170.5t-117.5 60.5t-117.5 -60.5t-37.5 -170.5v-114q0 -110 37.5 -170.5t117.5 -60.5t117.5 60.5zM445 892v-106h-106v106h106zM259 892v-106h-106v106h106z" />
    <glyph glyph-name="uni04E7" unicode="&#x4e7;" 
d="M175.5 21q-52.5 33 -81 94t-28.5 143t28.5 143t81 94t124.5 33t124.5 -33t81 -94t28.5 -143t-28.5 -143t-81 -94t-124.5 -33t-124.5 33zM409 98.5q40 41.5 40 122.5v74q0 81 -40 122.5t-109 41.5t-109 -41.5t-40 -122.5v-74q0 -81 40 -122.5t109 -41.5t109 41.5zM445 722
v-106h-106v106h106zM259 722v-106h-106v106h106z" />
    <glyph glyph-name="uni04E8" unicode="&#x4e8;" 
d="M56 349q0 361 244 361t244 -361t-244 -361t-244 361zM145 390h310v16q0 110 -37.5 170.5t-117.5 60.5t-117.5 -60.5t-37.5 -170.5v-16zM417.5 121.5q37.5 60.5 37.5 170.5v25h-310v-25q0 -110 37.5 -170.5t117.5 -60.5t117.5 60.5z" />
    <glyph glyph-name="uni04E9" unicode="&#x4e9;" 
d="M175.5 21q-52.5 33 -81 94t-28.5 143t28.5 143t81 94t124.5 33t124.5 -33t81 -94t28.5 -143t-28.5 -143t-81 -94t-124.5 -33t-124.5 33zM191 417.5q-40 -41.5 -40 -122.5h298q0 81 -40 122.5t-109 41.5t-109 -41.5zM409 98.5q40 41.5 40 122.5v6h-298v-6q0 -81 40 -122.5
t109 -41.5t109 41.5z" />
    <glyph glyph-name="uni04EE" unicode="&#x4ee;" 
d="M139 73h104l35 90l-234 535h90l139 -328l41 -112h2l38 111l122 329h86l-228 -602q-15 -40 -31.5 -60.5t-40 -28t-63.5 -7.5h-60v73zM160 875h280v-68h-280v68z" />
    <glyph glyph-name="uni04EF" unicode="&#x4ef;" 
d="M467 516h80l-256 -629q-19 -47 -47.5 -67t-84.5 -20h-76v68h91q30 0 40 27l47 115l-208 506h82l87 -216l77 -196h4l77 196zM160 705h280v-68h-280v68z" />
    <glyph glyph-name="uni04F0" unicode="&#x4f0;" 
d="M139 73h104l35 90l-234 535h90l139 -328l41 -112h2l38 111l122 329h86l-228 -602q-15 -40 -31.5 -60.5t-40 -28t-63.5 -7.5h-60v73zM445 892v-106h-106v106h106zM259 892v-106h-106v106h106z" />
    <glyph glyph-name="uni04F1" unicode="&#x4f1;" 
d="M467 516h80l-256 -629q-19 -47 -47.5 -67t-84.5 -20h-76v68h91q30 0 40 27l47 115l-208 506h82l87 -216l77 -196h4l77 196zM445 722v-106h-106v106h106zM259 722v-106h-106v106h106z" />
    <glyph glyph-name="uni04F2" unicode="&#x4f2;" 
d="M139 73h104l35 90l-234 535h90l139 -328l41 -112h2l38 111l122 329h86l-228 -602q-15 -40 -31.5 -60.5t-40 -28t-63.5 -7.5h-60v73zM227 756l-48 22l85 170l69 -33zM387 756l-48 22l85 170l69 -33z" />
    <glyph glyph-name="uni04F3" unicode="&#x4f3;" 
d="M467 516h80l-256 -629q-19 -47 -47.5 -67t-84.5 -20h-76v68h91q30 0 40 27l47 115l-208 506h82l87 -216l77 -196h4l77 196zM227 586l-48 22l85 170l69 -33zM387 586l-48 22l85 170l69 -33z" />
    <glyph glyph-name="uni04F4" unicode="&#x4f4;" 
d="M428 275h-5q-59 -23 -140 -23q-122 0 -172.5 59.5t-50.5 188.5v198h84v-198q0 -65 13.5 -103t44 -55t84.5 -17q44 0 76.5 6t65.5 18v349h84v-698h-84v275zM431 892v-106h-106v106h106zM245 892v-106h-106v106h106z" />
    <glyph glyph-name="uni04F5" unicode="&#x4f5;" 
d="M410 237h-5q-29 -32 -65 -47t-89 -15q-84 0 -127.5 40t-43.5 119v182h80v-175q0 -48 27.5 -71t87.5 -23q61 0 98 16t37 47v206h80v-516h-80v237zM430 722v-106h-106v106h106zM244 722v-106h-106v106h106z" />
    <glyph glyph-name="uni04F8" unicode="&#x4f8;" horiz-adv-x="900" 
d="M319.5 800.5q-12.5 12.5 -12.5 34.5v12q0 22 12.5 34.5t37.5 12.5t37.5 -12.5t12.5 -34.5v-12q0 -22 -12.5 -34.5t-37.5 -12.5t-37.5 12.5zM505.5 800.5q-12.5 12.5 -12.5 34.5v12q0 22 12.5 34.5t37.5 12.5t37.5 -12.5t12.5 -34.5v-12q0 -22 -12.5 -34.5t-37.5 -12.5
t-37.5 12.5zM190 698v-280h208q93 0 144 -55t51 -154t-51 -154t-144 -55h-292v698h84zM795 698v-698h-84v698h84zM475.5 101.5q27.5 27.5 27.5 81.5v52q0 54 -27.5 81.5t-77.5 27.5h-208v-270h208q50 0 77.5 27.5z" />
    <glyph glyph-name="uni04F9" unicode="&#x4f9;" horiz-adv-x="900" 
d="M308 664v11q0 46 49 46t49 -46v-11q0 -46 -49 -46t-49 46zM494 664v11q0 46 49 46t49 -46v-11q0 -46 -49 -46t-49 46zM223 516v-187h167q78 0 124 -44.5t46 -120.5q0 -77 -45 -120.5t-124 -43.5h-248v516h80zM757 516v-516h-80v516h80zM474 144v42q0 38 -24 55.5
t-71 17.5h-156v-189h156q95 0 95 74z" />
    <glyph glyph-name="uni0E3F" unicode="&#xe3f;" 
d="M264 698v113h62v-113h8q89 0 140.5 -49t51.5 -131q0 -117 -113 -154v-3q125 -39 125 -160q0 -56 -24.5 -102t-67.5 -72.5t-96 -26.5h-24v-113h-62v113h-176v698h176zM265 394v233h-95v-233h95zM325 394q117 0 117 95v41q0 48 -30 72.5t-87 24.5v-233zM265 71v256h-95
v-256h95zM325 71q63 0 95.5 26.5t32.5 79.5v44q0 52 -32.5 79t-95.5 27v-256z" />
    <glyph glyph-name="Wgrave" unicode="&#x1e80;" horiz-adv-x="900" 
d="M25 698h89l75 -336l58 -261h2l65 261l88 336h96l85 -336l65 -260h3l60 260l79 336h86l-179 -698h-93l-91 348l-64 256h-2l-66 -256l-93 -348h-93zM333 914l73 35l85 -170l-52 -24z" />
    <glyph glyph-name="wgrave" unicode="&#x1e81;" horiz-adv-x="900" 
d="M155 516l53 -199l67 -250h2l77 252l61 197h71l62 -197l79 -252h2l66 251l53 198h75l-147 -516h-99l-127 405h-2l-51 -165l-75 -240h-97l-148 516h78zM338 744l73 35l85 -170l-52 -24z" />
    <glyph glyph-name="Wacute" unicode="&#x1e82;" horiz-adv-x="900" 
d="M25 698h89l75 -336l58 -261h2l65 261l88 336h96l85 -336l65 -260h3l60 260l79 336h86l-179 -698h-93l-91 348l-64 256h-2l-66 -256l-93 -348h-93zM453 755l-52 24l85 170l73 -35z" />
    <glyph glyph-name="wacute" unicode="&#x1e83;" horiz-adv-x="900" 
d="M155 516l53 -199l67 -250h2l77 252l61 197h71l62 -197l79 -252h2l66 251l53 198h75l-147 -516h-99l-127 405h-2l-51 -165l-75 -240h-97l-148 516h78zM458 585l-52 24l85 170l73 -35z" />
    <glyph glyph-name="Wdieresis" unicode="&#x1e84;" horiz-adv-x="900" 
d="M25 698h89l75 -336l58 -261h2l65 261l88 336h96l85 -336l65 -260h3l60 260l79 336h86l-179 -698h-93l-91 348l-64 256h-2l-66 -256l-93 -348h-93zM591 892v-106h-106v106h106zM405 892v-106h-106v106h106z" />
    <glyph glyph-name="wdieresis" unicode="&#x1e85;" horiz-adv-x="900" 
d="M155 516l53 -199l67 -250h2l77 252l61 197h71l62 -197l79 -252h2l66 251l53 198h75l-147 -516h-99l-127 405h-2l-51 -165l-75 -240h-97l-148 516h78zM596 722v-106h-106v106h106zM410 722v-106h-106v106h106z" />
    <glyph glyph-name="uni1E9E" unicode="&#x1e9e;" 
d="M63 698h473v-82l-169 -211v-4q100 -2 156.5 -55.5t56.5 -150.5t-56.5 -152t-153.5 -55q-119 0 -181 85l58 49q23 -31 55.5 -47.5t70.5 -16.5q54 0 86 32t32 87v36q0 55 -32 87t-87 32h-94v77l173 216h-304v-625h-84v698z" />
    <glyph glyph-name="uni1EA0" unicode="&#x1ea0;" 
d="M481 0l-59 199h-245l-59 -199h-87l214 698h111l214 -698h-89zM304 609h-9l-98 -337h205zM353 -67v-106h-106v106h106z" />
    <glyph glyph-name="uni1EA1" unicode="&#x1ea1;" 
d="M495 0q-81 0 -92 84h-5q-36 -96 -155 -96q-81 0 -129 42t-48 115q0 150 222 150h110v51q0 56 -32 85t-91 29q-94 0 -138 -76l-54 40q21 44 72 74t125 30q91 0 144.5 -46.5t53.5 -127.5v-248q0 -15 10.5 -25.5t25.5 -10.5h36v-70h-55zM358 82.5q40 27.5 40 67.5v85h-110
q-138 0 -138 -78v-21q0 -39 28.5 -60t78.5 -21q61 0 101 27.5zM336 -67v-106h-106v106h106z" />
    <glyph glyph-name="uni1EA2" unicode="&#x1ea2;" 
d="M481 0l-59 199h-245l-59 -199h-87l214 698h111l214 -698h-89zM304 609h-9l-98 -337h205zM216 935h109q36 0 53 -15.5t17 -39.5q0 -41 -49 -103l-24 -30l-46 23l58 104h-118v61z" />
    <glyph glyph-name="uni1EA3" unicode="&#x1ea3;" 
d="M495 0q-81 0 -92 84h-5q-36 -96 -155 -96q-81 0 -129 42t-48 115q0 150 222 150h110v51q0 56 -32 85t-91 29q-94 0 -138 -76l-54 40q21 44 72 74t125 30q91 0 144.5 -46.5t53.5 -127.5v-248q0 -15 10.5 -25.5t25.5 -10.5h36v-70h-55zM358 82.5q40 27.5 40 67.5v85h-110
q-138 0 -138 -78v-21q0 -39 28.5 -60t78.5 -21q61 0 101 27.5zM199 765h109q36 0 53 -15.5t17 -39.5q0 -41 -49 -103l-24 -30l-46 23l58 104h-118v61z" />
    <glyph glyph-name="uni1EA4" unicode="&#x1ea4;" 
d="M481 0l-59 199h-245l-59 -199h-87l214 698h111l214 -698h-89zM304 609h-9l-98 -337h205zM454 882l-49 23l85 170l70 -34zM350 925l110 -144l-44 -30l-117 119l-117 -119l-42 30l110 144h100z" />
    <glyph glyph-name="uni1EA5" unicode="&#x1ea5;" 
d="M495 0q-81 0 -92 84h-5q-36 -96 -155 -96q-81 0 -129 42t-48 115q0 150 222 150h110v51q0 56 -32 85t-91 29q-94 0 -138 -76l-54 40q21 44 72 74t125 30q91 0 144.5 -46.5t53.5 -127.5v-248q0 -15 10.5 -25.5t25.5 -10.5h36v-70h-55zM358 82.5q40 27.5 40 67.5v85h-110
q-138 0 -138 -78v-21q0 -39 28.5 -60t78.5 -21q61 0 101 27.5zM437 712l-49 23l85 170l70 -34zM333 755l110 -144l-44 -30l-117 119l-117 -119l-42 30l110 144h100z" />
    <glyph glyph-name="uni1EA6" unicode="&#x1ea6;" 
d="M481 0l-59 199h-245l-59 -199h-87l214 698h111l214 -698h-89zM304 609h-9l-98 -337h205zM40 1041l70 34l85 -170l-49 -23zM350 925l110 -144l-44 -30l-117 119l-117 -119l-42 30l110 144h100z" />
    <glyph glyph-name="uni1EA7" unicode="&#x1ea7;" 
d="M495 0q-81 0 -92 84h-5q-36 -96 -155 -96q-81 0 -129 42t-48 115q0 150 222 150h110v51q0 56 -32 85t-91 29q-94 0 -138 -76l-54 40q21 44 72 74t125 30q91 0 144.5 -46.5t53.5 -127.5v-248q0 -15 10.5 -25.5t25.5 -10.5h36v-70h-55zM358 82.5q40 27.5 40 67.5v85h-110
q-138 0 -138 -78v-21q0 -39 28.5 -60t78.5 -21q61 0 101 27.5zM23 871l70 34l85 -170l-49 -23zM333 755l110 -144l-44 -30l-117 119l-117 -119l-42 30l110 144h100z" />
    <glyph glyph-name="uni1EA8" unicode="&#x1ea8;" 
d="M481 0l-59 199h-245l-59 -199h-87l214 698h111l214 -698h-89zM304 609h-9l-98 -337h205zM353 1064h109q36 0 53 -15.5t17 -39.5q0 -41 -49 -103l-24 -30l-46 23l58 104h-118v61zM350 925l110 -144l-44 -30l-117 119l-117 -119l-42 30l110 144h100z" />
    <glyph glyph-name="uni1EA9" unicode="&#x1ea9;" 
d="M495 0q-81 0 -92 84h-5q-36 -96 -155 -96q-81 0 -129 42t-48 115q0 150 222 150h110v51q0 56 -32 85t-91 29q-94 0 -138 -76l-54 40q21 44 72 74t125 30q91 0 144.5 -46.5t53.5 -127.5v-248q0 -15 10.5 -25.5t25.5 -10.5h36v-70h-55zM358 82.5q40 27.5 40 67.5v85h-110
q-138 0 -138 -78v-21q0 -39 28.5 -60t78.5 -21q61 0 101 27.5zM336 894h109q36 0 53 -15.5t17 -39.5q0 -41 -49 -103l-24 -30l-46 23l58 104h-118v61zM333 755l110 -144l-44 -30l-117 119l-117 -119l-42 30l110 144h100z" />
    <glyph glyph-name="uni1EAA" unicode="&#x1eaa;" 
d="M481 0l-59 199h-245l-59 -199h-87l214 698h111l214 -698h-89zM304 609h-9l-98 -337h205zM265 1056q16 -6 28 -12t15 -8q45 -24 70 -24q16 0 29 6.5t29 20.5l31 -36q-15 -23 -39 -38t-56 -15q-21 0 -37 6t-28 12t-15 8q-45 24 -70 24q-16 0 -29 -6.5t-29 -20.5l-31 36
q15 23 39 38t56 15q21 0 37 -6zM350 915l110 -134l-44 -30l-117 111l-117 -111l-42 30l110 134h100z" />
    <glyph glyph-name="uni1EAB" unicode="&#x1eab;" 
d="M495 0q-81 0 -92 84h-5q-36 -96 -155 -96q-81 0 -129 42t-48 115q0 150 222 150h110v51q0 56 -32 85t-91 29q-94 0 -138 -76l-54 40q21 44 72 74t125 30q91 0 144.5 -46.5t53.5 -127.5v-248q0 -15 10.5 -25.5t25.5 -10.5h36v-70h-55zM358 82.5q40 27.5 40 67.5v85h-110
q-138 0 -138 -78v-21q0 -39 28.5 -60t78.5 -21q61 0 101 27.5zM248 886q16 -6 28 -12t15 -8q45 -24 70 -24q16 0 29 6.5t29 20.5l31 -36q-15 -23 -39 -38t-56 -15q-21 0 -37 6t-28 12t-15 8q-45 24 -70 24q-16 0 -29 -6.5t-29 -20.5l-31 36q15 23 39 38t56 15q21 0 37 -6z
M333 745l110 -134l-44 -30l-117 111l-117 -111l-42 30l110 134h100z" />
    <glyph glyph-name="uni1EAC" unicode="&#x1eac;" 
d="M481 0l-59 199h-245l-59 -199h-87l214 698h111l214 -698h-89zM304 609h-9l-98 -337h205zM350 935l111 -143l-45 -31l-117 117l-117 -117l-43 31l111 143h100zM353 -67v-106h-106v106h106z" />
    <glyph glyph-name="uni1EAD" unicode="&#x1ead;" 
d="M495 0q-81 0 -92 84h-5q-36 -96 -155 -96q-81 0 -129 42t-48 115q0 150 222 150h110v51q0 56 -32 85t-91 29q-94 0 -138 -76l-54 40q21 44 72 74t125 30q91 0 144.5 -46.5t53.5 -127.5v-248q0 -15 10.5 -25.5t25.5 -10.5h36v-70h-55zM358 82.5q40 27.5 40 67.5v85h-110
q-138 0 -138 -78v-21q0 -39 28.5 -60t78.5 -21q61 0 101 27.5zM333 765l111 -143l-45 -31l-117 117l-117 -117l-43 31l111 143h100zM336 -67v-106h-106v106h106z" />
    <glyph glyph-name="uni1EAE" unicode="&#x1eae;" 
d="M481 0l-59 199h-245l-59 -199h-87l214 698h111l214 -698h-89zM304 609h-9l-98 -337h205zM307 878l-49 23l85 170l70 -34zM190.5 795q-37.5 40 -56.5 99l47 23l21 -32q25 -37 45.5 -51.5t52.5 -14.5t52.5 14.5t45.5 51.5l21 32l47 -23q-20 -60 -58.5 -99.5t-108.5 -39.5
q-71 0 -108.5 40z" />
    <glyph glyph-name="uni1EAF" unicode="&#x1eaf;" 
d="M495 0q-81 0 -92 84h-5q-36 -96 -155 -96q-81 0 -129 42t-48 115q0 150 222 150h110v51q0 56 -32 85t-91 29q-94 0 -138 -76l-54 40q21 44 72 74t125 30q91 0 144.5 -46.5t53.5 -127.5v-248q0 -15 10.5 -25.5t25.5 -10.5h36v-70h-55zM358 82.5q40 27.5 40 67.5v85h-110
q-138 0 -138 -78v-21q0 -39 28.5 -60t78.5 -21q61 0 101 27.5zM290 708l-49 23l85 170l70 -34zM173.5 625q-37.5 40 -56.5 99l47 23l21 -32q25 -37 45.5 -51.5t52.5 -14.5t52.5 14.5t45.5 51.5l21 32l47 -23q-20 -60 -58.5 -99.5t-108.5 -39.5q-71 0 -108.5 40z" />
    <glyph glyph-name="uni1EB0" unicode="&#x1eb0;" 
d="M481 0l-59 199h-245l-59 -199h-87l214 698h111l214 -698h-89zM304 609h-9l-98 -337h205zM187 1037l70 34l85 -170l-49 -23zM192.5 794.5q-38.5 39.5 -58.5 99.5l47 23l21 -32q25 -37 45.5 -51.5t52.5 -14.5t52.5 14.5t45.5 51.5l21 32l47 -23q-19 -59 -56.5 -99
t-108.5 -40q-70 0 -108.5 39.5z" />
    <glyph glyph-name="uni1EB1" unicode="&#x1eb1;" 
d="M495 0q-81 0 -92 84h-5q-36 -96 -155 -96q-81 0 -129 42t-48 115q0 150 222 150h110v51q0 56 -32 85t-91 29q-94 0 -138 -76l-54 40q21 44 72 74t125 30q91 0 144.5 -46.5t53.5 -127.5v-248q0 -15 10.5 -25.5t25.5 -10.5h36v-70h-55zM358 82.5q40 27.5 40 67.5v85h-110
q-138 0 -138 -78v-21q0 -39 28.5 -60t78.5 -21q61 0 101 27.5zM170 867l70 34l85 -170l-49 -23zM175.5 624.5q-38.5 39.5 -58.5 99.5l47 23l21 -32q25 -37 45.5 -51.5t52.5 -14.5t52.5 14.5t45.5 51.5l21 32l47 -23q-19 -59 -56.5 -99t-108.5 -40q-70 0 -108.5 39.5z" />
    <glyph glyph-name="uni1EB2" unicode="&#x1eb2;" 
d="M481 0l-59 199h-245l-59 -199h-87l214 698h111l214 -698h-89zM304 609h-9l-98 -337h205zM215 1060h94q36 0 53 -15.5t17 -39.5q0 -41 -49 -103l-24 -30l-46 23l58 104h-103v61zM192.5 794.5q-38.5 39.5 -58.5 99.5l47 23l21 -32q25 -37 45.5 -51.5t52.5 -14.5t52.5 14.5
t45.5 51.5l21 32l47 -23q-19 -59 -56.5 -99t-108.5 -40q-70 0 -108.5 39.5z" />
    <glyph glyph-name="uni1EB3" unicode="&#x1eb3;" 
d="M495 0q-81 0 -92 84h-5q-36 -96 -155 -96q-81 0 -129 42t-48 115q0 150 222 150h110v51q0 56 -32 85t-91 29q-94 0 -138 -76l-54 40q21 44 72 74t125 30q91 0 144.5 -46.5t53.5 -127.5v-248q0 -15 10.5 -25.5t25.5 -10.5h36v-70h-55zM358 82.5q40 27.5 40 67.5v85h-110
q-138 0 -138 -78v-21q0 -39 28.5 -60t78.5 -21q61 0 101 27.5zM198 890h94q36 0 53 -15.5t17 -39.5q0 -41 -49 -103l-24 -30l-46 23l58 104h-103v61zM175.5 624.5q-38.5 39.5 -58.5 99.5l47 23l21 -32q25 -37 45.5 -51.5t52.5 -14.5t52.5 14.5t45.5 51.5l21 32l47 -23
q-19 -59 -56.5 -99t-108.5 -40q-70 0 -108.5 39.5z" />
    <glyph glyph-name="uni1EB4" unicode="&#x1eb4;" 
d="M481 0l-59 199h-245l-59 -199h-87l214 698h111l214 -698h-89zM304 609h-9l-98 -337h205zM335 945q-16 6 -28 12t-15 8q-45 24 -70 24q-16 0 -29 -6.5t-29 -20.5l-31 36q15 23 39 38t56 15q21 0 37 -6t28 -12t15 -8q45 -24 70 -24q16 0 29 6.5t29 20.5l31 -36
q-15 -23 -39 -38t-56 -15q-21 0 -37 6zM192.5 794.5q-38.5 39.5 -58.5 99.5l47 23l21 -32q25 -37 45.5 -51.5t52.5 -14.5t52.5 14.5t45.5 51.5l21 32l47 -23q-19 -59 -56.5 -99t-108.5 -40q-70 0 -108.5 39.5z" />
    <glyph glyph-name="uni1EB5" unicode="&#x1eb5;" 
d="M495 0q-81 0 -92 84h-5q-36 -96 -155 -96q-81 0 -129 42t-48 115q0 150 222 150h110v51q0 56 -32 85t-91 29q-94 0 -138 -76l-54 40q21 44 72 74t125 30q91 0 144.5 -46.5t53.5 -127.5v-248q0 -15 10.5 -25.5t25.5 -10.5h36v-70h-55zM358 82.5q40 27.5 40 67.5v85h-110
q-138 0 -138 -78v-21q0 -39 28.5 -60t78.5 -21q61 0 101 27.5zM318 775q-16 6 -28 12t-15 8q-45 24 -70 24q-16 0 -29 -6.5t-29 -20.5l-31 36q15 23 39 38t56 15q21 0 37 -6t28 -12t15 -8q45 -24 70 -24q16 0 29 6.5t29 20.5l31 -36q-15 -23 -39 -38t-56 -15q-21 0 -37 6z
M175.5 624.5q-38.5 39.5 -58.5 99.5l47 23l21 -32q25 -37 45.5 -51.5t52.5 -14.5t52.5 14.5t45.5 51.5l21 32l47 -23q-19 -59 -56.5 -99t-108.5 -40q-70 0 -108.5 39.5z" />
    <glyph glyph-name="uni1EB6" unicode="&#x1eb6;" 
d="M481 0l-59 199h-245l-59 -199h-87l214 698h111l214 -698h-89zM304 609h-9l-98 -337h205zM194 808q-35 43 -55 108l51 22l21 -34q19 -31 29.5 -45t24.5 -21.5t35 -7.5t35 7.5t24.5 21.5t29.5 45l21 34l51 -22q-20 -65 -55 -108t-106 -43t-106 43zM353 -67v-106h-106v106
h106z" />
    <glyph glyph-name="uni1EB7" unicode="&#x1eb7;" 
d="M495 0q-81 0 -92 84h-5q-36 -96 -155 -96q-81 0 -129 42t-48 115q0 150 222 150h110v51q0 56 -32 85t-91 29q-94 0 -138 -76l-54 40q21 44 72 74t125 30q91 0 144.5 -46.5t53.5 -127.5v-248q0 -15 10.5 -25.5t25.5 -10.5h36v-70h-55zM358 82.5q40 27.5 40 67.5v85h-110
q-138 0 -138 -78v-21q0 -39 28.5 -60t78.5 -21q61 0 101 27.5zM177 638q-35 43 -55 108l51 22l21 -34q19 -31 29.5 -45t24.5 -21.5t35 -7.5t35 7.5t24.5 21.5t29.5 45l21 34l51 -22q-20 -65 -55 -108t-106 -43t-106 43zM336 -67v-106h-106v106h106z" />
    <glyph glyph-name="uni1EB8" unicode="&#x1eb8;" 
d="M90 0v698h430v-73h-346v-235h334v-73h-334v-244h346v-73h-430zM358 -67v-106h-106v106h106z" />
    <glyph glyph-name="uni1EB9" unicode="&#x1eb9;" 
d="M181 21q-55 33 -84.5 94t-29.5 142t30 142.5t83.5 95t123.5 33.5q68 0 120 -32.5t80.5 -89.5t28.5 -130v-38h-382v-24q0 -69 43 -113t115 -44q51 0 89 23.5t59 66.5l59 -40q-24 -54 -78.5 -86.5t-128.5 -32.5q-73 0 -128 33zM226 441.5q-35 -20.5 -55 -56.5t-20 -80v-7
h296v11q0 68 -39.5 110.5t-103.5 42.5q-43 0 -78 -20.5zM362 -67v-106h-106v106h106z" />
    <glyph glyph-name="uni1EBA" unicode="&#x1eba;" 
d="M90 0v698h430v-73h-346v-235h334v-73h-334v-244h346v-73h-430zM221 935h109q36 0 53 -15.5t17 -39.5q0 -41 -49 -103l-24 -30l-46 23l58 104h-118v61z" />
    <glyph glyph-name="uni1EBB" unicode="&#x1ebb;" 
d="M181 21q-55 33 -84.5 94t-29.5 142t30 142.5t83.5 95t123.5 33.5q68 0 120 -32.5t80.5 -89.5t28.5 -130v-38h-382v-24q0 -69 43 -113t115 -44q51 0 89 23.5t59 66.5l59 -40q-24 -54 -78.5 -86.5t-128.5 -32.5q-73 0 -128 33zM226 441.5q-35 -20.5 -55 -56.5t-20 -80v-7
h296v11q0 68 -39.5 110.5t-103.5 42.5q-43 0 -78 -20.5zM218 765h109q36 0 53 -15.5t17 -39.5q0 -41 -49 -103l-24 -30l-46 23l58 104h-118v61z" />
    <glyph glyph-name="uni1EBC" unicode="&#x1ebc;" 
d="M90 0v698h430v-73h-346v-235h334v-73h-334v-244h346v-73h-430zM341 788q-16 6 -28 12t-15 8q-45 24 -70 24q-15 0 -28.5 -6.5t-29.5 -20.5l-33 40q15 23 39 38t56 15q21 0 37 -6t28 -12t15 -8q45 -24 70 -24q16 0 29 6.5t29 20.5l33 -40q-15 -23 -39 -38t-56 -15
q-21 0 -37 6z" />
    <glyph glyph-name="uni1EBD" unicode="&#x1ebd;" 
d="M181 21q-55 33 -84.5 94t-29.5 142t30 142.5t83.5 95t123.5 33.5q68 0 120 -32.5t80.5 -89.5t28.5 -130v-38h-382v-24q0 -69 43 -113t115 -44q51 0 89 23.5t59 66.5l59 -40q-24 -54 -78.5 -86.5t-128.5 -32.5q-73 0 -128 33zM226 441.5q-35 -20.5 -55 -56.5t-20 -80v-7
h296v11q0 68 -39.5 110.5t-103.5 42.5q-43 0 -78 -20.5zM338 618q-16 6 -28 12t-15 8q-45 24 -70 24q-15 0 -28.5 -6.5t-29.5 -20.5l-33 40q15 23 39 38t56 15q21 0 37 -6t28 -12t15 -8q45 -24 70 -24q16 0 29 6.5t29 20.5l33 -40q-15 -23 -39 -38t-56 -15q-21 0 -37 6z" />
    <glyph glyph-name="uni1EBE" unicode="&#x1ebe;" 
d="M90 0v698h430v-73h-346v-235h334v-73h-334v-244h346v-73h-430zM459 882l-49 23l85 170l70 -34zM355 925l110 -144l-44 -30l-117 119l-117 -119l-42 30l110 144h100z" />
    <glyph glyph-name="uni1EBF" unicode="&#x1ebf;" 
d="M181 21q-55 33 -84.5 94t-29.5 142t30 142.5t83.5 95t123.5 33.5q68 0 120 -32.5t80.5 -89.5t28.5 -130v-38h-382v-24q0 -69 43 -113t115 -44q51 0 89 23.5t59 66.5l59 -40q-24 -54 -78.5 -86.5t-128.5 -32.5q-73 0 -128 33zM226 441.5q-35 -20.5 -55 -56.5t-20 -80v-7
h296v11q0 68 -39.5 110.5t-103.5 42.5q-43 0 -78 -20.5zM456 712l-49 23l85 170l70 -34zM352 755l110 -144l-44 -30l-117 119l-117 -119l-42 30l110 144h100z" />
    <glyph glyph-name="uni1EC0" unicode="&#x1ec0;" 
d="M90 0v698h430v-73h-346v-235h334v-73h-334v-244h346v-73h-430zM45 1041l70 34l85 -170l-49 -23zM355 925l110 -144l-44 -30l-117 119l-117 -119l-42 30l110 144h100z" />
    <glyph glyph-name="uni1EC1" unicode="&#x1ec1;" 
d="M181 21q-55 33 -84.5 94t-29.5 142t30 142.5t83.5 95t123.5 33.5q68 0 120 -32.5t80.5 -89.5t28.5 -130v-38h-382v-24q0 -69 43 -113t115 -44q51 0 89 23.5t59 66.5l59 -40q-24 -54 -78.5 -86.5t-128.5 -32.5q-73 0 -128 33zM226 441.5q-35 -20.5 -55 -56.5t-20 -80v-7
h296v11q0 68 -39.5 110.5t-103.5 42.5q-43 0 -78 -20.5zM42 871l70 34l85 -170l-49 -23zM352 755l110 -144l-44 -30l-117 119l-117 -119l-42 30l110 144h100z" />
    <glyph glyph-name="uni1EC2" unicode="&#x1ec2;" 
d="M90 0v698h430v-73h-346v-235h334v-73h-334v-244h346v-73h-430zM358 1064h109q36 0 53 -15.5t17 -39.5q0 -41 -49 -103l-24 -30l-46 23l58 104h-118v61zM355 925l110 -144l-44 -30l-117 119l-117 -119l-42 30l110 144h100z" />
    <glyph glyph-name="uni1EC3" unicode="&#x1ec3;" 
d="M181 21q-55 33 -84.5 94t-29.5 142t30 142.5t83.5 95t123.5 33.5q68 0 120 -32.5t80.5 -89.5t28.5 -130v-38h-382v-24q0 -69 43 -113t115 -44q51 0 89 23.5t59 66.5l59 -40q-24 -54 -78.5 -86.5t-128.5 -32.5q-73 0 -128 33zM226 441.5q-35 -20.5 -55 -56.5t-20 -80v-7
h296v11q0 68 -39.5 110.5t-103.5 42.5q-43 0 -78 -20.5zM355 894h109q36 0 53 -15.5t17 -39.5q0 -41 -49 -103l-24 -30l-46 23l58 104h-118v61zM352 755l110 -144l-44 -30l-117 119l-117 -119l-42 30l110 144h100z" />
    <glyph glyph-name="uni1EC4" unicode="&#x1ec4;" 
d="M90 0v698h430v-73h-346v-235h334v-73h-334v-244h346v-73h-430zM270 1056q16 -6 28 -12t15 -8q45 -24 70 -24q16 0 29 6.5t29 20.5l31 -36q-15 -23 -39 -38t-56 -15q-21 0 -37 6t-28 12t-15 8q-45 24 -70 24q-16 0 -29 -6.5t-29 -20.5l-31 36q15 23 39 38t56 15
q21 0 37 -6zM355 915l110 -134l-44 -30l-117 111l-117 -111l-42 30l110 134h100z" />
    <glyph glyph-name="uni1EC5" unicode="&#x1ec5;" 
d="M181 21q-55 33 -84.5 94t-29.5 142t30 142.5t83.5 95t123.5 33.5q68 0 120 -32.5t80.5 -89.5t28.5 -130v-38h-382v-24q0 -69 43 -113t115 -44q51 0 89 23.5t59 66.5l59 -40q-24 -54 -78.5 -86.5t-128.5 -32.5q-73 0 -128 33zM226 441.5q-35 -20.5 -55 -56.5t-20 -80v-7
h296v11q0 68 -39.5 110.5t-103.5 42.5q-43 0 -78 -20.5zM267 886q16 -6 28 -12t15 -8q45 -24 70 -24q16 0 29 6.5t29 20.5l31 -36q-15 -23 -39 -38t-56 -15q-21 0 -37 6t-28 12t-15 8q-45 24 -70 24q-16 0 -29 -6.5t-29 -20.5l-31 36q15 23 39 38t56 15q21 0 37 -6zM352 745
l110 -134l-44 -30l-117 111l-117 -111l-42 30l110 134h100z" />
    <glyph glyph-name="uni1EC6" unicode="&#x1ec6;" 
d="M90 0v698h430v-73h-346v-235h334v-73h-334v-244h346v-73h-430zM355 935l111 -143l-45 -31l-117 117l-117 -117l-43 31l111 143h100zM358 -67v-106h-106v106h106z" />
    <glyph glyph-name="uni1EC7" unicode="&#x1ec7;" 
d="M181 21q-55 33 -84.5 94t-29.5 142t30 142.5t83.5 95t123.5 33.5q68 0 120 -32.5t80.5 -89.5t28.5 -130v-38h-382v-24q0 -69 43 -113t115 -44q51 0 89 23.5t59 66.5l59 -40q-24 -54 -78.5 -86.5t-128.5 -32.5q-73 0 -128 33zM226 441.5q-35 -20.5 -55 -56.5t-20 -80v-7
h296v11q0 68 -39.5 110.5t-103.5 42.5q-43 0 -78 -20.5zM352 765l111 -143l-45 -31l-117 117l-117 -117l-43 31l111 143h100zM362 -67v-106h-106v106h106z" />
    <glyph glyph-name="uni1EC8" unicode="&#x1ec8;" horiz-adv-x="300" 
d="M108 698h84v-698h-84v698zM66 935h109q36 0 53 -15.5t17 -39.5q0 -41 -49 -103l-24 -30l-46 23l58 104h-118v61z" />
    <glyph glyph-name="uni1EC9" unicode="&#x1ec9;" horiz-adv-x="300" 
d="M110 516h80v-516h-80v516zM66 765h109q36 0 53 -15.5t17 -39.5q0 -41 -49 -103l-24 -30l-46 23l58 104h-118v61z" />
    <glyph glyph-name="uni1ECA" unicode="&#x1eca;" horiz-adv-x="300" 
d="M108 698h84v-698h-84v698zM205 -67v-106h-106v106h106z" />
    <glyph glyph-name="uni1ECB" unicode="&#x1ecb;" horiz-adv-x="300" 
d="M203 740v-106h-106v106h106zM110 516h80v-516h-80v516zM201 -67v-106h-106v106h106z" />
    <glyph glyph-name="uni1ECC" unicode="&#x1ecc;" 
d="M56 349q0 361 244 361t244 -361t-244 -361t-244 361zM417.5 121.5q37.5 60.5 37.5 170.5v114q0 110 -37.5 170.5t-117.5 60.5t-117.5 -60.5t-37.5 -170.5v-114q0 -110 37.5 -170.5t117.5 -60.5t117.5 60.5zM353 -67v-106h-106v106h106z" />
    <glyph glyph-name="uni1ECD" unicode="&#x1ecd;" 
d="M175.5 21q-52.5 33 -81 94t-28.5 143t28.5 143t81 94t124.5 33t124.5 -33t81 -94t28.5 -143t-28.5 -143t-81 -94t-124.5 -33t-124.5 33zM409 98.5q40 41.5 40 122.5v74q0 81 -40 122.5t-109 41.5t-109 -41.5t-40 -122.5v-74q0 -81 40 -122.5t109 -41.5t109 41.5zM353 -67
v-106h-106v106h106z" />
    <glyph glyph-name="uni1ECE" unicode="&#x1ece;" 
d="M56 349q0 361 244 361t244 -361t-244 -361t-244 361zM417.5 121.5q37.5 60.5 37.5 170.5v114q0 110 -37.5 170.5t-117.5 60.5t-117.5 -60.5t-37.5 -170.5v-114q0 -110 37.5 -170.5t117.5 -60.5t117.5 60.5zM216 935h109q36 0 53 -15.5t17 -39.5q0 -41 -49 -103l-24 -30
l-46 23l58 104h-118v61z" />
    <glyph glyph-name="uni1ECF" unicode="&#x1ecf;" 
d="M175.5 21q-52.5 33 -81 94t-28.5 143t28.5 143t81 94t124.5 33t124.5 -33t81 -94t28.5 -143t-28.5 -143t-81 -94t-124.5 -33t-124.5 33zM409 98.5q40 41.5 40 122.5v74q0 81 -40 122.5t-109 41.5t-109 -41.5t-40 -122.5v-74q0 -81 40 -122.5t109 -41.5t109 41.5zM216 765
h109q36 0 53 -15.5t17 -39.5q0 -41 -49 -103l-24 -30l-46 23l58 104h-118v61z" />
    <glyph glyph-name="uni1ED0" unicode="&#x1ed0;" 
d="M56 349q0 361 244 361t244 -361t-244 -361t-244 361zM417.5 121.5q37.5 60.5 37.5 170.5v114q0 110 -37.5 170.5t-117.5 60.5t-117.5 -60.5t-37.5 -170.5v-114q0 -110 37.5 -170.5t117.5 -60.5t117.5 60.5zM454 882l-49 23l85 170l70 -34zM350 925l110 -144l-44 -30
l-117 119l-117 -119l-42 30l110 144h100z" />
    <glyph glyph-name="uni1ED1" unicode="&#x1ed1;" 
d="M175.5 21q-52.5 33 -81 94t-28.5 143t28.5 143t81 94t124.5 33t124.5 -33t81 -94t28.5 -143t-28.5 -143t-81 -94t-124.5 -33t-124.5 33zM409 98.5q40 41.5 40 122.5v74q0 81 -40 122.5t-109 41.5t-109 -41.5t-40 -122.5v-74q0 -81 40 -122.5t109 -41.5t109 41.5zM454 712
l-49 23l85 170l70 -34zM350 755l110 -144l-44 -30l-117 119l-117 -119l-42 30l110 144h100z" />
    <glyph glyph-name="uni1ED2" unicode="&#x1ed2;" 
d="M56 349q0 361 244 361t244 -361t-244 -361t-244 361zM417.5 121.5q37.5 60.5 37.5 170.5v114q0 110 -37.5 170.5t-117.5 60.5t-117.5 -60.5t-37.5 -170.5v-114q0 -110 37.5 -170.5t117.5 -60.5t117.5 60.5zM40 1041l70 34l85 -170l-49 -23zM350 925l110 -144l-44 -30
l-117 119l-117 -119l-42 30l110 144h100z" />
    <glyph glyph-name="uni1ED3" unicode="&#x1ed3;" 
d="M175.5 21q-52.5 33 -81 94t-28.5 143t28.5 143t81 94t124.5 33t124.5 -33t81 -94t28.5 -143t-28.5 -143t-81 -94t-124.5 -33t-124.5 33zM409 98.5q40 41.5 40 122.5v74q0 81 -40 122.5t-109 41.5t-109 -41.5t-40 -122.5v-74q0 -81 40 -122.5t109 -41.5t109 41.5zM40 871
l70 34l85 -170l-49 -23zM350 755l110 -144l-44 -30l-117 119l-117 -119l-42 30l110 144h100z" />
    <glyph glyph-name="uni1ED4" unicode="&#x1ed4;" 
d="M56 349q0 361 244 361t244 -361t-244 -361t-244 361zM417.5 121.5q37.5 60.5 37.5 170.5v114q0 110 -37.5 170.5t-117.5 60.5t-117.5 -60.5t-37.5 -170.5v-114q0 -110 37.5 -170.5t117.5 -60.5t117.5 60.5zM353 1064h109q36 0 53 -15.5t17 -39.5q0 -41 -49 -103l-24 -30
l-46 23l58 104h-118v61zM350 925l110 -144l-44 -30l-117 119l-117 -119l-42 30l110 144h100z" />
    <glyph glyph-name="uni1ED5" unicode="&#x1ed5;" 
d="M175.5 21q-52.5 33 -81 94t-28.5 143t28.5 143t81 94t124.5 33t124.5 -33t81 -94t28.5 -143t-28.5 -143t-81 -94t-124.5 -33t-124.5 33zM409 98.5q40 41.5 40 122.5v74q0 81 -40 122.5t-109 41.5t-109 -41.5t-40 -122.5v-74q0 -81 40 -122.5t109 -41.5t109 41.5zM353 894
h109q36 0 53 -15.5t17 -39.5q0 -41 -49 -103l-24 -30l-46 23l58 104h-118v61zM350 755l110 -144l-44 -30l-117 119l-117 -119l-42 30l110 144h100z" />
    <glyph glyph-name="uni1ED6" unicode="&#x1ed6;" 
d="M56 349q0 361 244 361t244 -361t-244 -361t-244 361zM417.5 121.5q37.5 60.5 37.5 170.5v114q0 110 -37.5 170.5t-117.5 60.5t-117.5 -60.5t-37.5 -170.5v-114q0 -110 37.5 -170.5t117.5 -60.5t117.5 60.5zM265 1056q16 -6 28 -12t15 -8q45 -24 70 -24q16 0 29 6.5
t29 20.5l31 -36q-15 -23 -39 -38t-56 -15q-21 0 -37 6t-28 12t-15 8q-45 24 -70 24q-16 0 -29 -6.5t-29 -20.5l-31 36q15 23 39 38t56 15q21 0 37 -6zM350 915l110 -134l-44 -30l-117 111l-117 -111l-42 30l110 134h100z" />
    <glyph glyph-name="uni1ED7" unicode="&#x1ed7;" 
d="M175.5 21q-52.5 33 -81 94t-28.5 143t28.5 143t81 94t124.5 33t124.5 -33t81 -94t28.5 -143t-28.5 -143t-81 -94t-124.5 -33t-124.5 33zM409 98.5q40 41.5 40 122.5v74q0 81 -40 122.5t-109 41.5t-109 -41.5t-40 -122.5v-74q0 -81 40 -122.5t109 -41.5t109 41.5zM265 886
q16 -6 28 -12t15 -8q45 -24 70 -24q16 0 29 6.5t29 20.5l31 -36q-15 -23 -39 -38t-56 -15q-21 0 -37 6t-28 12t-15 8q-45 24 -70 24q-16 0 -29 -6.5t-29 -20.5l-31 36q15 23 39 38t56 15q21 0 37 -6zM350 745l110 -134l-44 -30l-117 111l-117 -111l-42 30l110 134h100z" />
    <glyph glyph-name="uni1ED8" unicode="&#x1ed8;" 
d="M56 349q0 361 244 361t244 -361t-244 -361t-244 361zM417.5 121.5q37.5 60.5 37.5 170.5v114q0 110 -37.5 170.5t-117.5 60.5t-117.5 -60.5t-37.5 -170.5v-114q0 -110 37.5 -170.5t117.5 -60.5t117.5 60.5zM350 935l111 -143l-45 -31l-117 117l-117 -117l-43 31l111 143
h100zM353 -67v-106h-106v106h106z" />
    <glyph glyph-name="uni1ED9" unicode="&#x1ed9;" 
d="M175.5 21q-52.5 33 -81 94t-28.5 143t28.5 143t81 94t124.5 33t124.5 -33t81 -94t28.5 -143t-28.5 -143t-81 -94t-124.5 -33t-124.5 33zM409 98.5q40 41.5 40 122.5v74q0 81 -40 122.5t-109 41.5t-109 -41.5t-40 -122.5v-74q0 -81 40 -122.5t109 -41.5t109 41.5zM350 765
l111 -143l-45 -31l-117 117l-117 -117l-43 31l111 143h100zM353 -67v-106h-106v106h106z" />
    <glyph glyph-name="uni1EDA" unicode="&#x1eda;" 
d="M549 710q0 -29 -14 -46t-49 -17h-28q45 -42 65.5 -116.5t20.5 -181.5q0 -361 -244 -361t-244 361t244 361q44 0 80 -12h83q7 0 11 4t4 11v97h71v-100zM417.5 121.5q37.5 60.5 37.5 170.5v114q0 110 -37.5 170.5t-117.5 60.5t-117.5 -60.5t-37.5 -170.5v-114
q0 -110 37.5 -170.5t117.5 -60.5t117.5 60.5zM307 755l-52 24l85 170l73 -35z" />
    <glyph glyph-name="uni1EDB" unicode="&#x1edb;" 
d="M540 628v-100q0 -61 -63 -61h-22q38 -35 58.5 -88.5t20.5 -120.5q0 -82 -28.5 -143t-81 -94t-124.5 -33t-124.5 33t-81 94t-28.5 143t28.5 143t81 94t124.5 33q43 0 79 -12h75q7 0 11 4t4 11v97h71zM409 98.5q40 41.5 40 122.5v74q0 81 -40 122.5t-109 41.5t-109 -41.5
t-40 -122.5v-74q0 -81 40 -122.5t109 -41.5t109 41.5zM307 585l-52 24l85 170l73 -35z" />
    <glyph glyph-name="uni1EDC" unicode="&#x1edc;" 
d="M549 710q0 -29 -14 -46t-49 -17h-28q45 -42 65.5 -116.5t20.5 -181.5q0 -361 -244 -361t-244 361t244 361q44 0 80 -12h83q7 0 11 4t4 11v97h71v-100zM417.5 121.5q37.5 60.5 37.5 170.5v114q0 110 -37.5 170.5t-117.5 60.5t-117.5 -60.5t-37.5 -170.5v-114
q0 -110 37.5 -170.5t117.5 -60.5t117.5 60.5zM187 914l73 35l85 -170l-52 -24z" />
    <glyph glyph-name="uni1EDD" unicode="&#x1edd;" 
d="M540 628v-100q0 -61 -63 -61h-22q38 -35 58.5 -88.5t20.5 -120.5q0 -82 -28.5 -143t-81 -94t-124.5 -33t-124.5 33t-81 94t-28.5 143t28.5 143t81 94t124.5 33q43 0 79 -12h75q7 0 11 4t4 11v97h71zM409 98.5q40 41.5 40 122.5v74q0 81 -40 122.5t-109 41.5t-109 -41.5
t-40 -122.5v-74q0 -81 40 -122.5t109 -41.5t109 41.5zM187 744l73 35l85 -170l-52 -24z" />
    <glyph glyph-name="uni1EDE" unicode="&#x1ede;" 
d="M549 710q0 -29 -14 -46t-49 -17h-28q45 -42 65.5 -116.5t20.5 -181.5q0 -361 -244 -361t-244 361t244 361q44 0 80 -12h83q7 0 11 4t4 11v97h71v-100zM417.5 121.5q37.5 60.5 37.5 170.5v114q0 110 -37.5 170.5t-117.5 60.5t-117.5 -60.5t-37.5 -170.5v-114
q0 -110 37.5 -170.5t117.5 -60.5t117.5 60.5zM216 935h109q36 0 53 -15.5t17 -39.5q0 -41 -49 -103l-24 -30l-46 23l58 104h-118v61z" />
    <glyph glyph-name="uni1EDF" unicode="&#x1edf;" 
d="M540 628v-100q0 -61 -63 -61h-22q38 -35 58.5 -88.5t20.5 -120.5q0 -82 -28.5 -143t-81 -94t-124.5 -33t-124.5 33t-81 94t-28.5 143t28.5 143t81 94t124.5 33q43 0 79 -12h75q7 0 11 4t4 11v97h71zM409 98.5q40 41.5 40 122.5v74q0 81 -40 122.5t-109 41.5t-109 -41.5
t-40 -122.5v-74q0 -81 40 -122.5t109 -41.5t109 41.5zM216 765h109q36 0 53 -15.5t17 -39.5q0 -41 -49 -103l-24 -30l-46 23l58 104h-118v61z" />
    <glyph glyph-name="uni1EE0" unicode="&#x1ee0;" 
d="M549 710q0 -29 -14 -46t-49 -17h-28q45 -42 65.5 -116.5t20.5 -181.5q0 -361 -244 -361t-244 361t244 361q44 0 80 -12h83q7 0 11 4t4 11v97h71v-100zM417.5 121.5q37.5 60.5 37.5 170.5v114q0 110 -37.5 170.5t-117.5 60.5t-117.5 -60.5t-37.5 -170.5v-114
q0 -110 37.5 -170.5t117.5 -60.5t117.5 60.5zM331 791q-14 5 -24.5 10t-13.5 7q-22 11 -33.5 15.5t-23.5 4.5q-27 0 -57 -27l-33 40q15 23 38 38t53 15q18 0 32 -5t24.5 -10t13.5 -7q22 -11 33.5 -15.5t23.5 -4.5q27 0 57 27l33 -40q-15 -23 -38 -38t-53 -15q-18 0 -32 5z
" />
    <glyph glyph-name="uni1EE1" unicode="&#x1ee1;" 
d="M540 628v-100q0 -61 -63 -61h-22q38 -35 58.5 -88.5t20.5 -120.5q0 -82 -28.5 -143t-81 -94t-124.5 -33t-124.5 33t-81 94t-28.5 143t28.5 143t81 94t124.5 33q43 0 79 -12h75q7 0 11 4t4 11v97h71zM409 98.5q40 41.5 40 122.5v74q0 81 -40 122.5t-109 41.5t-109 -41.5
t-40 -122.5v-74q0 -81 40 -122.5t109 -41.5t109 41.5zM331 621q-14 5 -24.5 10t-13.5 7q-22 11 -33.5 15.5t-23.5 4.5q-27 0 -57 -27l-33 40q15 23 38 38t53 15q18 0 32 -5t24.5 -10t13.5 -7q22 -11 33.5 -15.5t23.5 -4.5q27 0 57 27l33 -40q-15 -23 -38 -38t-53 -15
q-18 0 -32 5z" />
    <glyph glyph-name="uni1EE2" unicode="&#x1ee2;" 
d="M549 710q0 -29 -14 -46t-49 -17h-28q45 -42 65.5 -116.5t20.5 -181.5q0 -361 -244 -361t-244 361t244 361q44 0 80 -12h83q7 0 11 4t4 11v97h71v-100zM417.5 121.5q37.5 60.5 37.5 170.5v114q0 110 -37.5 170.5t-117.5 60.5t-117.5 -60.5t-37.5 -170.5v-114
q0 -110 37.5 -170.5t117.5 -60.5t117.5 60.5zM353 -67v-106h-106v106h106z" />
    <glyph glyph-name="uni1EE3" unicode="&#x1ee3;" 
d="M540 628v-100q0 -61 -63 -61h-22q38 -35 58.5 -88.5t20.5 -120.5q0 -82 -28.5 -143t-81 -94t-124.5 -33t-124.5 33t-81 94t-28.5 143t28.5 143t81 94t124.5 33q43 0 79 -12h75q7 0 11 4t4 11v97h71zM409 98.5q40 41.5 40 122.5v74q0 81 -40 122.5t-109 41.5t-109 -41.5
t-40 -122.5v-74q0 -81 40 -122.5t109 -41.5t109 41.5zM353 -67v-106h-106v106h106z" />
    <glyph glyph-name="uni1EE4" unicode="&#x1ee4;" 
d="M164 698v-419q0 -81 7.5 -124.5t36.5 -68.5t92 -25t92 25t36.5 68.5t7.5 124.5v419h84v-399q0 -113 -16.5 -178.5t-63.5 -99t-140 -33.5t-140 33.5t-63.5 99t-16.5 178.5v399h84zM353 -67v-106h-106v106h106z" />
    <glyph glyph-name="uni1EE5" unicode="&#x1ee5;" 
d="M422 84h-4q-41 -96 -147 -96q-82 0 -130.5 52t-48.5 145v331h80v-317q0 -70 31 -105t91 -35q53 0 90.5 25.5t37.5 73.5v358h80v-516h-80v84zM350 -67v-106h-106v106h106z" />
    <glyph glyph-name="uni1EE6" unicode="&#x1ee6;" 
d="M164 698v-419q0 -81 7.5 -124.5t36.5 -68.5t92 -25t92 25t36.5 68.5t7.5 124.5v419h84v-399q0 -113 -16.5 -178.5t-63.5 -99t-140 -33.5t-140 33.5t-63.5 99t-16.5 178.5v399h84zM216 935h109q36 0 53 -15.5t17 -39.5q0 -41 -49 -103l-24 -30l-46 23l58 104h-118v61z" />
    <glyph glyph-name="uni1EE7" unicode="&#x1ee7;" 
d="M422 84h-4q-41 -96 -147 -96q-82 0 -130.5 52t-48.5 145v331h80v-317q0 -70 31 -105t91 -35q53 0 90.5 25.5t37.5 73.5v358h80v-516h-80v84zM213 765h109q36 0 53 -15.5t17 -39.5q0 -41 -49 -103l-24 -30l-46 23l58 104h-118v61z" />
    <glyph glyph-name="uni1EE8" unicode="&#x1ee8;" 
d="M164 698v-419q0 -81 7.5 -124.5t36.5 -68.5t92 -25t92 25t36.5 68.5t7.5 124.5v419h78q7 0 11 4t4 11v97h71v-102q0 -29 -14 -46t-49 -17h-17v-346q0 -113 -16.5 -178.5t-63.5 -99t-140 -33.5t-140 33.5t-63.5 99t-16.5 178.5v399h84zM307 755l-52 24l85 170l73 -35z" />
    <glyph glyph-name="uni1EE9" unicode="&#x1ee9;" 
d="M587 526q0 -29 -14 -46t-49 -17h-22v-463h-80v84h-4q-41 -96 -147 -96q-82 0 -130.5 52t-48.5 145v331h80v-317q0 -70 31 -105t91 -35q53 0 90.5 25.5t37.5 73.5v358h79q7 0 11 4t4 11v97h71v-102zM304 585l-52 24l85 170l73 -35z" />
    <glyph glyph-name="uni1EEA" unicode="&#x1eea;" 
d="M164 698v-419q0 -81 7.5 -124.5t36.5 -68.5t92 -25t92 25t36.5 68.5t7.5 124.5v419h78q7 0 11 4t4 11v97h71v-102q0 -29 -14 -46t-49 -17h-17v-346q0 -113 -16.5 -178.5t-63.5 -99t-140 -33.5t-140 33.5t-63.5 99t-16.5 178.5v399h84zM187 914l73 35l85 -170l-52 -24z
" />
    <glyph glyph-name="uni1EEB" unicode="&#x1eeb;" 
d="M587 526q0 -29 -14 -46t-49 -17h-22v-463h-80v84h-4q-41 -96 -147 -96q-82 0 -130.5 52t-48.5 145v331h80v-317q0 -70 31 -105t91 -35q53 0 90.5 25.5t37.5 73.5v358h79q7 0 11 4t4 11v97h71v-102zM184 744l73 35l85 -170l-52 -24z" />
    <glyph glyph-name="uni1EEC" unicode="&#x1eec;" 
d="M164 698v-419q0 -81 7.5 -124.5t36.5 -68.5t92 -25t92 25t36.5 68.5t7.5 124.5v419h78q7 0 11 4t4 11v97h71v-102q0 -29 -14 -46t-49 -17h-17v-346q0 -113 -16.5 -178.5t-63.5 -99t-140 -33.5t-140 33.5t-63.5 99t-16.5 178.5v399h84zM216 935h109q36 0 53 -15.5
t17 -39.5q0 -41 -49 -103l-24 -30l-46 23l58 104h-118v61z" />
    <glyph glyph-name="uni1EED" unicode="&#x1eed;" 
d="M587 526q0 -29 -14 -46t-49 -17h-22v-463h-80v84h-4q-41 -96 -147 -96q-82 0 -130.5 52t-48.5 145v331h80v-317q0 -70 31 -105t91 -35q53 0 90.5 25.5t37.5 73.5v358h79q7 0 11 4t4 11v97h71v-102zM213 765h109q36 0 53 -15.5t17 -39.5q0 -41 -49 -103l-24 -30l-46 23
l58 104h-118v61z" />
    <glyph glyph-name="uni1EEE" unicode="&#x1eee;" 
d="M164 698v-419q0 -81 7.5 -124.5t36.5 -68.5t92 -25t92 25t36.5 68.5t7.5 124.5v419h78q7 0 11 4t4 11v97h71v-102q0 -29 -14 -46t-49 -17h-17v-346q0 -113 -16.5 -178.5t-63.5 -99t-140 -33.5t-140 33.5t-63.5 99t-16.5 178.5v399h84zM331 791q-14 5 -24.5 10t-13.5 7
q-22 11 -33.5 15.5t-23.5 4.5q-27 0 -57 -27l-33 40q15 23 38 38t53 15q18 0 32 -5t24.5 -10t13.5 -7q22 -11 33.5 -15.5t23.5 -4.5q27 0 57 27l33 -40q-15 -23 -38 -38t-53 -15q-18 0 -32 5z" />
    <glyph glyph-name="uni1EEF" unicode="&#x1eef;" 
d="M587 526q0 -29 -14 -46t-49 -17h-22v-463h-80v84h-4q-41 -96 -147 -96q-82 0 -130.5 52t-48.5 145v331h80v-317q0 -70 31 -105t91 -35q53 0 90.5 25.5t37.5 73.5v358h79q7 0 11 4t4 11v97h71v-102zM328 621q-14 5 -24.5 10t-13.5 7q-22 11 -33.5 15.5t-23.5 4.5
q-27 0 -57 -27l-33 40q15 23 38 38t53 15q18 0 32 -5t24.5 -10t13.5 -7q22 -11 33.5 -15.5t23.5 -4.5q27 0 57 27l33 -40q-15 -23 -38 -38t-53 -15q-18 0 -32 5z" />
    <glyph glyph-name="uni1EF0" unicode="&#x1ef0;" 
d="M164 698v-419q0 -81 7.5 -124.5t36.5 -68.5t92 -25t92 25t36.5 68.5t7.5 124.5v419h78q7 0 11 4t4 11v97h71v-102q0 -29 -14 -46t-49 -17h-17v-346q0 -113 -16.5 -178.5t-63.5 -99t-140 -33.5t-140 33.5t-63.5 99t-16.5 178.5v399h84zM353 -67v-106h-106v106h106z" />
    <glyph glyph-name="uni1EF1" unicode="&#x1ef1;" 
d="M587 526q0 -29 -14 -46t-49 -17h-22v-463h-80v84h-4q-41 -96 -147 -96q-82 0 -130.5 52t-48.5 145v331h80v-317q0 -70 31 -105t91 -35q53 0 90.5 25.5t37.5 73.5v358h79q7 0 11 4t4 11v97h71v-102zM350 -67v-106h-106v106h106z" />
    <glyph glyph-name="Ygrave" unicode="&#x1ef2;" 
d="M258 0v274l-241 424h96l100 -182l85 -159h4l187 341h94l-241 -424v-274h-84zM187 914l73 35l85 -170l-52 -24z" />
    <glyph glyph-name="ygrave" unicode="&#x1ef3;" 
d="M467 516h80l-256 -629q-19 -47 -47.5 -67t-84.5 -20h-76v68h91q30 0 40 27l47 115l-208 506h82l87 -216l77 -196h4l77 196zM187 744l73 35l85 -170l-52 -24z" />
    <glyph glyph-name="uni1EF4" unicode="&#x1ef4;" 
d="M258 0v274l-241 424h96l100 -182l85 -159h4l187 341h94l-241 -424v-274h-84zM353 -67v-106h-106v106h106z" />
    <glyph glyph-name="uni1EF5" unicode="&#x1ef5;" 
d="M467 516h80l-256 -629q-19 -47 -47.5 -67t-84.5 -20h-76v68h91q30 0 40 27l47 115l-208 506h82l87 -216l77 -196h4l77 196zM513 -67v-106h-106v106h106z" />
    <glyph glyph-name="uni1EF6" unicode="&#x1ef6;" 
d="M258 0v274l-241 424h96l100 -182l85 -159h4l187 341h94l-241 -424v-274h-84zM216 935h109q36 0 53 -15.5t17 -39.5q0 -41 -49 -103l-24 -30l-46 23l58 104h-118v61z" />
    <glyph glyph-name="uni1EF7" unicode="&#x1ef7;" 
d="M467 516h80l-256 -629q-19 -47 -47.5 -67t-84.5 -20h-76v68h91q30 0 40 27l47 115l-208 506h82l87 -216l77 -196h4l77 196zM216 765h109q36 0 53 -15.5t17 -39.5q0 -41 -49 -103l-24 -30l-46 23l58 104h-118v61z" />
    <glyph glyph-name="uni1EF8" unicode="&#x1ef8;" 
d="M258 0v274l-241 424h96l100 -182l85 -159h4l187 341h94l-241 -424v-274h-84zM336 788q-16 6 -28 12t-15 8q-45 24 -70 24q-15 0 -28.5 -6.5t-29.5 -20.5l-33 40q15 23 39 38t56 15q21 0 37 -6t28 -12t15 -8q45 -24 70 -24q16 0 29 6.5t29 20.5l33 -40q-15 -23 -39 -38
t-56 -15q-21 0 -37 6z" />
    <glyph glyph-name="uni1EF9" unicode="&#x1ef9;" 
d="M467 516h80l-256 -629q-19 -47 -47.5 -67t-84.5 -20h-76v68h91q30 0 40 27l47 115l-208 506h82l87 -216l77 -196h4l77 196zM336 618q-16 6 -28 12t-15 8q-45 24 -70 24q-15 0 -28.5 -6.5t-29.5 -20.5l-33 40q15 23 39 38t56 15q21 0 37 -6t28 -12t15 -8q45 -24 70 -24
q16 0 29 6.5t29 20.5l33 -40q-15 -23 -39 -38t-56 -15q-21 0 -37 6z" />
    <glyph glyph-name="uni1F00" unicode="&#x1f00;" 
d="M554 0h-54q-40 0 -62.5 23t-22.5 61h-4q-46 -96 -151 -96q-64 0 -111.5 33t-73 94t-25.5 143t25.5 143t73 94t111.5 33q54 0 92.5 -24t58.5 -72h4v84h80v-446h59v-70zM377 88q38 28 38 77v192q0 42 -39 70.5t-94 28.5q-67 0 -106.5 -42t-39.5 -112v-88q0 -70 39.5 -112
t106.5 -42q57 0 95 28zM246 645q38 2 55 20t17 54h-64v28v53h57h56v-65q0 -58 -28 -91t-93 -40v41z" />
    <glyph glyph-name="uni1F01" unicode="&#x1f01;" 
d="M554 0h-54q-40 0 -62.5 23t-22.5 61h-4q-46 -96 -151 -96q-64 0 -111.5 33t-73 94t-25.5 143t25.5 143t73 94t111.5 33q54 0 92.5 -24t58.5 -72h4v84h80v-446h59v-70zM377 88q38 28 38 77v192q0 42 -39 70.5t-94 28.5q-67 0 -106.5 -42t-39.5 -112v-88q0 -70 39.5 -112
t106.5 -42q57 0 95 28zM214 668q-28 33 -28 91v65h56h57v-53v-28h-64q0 -36 17 -54t55 -20v-41q-65 7 -93 40z" />
    <glyph glyph-name="uni1F02" unicode="&#x1f02;" 
d="M554 0h-54q-40 0 -62.5 23t-22.5 61h-4q-46 -96 -151 -96q-64 0 -111.5 33t-73 94t-25.5 143t25.5 143t73 94t111.5 33q54 0 92.5 -24t58.5 -72h4v84h80v-446h59v-70zM377 88q38 28 38 77v192q0 42 -39 70.5t-94 28.5q-67 0 -106.5 -42t-39.5 -112v-88q0 -70 39.5 -112
t106.5 -42q57 0 95 28zM93 669q38 2 55 20t17 54h-64v28v53h57h56v-65q0 -58 -28 -91t-93 -40v41zM268 798l73 35l85 -170l-52 -24z" />
    <glyph glyph-name="uni1F03" unicode="&#x1f03;" 
d="M554 0h-54q-40 0 -62.5 23t-22.5 61h-4q-46 -96 -151 -96q-64 0 -111.5 33t-73 94t-25.5 143t25.5 143t73 94t111.5 33q54 0 92.5 -24t58.5 -72h4v84h80v-446h59v-70zM377 88q38 28 38 77v192q0 42 -39 70.5t-94 28.5q-67 0 -106.5 -42t-39.5 -112v-88q0 -70 39.5 -112
t106.5 -42q57 0 95 28zM120 668q-28 33 -28 91v65h56h57v-53v-28h-64q0 -36 17 -54t55 -20v-41q-65 7 -93 40zM264 806l73 35l85 -170l-52 -24z" />
    <glyph glyph-name="uni1F04" unicode="&#x1f04;" 
d="M554 0h-54q-40 0 -62.5 23t-22.5 61h-4q-46 -96 -151 -96q-64 0 -111.5 33t-73 94t-25.5 143t25.5 143t73 94t111.5 33q54 0 92.5 -24t58.5 -72h4v84h80v-446h59v-70zM377 88q38 28 38 77v192q0 42 -39 70.5t-94 28.5q-67 0 -106.5 -42t-39.5 -112v-88q0 -70 39.5 -112
t106.5 -42q57 0 95 28zM119 669q38 2 55 20t17 54h-64v28v53h57h56v-65q0 -58 -28 -91t-93 -40v41zM327 630l-52 24l85 170l73 -35z" />
    <glyph glyph-name="uni1F05" unicode="&#x1f05;" 
d="M554 0h-54q-40 0 -62.5 23t-22.5 61h-4q-46 -96 -151 -96q-64 0 -111.5 33t-73 94t-25.5 143t25.5 143t73 94t111.5 33q54 0 92.5 -24t58.5 -72h4v84h80v-446h59v-70zM377 88q38 28 38 77v192q0 42 -39 70.5t-94 28.5q-67 0 -106.5 -42t-39.5 -112v-88q0 -70 39.5 -112
t106.5 -42q57 0 95 28zM140 663q-28 33 -28 91v65h56h57v-53v-28h-64q0 -36 17 -54t55 -20v-41q-65 7 -93 40zM365 634l-52 24l85 170l73 -35z" />
    <glyph glyph-name="uni1F06" unicode="&#x1f06;" 
d="M554 0h-54q-40 0 -62.5 23t-22.5 61h-4q-46 -96 -151 -96q-64 0 -111.5 33t-73 94t-25.5 143t25.5 143t73 94t111.5 33q54 0 92.5 -24t58.5 -72h4v84h80v-446h59v-70zM377 88q38 28 38 77v192q0 42 -39 70.5t-94 28.5q-67 0 -106.5 -42t-39.5 -112v-88q0 -70 39.5 -112
t106.5 -42q57 0 95 28zM325 874q-16 6 -28 12t-15 8q-45 24 -70 24q-15 0 -28.5 -6.5t-29.5 -20.5l-33 40q15 23 39 38t56 15q21 0 37 -6t28 -12t15 -8q45 -24 70 -24q16 0 29 6.5t29 20.5l33 -40q-15 -23 -39 -38t-56 -15q-21 0 -37 6zM206 669q38 2 55 20t17 54h-64v28v53
h57h56v-65q0 -58 -28 -91t-93 -40v41z" />
    <glyph glyph-name="uni1F07" unicode="&#x1f07;" 
d="M554 0h-54q-40 0 -62.5 23t-22.5 61h-4q-46 -96 -151 -96q-64 0 -111.5 33t-73 94t-25.5 143t25.5 143t73 94t111.5 33q54 0 92.5 -24t58.5 -72h4v84h80v-446h59v-70zM377 88q38 28 38 77v192q0 42 -39 70.5t-94 28.5q-67 0 -106.5 -42t-39.5 -112v-88q0 -70 39.5 -112
t106.5 -42q57 0 95 28zM296 883q-16 6 -28 12t-15 8q-45 24 -70 24q-15 0 -28.5 -6.5t-29.5 -20.5l-33 40q15 23 39 38t56 15q21 0 37 -6t28 -12t15 -8q45 -24 70 -24q16 0 29 6.5t29 20.5l33 -40q-15 -23 -39 -38t-56 -15q-21 0 -37 6zM237 663q-28 33 -28 91v65h56h57v-53
v-28h-64q0 -36 17 -54t55 -20v-41q-65 7 -93 40z" />
    <glyph glyph-name="uni1F08" unicode="&#x1f08;" 
d="M481 0l-59 199h-245l-59 -199h-87l214 698h111l214 -698h-89zM304 609h-9l-98 -337h205zM42 645q38 2 55 20t17 54h-64v28v53h57h56v-65q0 -58 -28 -91t-93 -40v41z" />
    <glyph glyph-name="uni1F09" unicode="&#x1f09;" 
d="M481 0l-59 199h-245l-59 -199h-87l214 698h111l214 -698h-89zM304 609h-9l-98 -337h205zM69 639q-28 33 -28 91v65h56h57v-53v-28h-64q0 -36 17 -54t55 -20v-41q-65 7 -93 40z" />
    <glyph glyph-name="uni1F0A" unicode="&#x1f0a;" 
d="M481 0l-59 199h-245l-59 -199h-87l214 698h111l214 -698h-89zM304 609h-9l-98 -337h205zM-103 641q38 2 55 20t17 54h-64v28v53h57h56v-65q0 -58 -28 -91t-93 -40v41zM50 770l73 35l85 -170l-52 -24z" />
    <glyph glyph-name="uni1F0B" unicode="&#x1f0b;" 
d="M481 0l-59 199h-245l-59 -199h-87l214 698h111l214 -698h-89zM304 609h-9l-98 -337h205zM-191 646q-28 33 -28 91v65h56h57v-53v-28h-64q0 -36 17 -54t55 -20v-41q-65 7 -93 40zM-61 774l73 35l85 -170l-52 -24z" />
    <glyph glyph-name="uni1F0C" unicode="&#x1f0c;" 
d="M481 0l-59 199h-245l-59 -199h-87l214 698h111l214 -698h-89zM304 609h-9l-98 -337h205zM-71 631q38 2 55 20t17 54h-64v28v53h57h56v-65q0 -58 -28 -91t-93 -40v41zM129 599l-52 24l85 170l73 -35z" />
    <glyph glyph-name="uni1F0D" unicode="&#x1f0d;" 
d="M481 0l-59 199h-245l-59 -199h-87l214 698h111l214 -698h-89zM304 609h-9l-98 -337h205zM-70 639q-28 33 -28 91v65h56h57v-53v-28h-64q0 -36 17 -54t55 -20v-41q-65 7 -93 40zM117 602l-52 24l85 170l73 -35z" />
    <glyph glyph-name="uni1F0E" unicode="&#x1f0e;" 
d="M481 0l-59 199h-245l-59 -199h-87l214 698h111l214 -698h-89zM304 609h-9l-98 -337h205zM44 645q38 2 55 20t17 54h-64v28v53h57h56v-65q0 -58 -28 -91t-93 -40v41zM150 836q-16 6 -28 12t-15 8q-45 24 -70 24q-15 0 -28.5 -6.5t-29.5 -20.5l-33 40q15 23 39 38t56 15
q21 0 37 -6t28 -12t15 -8q45 -24 70 -24q16 0 29 6.5t29 20.5l33 -40q-15 -23 -39 -38t-56 -15q-21 0 -37 6z" />
    <glyph glyph-name="uni1F0F" unicode="&#x1f0f;" 
d="M481 0l-59 199h-245l-59 -199h-87l214 698h111l214 -698h-89zM304 609h-9l-98 -337h205zM161 859q-16 6 -28 12t-15 8q-45 24 -70 24q-15 0 -28.5 -6.5t-29.5 -20.5l-33 40q15 23 39 38t56 15q21 0 37 -6t28 -12t15 -8q45 -24 70 -24q16 0 29 6.5t29 20.5l33 -40
q-15 -23 -39 -38t-56 -15q-21 0 -37 6zM64 644q-28 33 -28 91v65h56h57v-53v-28h-64q0 -36 17 -54t55 -20v-41q-65 7 -93 40z" />
    <glyph glyph-name="uni1F10" unicode="&#x1f10;" 
d="M510 99q-63 -111 -224 -111q-101 0 -153.5 40t-52.5 109q0 105 127 128v4q-55 6 -85.5 34.5t-30.5 75.5q0 43 24.5 76.5t71 53t108.5 19.5q74 0 128 -27t82 -74l-58 -46q-20 36 -59 56t-94 20q-59 0 -88 -21t-29 -50v-12q0 -33 26.5 -53.5t71.5 -20.5h122v-67h-122
q-54 0 -81.5 -20.5t-27.5 -59.5v-12q0 -39 31.5 -60.5t93.5 -21.5q118 0 162 81zM-60 463q38 2 55 20t17 54h-64v28v53h57h56v-65q0 -58 -28 -91t-93 -40v41z" />
    <glyph glyph-name="uni1F11" unicode="&#x1f11;" 
d="M510 99q-63 -111 -224 -111q-101 0 -153.5 40t-52.5 109q0 105 127 128v4q-55 6 -85.5 34.5t-30.5 75.5q0 43 24.5 76.5t71 53t108.5 19.5q74 0 128 -27t82 -74l-58 -46q-20 36 -59 56t-94 20q-59 0 -88 -21t-29 -50v-12q0 -33 26.5 -53.5t71.5 -20.5h122v-67h-122
q-54 0 -81.5 -20.5t-27.5 -59.5v-12q0 -39 31.5 -60.5t93.5 -21.5q118 0 162 81zM237 654q-28 33 -28 91v65h56h57v-53v-28h-64q0 -36 17 -54t55 -20v-41q-65 7 -93 40z" />
    <glyph glyph-name="uni1F12" unicode="&#x1f12;" 
d="M510 99q-63 -111 -224 -111q-101 0 -153.5 40t-52.5 109q0 105 127 128v4q-55 6 -85.5 34.5t-30.5 75.5q0 43 24.5 76.5t71 53t108.5 19.5q74 0 128 -27t82 -74l-58 -46q-20 36 -59 56t-94 20q-59 0 -88 -21t-29 -50v-12q0 -33 26.5 -53.5t71.5 -20.5h122v-67h-122
q-54 0 -81.5 -20.5t-27.5 -59.5v-12q0 -39 31.5 -60.5t93.5 -21.5q118 0 162 81zM116 655q38 2 55 20t17 54h-64v28v53h57h56v-65q0 -58 -28 -91t-93 -40v41zM291 784l73 35l85 -170l-52 -24z" />
    <glyph glyph-name="uni1F13" unicode="&#x1f13;" 
d="M510 99q-63 -111 -224 -111q-101 0 -153.5 40t-52.5 109q0 105 127 128v4q-55 6 -85.5 34.5t-30.5 75.5q0 43 24.5 76.5t71 53t108.5 19.5q74 0 128 -27t82 -74l-58 -46q-20 36 -59 56t-94 20q-59 0 -88 -21t-29 -50v-12q0 -33 26.5 -53.5t71.5 -20.5h122v-67h-122
q-54 0 -81.5 -20.5t-27.5 -59.5v-12q0 -39 31.5 -60.5t93.5 -21.5q118 0 162 81zM143 654q-28 33 -28 91v65h56h57v-53v-28h-64q0 -36 17 -54t55 -20v-41q-65 7 -93 40zM287 792l73 35l85 -170l-52 -24z" />
    <glyph glyph-name="uni1F14" unicode="&#x1f14;" 
d="M510 99q-63 -111 -224 -111q-101 0 -153.5 40t-52.5 109q0 105 127 128v4q-55 6 -85.5 34.5t-30.5 75.5q0 43 24.5 76.5t71 53t108.5 19.5q74 0 128 -27t82 -74l-58 -46q-20 36 -59 56t-94 20q-59 0 -88 -21t-29 -50v-12q0 -33 26.5 -53.5t71.5 -20.5h122v-67h-122
q-54 0 -81.5 -20.5t-27.5 -59.5v-12q0 -39 31.5 -60.5t93.5 -21.5q118 0 162 81zM142 655q38 2 55 20t17 54h-64v28v53h57h56v-65q0 -58 -28 -91t-93 -40v41zM350 616l-52 24l85 170l73 -35z" />
    <glyph glyph-name="uni1F15" unicode="&#x1f15;" 
d="M510 99q-63 -111 -224 -111q-101 0 -153.5 40t-52.5 109q0 105 127 128v4q-55 6 -85.5 34.5t-30.5 75.5q0 43 24.5 76.5t71 53t108.5 19.5q74 0 128 -27t82 -74l-58 -46q-20 36 -59 56t-94 20q-59 0 -88 -21t-29 -50v-12q0 -33 26.5 -53.5t71.5 -20.5h122v-67h-122
q-54 0 -81.5 -20.5t-27.5 -59.5v-12q0 -39 31.5 -60.5t93.5 -21.5q118 0 162 81zM163 649q-28 33 -28 91v65h56h57v-53v-28h-64q0 -36 17 -54t55 -20v-41q-65 7 -93 40zM388 620l-52 24l85 170l73 -35z" />
    <glyph glyph-name="uni1F18" unicode="&#x1f18;" 
d="M90 0v698h430v-73h-346v-235h334v-73h-334v-244h346v-73h-430zM-73 645q38 2 55 20t17 54h-64v28v53h57h56v-65q0 -58 -28 -91t-93 -40v41z" />
    <glyph glyph-name="uni1F19" unicode="&#x1f19;" 
d="M90 0v698h430v-73h-346v-235h334v-73h-334v-244h346v-73h-430zM-46 639q-28 33 -28 91v65h56h57v-53v-28h-64q0 -36 17 -54t55 -20v-41q-65 7 -93 40z" />
    <glyph glyph-name="uni1F1A" unicode="&#x1f1a;" 
d="M-218 641q38 2 55 20t17 54h-64v28v53h57h56v-65q0 -58 -28 -91t-93 -40v41zM174 625v-235h334v-73h-334v-244h346v-73h-430v634l-49 -23l-106 159l73 35l82 -164v57h430v-73h-346z" />
    <glyph glyph-name="uni1F1B" unicode="&#x1f1b;" 
d="M90 0v698h430v-73h-346v-235h334v-73h-334v-244h346v-73h-430zM-306 646q-28 33 -28 91v65h56h57v-53v-28h-64q0 -36 17 -54t55 -20v-41q-65 7 -93 40zM-176 774l73 35l85 -170l-52 -24z" />
    <glyph glyph-name="uni1F1C" unicode="&#x1f1c;" 
d="M90 0v698h430v-73h-346v-235h334v-73h-334v-244h346v-73h-430zM-186 631q38 2 55 20t17 54h-64v28v53h57h56v-65q0 -58 -28 -91t-93 -40v41zM14 599l-52 24l85 170l73 -35z" />
    <glyph glyph-name="uni1F1D" unicode="&#x1f1d;" 
d="M90 0v698h430v-73h-346v-235h334v-73h-334v-244h346v-73h-430zM-185 639q-28 33 -28 91v65h56h57v-53v-28h-64q0 -36 17 -54t55 -20v-41q-65 7 -93 40zM2 602l-52 24l85 170l73 -35z" />
    <glyph glyph-name="uni1F20" unicode="&#x1f20;" 
d="M110 0v446h-59v70h54q40 0 62.5 -23t22.5 -61h4q41 96 146 96q80 0 126.5 -52t46.5 -145v-531h-80v517q0 69 -29.5 104t-87.5 35q-52 0 -89 -25.5t-37 -72.5v-358h-80zM250 653q38 2 55 20t17 54h-64v28v53h57h56v-65q0 -58 -28 -91t-93 -40v41z" />
    <glyph glyph-name="uni1F21" unicode="&#x1f21;" 
d="M110 0v446h-59v70h54q40 0 62.5 -23t22.5 -61h4q41 96 146 96q80 0 126.5 -52t46.5 -145v-531h-80v517q0 69 -29.5 104t-87.5 35q-52 0 -89 -25.5t-37 -72.5v-358h-80zM260 656q-28 33 -28 91v65h56h57v-53v-28h-64q0 -36 17 -54t55 -20v-41q-65 7 -93 40z" />
    <glyph glyph-name="uni1F22" unicode="&#x1f22;" 
d="M110 0v446h-59v70h54q40 0 62.5 -23t22.5 -61h4q41 96 146 96q80 0 126.5 -52t46.5 -145v-531h-80v517q0 69 -29.5 104t-87.5 35q-52 0 -89 -25.5t-37 -72.5v-358h-80zM139 657q38 2 55 20t17 54h-64v28v53h57h56v-65q0 -58 -28 -91t-93 -40v41zM314 786l73 35l85 -170
l-52 -24z" />
    <glyph glyph-name="uni1F23" unicode="&#x1f23;" 
d="M110 0v446h-59v70h54q40 0 62.5 -23t22.5 -61h4q41 96 146 96q80 0 126.5 -52t46.5 -145v-531h-80v517q0 69 -29.5 104t-87.5 35q-52 0 -89 -25.5t-37 -72.5v-358h-80zM166 656q-28 33 -28 91v65h56h57v-53v-28h-64q0 -36 17 -54t55 -20v-41q-65 7 -93 40zM310 794l73 35
l85 -170l-52 -24z" />
    <glyph glyph-name="uni1F24" unicode="&#x1f24;" 
d="M110 0v446h-59v70h54q40 0 62.5 -23t22.5 -61h4q41 96 146 96q80 0 126.5 -52t46.5 -145v-531h-80v517q0 69 -29.5 104t-87.5 35q-52 0 -89 -25.5t-37 -72.5v-358h-80zM165 657q38 2 55 20t17 54h-64v28v53h57h56v-65q0 -58 -28 -91t-93 -40v41zM373 618l-52 24l85 170
l73 -35z" />
    <glyph glyph-name="uni1F25" unicode="&#x1f25;" 
d="M110 0v446h-59v70h54q40 0 62.5 -23t22.5 -61h4q41 96 146 96q80 0 126.5 -52t46.5 -145v-531h-80v517q0 69 -29.5 104t-87.5 35q-52 0 -89 -25.5t-37 -72.5v-358h-80zM186 651q-28 33 -28 91v65h56h57v-53v-28h-64q0 -36 17 -54t55 -20v-41q-65 7 -93 40zM411 622
l-52 24l85 170l73 -35z" />
    <glyph glyph-name="uni1F26" unicode="&#x1f26;" 
d="M110 0v446h-59v70h54q40 0 62.5 -23t22.5 -61h4q41 96 146 96q80 0 126.5 -52t46.5 -145v-531h-80v517q0 69 -29.5 104t-87.5 35q-52 0 -89 -25.5t-37 -72.5v-358h-80zM371 862q-16 6 -28 12t-15 8q-45 24 -70 24q-15 0 -28.5 -6.5t-29.5 -20.5l-33 40q15 23 39 38t56 15
q21 0 37 -6t28 -12t15 -8q45 -24 70 -24q16 0 29 6.5t29 20.5l33 -40q-15 -23 -39 -38t-56 -15q-21 0 -37 6zM252 657q38 2 55 20t17 54h-64v28v53h57h56v-65q0 -58 -28 -91t-93 -40v41z" />
    <glyph glyph-name="uni1F27" unicode="&#x1f27;" 
d="M110 0v446h-59v70h54q40 0 62.5 -23t22.5 -61h4q41 96 146 96q80 0 126.5 -52t46.5 -145v-531h-80v517q0 69 -29.5 104t-87.5 35q-52 0 -89 -25.5t-37 -72.5v-358h-80zM342 871q-16 6 -28 12t-15 8q-45 24 -70 24q-15 0 -28.5 -6.5t-29.5 -20.5l-33 40q15 23 39 38t56 15
q21 0 37 -6t28 -12t15 -8q45 -24 70 -24q16 0 29 6.5t29 20.5l33 -40q-15 -23 -39 -38t-56 -15q-21 0 -37 6zM283 651q-28 33 -28 91v65h56h57v-53v-28h-64q0 -36 17 -54t55 -20v-41q-65 7 -93 40z" />
    <glyph glyph-name="uni1F28" unicode="&#x1f28;" 
d="M436 317h-272v-317h-84v698h84v-308h272v308h84v-698h-84v317zM-80 645q38 2 55 20t17 54h-64v28v53h57h56v-65q0 -58 -28 -91t-93 -40v41z" />
    <glyph glyph-name="uni1F29" unicode="&#x1f29;" 
d="M436 317h-272v-317h-84v698h84v-308h272v308h84v-698h-84v317zM-53 639q-28 33 -28 91v65h56h57v-53v-28h-64q0 -36 17 -54t55 -20v-41q-65 7 -93 40z" />
    <glyph glyph-name="uni1F2A" unicode="&#x1f2a;" 
d="M-225 641q38 2 55 20t17 54h-64v28v53h57h56v-65q0 -58 -28 -91t-93 -40v41zM520 698v-698h-84v317h-272v-317h-84v632l-46 -21l-106 159l73 35l79 -158v51h84v-308h272v308h84z" />
    </font>
</defs>
</svg>
